%TF.GenerationSoftware,KiCad,Pcbnew,9.0.3*%
%TF.CreationDate,2025-08-10T03:17:17-04:00*%
%TF.ProjectId,NanoPulse,4e616e6f-5075-46c7-9365-2e6b69636164,Rev 1*%
%TF.SameCoordinates,Original*%
%TF.FileFunction,Soldermask,Top*%
%TF.FilePolarity,Negative*%
%FSLAX46Y46*%
G04 Gerber Fmt 4.6, Leading zero omitted, Abs format (unit mm)*
G04 Created by KiCad (PCBNEW 9.0.3) date 2025-08-10 03:17:17*
%MOMM*%
%LPD*%
G01*
G04 APERTURE LIST*
G04 Aperture macros list*
%AMRoundRect*
0 Rectangle with rounded corners*
0 $1 Rounding radius*
0 $2 $3 $4 $5 $6 $7 $8 $9 X,Y pos of 4 corners*
0 Add a 4 corners polygon primitive as box body*
4,1,4,$2,$3,$4,$5,$6,$7,$8,$9,$2,$3,0*
0 Add four circle primitives for the rounded corners*
1,1,$1+$1,$2,$3*
1,1,$1+$1,$4,$5*
1,1,$1+$1,$6,$7*
1,1,$1+$1,$8,$9*
0 Add four rect primitives between the rounded corners*
20,1,$1+$1,$2,$3,$4,$5,0*
20,1,$1+$1,$4,$5,$6,$7,0*
20,1,$1+$1,$6,$7,$8,$9,0*
20,1,$1+$1,$8,$9,$2,$3,0*%
G04 Aperture macros list end*
%ADD10RoundRect,0.250000X-0.945000X0.420000X-0.945000X-0.420000X0.945000X-0.420000X0.945000X0.420000X0*%
%ADD11RoundRect,0.250000X0.945000X-0.420000X0.945000X0.420000X-0.945000X0.420000X-0.945000X-0.420000X0*%
%ADD12RoundRect,0.062500X-0.062500X0.117500X-0.062500X-0.117500X0.062500X-0.117500X0.062500X0.117500X0*%
%ADD13RoundRect,0.218750X0.218750X0.256250X-0.218750X0.256250X-0.218750X-0.256250X0.218750X-0.256250X0*%
%ADD14RoundRect,0.200000X0.200000X0.275000X-0.200000X0.275000X-0.200000X-0.275000X0.200000X-0.275000X0*%
%ADD15R,1.000000X1.000000*%
%ADD16RoundRect,0.225000X-0.250000X0.225000X-0.250000X-0.225000X0.250000X-0.225000X0.250000X0.225000X0*%
%ADD17C,4.000000*%
%ADD18RoundRect,0.200000X-0.200000X-0.275000X0.200000X-0.275000X0.200000X0.275000X-0.200000X0.275000X0*%
%ADD19RoundRect,0.225000X-0.225000X-0.250000X0.225000X-0.250000X0.225000X0.250000X-0.225000X0.250000X0*%
%ADD20RoundRect,0.237500X0.287500X0.237500X-0.287500X0.237500X-0.287500X-0.237500X0.287500X-0.237500X0*%
%ADD21R,1.500000X5.080000*%
%ADD22R,0.533400X1.460500*%
%ADD23RoundRect,0.237500X-0.287500X-0.237500X0.287500X-0.237500X0.287500X0.237500X-0.287500X0.237500X0*%
%ADD24RoundRect,0.250000X-0.475000X0.250000X-0.475000X-0.250000X0.475000X-0.250000X0.475000X0.250000X0*%
%ADD25RoundRect,0.200000X0.275000X-0.200000X0.275000X0.200000X-0.275000X0.200000X-0.275000X-0.200000X0*%
%ADD26RoundRect,0.225000X0.225000X0.250000X-0.225000X0.250000X-0.225000X-0.250000X0.225000X-0.250000X0*%
%ADD27RoundRect,0.250000X-0.325000X-0.650000X0.325000X-0.650000X0.325000X0.650000X-0.325000X0.650000X0*%
%ADD28RoundRect,0.100000X-0.225000X-0.100000X0.225000X-0.100000X0.225000X0.100000X-0.225000X0.100000X0*%
%ADD29R,0.600000X0.500000*%
%ADD30RoundRect,0.225000X0.250000X-0.225000X0.250000X0.225000X-0.250000X0.225000X-0.250000X-0.225000X0*%
%ADD31R,0.254000X0.711200*%
%ADD32R,0.711200X0.254000*%
%ADD33R,1.752600X1.752600*%
%ADD34RoundRect,0.250000X0.475000X-0.250000X0.475000X0.250000X-0.475000X0.250000X-0.475000X-0.250000X0*%
%ADD35RoundRect,0.200000X-0.275000X0.200000X-0.275000X-0.200000X0.275000X-0.200000X0.275000X0.200000X0*%
%ADD36RoundRect,0.250000X-0.250000X-0.475000X0.250000X-0.475000X0.250000X0.475000X-0.250000X0.475000X0*%
%ADD37R,0.711200X0.279400*%
%ADD38RoundRect,0.250000X-1.550000X0.650000X-1.550000X-0.650000X1.550000X-0.650000X1.550000X0.650000X0*%
%ADD39O,3.600000X1.800000*%
%ADD40RoundRect,0.150000X-0.587500X-0.150000X0.587500X-0.150000X0.587500X0.150000X-0.587500X0.150000X0*%
%ADD41R,1.000000X1.250000*%
%ADD42RoundRect,0.250000X-1.075000X0.400000X-1.075000X-0.400000X1.075000X-0.400000X1.075000X0.400000X0*%
%ADD43RoundRect,0.102000X0.775000X-0.300000X0.775000X0.300000X-0.775000X0.300000X-0.775000X-0.300000X0*%
%ADD44RoundRect,0.102000X0.900000X-0.600000X0.900000X0.600000X-0.900000X0.600000X-0.900000X-0.600000X0*%
%ADD45RoundRect,0.250000X-0.450000X0.262500X-0.450000X-0.262500X0.450000X-0.262500X0.450000X0.262500X0*%
%ADD46R,0.482600X1.257300*%
%ADD47RoundRect,0.150000X-0.150000X0.512500X-0.150000X-0.512500X0.150000X-0.512500X0.150000X0.512500X0*%
%ADD48R,1.350000X0.400000*%
%ADD49O,1.900000X1.200000*%
%ADD50R,1.900000X1.200000*%
%ADD51C,1.450000*%
%ADD52R,1.900000X1.500000*%
%ADD53RoundRect,0.075000X-0.725000X-0.075000X0.725000X-0.075000X0.725000X0.075000X-0.725000X0.075000X0*%
%ADD54RoundRect,0.075000X-0.075000X-0.725000X0.075000X-0.725000X0.075000X0.725000X-0.075000X0.725000X0*%
%ADD55RoundRect,0.250000X0.450000X-0.262500X0.450000X0.262500X-0.450000X0.262500X-0.450000X-0.262500X0*%
%ADD56RoundRect,0.100000X0.225000X0.100000X-0.225000X0.100000X-0.225000X-0.100000X0.225000X-0.100000X0*%
%ADD57RoundRect,0.237500X-0.237500X0.287500X-0.237500X-0.287500X0.237500X-0.287500X0.237500X0.287500X0*%
%ADD58C,0.406400*%
G04 APERTURE END LIST*
D10*
%TO.C,C11*%
X90170000Y-97425000D03*
X90170000Y-94345000D03*
%TD*%
D11*
%TO.C,C13*%
X97669546Y-80767710D03*
X97669546Y-83847710D03*
%TD*%
D12*
%TO.C,D1*%
X136525000Y-63920000D03*
X136525000Y-63080000D03*
%TD*%
D13*
%TO.C,D9*%
X117145000Y-117368238D03*
X115570000Y-117368238D03*
%TD*%
D14*
%TO.C,R49*%
X127000000Y-70485000D03*
X125350000Y-70485000D03*
%TD*%
D15*
%TO.C,TP17*%
X165735000Y-106680000D03*
%TD*%
D16*
%TO.C,C85*%
X157480000Y-105055000D03*
X157480000Y-106605000D03*
%TD*%
D14*
%TO.C,R66*%
X160845000Y-78740000D03*
X159195000Y-78740000D03*
%TD*%
D16*
%TO.C,C31*%
X147955000Y-107630000D03*
X147955000Y-109180000D03*
%TD*%
D17*
%TO.C,H3*%
X86360000Y-112395000D03*
%TD*%
D12*
%TO.C,D4*%
X160655000Y-64135000D03*
X160655000Y-63295000D03*
%TD*%
D18*
%TO.C,R58*%
X136780000Y-70485000D03*
X138430000Y-70485000D03*
%TD*%
D14*
%TO.C,R50*%
X109410000Y-72390000D03*
X107760000Y-72390000D03*
%TD*%
D19*
%TO.C,C5*%
X95004845Y-109906311D03*
X96554845Y-109906311D03*
%TD*%
D20*
%TO.C,FB13*%
X117475000Y-83820000D03*
X115725000Y-83820000D03*
%TD*%
D18*
%TO.C,R19*%
X108016576Y-117368238D03*
X109666576Y-117368238D03*
%TD*%
D21*
%TO.C,J3*%
X171450000Y-60960000D03*
X167200000Y-60960000D03*
X175700000Y-60960000D03*
%TD*%
D18*
%TO.C,R63*%
X169934999Y-71755000D03*
X171584999Y-71755000D03*
%TD*%
D22*
%TO.C,U4*%
X107219476Y-103186988D03*
X108489476Y-103186988D03*
X109759476Y-103186988D03*
X111029476Y-103186988D03*
X111029476Y-97738688D03*
X109759476Y-97738688D03*
X108489476Y-97738688D03*
X107219476Y-97738688D03*
%TD*%
D23*
%TO.C,FB1*%
X95645000Y-88900000D03*
X97395000Y-88900000D03*
%TD*%
D24*
%TO.C,C26*%
X146050000Y-107635000D03*
X146050000Y-109535000D03*
%TD*%
D25*
%TO.C,R52*%
X114935000Y-69600000D03*
X114935000Y-67950000D03*
%TD*%
D20*
%TO.C,FB15*%
X162059999Y-83184999D03*
X160309999Y-83184999D03*
%TD*%
D26*
%TO.C,C37*%
X116840000Y-105410000D03*
X115290000Y-105410000D03*
%TD*%
D27*
%TO.C,C2*%
X94649845Y-112446311D03*
X97599845Y-112446311D03*
%TD*%
D18*
%TO.C,R46*%
X105475000Y-76835000D03*
X107125000Y-76835000D03*
%TD*%
D28*
%TO.C,U19*%
X160020000Y-99620000D03*
X160020000Y-100270000D03*
X160020000Y-100920000D03*
X161920000Y-100920000D03*
X161920000Y-99620000D03*
%TD*%
D29*
%TO.C,U9*%
X122640000Y-100045000D03*
X123740000Y-100045000D03*
X123740000Y-99245000D03*
X122640000Y-99245000D03*
%TD*%
D24*
%TO.C,C71*%
X156979998Y-67310000D03*
X156979998Y-69210000D03*
%TD*%
D15*
%TO.C,TP19*%
X154940000Y-106680000D03*
%TD*%
D21*
%TO.C,J4*%
X152400000Y-60960000D03*
X148150000Y-60960000D03*
X156650000Y-60960000D03*
%TD*%
D15*
%TO.C,TP8*%
X127605176Y-89465317D03*
%TD*%
D30*
%TO.C,C73*%
X149860000Y-77610000D03*
X149860000Y-76060000D03*
%TD*%
D26*
%TO.C,C61*%
X111218156Y-75259827D03*
X109668156Y-75259827D03*
%TD*%
D18*
%TO.C,R72*%
X164085000Y-109145000D03*
X165735000Y-109145000D03*
%TD*%
D16*
%TO.C,C64*%
X127635000Y-81280000D03*
X127635000Y-82830000D03*
%TD*%
D31*
%TO.C,U13*%
X118340002Y-72771000D03*
X117840001Y-72771000D03*
X117340001Y-72771000D03*
X116840000Y-72771000D03*
D32*
X116193001Y-73417999D03*
X116193001Y-73918000D03*
X116193001Y-74418000D03*
X116193001Y-74918001D03*
D31*
X116840000Y-75565000D03*
X117340001Y-75565000D03*
X117840001Y-75565000D03*
X118340002Y-75565000D03*
D32*
X118987001Y-74918001D03*
X118987001Y-74418000D03*
X118987001Y-73918000D03*
X118987001Y-73417999D03*
D33*
X117590001Y-74168000D03*
%TD*%
D34*
%TO.C,C63*%
X122555000Y-69850000D03*
X122555000Y-67950000D03*
%TD*%
D18*
%TO.C,R60*%
X140969999Y-71755000D03*
X142619999Y-71755000D03*
%TD*%
D16*
%TO.C,C30*%
X134682537Y-107598058D03*
X134682537Y-109148058D03*
%TD*%
%TO.C,C35*%
X120650000Y-98375000D03*
X120650000Y-99925000D03*
%TD*%
D12*
%TO.C,D3*%
X180340000Y-64135000D03*
X180340000Y-63295000D03*
%TD*%
%TO.C,D2*%
X116840000Y-63705000D03*
X116840000Y-62865000D03*
%TD*%
D25*
%TO.C,R64*%
X159519999Y-68965000D03*
X159519999Y-67315000D03*
%TD*%
D35*
%TO.C,R65*%
X164984999Y-67315000D03*
X164984999Y-68965000D03*
%TD*%
D30*
%TO.C,C32*%
X149656332Y-91433327D03*
X149656332Y-89883327D03*
%TD*%
D36*
%TO.C,C27*%
X152720000Y-93345000D03*
X154620000Y-93345000D03*
%TD*%
D25*
%TO.C,R57*%
X152534999Y-66420000D03*
X152534999Y-64770000D03*
%TD*%
D15*
%TO.C,TP11*%
X146076418Y-84387514D03*
%TD*%
D21*
%TO.C,J2*%
X107950000Y-61312500D03*
X103700000Y-61312500D03*
X112200000Y-61312500D03*
%TD*%
D35*
%TO.C,R7*%
X181610000Y-62787500D03*
X181610000Y-64437500D03*
%TD*%
D15*
%TO.C,TP9*%
X150495000Y-102235000D03*
%TD*%
D30*
%TO.C,C33*%
X132715000Y-88900000D03*
X132715000Y-87350000D03*
%TD*%
D13*
%TO.C,D5*%
X101752500Y-117526311D03*
X100177500Y-117526311D03*
%TD*%
D37*
%TO.C,D13*%
X186093100Y-110067500D03*
X186093100Y-109592500D03*
X184746900Y-109592500D03*
X184746900Y-110067500D03*
%TD*%
D15*
%TO.C,TP7*%
X124430176Y-89465317D03*
%TD*%
D35*
%TO.C,R2*%
X118110000Y-62055000D03*
X118110000Y-63705000D03*
%TD*%
D14*
%TO.C,R67*%
X160845000Y-76835000D03*
X159195000Y-76835000D03*
%TD*%
D17*
%TO.C,H2*%
X86217183Y-61102817D03*
%TD*%
D14*
%TO.C,R61*%
X171584999Y-69850000D03*
X169934999Y-69850000D03*
%TD*%
D38*
%TO.C,J6*%
X91832500Y-81645000D03*
D39*
X91832500Y-85145000D03*
X91832500Y-88645000D03*
%TD*%
D18*
%TO.C,R6*%
X192215000Y-116205000D03*
X193865000Y-116205000D03*
%TD*%
%TO.C,R26*%
X120270000Y-104140000D03*
X121920000Y-104140000D03*
%TD*%
D40*
%TO.C,Q1*%
X155605000Y-88585000D03*
X155605000Y-90485000D03*
X157480000Y-89535000D03*
%TD*%
D41*
%TO.C,SW1*%
X116840000Y-94550000D03*
X116840000Y-102300000D03*
%TD*%
D15*
%TO.C,TP1*%
X92109845Y-117526311D03*
%TD*%
D42*
%TO.C,R71*%
X168910000Y-109220000D03*
X168910000Y-112320000D03*
%TD*%
D21*
%TO.C,J5*%
X177800000Y-116205000D03*
X182050000Y-116205000D03*
X173550000Y-116205000D03*
%TD*%
%TO.C,J1*%
X127000000Y-60960000D03*
X122750000Y-60960000D03*
X131250000Y-60960000D03*
%TD*%
D18*
%TO.C,R11*%
X92744845Y-106731311D03*
X94394845Y-106731311D03*
%TD*%
D35*
%TO.C,R23*%
X183515000Y-105005000D03*
X183515000Y-106655000D03*
%TD*%
D16*
%TO.C,C67*%
X119535000Y-83540000D03*
X119535000Y-85090000D03*
%TD*%
D19*
%TO.C,C36*%
X124905000Y-104140000D03*
X126455000Y-104140000D03*
%TD*%
D15*
%TO.C,TP4*%
X106045000Y-116840000D03*
%TD*%
D18*
%TO.C,R55*%
X120905000Y-78740000D03*
X122555000Y-78740000D03*
%TD*%
D14*
%TO.C,R62*%
X153994999Y-71755000D03*
X152344999Y-71755000D03*
%TD*%
D26*
%TO.C,C60*%
X127000000Y-68580000D03*
X125450000Y-68580000D03*
%TD*%
%TO.C,C40*%
X133452958Y-76695731D03*
X131902958Y-76695731D03*
%TD*%
D18*
%TO.C,R51*%
X125350000Y-72390000D03*
X127000000Y-72390000D03*
%TD*%
D15*
%TO.C,TP15*%
X152638719Y-77326806D03*
%TD*%
D14*
%TO.C,R5*%
X86995000Y-116205000D03*
X85345000Y-116205000D03*
%TD*%
D20*
%TO.C,FB12*%
X110095000Y-83820000D03*
X108345000Y-83820000D03*
%TD*%
D15*
%TO.C,TP18*%
X157754412Y-98943440D03*
%TD*%
%TO.C,TP10*%
X162560000Y-116205000D03*
%TD*%
D19*
%TO.C,C1*%
X95284845Y-114986311D03*
X96834845Y-114986311D03*
%TD*%
D18*
%TO.C,R59*%
X152344999Y-69850000D03*
X153994999Y-69850000D03*
%TD*%
D43*
%TO.C,J7*%
X190500000Y-88630000D03*
X190500000Y-87630000D03*
X190500000Y-86630000D03*
X190500000Y-85630000D03*
D44*
X194375000Y-89930000D03*
X194375000Y-84330000D03*
%TD*%
D45*
%TO.C,R36*%
X132080000Y-65405000D03*
X132080000Y-67230000D03*
%TD*%
D25*
%TO.C,R45*%
X107950000Y-66865000D03*
X107950000Y-65215000D03*
%TD*%
D16*
%TO.C,C66*%
X112155000Y-83540000D03*
X112155000Y-85090000D03*
%TD*%
D27*
%TO.C,C16*%
X107351576Y-110383238D03*
X110301576Y-110383238D03*
%TD*%
D16*
%TO.C,C51*%
X147320000Y-68935000D03*
X147320000Y-70485000D03*
%TD*%
D35*
%TO.C,R31*%
X189230000Y-100775000D03*
X189230000Y-102425000D03*
%TD*%
D26*
%TO.C,C34*%
X130175000Y-102235000D03*
X128625000Y-102235000D03*
%TD*%
D23*
%TO.C,FB7*%
X122315000Y-108585000D03*
X124065000Y-108585000D03*
%TD*%
D25*
%TO.C,R30*%
X160050000Y-91120000D03*
X160050000Y-89470000D03*
%TD*%
D18*
%TO.C,R3*%
X192025743Y-65211384D03*
X193675743Y-65211384D03*
%TD*%
D24*
%TO.C,C62*%
X112395000Y-67945000D03*
X112395000Y-69845000D03*
%TD*%
D19*
%TO.C,C59*%
X107810000Y-68580000D03*
X109360000Y-68580000D03*
%TD*%
D18*
%TO.C,R54*%
X120905000Y-76835000D03*
X122555000Y-76835000D03*
%TD*%
D26*
%TO.C,C69*%
X171584999Y-67945000D03*
X170034999Y-67945000D03*
%TD*%
D35*
%TO.C,R33*%
X130242150Y-73801973D03*
X130242150Y-75451973D03*
%TD*%
%TO.C,R8*%
X161925000Y-62675000D03*
X161925000Y-64325000D03*
%TD*%
D26*
%TO.C,C29*%
X128905000Y-95885000D03*
X127355000Y-95885000D03*
%TD*%
D16*
%TO.C,C76*%
X164119999Y-82904999D03*
X164119999Y-84454999D03*
%TD*%
D25*
%TO.C,R56*%
X171584999Y-66420000D03*
X171584999Y-64770000D03*
%TD*%
D19*
%TO.C,C68*%
X152394999Y-67945000D03*
X153944999Y-67945000D03*
%TD*%
D46*
%TO.C,U1*%
X95284845Y-102368861D03*
X96554845Y-102368861D03*
X97824845Y-102368861D03*
X99094845Y-102368861D03*
X99094845Y-97123761D03*
X97824845Y-97123761D03*
X96554845Y-97123761D03*
X95284845Y-97123761D03*
%TD*%
D35*
%TO.C,R32*%
X151795000Y-88580000D03*
X151795000Y-90230000D03*
%TD*%
D17*
%TO.C,H4*%
X193182817Y-112537817D03*
%TD*%
D25*
%TO.C,R29*%
X116840000Y-90550000D03*
X116840000Y-88900000D03*
%TD*%
D16*
%TO.C,C45*%
X132080000Y-68909827D03*
X132080000Y-70459827D03*
%TD*%
D14*
%TO.C,R4*%
X86995000Y-65405000D03*
X85345000Y-65405000D03*
%TD*%
D47*
%TO.C,U8*%
X187640000Y-96937500D03*
X186690000Y-96937500D03*
X185740000Y-96937500D03*
X185740000Y-99212500D03*
X186690000Y-99212500D03*
X187640000Y-99212500D03*
%TD*%
D26*
%TO.C,C38*%
X134620000Y-73660000D03*
X133070000Y-73660000D03*
%TD*%
D16*
%TO.C,C53*%
X176530000Y-68935000D03*
X176530000Y-70485000D03*
%TD*%
%TO.C,C25*%
X126365000Y-108585000D03*
X126365000Y-110135000D03*
%TD*%
D48*
%TO.C,J8*%
X191610000Y-99010000D03*
X191610000Y-98360000D03*
X191610000Y-97710000D03*
X191610000Y-97060000D03*
X191610000Y-96410000D03*
D49*
X194310000Y-101210000D03*
D50*
X194310000Y-100610000D03*
D51*
X191610000Y-100210000D03*
D52*
X194310000Y-98710000D03*
X194310000Y-96710000D03*
D51*
X191610000Y-95210000D03*
D50*
X194310000Y-94810000D03*
D49*
X194310000Y-94210000D03*
%TD*%
D26*
%TO.C,C28*%
X129371908Y-94202384D03*
X127821908Y-94202384D03*
%TD*%
D18*
%TO.C,R47*%
X107760000Y-70485000D03*
X109410000Y-70485000D03*
%TD*%
D53*
%TO.C,U7*%
X132430000Y-91845000D03*
X132430000Y-92345000D03*
X132430000Y-92845000D03*
X132430000Y-93345000D03*
X132430000Y-93845000D03*
X132430000Y-94345000D03*
X132430000Y-94845000D03*
X132430000Y-95345000D03*
X132430000Y-95845000D03*
X132430000Y-96345000D03*
X132430000Y-96845000D03*
X132430000Y-97345000D03*
X132430000Y-97845000D03*
X132430000Y-98345000D03*
X132430000Y-98845000D03*
X132430000Y-99345000D03*
X132430000Y-99845000D03*
X132430000Y-100345000D03*
X132430000Y-100845000D03*
X132430000Y-101345000D03*
X132430000Y-101845000D03*
X132430000Y-102345000D03*
X132430000Y-102845000D03*
X132430000Y-103345000D03*
X132430000Y-103845000D03*
D54*
X134105000Y-105520000D03*
X134605000Y-105520000D03*
X135105000Y-105520000D03*
X135605000Y-105520000D03*
X136105000Y-105520000D03*
X136605000Y-105520000D03*
X137105000Y-105520000D03*
X137605000Y-105520000D03*
X138105000Y-105520000D03*
X138605000Y-105520000D03*
X139105000Y-105520000D03*
X139605000Y-105520000D03*
X140105000Y-105520000D03*
X140605000Y-105520000D03*
X141105000Y-105520000D03*
X141605000Y-105520000D03*
X142105000Y-105520000D03*
X142605000Y-105520000D03*
X143105000Y-105520000D03*
X143605000Y-105520000D03*
X144105000Y-105520000D03*
X144605000Y-105520000D03*
X145105000Y-105520000D03*
X145605000Y-105520000D03*
X146105000Y-105520000D03*
D53*
X147780000Y-103845000D03*
X147780000Y-103345000D03*
X147780000Y-102845000D03*
X147780000Y-102345000D03*
X147780000Y-101845000D03*
X147780000Y-101345000D03*
X147780000Y-100845000D03*
X147780000Y-100345000D03*
X147780000Y-99845000D03*
X147780000Y-99345000D03*
X147780000Y-98845000D03*
X147780000Y-98345000D03*
X147780000Y-97845000D03*
X147780000Y-97345000D03*
X147780000Y-96845000D03*
X147780000Y-96345000D03*
X147780000Y-95845000D03*
X147780000Y-95345000D03*
X147780000Y-94845000D03*
X147780000Y-94345000D03*
X147780000Y-93845000D03*
X147780000Y-93345000D03*
X147780000Y-92845000D03*
X147780000Y-92345000D03*
X147780000Y-91845000D03*
D54*
X146105000Y-90170000D03*
X145605000Y-90170000D03*
X145105000Y-90170000D03*
X144605000Y-90170000D03*
X144105000Y-90170000D03*
X143605000Y-90170000D03*
X143105000Y-90170000D03*
X142605000Y-90170000D03*
X142105000Y-90170000D03*
X141605000Y-90170000D03*
X141105000Y-90170000D03*
X140605000Y-90170000D03*
X140105000Y-90170000D03*
X139605000Y-90170000D03*
X139105000Y-90170000D03*
X138605000Y-90170000D03*
X138105000Y-90170000D03*
X137605000Y-90170000D03*
X137105000Y-90170000D03*
X136605000Y-90170000D03*
X136105000Y-90170000D03*
X135605000Y-90170000D03*
X135105000Y-90170000D03*
X134605000Y-90170000D03*
X134105000Y-90170000D03*
%TD*%
D25*
%TO.C,R44*%
X127000000Y-66865000D03*
X127000000Y-65215000D03*
%TD*%
D18*
%TO.C,R12*%
X97189845Y-106731311D03*
X98839845Y-106731311D03*
%TD*%
D35*
%TO.C,R28*%
X189230000Y-105315000D03*
X189230000Y-106965000D03*
%TD*%
D19*
%TO.C,C10*%
X107836576Y-93345000D03*
X109386576Y-93345000D03*
%TD*%
D20*
%TO.C,FB14*%
X154679999Y-83185000D03*
X152929999Y-83185000D03*
%TD*%
D35*
%TO.C,R25*%
X187325000Y-105005000D03*
X187325000Y-106655000D03*
%TD*%
D16*
%TO.C,C74*%
X149860000Y-81280000D03*
X149860000Y-82830000D03*
%TD*%
%TO.C,C43*%
X102870000Y-68895000D03*
X102870000Y-70445000D03*
%TD*%
D19*
%TO.C,C84*%
X164675055Y-100033732D03*
X166225055Y-100033732D03*
%TD*%
D26*
%TO.C,C14*%
X110135000Y-106573238D03*
X108585000Y-106573238D03*
%TD*%
D35*
%TO.C,R27*%
X124460000Y-96330000D03*
X124460000Y-97980000D03*
%TD*%
D55*
%TO.C,R41*%
X147320000Y-67230000D03*
X147320000Y-65405000D03*
%TD*%
D16*
%TO.C,C75*%
X156739999Y-82905000D03*
X156739999Y-84455000D03*
%TD*%
D17*
%TO.C,H1*%
X193040000Y-61102817D03*
%TD*%
D34*
%TO.C,C72*%
X167139999Y-69215000D03*
X167139999Y-67315000D03*
%TD*%
D18*
%TO.C,R9*%
X95094845Y-117526311D03*
X96744845Y-117526311D03*
%TD*%
D19*
%TO.C,C17*%
X108116576Y-114193238D03*
X109666576Y-114193238D03*
%TD*%
D31*
%TO.C,U14*%
X162925001Y-72135999D03*
X162425000Y-72135999D03*
X161925000Y-72135999D03*
X161424999Y-72135999D03*
D32*
X160778000Y-72782998D03*
X160778000Y-73282999D03*
X160778000Y-73782999D03*
X160778000Y-74283000D03*
D31*
X161424999Y-74929999D03*
X161925000Y-74929999D03*
X162425000Y-74929999D03*
X162925001Y-74929999D03*
D32*
X163572000Y-74283000D03*
X163572000Y-73782999D03*
X163572000Y-73282999D03*
X163572000Y-72782998D03*
D33*
X162175000Y-73532999D03*
%TD*%
D56*
%TO.C,U20*%
X161925000Y-105350000D03*
X161925000Y-104700000D03*
X161925000Y-104050000D03*
X160025000Y-104050000D03*
X160025000Y-105350000D03*
%TD*%
D16*
%TO.C,C83*%
X156845000Y-110210000D03*
X156845000Y-111760000D03*
%TD*%
D18*
%TO.C,R48*%
X109665000Y-78105000D03*
X111315000Y-78105000D03*
%TD*%
D57*
%TO.C,FB3*%
X107481576Y-89295000D03*
X107481576Y-91045000D03*
%TD*%
D26*
%TO.C,C70*%
X142523155Y-68909827D03*
X140973155Y-68909827D03*
%TD*%
D35*
%TO.C,R53*%
X120400000Y-67950000D03*
X120400000Y-69600000D03*
%TD*%
%TO.C,R24*%
X185420000Y-105005000D03*
X185420000Y-106655000D03*
%TD*%
D56*
%TO.C,U18*%
X161920000Y-109780000D03*
X161920000Y-109130000D03*
X161920000Y-108480000D03*
X160020000Y-108480000D03*
X160020000Y-109130000D03*
X160020000Y-109780000D03*
%TD*%
D58*
%TO.C,U10*%
X136900000Y-81540000D03*
X136900000Y-80740000D03*
X136900000Y-79940000D03*
X136900000Y-79140000D03*
X136900000Y-78340000D03*
X136900000Y-77540000D03*
X136900000Y-76740000D03*
X136900000Y-75940000D03*
X137700000Y-81540000D03*
X137700000Y-80740000D03*
X137700000Y-79940000D03*
X137700000Y-79140000D03*
X137700000Y-78340000D03*
X137700000Y-77540000D03*
X137700000Y-76740000D03*
X137700000Y-75940000D03*
X138500000Y-81540000D03*
X138500000Y-80740000D03*
X138500000Y-79940000D03*
X138500000Y-79140000D03*
X138500000Y-78340000D03*
X138500000Y-77540000D03*
X138500000Y-76740000D03*
X138500000Y-75940000D03*
X139300000Y-81540000D03*
X139300000Y-80740000D03*
X139300000Y-79940000D03*
X139300000Y-79140000D03*
X139300000Y-78340000D03*
X139300000Y-77540000D03*
X139300000Y-76740000D03*
X139300000Y-75940000D03*
X140100000Y-81540000D03*
X140100000Y-80740000D03*
X140100000Y-79940000D03*
X140100000Y-79140000D03*
X140100000Y-78340000D03*
X140100000Y-77540000D03*
X140100000Y-76740000D03*
X140100000Y-75940000D03*
X140900000Y-81540000D03*
X140900000Y-80740000D03*
X140900000Y-79940000D03*
X140900000Y-79140000D03*
X140900000Y-78340000D03*
X140900000Y-77540000D03*
X140900000Y-76740000D03*
X140900000Y-75940000D03*
X141700000Y-81540000D03*
X141700000Y-80740000D03*
X141700000Y-79940000D03*
X141700000Y-79140000D03*
X141700000Y-78340000D03*
X141700000Y-77540000D03*
X141700000Y-76740000D03*
X141700000Y-75940000D03*
X142500000Y-81540000D03*
X142500000Y-80740000D03*
X142500000Y-79940000D03*
X142500000Y-79140000D03*
X142500000Y-78340000D03*
X142500000Y-77540000D03*
X142500000Y-76740000D03*
X142500000Y-75940000D03*
%TD*%
D45*
%TO.C,R40*%
X176530000Y-65405000D03*
X176530000Y-67230000D03*
%TD*%
D35*
%TO.C,R1*%
X137975000Y-62825000D03*
X137975000Y-64475000D03*
%TD*%
D55*
%TO.C,R37*%
X102870000Y-67230000D03*
X102870000Y-65405000D03*
%TD*%
D30*
%TO.C,C65*%
X127635000Y-77610000D03*
X127635000Y-76060000D03*
%TD*%
%TO.C,C39*%
X147320000Y-77470000D03*
X147320000Y-75920000D03*
%TD*%
D19*
%TO.C,C7*%
X95745000Y-92075000D03*
X97295000Y-92075000D03*
%TD*%
M02*
