%TF.GenerationSoftware,KiCad,Pcbnew,9.0.3*%
%TF.CreationDate,2025-08-10T03:17:17-04:00*%
%TF.ProjectId,NanoPulse,4e616e6f-5075-46c7-9365-2e6b69636164,Rev 1*%
%TF.SameCoordinates,Original*%
%TF.FileFunction,Copper,L2,Inr*%
%TF.FilePolarity,Positive*%
%FSLAX46Y46*%
G04 Gerber Fmt 4.6, Leading zero omitted, Abs format (unit mm)*
G04 Created by KiCad (PCBNEW 9.0.3) date 2025-08-10 03:17:17*
%MOMM*%
%LPD*%
G01*
G04 APERTURE LIST*
G04 Aperture macros list*
%AMRoundRect*
0 Rectangle with rounded corners*
0 $1 Rounding radius*
0 $2 $3 $4 $5 $6 $7 $8 $9 X,Y pos of 4 corners*
0 Add a 4 corners polygon primitive as box body*
4,1,4,$2,$3,$4,$5,$6,$7,$8,$9,$2,$3,0*
0 Add four circle primitives for the rounded corners*
1,1,$1+$1,$2,$3*
1,1,$1+$1,$4,$5*
1,1,$1+$1,$6,$7*
1,1,$1+$1,$8,$9*
0 Add four rect primitives between the rounded corners*
20,1,$1+$1,$2,$3,$4,$5,0*
20,1,$1+$1,$4,$5,$6,$7,0*
20,1,$1+$1,$6,$7,$8,$9,0*
20,1,$1+$1,$8,$9,$2,$3,0*%
G04 Aperture macros list end*
%TA.AperFunction,ComponentPad*%
%ADD10RoundRect,0.250000X-1.550000X0.650000X-1.550000X-0.650000X1.550000X-0.650000X1.550000X0.650000X0*%
%TD*%
%TA.AperFunction,ComponentPad*%
%ADD11O,3.600000X1.800000*%
%TD*%
%TA.AperFunction,HeatsinkPad*%
%ADD12O,1.900000X1.200000*%
%TD*%
%TA.AperFunction,HeatsinkPad*%
%ADD13C,1.450000*%
%TD*%
%TA.AperFunction,ViaPad*%
%ADD14C,0.500000*%
%TD*%
%TA.AperFunction,Conductor*%
%ADD15C,0.200000*%
%TD*%
G04 APERTURE END LIST*
D10*
%TO.N,GND*%
%TO.C,J6*%
X91832500Y-81645000D03*
D11*
%TO.N,+6V*%
X91832500Y-85145000D03*
%TO.N,-6V*%
X91832500Y-88645000D03*
%TD*%
D12*
%TO.N,GND*%
%TO.C,J8*%
X194310000Y-101210000D03*
D13*
X191610000Y-100210000D03*
X191610000Y-95210000D03*
D12*
X194310000Y-94210000D03*
%TD*%
D14*
%TO.N,GND*%
X102682655Y-116205000D03*
X188595000Y-84455000D03*
%TO.N,+3.3V*%
X163195000Y-100330000D03*
X165735000Y-102870000D03*
%TO.N,GND*%
X168910000Y-99695000D03*
X158115000Y-90805000D03*
%TO.N,+3.3V*%
X162560000Y-92075000D03*
X164465000Y-92075000D03*
%TO.N,{slash}RESET*%
X135255000Y-76740000D03*
%TO.N,Trig_Detect*%
X167640000Y-99060000D03*
X167640000Y-106045000D03*
%TO.N,BUSY_MCU*%
X151765000Y-103505000D03*
%TO.N,Trig_Detect*%
X144145000Y-97790000D03*
X149860000Y-99695000D03*
%TO.N,CNV_3.3*%
X157624627Y-101601001D03*
%TO.N,Manual_Trigger*%
X155575000Y-104140000D03*
X153035000Y-100965000D03*
%TO.N,/ADC Driver Stage - Final Buffer CH B/Filtered_IN-*%
X162560000Y-78105000D03*
X151130000Y-78105000D03*
X172720000Y-76200000D03*
%TO.N,/ADC Driver Stage - Final Buffer CH A/Filtered_IN-*%
X109855000Y-80010000D03*
%TO.N,MOSI_MCU*%
X146050000Y-99060000D03*
%TO.N,{slash}CS_MCU*%
X146050000Y-100330000D03*
%TO.N,GND*%
X153040001Y-98419999D03*
%TO.N,+1.8V*%
X151646612Y-95885000D03*
%TO.N,BUSY_MCU*%
X165100000Y-91440000D03*
X162560000Y-90805000D03*
%TO.N,MISO0_MCU*%
X140970000Y-95250000D03*
%TO.N,GND*%
X138430000Y-83185000D03*
%TO.N,Net-(U10B-REFIN)*%
X135255000Y-80010000D03*
%TO.N,+5V*%
X135255000Y-86995000D03*
X142875000Y-99695000D03*
%TO.N,REF_5V*%
X139700000Y-72390000D03*
X106045000Y-81280000D03*
X112395000Y-81915000D03*
%TO.N,-5.4V*%
X167640000Y-88900000D03*
X117475000Y-82550000D03*
X130175000Y-79375000D03*
X154305000Y-78105000D03*
X117475000Y-86360000D03*
X160020000Y-85725000D03*
%TO.N,+1.8V*%
X139065000Y-88265000D03*
X148590000Y-78105000D03*
X135255000Y-71755000D03*
X128905000Y-74295000D03*
X106045000Y-113665000D03*
X158750000Y-93980000D03*
X158750000Y-92710000D03*
%TO.N,+6V*%
X104775000Y-85725000D03*
X156210000Y-101600000D03*
X101600000Y-87630000D03*
X120015000Y-107315000D03*
X100330000Y-86360000D03*
%TO.N,GND*%
X87630000Y-98425000D03*
X99060000Y-91440000D03*
%TO.N,-6V*%
X144780000Y-112395000D03*
X86995000Y-95250000D03*
%TO.N,+3.3V*%
X138430000Y-95250000D03*
X154940000Y-110490000D03*
X156845000Y-103505000D03*
X151130000Y-93345000D03*
X147955000Y-106045000D03*
X131445000Y-90170000D03*
X137160000Y-107315000D03*
X131445000Y-104775000D03*
X118110000Y-104775000D03*
X119380000Y-105410000D03*
X120650000Y-109220000D03*
X128270000Y-96994000D03*
X130175000Y-92710000D03*
X129540000Y-99695000D03*
%TO.N,+5.4V*%
X177800000Y-85090000D03*
X151130000Y-83820000D03*
X93345000Y-115570000D03*
X102870000Y-75565000D03*
X106680000Y-83820000D03*
%TO.N,GND*%
X148590000Y-75565000D03*
X96520000Y-95250000D03*
X146050000Y-93345000D03*
X120332500Y-61277500D03*
X97790000Y-95250000D03*
X189897500Y-95805000D03*
X110532519Y-69560945D03*
X158750000Y-101600000D03*
X151765000Y-81280000D03*
X127000000Y-105410000D03*
X176530000Y-98425000D03*
X146050000Y-75565000D03*
X136525000Y-65405000D03*
X154940000Y-69850000D03*
X133985000Y-100965000D03*
X158115000Y-85090000D03*
X146050000Y-94615000D03*
X168910000Y-67310000D03*
X144780000Y-88265000D03*
X125730000Y-83185000D03*
X130175000Y-106680000D03*
X177310701Y-106680000D03*
X124460000Y-67310000D03*
X149225000Y-104775000D03*
X144145000Y-109855000D03*
X158750000Y-117475000D03*
X140335000Y-93980000D03*
X176530000Y-78105000D03*
X137795000Y-66040000D03*
X109855000Y-104775000D03*
X107315000Y-80010000D03*
X190500000Y-108585000D03*
X161925000Y-65405000D03*
X118110000Y-65405000D03*
X154940000Y-79375000D03*
X113665000Y-105410000D03*
X186055000Y-111355000D03*
X154940000Y-112395000D03*
X98425000Y-105410000D03*
X161925000Y-98425000D03*
X139700000Y-116840000D03*
X168910000Y-69215000D03*
X126365000Y-83185000D03*
X131445000Y-83185000D03*
X171450000Y-112395000D03*
X153035000Y-88900000D03*
X186690000Y-95202500D03*
X117663424Y-116205000D03*
X144145000Y-70485000D03*
X111125000Y-108585000D03*
X118745000Y-102870000D03*
X181610000Y-65405000D03*
X176530000Y-71755000D03*
X158750000Y-61595000D03*
X141605000Y-100965000D03*
X163114885Y-104148008D03*
X144145000Y-73660000D03*
X159385000Y-106680000D03*
X127635000Y-104775000D03*
X147320000Y-71755000D03*
X125095000Y-93345000D03*
X125730000Y-95250000D03*
X149860000Y-107950000D03*
X108585000Y-95885000D03*
X186690000Y-103505000D03*
X132080000Y-71755000D03*
X133985000Y-88557479D03*
X120899570Y-101369241D03*
X162560000Y-106680000D03*
X113030000Y-101600000D03*
X136525000Y-88265000D03*
X194310000Y-102870000D03*
X88710000Y-65405000D03*
X123190000Y-85725000D03*
X101600000Y-60960000D03*
X128905000Y-110490000D03*
X189865000Y-109220000D03*
X121285000Y-85725000D03*
X110490000Y-67310000D03*
X165100000Y-61595000D03*
X111125000Y-79375000D03*
X134620000Y-104140000D03*
X161925000Y-118110000D03*
X180340000Y-65405000D03*
X113665000Y-85725000D03*
X157480000Y-107950000D03*
X171450000Y-116840000D03*
X113030000Y-74930000D03*
X125730000Y-77470000D03*
X137160000Y-112395000D03*
X101600000Y-110490000D03*
X110490000Y-112395000D03*
X158115000Y-73025000D03*
X163195000Y-106045000D03*
X135890000Y-107950000D03*
X190500000Y-65405000D03*
X103505000Y-99695000D03*
X158750000Y-106045000D03*
X114617500Y-60642500D03*
X145732500Y-61277500D03*
X191135000Y-116205000D03*
X180975000Y-99060000D03*
X160655000Y-65405000D03*
X88265000Y-116205000D03*
X125095000Y-111125000D03*
X130810000Y-95885000D03*
X97155000Y-105410000D03*
X133032500Y-61277500D03*
X125730000Y-66675000D03*
X158115000Y-92075000D03*
X185420000Y-100965000D03*
X177800000Y-61595000D03*
X133985000Y-86995000D03*
X165735000Y-85090000D03*
X109855000Y-92075000D03*
X128905000Y-92710000D03*
X102235000Y-71755000D03*
X125095000Y-100965000D03*
X161290000Y-113030000D03*
X143510000Y-67310000D03*
X103505000Y-98425000D03*
X144780000Y-103505000D03*
X162560000Y-89535000D03*
X132046353Y-77816074D03*
X116840000Y-64770000D03*
X135255000Y-85725000D03*
X116840000Y-87630000D03*
X192437500Y-102790000D03*
X165100000Y-72390000D03*
X169545000Y-86360000D03*
X184150000Y-116840000D03*
X160020000Y-98425000D03*
X154940000Y-67945000D03*
X173990000Y-85090000D03*
X106045000Y-71120000D03*
X147955000Y-87630000D03*
X124074570Y-101369241D03*
X135255000Y-110490000D03*
X149225000Y-88900000D03*
X164465000Y-111760000D03*
X113030000Y-100330000D03*
X170180000Y-103505000D03*
X133350000Y-72390000D03*
X128905000Y-75565000D03*
X147320000Y-88900000D03*
X141605000Y-103505000D03*
X170815000Y-98425000D03*
X151765000Y-113030000D03*
X136525000Y-94615000D03*
X100965000Y-115570000D03*
X128270000Y-103505000D03*
X110490000Y-71120000D03*
X180975000Y-106680000D03*
X102235000Y-95250000D03*
%TO.N,+3.3V*%
X122555000Y-97790000D03*
%TO.N,REF_5V*%
X133985000Y-79375000D03*
%TO.N,+5V*%
X135255000Y-78740000D03*
%TO.N,Net-(U11B-+IN2)*%
X100965000Y-68580000D03*
%TO.N,Net-(U11A-+IN1)*%
X130810000Y-69215000D03*
%TO.N,/ADC Driver Stage - Final Buffer CH A/Filtered_IN+*%
X130175000Y-78105000D03*
%TO.N,Net-(U12B-+IN2)*%
X145415000Y-69850000D03*
%TO.N,Net-(U12A-+IN1)*%
X178435000Y-68580000D03*
%TO.N,/ADC Driver Stage - Final Buffer CH B/Filtered_IN+*%
X154305000Y-81280000D03*
%TO.N,Net-(U13B-+VCLAMP)*%
X120015000Y-75565000D03*
X113905000Y-83185000D03*
X114935000Y-74295000D03*
%TO.N,Net-(U13B--VCLAMP)*%
X120650000Y-74295000D03*
X123190000Y-82550000D03*
%TO.N,Net-(U14A-VOCM)*%
X158750000Y-74930000D03*
X141605000Y-73025000D03*
%TO.N,Net-(U14B-+VCLAMP)*%
X164599999Y-74930000D03*
X158489999Y-82550000D03*
X159519999Y-73660000D03*
%TO.N,Net-(U14B--VCLAMP)*%
X165869999Y-82550000D03*
X165234999Y-73660000D03*
%TO.N,{slash}RESET_MCU*%
X161925000Y-88900000D03*
%TO.N,/MCU-FPGA/BOOT*%
X135890000Y-92075000D03*
X118745000Y-90805000D03*
%TO.N,REF*%
X139700000Y-84455000D03*
%TO.N,SCK*%
X144145000Y-76835000D03*
X147955000Y-80645000D03*
%TO.N,MOSI*%
X144145000Y-77540000D03*
%TO.N,{slash}CS*%
X144780000Y-78740000D03*
%TO.N,BUSY*%
X140970000Y-74295000D03*
%TO.N,CNV*%
X157480000Y-88265000D03*
X156210000Y-89535000D03*
X134612151Y-76836174D03*
%TO.N,MISO0*%
X139700000Y-74295000D03*
%TO.N,SCK_MCU*%
X135255000Y-103505000D03*
%TD*%
D15*
%TO.N,Manual_Trigger*%
X155575000Y-103505000D02*
X155575000Y-104140000D01*
X153035000Y-100965000D02*
X155575000Y-103505000D01*
%TO.N,+1.8V*%
X158750000Y-93980000D02*
X158750000Y-92710000D01*
%TD*%
%TA.AperFunction,Conductor*%
%TO.N,GND*%
G36*
X195657539Y-58305185D02*
G01*
X195703294Y-58357989D01*
X195714500Y-58409500D01*
X195714500Y-93409561D01*
X195694815Y-93476600D01*
X195642011Y-93522355D01*
X195572853Y-93532299D01*
X195509297Y-93503274D01*
X195502694Y-93496626D01*
X195502478Y-93496843D01*
X195376602Y-93370967D01*
X195236524Y-93269195D01*
X195082257Y-93190591D01*
X194917584Y-93137085D01*
X194746571Y-93110000D01*
X194560000Y-93110000D01*
X194560000Y-93910000D01*
X194060000Y-93910000D01*
X194060000Y-93110000D01*
X193873429Y-93110000D01*
X193702415Y-93137085D01*
X193537742Y-93190591D01*
X193383475Y-93269195D01*
X193243397Y-93370967D01*
X193120967Y-93493397D01*
X193019195Y-93633475D01*
X192940591Y-93787744D01*
X192887085Y-93952415D01*
X192885884Y-93959999D01*
X192885885Y-93960000D01*
X193793012Y-93960000D01*
X193775795Y-93969940D01*
X193719940Y-94025795D01*
X193680444Y-94094204D01*
X193660000Y-94170504D01*
X193660000Y-94249496D01*
X193680444Y-94325796D01*
X193719940Y-94394205D01*
X193775795Y-94450060D01*
X193793012Y-94460000D01*
X192885885Y-94460000D01*
X192887085Y-94467584D01*
X192893937Y-94488670D01*
X192895932Y-94558511D01*
X192859852Y-94618344D01*
X192797151Y-94649172D01*
X192727737Y-94641207D01*
X192673648Y-94596979D01*
X192665522Y-94583284D01*
X192657714Y-94567960D01*
X192635781Y-94537771D01*
X192635780Y-94537771D01*
X192031725Y-95141826D01*
X192006037Y-95045956D01*
X191950084Y-94949044D01*
X191870956Y-94869916D01*
X191774044Y-94813963D01*
X191678172Y-94788274D01*
X192282227Y-94184218D01*
X192282227Y-94184217D01*
X192252043Y-94162288D01*
X192144614Y-94107550D01*
X192080237Y-94074747D01*
X192080234Y-94074746D01*
X191896856Y-94015164D01*
X191706409Y-93985000D01*
X191513591Y-93985000D01*
X191323143Y-94015164D01*
X191139765Y-94074746D01*
X191139762Y-94074747D01*
X190967955Y-94162288D01*
X190967950Y-94162292D01*
X190937771Y-94184216D01*
X190937771Y-94184219D01*
X191541828Y-94788274D01*
X191445956Y-94813963D01*
X191349044Y-94869916D01*
X191269916Y-94949044D01*
X191213963Y-95045956D01*
X191188274Y-95141827D01*
X190584219Y-94537771D01*
X190584216Y-94537771D01*
X190562292Y-94567950D01*
X190562288Y-94567955D01*
X190474747Y-94739762D01*
X190474746Y-94739765D01*
X190415164Y-94923143D01*
X190385000Y-95113590D01*
X190385000Y-95306409D01*
X190415164Y-95496856D01*
X190474746Y-95680234D01*
X190474747Y-95680237D01*
X190562288Y-95852043D01*
X190584217Y-95882227D01*
X190584218Y-95882227D01*
X191188274Y-95278171D01*
X191213963Y-95374044D01*
X191269916Y-95470956D01*
X191349044Y-95550084D01*
X191445956Y-95606037D01*
X191541827Y-95631725D01*
X190937771Y-96235780D01*
X190937771Y-96235781D01*
X190967957Y-96257712D01*
X191139762Y-96345252D01*
X191139765Y-96345253D01*
X191323143Y-96404835D01*
X191513591Y-96435000D01*
X191706409Y-96435000D01*
X191896856Y-96404835D01*
X192080234Y-96345253D01*
X192080237Y-96345252D01*
X192252040Y-96257713D01*
X192282227Y-96235780D01*
X192282228Y-96235780D01*
X191678173Y-95631725D01*
X191774044Y-95606037D01*
X191870956Y-95550084D01*
X191950084Y-95470956D01*
X192006037Y-95374044D01*
X192031725Y-95278173D01*
X192635780Y-95882228D01*
X192635780Y-95882227D01*
X192657713Y-95852040D01*
X192745252Y-95680237D01*
X192745253Y-95680234D01*
X192804835Y-95496856D01*
X192835000Y-95306409D01*
X192835000Y-95113590D01*
X192804836Y-94923146D01*
X192791904Y-94883345D01*
X192789909Y-94813503D01*
X192825989Y-94753670D01*
X192888690Y-94722842D01*
X192958104Y-94730806D01*
X193012193Y-94775035D01*
X193016574Y-94782419D01*
X193016651Y-94782373D01*
X193019189Y-94786516D01*
X193120967Y-94926602D01*
X193243397Y-95049032D01*
X193383475Y-95150804D01*
X193537742Y-95229408D01*
X193702415Y-95282914D01*
X193873429Y-95310000D01*
X194060000Y-95310000D01*
X194060000Y-94510000D01*
X194560000Y-94510000D01*
X194560000Y-95310000D01*
X194746571Y-95310000D01*
X194917584Y-95282914D01*
X195082257Y-95229408D01*
X195236524Y-95150804D01*
X195376602Y-95049032D01*
X195502478Y-94923157D01*
X195504102Y-94924781D01*
X195554608Y-94891746D01*
X195624475Y-94891183D01*
X195683556Y-94928483D01*
X195713092Y-94991803D01*
X195714500Y-95010438D01*
X195714500Y-100409561D01*
X195694815Y-100476600D01*
X195642011Y-100522355D01*
X195572853Y-100532299D01*
X195509297Y-100503274D01*
X195502694Y-100496626D01*
X195502478Y-100496843D01*
X195376602Y-100370967D01*
X195236524Y-100269195D01*
X195082257Y-100190591D01*
X194917584Y-100137085D01*
X194746571Y-100110000D01*
X194560000Y-100110000D01*
X194560000Y-100910000D01*
X194060000Y-100910000D01*
X194060000Y-100110000D01*
X193873429Y-100110000D01*
X193702415Y-100137085D01*
X193537742Y-100190591D01*
X193383475Y-100269195D01*
X193243397Y-100370967D01*
X193120967Y-100493397D01*
X193019189Y-100633483D01*
X193016651Y-100637627D01*
X193015176Y-100636723D01*
X192972319Y-100682079D01*
X192904493Y-100698858D01*
X192838364Y-100676304D01*
X192794926Y-100621578D01*
X192787971Y-100552055D01*
X192791904Y-100536654D01*
X192804836Y-100496853D01*
X192835000Y-100306409D01*
X192835000Y-100113590D01*
X192804835Y-99923143D01*
X192745253Y-99739765D01*
X192745252Y-99739762D01*
X192657712Y-99567957D01*
X192635781Y-99537771D01*
X192635780Y-99537771D01*
X192031725Y-100141826D01*
X192006037Y-100045956D01*
X191950084Y-99949044D01*
X191870956Y-99869916D01*
X191774044Y-99813963D01*
X191678172Y-99788274D01*
X192282227Y-99184218D01*
X192282227Y-99184217D01*
X192252043Y-99162288D01*
X192080237Y-99074747D01*
X192080234Y-99074746D01*
X191896856Y-99015164D01*
X191706409Y-98985000D01*
X191513591Y-98985000D01*
X191323143Y-99015164D01*
X191139765Y-99074746D01*
X191139762Y-99074747D01*
X190967955Y-99162288D01*
X190967950Y-99162292D01*
X190937771Y-99184216D01*
X190937771Y-99184219D01*
X191541828Y-99788274D01*
X191445956Y-99813963D01*
X191349044Y-99869916D01*
X191269916Y-99949044D01*
X191213963Y-100045956D01*
X191188274Y-100141827D01*
X190584219Y-99537771D01*
X190584216Y-99537771D01*
X190562292Y-99567950D01*
X190562288Y-99567955D01*
X190474747Y-99739762D01*
X190474746Y-99739765D01*
X190415164Y-99923143D01*
X190385000Y-100113590D01*
X190385000Y-100306409D01*
X190415164Y-100496856D01*
X190474746Y-100680234D01*
X190474747Y-100680237D01*
X190562288Y-100852043D01*
X190584217Y-100882227D01*
X190584218Y-100882227D01*
X191188274Y-100278171D01*
X191213963Y-100374044D01*
X191269916Y-100470956D01*
X191349044Y-100550084D01*
X191445956Y-100606037D01*
X191541827Y-100631725D01*
X190937771Y-101235780D01*
X190937771Y-101235781D01*
X190967957Y-101257712D01*
X191139762Y-101345252D01*
X191139765Y-101345253D01*
X191323143Y-101404835D01*
X191513591Y-101435000D01*
X191706409Y-101435000D01*
X191896856Y-101404835D01*
X192080234Y-101345253D01*
X192080237Y-101345251D01*
X192144615Y-101312450D01*
X192252040Y-101257713D01*
X192282227Y-101235780D01*
X192282228Y-101235780D01*
X191678173Y-100631725D01*
X191774044Y-100606037D01*
X191870956Y-100550084D01*
X191950084Y-100470956D01*
X192006037Y-100374044D01*
X192031725Y-100278173D01*
X192635780Y-100882228D01*
X192635780Y-100882227D01*
X192657713Y-100852041D01*
X192665518Y-100836722D01*
X192713491Y-100785924D01*
X192781312Y-100769127D01*
X192847447Y-100791662D01*
X192890900Y-100846376D01*
X192897875Y-100915896D01*
X192893937Y-100931329D01*
X192887085Y-100952416D01*
X192885884Y-100959999D01*
X192885885Y-100960000D01*
X193793012Y-100960000D01*
X193775795Y-100969940D01*
X193719940Y-101025795D01*
X193680444Y-101094204D01*
X193660000Y-101170504D01*
X193660000Y-101249496D01*
X193680444Y-101325796D01*
X193719940Y-101394205D01*
X193775795Y-101450060D01*
X193793012Y-101460000D01*
X192885885Y-101460000D01*
X192887085Y-101467584D01*
X192940591Y-101632255D01*
X193019195Y-101786524D01*
X193120967Y-101926602D01*
X193243397Y-102049032D01*
X193383475Y-102150804D01*
X193537742Y-102229408D01*
X193702415Y-102282914D01*
X193873429Y-102310000D01*
X194060000Y-102310000D01*
X194060000Y-101510000D01*
X194560000Y-101510000D01*
X194560000Y-102310000D01*
X194746571Y-102310000D01*
X194917584Y-102282914D01*
X195082257Y-102229408D01*
X195236524Y-102150804D01*
X195376602Y-102049032D01*
X195502478Y-101923157D01*
X195504102Y-101924781D01*
X195554608Y-101891746D01*
X195624475Y-101891183D01*
X195683556Y-101928483D01*
X195713092Y-101991803D01*
X195714500Y-102010438D01*
X195714500Y-118751981D01*
X195694815Y-118819020D01*
X195642011Y-118864775D01*
X195589803Y-118875979D01*
X83808803Y-118247996D01*
X83741876Y-118227935D01*
X83696418Y-118174875D01*
X83685500Y-118123998D01*
X83685500Y-115643920D01*
X92594499Y-115643920D01*
X92623340Y-115788907D01*
X92623343Y-115788917D01*
X92679912Y-115925488D01*
X92679919Y-115925501D01*
X92762048Y-116048415D01*
X92762051Y-116048419D01*
X92866580Y-116152948D01*
X92866584Y-116152951D01*
X92989498Y-116235080D01*
X92989511Y-116235087D01*
X93126082Y-116291656D01*
X93126087Y-116291658D01*
X93126091Y-116291658D01*
X93126092Y-116291659D01*
X93271079Y-116320500D01*
X93271082Y-116320500D01*
X93418920Y-116320500D01*
X93516462Y-116301096D01*
X93563913Y-116291658D01*
X93700495Y-116235084D01*
X93823416Y-116152951D01*
X93927951Y-116048416D01*
X94010084Y-115925495D01*
X94066658Y-115788913D01*
X94095500Y-115643918D01*
X94095500Y-115496082D01*
X94095500Y-115496079D01*
X94066659Y-115351092D01*
X94066658Y-115351091D01*
X94066658Y-115351087D01*
X94066656Y-115351082D01*
X94010087Y-115214511D01*
X94010080Y-115214498D01*
X93927951Y-115091584D01*
X93927948Y-115091580D01*
X93823419Y-114987051D01*
X93823415Y-114987048D01*
X93700501Y-114904919D01*
X93700488Y-114904912D01*
X93563917Y-114848343D01*
X93563907Y-114848340D01*
X93418920Y-114819500D01*
X93418918Y-114819500D01*
X93271082Y-114819500D01*
X93271080Y-114819500D01*
X93126092Y-114848340D01*
X93126082Y-114848343D01*
X92989511Y-114904912D01*
X92989498Y-114904919D01*
X92866584Y-114987048D01*
X92866580Y-114987051D01*
X92762051Y-115091580D01*
X92762048Y-115091584D01*
X92679919Y-115214498D01*
X92679912Y-115214511D01*
X92623343Y-115351082D01*
X92623340Y-115351092D01*
X92594500Y-115496079D01*
X92594500Y-115496082D01*
X92594500Y-115643918D01*
X92594500Y-115643920D01*
X92594499Y-115643920D01*
X83685500Y-115643920D01*
X83685500Y-113738920D01*
X105294499Y-113738920D01*
X105323340Y-113883907D01*
X105323343Y-113883917D01*
X105379912Y-114020488D01*
X105379919Y-114020501D01*
X105462048Y-114143415D01*
X105462051Y-114143419D01*
X105566580Y-114247948D01*
X105566584Y-114247951D01*
X105689498Y-114330080D01*
X105689511Y-114330087D01*
X105826082Y-114386656D01*
X105826087Y-114386658D01*
X105826091Y-114386658D01*
X105826092Y-114386659D01*
X105971079Y-114415500D01*
X105971082Y-114415500D01*
X106118920Y-114415500D01*
X106216462Y-114396096D01*
X106263913Y-114386658D01*
X106400495Y-114330084D01*
X106523416Y-114247951D01*
X106627951Y-114143416D01*
X106710084Y-114020495D01*
X106766658Y-113883913D01*
X106795500Y-113738918D01*
X106795500Y-113591082D01*
X106795500Y-113591079D01*
X106766659Y-113446092D01*
X106766658Y-113446091D01*
X106766658Y-113446087D01*
X106766656Y-113446082D01*
X106710087Y-113309511D01*
X106710080Y-113309498D01*
X106627951Y-113186584D01*
X106627948Y-113186580D01*
X106523419Y-113082051D01*
X106523415Y-113082048D01*
X106400501Y-112999919D01*
X106400488Y-112999912D01*
X106263917Y-112943343D01*
X106263907Y-112943340D01*
X106118920Y-112914500D01*
X106118918Y-112914500D01*
X105971082Y-112914500D01*
X105971080Y-112914500D01*
X105826092Y-112943340D01*
X105826082Y-112943343D01*
X105689511Y-112999912D01*
X105689498Y-112999919D01*
X105566584Y-113082048D01*
X105566580Y-113082051D01*
X105462051Y-113186580D01*
X105462048Y-113186584D01*
X105379919Y-113309498D01*
X105379912Y-113309511D01*
X105323343Y-113446082D01*
X105323340Y-113446092D01*
X105294500Y-113591079D01*
X105294500Y-113591082D01*
X105294500Y-113738918D01*
X105294500Y-113738920D01*
X105294499Y-113738920D01*
X83685500Y-113738920D01*
X83685500Y-112468920D01*
X144029499Y-112468920D01*
X144058340Y-112613907D01*
X144058343Y-112613917D01*
X144114912Y-112750488D01*
X144114919Y-112750501D01*
X144197048Y-112873415D01*
X144197051Y-112873419D01*
X144301580Y-112977948D01*
X144301584Y-112977951D01*
X144424498Y-113060080D01*
X144424511Y-113060087D01*
X144561082Y-113116656D01*
X144561087Y-113116658D01*
X144561091Y-113116658D01*
X144561092Y-113116659D01*
X144706079Y-113145500D01*
X144706082Y-113145500D01*
X144853920Y-113145500D01*
X144951462Y-113126096D01*
X144998913Y-113116658D01*
X145135495Y-113060084D01*
X145258416Y-112977951D01*
X145362951Y-112873416D01*
X145445084Y-112750495D01*
X145501658Y-112613913D01*
X145530500Y-112468918D01*
X145530500Y-112321082D01*
X145530500Y-112321079D01*
X145501659Y-112176092D01*
X145501658Y-112176091D01*
X145501658Y-112176087D01*
X145501656Y-112176082D01*
X145445087Y-112039511D01*
X145445080Y-112039498D01*
X145362951Y-111916584D01*
X145362948Y-111916580D01*
X145258419Y-111812051D01*
X145258415Y-111812048D01*
X145135501Y-111729919D01*
X145135488Y-111729912D01*
X144998917Y-111673343D01*
X144998907Y-111673340D01*
X144853920Y-111644500D01*
X144853918Y-111644500D01*
X144706082Y-111644500D01*
X144706080Y-111644500D01*
X144561092Y-111673340D01*
X144561082Y-111673343D01*
X144424511Y-111729912D01*
X144424498Y-111729919D01*
X144301584Y-111812048D01*
X144301580Y-111812051D01*
X144197051Y-111916580D01*
X144197048Y-111916584D01*
X144114919Y-112039498D01*
X144114912Y-112039511D01*
X144058343Y-112176082D01*
X144058340Y-112176092D01*
X144029500Y-112321079D01*
X144029500Y-112321082D01*
X144029500Y-112468918D01*
X144029500Y-112468920D01*
X144029499Y-112468920D01*
X83685500Y-112468920D01*
X83685500Y-110563920D01*
X154189499Y-110563920D01*
X154218340Y-110708907D01*
X154218343Y-110708917D01*
X154274912Y-110845488D01*
X154274919Y-110845501D01*
X154357048Y-110968415D01*
X154357051Y-110968419D01*
X154461580Y-111072948D01*
X154461584Y-111072951D01*
X154584498Y-111155080D01*
X154584511Y-111155087D01*
X154721082Y-111211656D01*
X154721087Y-111211658D01*
X154721091Y-111211658D01*
X154721092Y-111211659D01*
X154866079Y-111240500D01*
X154866082Y-111240500D01*
X155013920Y-111240500D01*
X155111462Y-111221096D01*
X155158913Y-111211658D01*
X155295495Y-111155084D01*
X155418416Y-111072951D01*
X155522951Y-110968416D01*
X155605084Y-110845495D01*
X155661658Y-110708913D01*
X155690500Y-110563918D01*
X155690500Y-110416082D01*
X155690500Y-110416079D01*
X155661659Y-110271092D01*
X155661658Y-110271091D01*
X155661658Y-110271087D01*
X155661656Y-110271082D01*
X155605087Y-110134511D01*
X155605080Y-110134498D01*
X155522951Y-110011584D01*
X155522948Y-110011580D01*
X155418419Y-109907051D01*
X155418415Y-109907048D01*
X155295501Y-109824919D01*
X155295488Y-109824912D01*
X155158917Y-109768343D01*
X155158907Y-109768340D01*
X155013920Y-109739500D01*
X155013918Y-109739500D01*
X154866082Y-109739500D01*
X154866080Y-109739500D01*
X154721092Y-109768340D01*
X154721082Y-109768343D01*
X154584511Y-109824912D01*
X154584498Y-109824919D01*
X154461584Y-109907048D01*
X154461580Y-109907051D01*
X154357051Y-110011580D01*
X154357048Y-110011584D01*
X154274919Y-110134498D01*
X154274912Y-110134511D01*
X154218343Y-110271082D01*
X154218340Y-110271092D01*
X154189500Y-110416079D01*
X154189500Y-110416082D01*
X154189500Y-110563918D01*
X154189500Y-110563920D01*
X154189499Y-110563920D01*
X83685500Y-110563920D01*
X83685500Y-109293920D01*
X119899499Y-109293920D01*
X119928340Y-109438907D01*
X119928343Y-109438917D01*
X119984912Y-109575488D01*
X119984919Y-109575501D01*
X120067048Y-109698415D01*
X120067051Y-109698419D01*
X120171580Y-109802948D01*
X120171584Y-109802951D01*
X120294498Y-109885080D01*
X120294511Y-109885087D01*
X120431082Y-109941656D01*
X120431087Y-109941658D01*
X120431091Y-109941658D01*
X120431092Y-109941659D01*
X120576079Y-109970500D01*
X120576082Y-109970500D01*
X120723920Y-109970500D01*
X120821462Y-109951096D01*
X120868913Y-109941658D01*
X121005495Y-109885084D01*
X121128416Y-109802951D01*
X121232951Y-109698416D01*
X121315084Y-109575495D01*
X121371658Y-109438913D01*
X121400500Y-109293918D01*
X121400500Y-109146082D01*
X121400500Y-109146079D01*
X121371659Y-109001092D01*
X121371658Y-109001091D01*
X121371658Y-109001087D01*
X121371656Y-109001082D01*
X121315087Y-108864511D01*
X121315080Y-108864498D01*
X121232951Y-108741584D01*
X121232948Y-108741580D01*
X121128419Y-108637051D01*
X121128415Y-108637048D01*
X121005501Y-108554919D01*
X121005488Y-108554912D01*
X120868917Y-108498343D01*
X120868907Y-108498340D01*
X120723920Y-108469500D01*
X120723918Y-108469500D01*
X120576082Y-108469500D01*
X120576080Y-108469500D01*
X120431092Y-108498340D01*
X120431082Y-108498343D01*
X120294511Y-108554912D01*
X120294498Y-108554919D01*
X120171584Y-108637048D01*
X120171580Y-108637051D01*
X120067051Y-108741580D01*
X120067048Y-108741584D01*
X119984919Y-108864498D01*
X119984912Y-108864511D01*
X119928343Y-109001082D01*
X119928340Y-109001092D01*
X119899500Y-109146079D01*
X119899500Y-109146082D01*
X119899500Y-109293918D01*
X119899500Y-109293920D01*
X119899499Y-109293920D01*
X83685500Y-109293920D01*
X83685500Y-107388920D01*
X119264499Y-107388920D01*
X119293340Y-107533907D01*
X119293343Y-107533917D01*
X119349912Y-107670488D01*
X119349919Y-107670501D01*
X119432048Y-107793415D01*
X119432051Y-107793419D01*
X119536580Y-107897948D01*
X119536584Y-107897951D01*
X119659498Y-107980080D01*
X119659511Y-107980087D01*
X119796082Y-108036656D01*
X119796087Y-108036658D01*
X119796091Y-108036658D01*
X119796092Y-108036659D01*
X119941079Y-108065500D01*
X119941082Y-108065500D01*
X120088920Y-108065500D01*
X120186462Y-108046096D01*
X120233913Y-108036658D01*
X120370495Y-107980084D01*
X120493416Y-107897951D01*
X120597951Y-107793416D01*
X120680084Y-107670495D01*
X120736658Y-107533913D01*
X120765500Y-107388920D01*
X136409499Y-107388920D01*
X136438340Y-107533907D01*
X136438343Y-107533917D01*
X136494912Y-107670488D01*
X136494919Y-107670501D01*
X136577048Y-107793415D01*
X136577051Y-107793419D01*
X136681580Y-107897948D01*
X136681584Y-107897951D01*
X136804498Y-107980080D01*
X136804511Y-107980087D01*
X136941082Y-108036656D01*
X136941087Y-108036658D01*
X136941091Y-108036658D01*
X136941092Y-108036659D01*
X137086079Y-108065500D01*
X137086082Y-108065500D01*
X137233920Y-108065500D01*
X137331462Y-108046096D01*
X137378913Y-108036658D01*
X137515495Y-107980084D01*
X137638416Y-107897951D01*
X137742951Y-107793416D01*
X137825084Y-107670495D01*
X137881658Y-107533913D01*
X137910500Y-107388918D01*
X137910500Y-107241082D01*
X137910500Y-107241079D01*
X137881659Y-107096092D01*
X137881658Y-107096091D01*
X137881658Y-107096087D01*
X137881656Y-107096082D01*
X137825087Y-106959511D01*
X137825080Y-106959498D01*
X137742951Y-106836584D01*
X137742948Y-106836580D01*
X137638419Y-106732051D01*
X137638415Y-106732048D01*
X137515501Y-106649919D01*
X137515488Y-106649912D01*
X137378917Y-106593343D01*
X137378907Y-106593340D01*
X137233920Y-106564500D01*
X137233918Y-106564500D01*
X137086082Y-106564500D01*
X137086080Y-106564500D01*
X136941092Y-106593340D01*
X136941082Y-106593343D01*
X136804511Y-106649912D01*
X136804498Y-106649919D01*
X136681584Y-106732048D01*
X136681580Y-106732051D01*
X136577051Y-106836580D01*
X136577048Y-106836584D01*
X136494919Y-106959498D01*
X136494912Y-106959511D01*
X136438343Y-107096082D01*
X136438340Y-107096092D01*
X136409500Y-107241079D01*
X136409500Y-107241082D01*
X136409500Y-107388918D01*
X136409500Y-107388920D01*
X136409499Y-107388920D01*
X120765500Y-107388920D01*
X120765500Y-107388918D01*
X120765500Y-107241082D01*
X120765500Y-107241079D01*
X120736659Y-107096092D01*
X120736658Y-107096091D01*
X120736658Y-107096087D01*
X120736656Y-107096082D01*
X120680087Y-106959511D01*
X120680080Y-106959498D01*
X120597951Y-106836584D01*
X120597948Y-106836580D01*
X120493419Y-106732051D01*
X120493415Y-106732048D01*
X120370501Y-106649919D01*
X120370488Y-106649912D01*
X120233917Y-106593343D01*
X120233907Y-106593340D01*
X120088920Y-106564500D01*
X120088918Y-106564500D01*
X119941082Y-106564500D01*
X119941080Y-106564500D01*
X119796092Y-106593340D01*
X119796082Y-106593343D01*
X119659511Y-106649912D01*
X119659498Y-106649919D01*
X119536584Y-106732048D01*
X119536580Y-106732051D01*
X119432051Y-106836580D01*
X119432048Y-106836584D01*
X119349919Y-106959498D01*
X119349912Y-106959511D01*
X119293343Y-107096082D01*
X119293340Y-107096092D01*
X119264500Y-107241079D01*
X119264500Y-107241082D01*
X119264500Y-107388918D01*
X119264500Y-107388920D01*
X119264499Y-107388920D01*
X83685500Y-107388920D01*
X83685500Y-104848920D01*
X117359499Y-104848920D01*
X117388340Y-104993907D01*
X117388343Y-104993917D01*
X117444912Y-105130488D01*
X117444919Y-105130501D01*
X117527048Y-105253415D01*
X117527051Y-105253419D01*
X117631580Y-105357948D01*
X117631584Y-105357951D01*
X117754498Y-105440080D01*
X117754511Y-105440087D01*
X117891082Y-105496656D01*
X117891087Y-105496658D01*
X117891091Y-105496658D01*
X117891092Y-105496659D01*
X118036079Y-105525500D01*
X118036082Y-105525500D01*
X118183920Y-105525500D01*
X118281462Y-105506096D01*
X118328913Y-105496658D01*
X118465495Y-105440084D01*
X118465495Y-105440083D01*
X118469367Y-105438480D01*
X118538837Y-105431011D01*
X118601316Y-105462286D01*
X118636968Y-105522375D01*
X118638437Y-105528849D01*
X118658340Y-105628907D01*
X118658343Y-105628917D01*
X118714912Y-105765488D01*
X118714919Y-105765501D01*
X118797048Y-105888415D01*
X118797051Y-105888419D01*
X118901580Y-105992948D01*
X118901584Y-105992951D01*
X119024498Y-106075080D01*
X119024511Y-106075087D01*
X119161082Y-106131656D01*
X119161087Y-106131658D01*
X119161091Y-106131658D01*
X119161092Y-106131659D01*
X119306079Y-106160500D01*
X119306082Y-106160500D01*
X119453920Y-106160500D01*
X119551462Y-106141096D01*
X119598913Y-106131658D01*
X119629665Y-106118920D01*
X147204499Y-106118920D01*
X147233340Y-106263907D01*
X147233343Y-106263917D01*
X147289912Y-106400488D01*
X147289919Y-106400501D01*
X147372048Y-106523415D01*
X147372051Y-106523419D01*
X147476580Y-106627948D01*
X147476584Y-106627951D01*
X147599498Y-106710080D01*
X147599511Y-106710087D01*
X147736082Y-106766656D01*
X147736087Y-106766658D01*
X147736091Y-106766658D01*
X147736092Y-106766659D01*
X147881079Y-106795500D01*
X147881082Y-106795500D01*
X148028920Y-106795500D01*
X148126462Y-106776096D01*
X148173913Y-106766658D01*
X148310495Y-106710084D01*
X148433416Y-106627951D01*
X148537951Y-106523416D01*
X148620084Y-106400495D01*
X148676658Y-106263913D01*
X148702966Y-106131658D01*
X148705500Y-106118920D01*
X166889499Y-106118920D01*
X166918340Y-106263907D01*
X166918343Y-106263917D01*
X166974912Y-106400488D01*
X166974919Y-106400501D01*
X167057048Y-106523415D01*
X167057051Y-106523419D01*
X167161580Y-106627948D01*
X167161584Y-106627951D01*
X167284498Y-106710080D01*
X167284511Y-106710087D01*
X167421082Y-106766656D01*
X167421087Y-106766658D01*
X167421091Y-106766658D01*
X167421092Y-106766659D01*
X167566079Y-106795500D01*
X167566082Y-106795500D01*
X167713920Y-106795500D01*
X167811462Y-106776096D01*
X167858913Y-106766658D01*
X167995495Y-106710084D01*
X168118416Y-106627951D01*
X168222951Y-106523416D01*
X168305084Y-106400495D01*
X168361658Y-106263913D01*
X168387966Y-106131658D01*
X168390500Y-106118920D01*
X168390500Y-105971079D01*
X168361659Y-105826092D01*
X168361658Y-105826091D01*
X168361658Y-105826087D01*
X168336557Y-105765488D01*
X168305087Y-105689511D01*
X168305080Y-105689498D01*
X168222951Y-105566584D01*
X168222948Y-105566580D01*
X168118419Y-105462051D01*
X168118415Y-105462048D01*
X167995501Y-105379919D01*
X167995488Y-105379912D01*
X167858917Y-105323343D01*
X167858907Y-105323340D01*
X167713920Y-105294500D01*
X167713918Y-105294500D01*
X167566082Y-105294500D01*
X167566080Y-105294500D01*
X167421092Y-105323340D01*
X167421082Y-105323343D01*
X167284511Y-105379912D01*
X167284498Y-105379919D01*
X167161584Y-105462048D01*
X167161580Y-105462051D01*
X167057051Y-105566580D01*
X167057048Y-105566584D01*
X166974919Y-105689498D01*
X166974912Y-105689511D01*
X166918343Y-105826082D01*
X166918340Y-105826092D01*
X166889500Y-105971079D01*
X166889500Y-105971082D01*
X166889500Y-106118918D01*
X166889500Y-106118920D01*
X166889499Y-106118920D01*
X148705500Y-106118920D01*
X148705500Y-105971079D01*
X148676659Y-105826092D01*
X148676658Y-105826091D01*
X148676658Y-105826087D01*
X148651557Y-105765488D01*
X148620087Y-105689511D01*
X148620080Y-105689498D01*
X148537951Y-105566584D01*
X148537948Y-105566580D01*
X148433419Y-105462051D01*
X148433415Y-105462048D01*
X148310501Y-105379919D01*
X148310488Y-105379912D01*
X148173917Y-105323343D01*
X148173907Y-105323340D01*
X148028920Y-105294500D01*
X148028918Y-105294500D01*
X147881082Y-105294500D01*
X147881080Y-105294500D01*
X147736092Y-105323340D01*
X147736082Y-105323343D01*
X147599511Y-105379912D01*
X147599498Y-105379919D01*
X147476584Y-105462048D01*
X147476580Y-105462051D01*
X147372051Y-105566580D01*
X147372048Y-105566584D01*
X147289919Y-105689498D01*
X147289912Y-105689511D01*
X147233343Y-105826082D01*
X147233340Y-105826092D01*
X147204500Y-105971079D01*
X147204500Y-105971082D01*
X147204500Y-106118918D01*
X147204500Y-106118920D01*
X147204499Y-106118920D01*
X119629665Y-106118920D01*
X119735495Y-106075084D01*
X119858416Y-105992951D01*
X119962951Y-105888416D01*
X120045084Y-105765495D01*
X120101658Y-105628913D01*
X120114057Y-105566580D01*
X120130500Y-105483920D01*
X120130500Y-105336079D01*
X120101659Y-105191092D01*
X120101658Y-105191091D01*
X120101658Y-105191087D01*
X120076557Y-105130488D01*
X120045087Y-105054511D01*
X120045080Y-105054498D01*
X119962951Y-104931584D01*
X119962948Y-104931580D01*
X119880288Y-104848920D01*
X130694499Y-104848920D01*
X130723340Y-104993907D01*
X130723343Y-104993917D01*
X130779912Y-105130488D01*
X130779919Y-105130501D01*
X130862048Y-105253415D01*
X130862051Y-105253419D01*
X130966580Y-105357948D01*
X130966584Y-105357951D01*
X131089498Y-105440080D01*
X131089511Y-105440087D01*
X131226082Y-105496656D01*
X131226087Y-105496658D01*
X131226091Y-105496658D01*
X131226092Y-105496659D01*
X131371079Y-105525500D01*
X131371082Y-105525500D01*
X131518920Y-105525500D01*
X131616462Y-105506096D01*
X131663913Y-105496658D01*
X131800495Y-105440084D01*
X131923416Y-105357951D01*
X132027951Y-105253416D01*
X132110084Y-105130495D01*
X132166658Y-104993913D01*
X132192966Y-104861658D01*
X132195500Y-104848920D01*
X132195500Y-104701079D01*
X132166659Y-104556092D01*
X132166658Y-104556091D01*
X132166658Y-104556087D01*
X132141557Y-104495488D01*
X132110087Y-104419511D01*
X132110080Y-104419498D01*
X132027951Y-104296584D01*
X132027948Y-104296580D01*
X131923419Y-104192051D01*
X131923415Y-104192048D01*
X131800501Y-104109919D01*
X131800488Y-104109912D01*
X131663917Y-104053343D01*
X131663907Y-104053340D01*
X131518920Y-104024500D01*
X131518918Y-104024500D01*
X131371082Y-104024500D01*
X131371080Y-104024500D01*
X131226092Y-104053340D01*
X131226082Y-104053343D01*
X131089511Y-104109912D01*
X131089498Y-104109919D01*
X130966584Y-104192048D01*
X130966580Y-104192051D01*
X130862051Y-104296580D01*
X130862048Y-104296584D01*
X130779919Y-104419498D01*
X130779912Y-104419511D01*
X130723343Y-104556082D01*
X130723340Y-104556092D01*
X130694500Y-104701079D01*
X130694500Y-104701082D01*
X130694500Y-104848918D01*
X130694500Y-104848920D01*
X130694499Y-104848920D01*
X119880288Y-104848920D01*
X119858419Y-104827051D01*
X119858411Y-104827045D01*
X119815129Y-104798125D01*
X119815079Y-104798092D01*
X119735501Y-104744919D01*
X119735488Y-104744912D01*
X119598917Y-104688343D01*
X119598907Y-104688340D01*
X119453920Y-104659500D01*
X119453918Y-104659500D01*
X119306082Y-104659500D01*
X119306080Y-104659500D01*
X119161092Y-104688340D01*
X119161082Y-104688343D01*
X119020631Y-104746519D01*
X118951161Y-104753988D01*
X118888682Y-104722712D01*
X118853030Y-104662623D01*
X118851562Y-104656149D01*
X118831659Y-104556094D01*
X118831659Y-104556092D01*
X118831658Y-104556087D01*
X118806557Y-104495488D01*
X118775087Y-104419511D01*
X118775080Y-104419498D01*
X118692951Y-104296584D01*
X118692948Y-104296580D01*
X118588419Y-104192051D01*
X118588415Y-104192048D01*
X118465501Y-104109919D01*
X118465488Y-104109912D01*
X118328917Y-104053343D01*
X118328907Y-104053340D01*
X118183920Y-104024500D01*
X118183918Y-104024500D01*
X118036082Y-104024500D01*
X118036080Y-104024500D01*
X117891092Y-104053340D01*
X117891082Y-104053343D01*
X117754511Y-104109912D01*
X117754498Y-104109919D01*
X117631584Y-104192048D01*
X117631580Y-104192051D01*
X117527051Y-104296580D01*
X117527048Y-104296584D01*
X117444919Y-104419498D01*
X117444912Y-104419511D01*
X117388343Y-104556082D01*
X117388340Y-104556092D01*
X117359500Y-104701079D01*
X117359500Y-104701082D01*
X117359500Y-104848918D01*
X117359500Y-104848920D01*
X117359499Y-104848920D01*
X83685500Y-104848920D01*
X83685500Y-103578920D01*
X134504499Y-103578920D01*
X134533340Y-103723907D01*
X134533343Y-103723917D01*
X134589912Y-103860488D01*
X134589919Y-103860501D01*
X134672048Y-103983415D01*
X134672051Y-103983419D01*
X134776580Y-104087948D01*
X134776584Y-104087951D01*
X134899498Y-104170080D01*
X134899511Y-104170087D01*
X135036082Y-104226656D01*
X135036087Y-104226658D01*
X135036091Y-104226658D01*
X135036092Y-104226659D01*
X135181079Y-104255500D01*
X135181082Y-104255500D01*
X135328920Y-104255500D01*
X135426462Y-104236096D01*
X135473913Y-104226658D01*
X135610495Y-104170084D01*
X135733416Y-104087951D01*
X135837951Y-103983416D01*
X135920084Y-103860495D01*
X135976658Y-103723913D01*
X136002966Y-103591658D01*
X136005500Y-103578920D01*
X151014499Y-103578920D01*
X151043340Y-103723907D01*
X151043343Y-103723917D01*
X151099912Y-103860488D01*
X151099919Y-103860501D01*
X151182048Y-103983415D01*
X151182051Y-103983419D01*
X151286580Y-104087948D01*
X151286584Y-104087951D01*
X151409498Y-104170080D01*
X151409511Y-104170087D01*
X151546082Y-104226656D01*
X151546087Y-104226658D01*
X151546091Y-104226658D01*
X151546092Y-104226659D01*
X151691079Y-104255500D01*
X151691082Y-104255500D01*
X151838920Y-104255500D01*
X151936462Y-104236096D01*
X151983913Y-104226658D01*
X152120495Y-104170084D01*
X152243416Y-104087951D01*
X152347951Y-103983416D01*
X152430084Y-103860495D01*
X152486658Y-103723913D01*
X152512966Y-103591658D01*
X152515500Y-103578920D01*
X152515500Y-103431079D01*
X152486659Y-103286092D01*
X152486658Y-103286091D01*
X152486658Y-103286087D01*
X152486656Y-103286082D01*
X152430087Y-103149511D01*
X152430080Y-103149498D01*
X152347951Y-103026584D01*
X152347948Y-103026580D01*
X152243419Y-102922051D01*
X152243415Y-102922048D01*
X152120501Y-102839919D01*
X152120488Y-102839912D01*
X151983917Y-102783343D01*
X151983907Y-102783340D01*
X151838920Y-102754500D01*
X151838918Y-102754500D01*
X151691082Y-102754500D01*
X151691080Y-102754500D01*
X151546092Y-102783340D01*
X151546082Y-102783343D01*
X151409511Y-102839912D01*
X151409498Y-102839919D01*
X151286584Y-102922048D01*
X151286580Y-102922051D01*
X151182051Y-103026580D01*
X151182048Y-103026584D01*
X151099919Y-103149498D01*
X151099912Y-103149511D01*
X151043343Y-103286082D01*
X151043340Y-103286092D01*
X151014500Y-103431079D01*
X151014500Y-103431082D01*
X151014500Y-103578918D01*
X151014500Y-103578920D01*
X151014499Y-103578920D01*
X136005500Y-103578920D01*
X136005500Y-103431079D01*
X135976659Y-103286092D01*
X135976658Y-103286091D01*
X135976658Y-103286087D01*
X135976656Y-103286082D01*
X135920087Y-103149511D01*
X135920080Y-103149498D01*
X135837951Y-103026584D01*
X135837948Y-103026580D01*
X135733419Y-102922051D01*
X135733415Y-102922048D01*
X135610501Y-102839919D01*
X135610488Y-102839912D01*
X135473917Y-102783343D01*
X135473907Y-102783340D01*
X135328920Y-102754500D01*
X135328918Y-102754500D01*
X135181082Y-102754500D01*
X135181080Y-102754500D01*
X135036092Y-102783340D01*
X135036082Y-102783343D01*
X134899511Y-102839912D01*
X134899498Y-102839919D01*
X134776584Y-102922048D01*
X134776580Y-102922051D01*
X134672051Y-103026580D01*
X134672048Y-103026584D01*
X134589919Y-103149498D01*
X134589912Y-103149511D01*
X134533343Y-103286082D01*
X134533340Y-103286092D01*
X134504500Y-103431079D01*
X134504500Y-103431082D01*
X134504500Y-103578918D01*
X134504500Y-103578920D01*
X134504499Y-103578920D01*
X83685500Y-103578920D01*
X83685500Y-99768920D01*
X128789499Y-99768920D01*
X128818340Y-99913907D01*
X128818343Y-99913917D01*
X128874912Y-100050488D01*
X128874919Y-100050501D01*
X128957048Y-100173415D01*
X128957051Y-100173419D01*
X129061580Y-100277948D01*
X129061584Y-100277951D01*
X129184498Y-100360080D01*
X129184511Y-100360087D01*
X129303953Y-100409561D01*
X129321087Y-100416658D01*
X129321091Y-100416658D01*
X129321092Y-100416659D01*
X129466079Y-100445500D01*
X129466082Y-100445500D01*
X129613920Y-100445500D01*
X129711462Y-100426096D01*
X129758913Y-100416658D01*
X129895495Y-100360084D01*
X130018416Y-100277951D01*
X130122951Y-100173416D01*
X130205084Y-100050495D01*
X130261658Y-99913913D01*
X130287301Y-99785000D01*
X130290500Y-99768920D01*
X142124499Y-99768920D01*
X142153340Y-99913907D01*
X142153343Y-99913917D01*
X142209912Y-100050488D01*
X142209919Y-100050501D01*
X142292048Y-100173415D01*
X142292051Y-100173419D01*
X142396580Y-100277948D01*
X142396584Y-100277951D01*
X142519498Y-100360080D01*
X142519511Y-100360087D01*
X142638953Y-100409561D01*
X142656087Y-100416658D01*
X142656091Y-100416658D01*
X142656092Y-100416659D01*
X142801079Y-100445500D01*
X142801082Y-100445500D01*
X142948920Y-100445500D01*
X143046462Y-100426096D01*
X143093913Y-100416658D01*
X143230495Y-100360084D01*
X143353416Y-100277951D01*
X143457951Y-100173416D01*
X143540084Y-100050495D01*
X143596658Y-99913913D01*
X143622301Y-99785000D01*
X143625500Y-99768920D01*
X143625500Y-99621079D01*
X143596659Y-99476092D01*
X143596658Y-99476091D01*
X143596658Y-99476087D01*
X143571557Y-99415488D01*
X143540087Y-99339511D01*
X143540080Y-99339498D01*
X143457951Y-99216584D01*
X143457948Y-99216580D01*
X143375288Y-99133920D01*
X145299499Y-99133920D01*
X145328340Y-99278907D01*
X145328343Y-99278917D01*
X145384912Y-99415488D01*
X145384919Y-99415501D01*
X145467048Y-99538415D01*
X145467051Y-99538419D01*
X145535951Y-99607319D01*
X145569436Y-99668642D01*
X145564452Y-99738334D01*
X145535951Y-99782681D01*
X145467051Y-99851580D01*
X145467048Y-99851584D01*
X145384919Y-99974498D01*
X145384912Y-99974511D01*
X145328343Y-100111082D01*
X145328340Y-100111092D01*
X145299500Y-100256079D01*
X145299500Y-100256082D01*
X145299500Y-100403918D01*
X145299500Y-100403920D01*
X145299499Y-100403920D01*
X145328340Y-100548907D01*
X145328343Y-100548917D01*
X145384912Y-100685488D01*
X145384919Y-100685501D01*
X145467048Y-100808415D01*
X145467051Y-100808419D01*
X145571580Y-100912948D01*
X145571584Y-100912951D01*
X145694498Y-100995080D01*
X145694511Y-100995087D01*
X145831082Y-101051656D01*
X145831087Y-101051658D01*
X145831091Y-101051658D01*
X145831092Y-101051659D01*
X145976079Y-101080500D01*
X145976082Y-101080500D01*
X146123920Y-101080500D01*
X146221462Y-101061096D01*
X146268913Y-101051658D01*
X146299665Y-101038920D01*
X152284499Y-101038920D01*
X152313340Y-101183907D01*
X152313343Y-101183917D01*
X152369912Y-101320488D01*
X152369919Y-101320501D01*
X152452048Y-101443415D01*
X152452051Y-101443419D01*
X152556580Y-101547948D01*
X152556584Y-101547951D01*
X152679498Y-101630080D01*
X152679511Y-101630087D01*
X152787746Y-101674919D01*
X152816087Y-101686658D01*
X152893212Y-101701999D01*
X152955119Y-101734382D01*
X152956699Y-101735934D01*
X154879257Y-103658492D01*
X154912742Y-103719815D01*
X154907758Y-103789507D01*
X154906137Y-103793625D01*
X154853343Y-103921082D01*
X154853340Y-103921092D01*
X154824500Y-104066079D01*
X154824500Y-104066082D01*
X154824500Y-104213918D01*
X154824500Y-104213920D01*
X154824499Y-104213920D01*
X154853340Y-104358907D01*
X154853343Y-104358917D01*
X154909912Y-104495488D01*
X154909919Y-104495501D01*
X154992048Y-104618415D01*
X154992051Y-104618419D01*
X155096580Y-104722948D01*
X155096584Y-104722951D01*
X155219498Y-104805080D01*
X155219511Y-104805087D01*
X155356082Y-104861656D01*
X155356087Y-104861658D01*
X155356091Y-104861658D01*
X155356092Y-104861659D01*
X155501079Y-104890500D01*
X155501082Y-104890500D01*
X155648920Y-104890500D01*
X155746462Y-104871096D01*
X155793913Y-104861658D01*
X155930495Y-104805084D01*
X156053416Y-104722951D01*
X156157951Y-104618416D01*
X156240084Y-104495495D01*
X156296658Y-104358913D01*
X156316562Y-104258849D01*
X156348946Y-104196939D01*
X156409662Y-104162365D01*
X156479432Y-104166104D01*
X156485631Y-104168480D01*
X156626082Y-104226656D01*
X156626087Y-104226658D01*
X156626091Y-104226658D01*
X156626092Y-104226659D01*
X156771079Y-104255500D01*
X156771082Y-104255500D01*
X156918920Y-104255500D01*
X157016462Y-104236096D01*
X157063913Y-104226658D01*
X157200495Y-104170084D01*
X157323416Y-104087951D01*
X157427951Y-103983416D01*
X157510084Y-103860495D01*
X157566658Y-103723913D01*
X157592966Y-103591658D01*
X157595500Y-103578920D01*
X157595500Y-103431079D01*
X157566659Y-103286092D01*
X157566658Y-103286091D01*
X157566658Y-103286087D01*
X157566656Y-103286082D01*
X157510087Y-103149511D01*
X157510080Y-103149498D01*
X157427951Y-103026584D01*
X157427948Y-103026580D01*
X157345288Y-102943920D01*
X164984499Y-102943920D01*
X165013340Y-103088907D01*
X165013343Y-103088917D01*
X165069912Y-103225488D01*
X165069919Y-103225501D01*
X165152048Y-103348415D01*
X165152051Y-103348419D01*
X165256580Y-103452948D01*
X165256584Y-103452951D01*
X165379498Y-103535080D01*
X165379511Y-103535087D01*
X165516082Y-103591656D01*
X165516087Y-103591658D01*
X165516091Y-103591658D01*
X165516092Y-103591659D01*
X165661079Y-103620500D01*
X165661082Y-103620500D01*
X165808920Y-103620500D01*
X165906462Y-103601096D01*
X165953913Y-103591658D01*
X166090495Y-103535084D01*
X166213416Y-103452951D01*
X166317951Y-103348416D01*
X166400084Y-103225495D01*
X166456658Y-103088913D01*
X166485500Y-102943918D01*
X166485500Y-102796082D01*
X166485500Y-102796079D01*
X166456659Y-102651092D01*
X166456658Y-102651091D01*
X166456658Y-102651087D01*
X166456656Y-102651082D01*
X166400087Y-102514511D01*
X166400080Y-102514498D01*
X166317951Y-102391584D01*
X166317948Y-102391580D01*
X166213419Y-102287051D01*
X166213415Y-102287048D01*
X166090501Y-102204919D01*
X166090488Y-102204912D01*
X165953917Y-102148343D01*
X165953907Y-102148340D01*
X165808920Y-102119500D01*
X165808918Y-102119500D01*
X165661082Y-102119500D01*
X165661080Y-102119500D01*
X165516092Y-102148340D01*
X165516082Y-102148343D01*
X165379511Y-102204912D01*
X165379498Y-102204919D01*
X165256584Y-102287048D01*
X165256580Y-102287051D01*
X165152051Y-102391580D01*
X165152048Y-102391584D01*
X165069919Y-102514498D01*
X165069912Y-102514511D01*
X165013343Y-102651082D01*
X165013340Y-102651092D01*
X164984500Y-102796079D01*
X164984500Y-102796082D01*
X164984500Y-102943918D01*
X164984500Y-102943920D01*
X164984499Y-102943920D01*
X157345288Y-102943920D01*
X157323419Y-102922051D01*
X157323411Y-102922045D01*
X157280129Y-102893125D01*
X157280079Y-102893092D01*
X157200501Y-102839919D01*
X157200488Y-102839912D01*
X157063917Y-102783343D01*
X157063907Y-102783340D01*
X156918920Y-102754500D01*
X156918918Y-102754500D01*
X156771082Y-102754500D01*
X156771080Y-102754500D01*
X156626092Y-102783340D01*
X156626082Y-102783343D01*
X156489511Y-102839912D01*
X156489498Y-102839919D01*
X156366584Y-102922048D01*
X156366580Y-102922051D01*
X156262051Y-103026580D01*
X156262048Y-103026584D01*
X156219328Y-103090519D01*
X156203163Y-103104028D01*
X156190537Y-103120895D01*
X156176889Y-103125985D01*
X156165715Y-103135324D01*
X156144813Y-103137949D01*
X156125073Y-103145312D01*
X156110840Y-103142216D01*
X156096390Y-103144031D01*
X156077387Y-103134939D01*
X156056800Y-103130461D01*
X156036915Y-103115575D01*
X156033363Y-103113876D01*
X156028564Y-103109328D01*
X155943716Y-103024480D01*
X155943713Y-103024478D01*
X154593155Y-101673920D01*
X155459499Y-101673920D01*
X155488340Y-101818907D01*
X155488343Y-101818917D01*
X155544912Y-101955488D01*
X155544919Y-101955501D01*
X155627048Y-102078415D01*
X155627051Y-102078419D01*
X155731580Y-102182948D01*
X155731584Y-102182951D01*
X155854498Y-102265080D01*
X155854511Y-102265087D01*
X155962942Y-102310000D01*
X155991087Y-102321658D01*
X155991091Y-102321658D01*
X155991092Y-102321659D01*
X156136079Y-102350500D01*
X156136082Y-102350500D01*
X156283920Y-102350500D01*
X156381462Y-102331096D01*
X156428913Y-102321658D01*
X156563071Y-102266088D01*
X156565488Y-102265087D01*
X156565488Y-102265086D01*
X156565495Y-102265084D01*
X156688416Y-102182951D01*
X156792951Y-102078416D01*
X156813876Y-102047099D01*
X156867485Y-102002294D01*
X156936810Y-101993585D01*
X156999838Y-102023738D01*
X157020079Y-102047097D01*
X157041673Y-102079414D01*
X157041678Y-102079420D01*
X157146207Y-102183949D01*
X157146211Y-102183952D01*
X157269125Y-102266081D01*
X157269138Y-102266088D01*
X157403297Y-102321658D01*
X157405714Y-102322659D01*
X157405718Y-102322659D01*
X157405719Y-102322660D01*
X157550706Y-102351501D01*
X157550709Y-102351501D01*
X157698547Y-102351501D01*
X157796089Y-102332097D01*
X157843540Y-102322659D01*
X157980122Y-102266085D01*
X158103043Y-102183952D01*
X158207578Y-102079417D01*
X158289711Y-101956496D01*
X158346285Y-101819914D01*
X158372792Y-101686657D01*
X158375127Y-101674921D01*
X158375127Y-101527080D01*
X158346286Y-101382093D01*
X158346285Y-101382092D01*
X158346285Y-101382088D01*
X158346283Y-101382083D01*
X158289714Y-101245512D01*
X158289707Y-101245499D01*
X158207578Y-101122585D01*
X158207575Y-101122581D01*
X158103046Y-101018052D01*
X158103042Y-101018049D01*
X157980128Y-100935920D01*
X157980115Y-100935913D01*
X157843544Y-100879344D01*
X157843534Y-100879341D01*
X157698547Y-100850501D01*
X157698545Y-100850501D01*
X157550709Y-100850501D01*
X157550707Y-100850501D01*
X157405719Y-100879341D01*
X157405709Y-100879344D01*
X157269138Y-100935913D01*
X157269125Y-100935920D01*
X157146211Y-101018049D01*
X157146207Y-101018052D01*
X157041678Y-101122581D01*
X157041671Y-101122590D01*
X157020747Y-101153904D01*
X156967134Y-101198708D01*
X156897809Y-101207414D01*
X156834782Y-101177258D01*
X156814544Y-101153901D01*
X156792949Y-101121581D01*
X156688419Y-101017051D01*
X156688415Y-101017048D01*
X156565501Y-100934919D01*
X156565488Y-100934912D01*
X156428917Y-100878343D01*
X156428907Y-100878340D01*
X156283920Y-100849500D01*
X156283918Y-100849500D01*
X156136082Y-100849500D01*
X156136080Y-100849500D01*
X155991092Y-100878340D01*
X155991082Y-100878343D01*
X155854511Y-100934912D01*
X155854498Y-100934919D01*
X155731584Y-101017048D01*
X155731580Y-101017051D01*
X155627051Y-101121580D01*
X155627048Y-101121584D01*
X155544919Y-101244498D01*
X155544912Y-101244511D01*
X155488343Y-101381082D01*
X155488340Y-101381092D01*
X155459500Y-101526079D01*
X155459500Y-101526082D01*
X155459500Y-101673918D01*
X155459500Y-101673920D01*
X155459499Y-101673920D01*
X154593155Y-101673920D01*
X153805934Y-100886699D01*
X153772449Y-100825376D01*
X153772025Y-100823346D01*
X153756658Y-100746087D01*
X153727753Y-100676304D01*
X153700087Y-100609511D01*
X153700080Y-100609498D01*
X153617951Y-100486584D01*
X153617948Y-100486580D01*
X153535288Y-100403920D01*
X162444499Y-100403920D01*
X162473340Y-100548907D01*
X162473343Y-100548917D01*
X162529912Y-100685488D01*
X162529919Y-100685501D01*
X162612048Y-100808415D01*
X162612051Y-100808419D01*
X162716580Y-100912948D01*
X162716584Y-100912951D01*
X162839498Y-100995080D01*
X162839511Y-100995087D01*
X162976082Y-101051656D01*
X162976087Y-101051658D01*
X162976091Y-101051658D01*
X162976092Y-101051659D01*
X163121079Y-101080500D01*
X163121082Y-101080500D01*
X163268920Y-101080500D01*
X163337265Y-101066905D01*
X163388669Y-101056679D01*
X163413913Y-101051658D01*
X163550495Y-100995084D01*
X163673416Y-100912951D01*
X163777951Y-100808416D01*
X163860084Y-100685495D01*
X163916658Y-100548913D01*
X163942966Y-100416658D01*
X163945500Y-100403920D01*
X163945500Y-100256079D01*
X163920999Y-100132910D01*
X163920998Y-100132909D01*
X163916658Y-100111087D01*
X163889680Y-100045956D01*
X163860087Y-99974511D01*
X163860080Y-99974498D01*
X163777951Y-99851584D01*
X163777948Y-99851580D01*
X163673419Y-99747051D01*
X163673415Y-99747048D01*
X163550501Y-99664919D01*
X163550488Y-99664912D01*
X163413917Y-99608343D01*
X163413907Y-99608340D01*
X163268920Y-99579500D01*
X163268918Y-99579500D01*
X163121082Y-99579500D01*
X163121080Y-99579500D01*
X162976092Y-99608340D01*
X162976082Y-99608343D01*
X162839511Y-99664912D01*
X162839498Y-99664919D01*
X162716584Y-99747048D01*
X162716580Y-99747051D01*
X162612051Y-99851580D01*
X162612048Y-99851584D01*
X162529919Y-99974498D01*
X162529912Y-99974511D01*
X162473343Y-100111082D01*
X162473340Y-100111092D01*
X162444500Y-100256079D01*
X162444500Y-100256082D01*
X162444500Y-100403918D01*
X162444500Y-100403920D01*
X162444499Y-100403920D01*
X153535288Y-100403920D01*
X153513419Y-100382051D01*
X153513411Y-100382045D01*
X153470129Y-100353125D01*
X153470079Y-100353092D01*
X153390501Y-100299919D01*
X153390488Y-100299912D01*
X153253917Y-100243343D01*
X153253907Y-100243340D01*
X153108920Y-100214500D01*
X153108918Y-100214500D01*
X152961082Y-100214500D01*
X152961080Y-100214500D01*
X152816092Y-100243340D01*
X152816082Y-100243343D01*
X152679511Y-100299912D01*
X152679498Y-100299919D01*
X152556584Y-100382048D01*
X152556580Y-100382051D01*
X152452051Y-100486580D01*
X152452048Y-100486584D01*
X152369919Y-100609498D01*
X152369912Y-100609511D01*
X152313343Y-100746082D01*
X152313340Y-100746092D01*
X152284500Y-100891079D01*
X152284500Y-100891082D01*
X152284500Y-101038918D01*
X152284500Y-101038920D01*
X152284499Y-101038920D01*
X146299665Y-101038920D01*
X146405495Y-100995084D01*
X146528416Y-100912951D01*
X146632951Y-100808416D01*
X146715084Y-100685495D01*
X146771658Y-100548913D01*
X146797966Y-100416658D01*
X146800500Y-100403920D01*
X146800500Y-100256079D01*
X146771659Y-100111092D01*
X146771658Y-100111091D01*
X146771658Y-100111087D01*
X146744680Y-100045956D01*
X146715087Y-99974511D01*
X146715080Y-99974498D01*
X146632951Y-99851584D01*
X146632948Y-99851580D01*
X146564049Y-99782681D01*
X146559940Y-99775156D01*
X146553036Y-99770070D01*
X146552597Y-99768920D01*
X149109499Y-99768920D01*
X149138340Y-99913907D01*
X149138343Y-99913917D01*
X149194912Y-100050488D01*
X149194919Y-100050501D01*
X149277048Y-100173415D01*
X149277051Y-100173419D01*
X149381580Y-100277948D01*
X149381584Y-100277951D01*
X149504498Y-100360080D01*
X149504511Y-100360087D01*
X149623953Y-100409561D01*
X149641087Y-100416658D01*
X149641091Y-100416658D01*
X149641092Y-100416659D01*
X149786079Y-100445500D01*
X149786082Y-100445500D01*
X149933920Y-100445500D01*
X150031462Y-100426096D01*
X150078913Y-100416658D01*
X150215495Y-100360084D01*
X150338416Y-100277951D01*
X150442951Y-100173416D01*
X150525084Y-100050495D01*
X150581658Y-99913913D01*
X150607301Y-99785000D01*
X150610500Y-99768920D01*
X150610500Y-99621079D01*
X150581659Y-99476092D01*
X150581658Y-99476091D01*
X150581658Y-99476087D01*
X150556557Y-99415488D01*
X150525087Y-99339511D01*
X150525080Y-99339498D01*
X150442951Y-99216584D01*
X150442948Y-99216580D01*
X150360288Y-99133920D01*
X166889499Y-99133920D01*
X166918340Y-99278907D01*
X166918343Y-99278917D01*
X166974912Y-99415488D01*
X166974919Y-99415501D01*
X167057048Y-99538415D01*
X167057051Y-99538419D01*
X167161580Y-99642948D01*
X167161584Y-99642951D01*
X167284498Y-99725080D01*
X167284511Y-99725087D01*
X167421082Y-99781656D01*
X167421087Y-99781658D01*
X167421091Y-99781658D01*
X167421092Y-99781659D01*
X167566079Y-99810500D01*
X167566082Y-99810500D01*
X167713920Y-99810500D01*
X167811462Y-99791096D01*
X167858913Y-99781658D01*
X167995495Y-99725084D01*
X168118416Y-99642951D01*
X168222951Y-99538416D01*
X168305084Y-99415495D01*
X168361658Y-99278913D01*
X168390500Y-99133918D01*
X168390500Y-98986082D01*
X168390500Y-98986079D01*
X168361659Y-98841092D01*
X168361658Y-98841091D01*
X168361658Y-98841087D01*
X168361656Y-98841082D01*
X168305087Y-98704511D01*
X168305080Y-98704498D01*
X168222951Y-98581584D01*
X168222948Y-98581580D01*
X168118419Y-98477051D01*
X168118415Y-98477048D01*
X167995501Y-98394919D01*
X167995488Y-98394912D01*
X167858917Y-98338343D01*
X167858907Y-98338340D01*
X167713920Y-98309500D01*
X167713918Y-98309500D01*
X167566082Y-98309500D01*
X167566080Y-98309500D01*
X167421092Y-98338340D01*
X167421082Y-98338343D01*
X167284511Y-98394912D01*
X167284498Y-98394919D01*
X167161584Y-98477048D01*
X167161580Y-98477051D01*
X167057051Y-98581580D01*
X167057048Y-98581584D01*
X166974919Y-98704498D01*
X166974912Y-98704511D01*
X166918343Y-98841082D01*
X166918340Y-98841092D01*
X166889500Y-98986079D01*
X166889500Y-98986082D01*
X166889500Y-99133918D01*
X166889500Y-99133920D01*
X166889499Y-99133920D01*
X150360288Y-99133920D01*
X150338419Y-99112051D01*
X150338411Y-99112045D01*
X150295129Y-99083125D01*
X150295079Y-99083092D01*
X150215501Y-99029919D01*
X150215488Y-99029912D01*
X150078917Y-98973343D01*
X150078907Y-98973340D01*
X149933920Y-98944500D01*
X149933918Y-98944500D01*
X149786082Y-98944500D01*
X149786080Y-98944500D01*
X149641092Y-98973340D01*
X149641082Y-98973343D01*
X149504511Y-99029912D01*
X149504498Y-99029919D01*
X149381584Y-99112048D01*
X149381580Y-99112051D01*
X149277051Y-99216580D01*
X149277048Y-99216584D01*
X149194919Y-99339498D01*
X149194912Y-99339511D01*
X149138343Y-99476082D01*
X149138340Y-99476092D01*
X149109500Y-99621079D01*
X149109500Y-99621082D01*
X149109500Y-99768918D01*
X149109500Y-99768920D01*
X149109499Y-99768920D01*
X146552597Y-99768920D01*
X146543446Y-99744950D01*
X146530564Y-99721358D01*
X146531175Y-99712806D01*
X146528117Y-99704795D01*
X146533630Y-99678480D01*
X146535548Y-99651666D01*
X146541061Y-99643014D01*
X146542445Y-99636410D01*
X146562351Y-99609604D01*
X146563378Y-99607994D01*
X146563700Y-99607666D01*
X146632951Y-99538416D01*
X146715084Y-99415495D01*
X146771658Y-99278913D01*
X146790494Y-99184219D01*
X146800500Y-99133920D01*
X146800500Y-98986079D01*
X146771659Y-98841092D01*
X146771658Y-98841091D01*
X146771658Y-98841087D01*
X146771656Y-98841082D01*
X146715087Y-98704511D01*
X146715080Y-98704498D01*
X146632951Y-98581584D01*
X146632948Y-98581580D01*
X146528419Y-98477051D01*
X146528415Y-98477048D01*
X146405501Y-98394919D01*
X146405488Y-98394912D01*
X146268917Y-98338343D01*
X146268907Y-98338340D01*
X146123920Y-98309500D01*
X146123918Y-98309500D01*
X145976082Y-98309500D01*
X145976080Y-98309500D01*
X145831092Y-98338340D01*
X145831082Y-98338343D01*
X145694511Y-98394912D01*
X145694498Y-98394919D01*
X145571584Y-98477048D01*
X145571580Y-98477051D01*
X145467051Y-98581580D01*
X145467048Y-98581584D01*
X145384919Y-98704498D01*
X145384912Y-98704511D01*
X145328343Y-98841082D01*
X145328340Y-98841092D01*
X145299500Y-98986079D01*
X145299500Y-98986082D01*
X145299500Y-99133918D01*
X145299500Y-99133920D01*
X145299499Y-99133920D01*
X143375288Y-99133920D01*
X143353419Y-99112051D01*
X143353411Y-99112045D01*
X143310129Y-99083125D01*
X143310079Y-99083092D01*
X143230501Y-99029919D01*
X143230488Y-99029912D01*
X143093917Y-98973343D01*
X143093907Y-98973340D01*
X142948920Y-98944500D01*
X142948918Y-98944500D01*
X142801082Y-98944500D01*
X142801080Y-98944500D01*
X142656092Y-98973340D01*
X142656082Y-98973343D01*
X142519511Y-99029912D01*
X142519498Y-99029919D01*
X142396584Y-99112048D01*
X142396580Y-99112051D01*
X142292051Y-99216580D01*
X142292048Y-99216584D01*
X142209919Y-99339498D01*
X142209912Y-99339511D01*
X142153343Y-99476082D01*
X142153340Y-99476092D01*
X142124500Y-99621079D01*
X142124500Y-99621082D01*
X142124500Y-99768918D01*
X142124500Y-99768920D01*
X142124499Y-99768920D01*
X130290500Y-99768920D01*
X130290500Y-99621079D01*
X130261659Y-99476092D01*
X130261658Y-99476091D01*
X130261658Y-99476087D01*
X130236557Y-99415488D01*
X130205087Y-99339511D01*
X130205080Y-99339498D01*
X130122951Y-99216584D01*
X130122948Y-99216580D01*
X130018419Y-99112051D01*
X130018415Y-99112048D01*
X129895501Y-99029919D01*
X129895488Y-99029912D01*
X129758917Y-98973343D01*
X129758907Y-98973340D01*
X129613920Y-98944500D01*
X129613918Y-98944500D01*
X129466082Y-98944500D01*
X129466080Y-98944500D01*
X129321092Y-98973340D01*
X129321082Y-98973343D01*
X129184511Y-99029912D01*
X129184498Y-99029919D01*
X129061584Y-99112048D01*
X129061580Y-99112051D01*
X128957051Y-99216580D01*
X128957048Y-99216584D01*
X128874919Y-99339498D01*
X128874912Y-99339511D01*
X128818343Y-99476082D01*
X128818340Y-99476092D01*
X128789500Y-99621079D01*
X128789500Y-99621082D01*
X128789500Y-99768918D01*
X128789500Y-99768920D01*
X128789499Y-99768920D01*
X83685500Y-99768920D01*
X83685500Y-97863920D01*
X121804499Y-97863920D01*
X121833340Y-98008907D01*
X121833343Y-98008917D01*
X121889912Y-98145488D01*
X121889919Y-98145501D01*
X121972048Y-98268415D01*
X121972051Y-98268419D01*
X122076580Y-98372948D01*
X122076584Y-98372951D01*
X122199498Y-98455080D01*
X122199511Y-98455087D01*
X122336082Y-98511656D01*
X122336087Y-98511658D01*
X122336091Y-98511658D01*
X122336092Y-98511659D01*
X122481079Y-98540500D01*
X122481082Y-98540500D01*
X122628920Y-98540500D01*
X122726462Y-98521096D01*
X122773913Y-98511658D01*
X122910495Y-98455084D01*
X123033416Y-98372951D01*
X123137951Y-98268416D01*
X123220084Y-98145495D01*
X123276658Y-98008913D01*
X123305500Y-97863920D01*
X143394499Y-97863920D01*
X143423340Y-98008907D01*
X143423343Y-98008917D01*
X143479912Y-98145488D01*
X143479919Y-98145501D01*
X143562048Y-98268415D01*
X143562051Y-98268419D01*
X143666580Y-98372948D01*
X143666584Y-98372951D01*
X143789498Y-98455080D01*
X143789511Y-98455087D01*
X143926082Y-98511656D01*
X143926087Y-98511658D01*
X143926091Y-98511658D01*
X143926092Y-98511659D01*
X144071079Y-98540500D01*
X144071082Y-98540500D01*
X144218920Y-98540500D01*
X144316462Y-98521096D01*
X144363913Y-98511658D01*
X144500495Y-98455084D01*
X144623416Y-98372951D01*
X144727951Y-98268416D01*
X144810084Y-98145495D01*
X144866658Y-98008913D01*
X144895500Y-97863918D01*
X144895500Y-97716082D01*
X144895500Y-97716079D01*
X144866659Y-97571092D01*
X144866658Y-97571091D01*
X144866658Y-97571087D01*
X144866656Y-97571082D01*
X144810087Y-97434511D01*
X144810080Y-97434498D01*
X144727951Y-97311584D01*
X144727948Y-97311580D01*
X144623419Y-97207051D01*
X144623415Y-97207048D01*
X144500501Y-97124919D01*
X144500488Y-97124912D01*
X144363917Y-97068343D01*
X144363907Y-97068340D01*
X144218920Y-97039500D01*
X144218918Y-97039500D01*
X144071082Y-97039500D01*
X144071080Y-97039500D01*
X143926092Y-97068340D01*
X143926082Y-97068343D01*
X143789511Y-97124912D01*
X143789498Y-97124919D01*
X143666584Y-97207048D01*
X143666580Y-97207051D01*
X143562051Y-97311580D01*
X143562048Y-97311584D01*
X143479919Y-97434498D01*
X143479912Y-97434511D01*
X143423343Y-97571082D01*
X143423340Y-97571092D01*
X143394500Y-97716079D01*
X143394500Y-97716082D01*
X143394500Y-97863918D01*
X143394500Y-97863920D01*
X143394499Y-97863920D01*
X123305500Y-97863920D01*
X123305500Y-97863918D01*
X123305500Y-97716082D01*
X123305500Y-97716079D01*
X123276659Y-97571092D01*
X123276658Y-97571091D01*
X123276658Y-97571087D01*
X123276656Y-97571082D01*
X123220087Y-97434511D01*
X123220080Y-97434498D01*
X123137951Y-97311584D01*
X123137948Y-97311580D01*
X123033419Y-97207051D01*
X123033415Y-97207048D01*
X122910501Y-97124919D01*
X122910488Y-97124912D01*
X122773917Y-97068343D01*
X122773907Y-97068340D01*
X122771796Y-97067920D01*
X127519499Y-97067920D01*
X127548340Y-97212907D01*
X127548343Y-97212917D01*
X127604912Y-97349488D01*
X127604919Y-97349501D01*
X127687048Y-97472415D01*
X127687051Y-97472419D01*
X127791580Y-97576948D01*
X127791584Y-97576951D01*
X127914498Y-97659080D01*
X127914511Y-97659087D01*
X128051082Y-97715656D01*
X128051087Y-97715658D01*
X128051091Y-97715658D01*
X128051092Y-97715659D01*
X128196079Y-97744500D01*
X128196082Y-97744500D01*
X128343920Y-97744500D01*
X128486781Y-97716082D01*
X128488913Y-97715658D01*
X128625495Y-97659084D01*
X128625501Y-97659080D01*
X128703613Y-97606888D01*
X128725883Y-97592007D01*
X128748416Y-97576951D01*
X128852951Y-97472416D01*
X128935084Y-97349495D01*
X128991658Y-97212913D01*
X129009163Y-97124912D01*
X129020500Y-97067920D01*
X129020500Y-96920079D01*
X128991659Y-96775092D01*
X128991658Y-96775091D01*
X128991658Y-96775087D01*
X128991656Y-96775082D01*
X128935087Y-96638511D01*
X128935080Y-96638498D01*
X128852951Y-96515584D01*
X128852948Y-96515580D01*
X128748419Y-96411051D01*
X128748415Y-96411048D01*
X128625501Y-96328919D01*
X128625488Y-96328912D01*
X128488917Y-96272343D01*
X128488907Y-96272340D01*
X128343920Y-96243500D01*
X128343918Y-96243500D01*
X128196082Y-96243500D01*
X128196080Y-96243500D01*
X128051092Y-96272340D01*
X128051082Y-96272343D01*
X127914511Y-96328912D01*
X127914498Y-96328919D01*
X127791584Y-96411048D01*
X127791580Y-96411051D01*
X127687051Y-96515580D01*
X127687048Y-96515584D01*
X127604919Y-96638498D01*
X127604912Y-96638511D01*
X127548343Y-96775082D01*
X127548340Y-96775092D01*
X127519500Y-96920079D01*
X127519500Y-96920082D01*
X127519500Y-97067918D01*
X127519500Y-97067920D01*
X127519499Y-97067920D01*
X122771796Y-97067920D01*
X122628920Y-97039500D01*
X122628918Y-97039500D01*
X122481082Y-97039500D01*
X122481080Y-97039500D01*
X122336092Y-97068340D01*
X122336082Y-97068343D01*
X122199511Y-97124912D01*
X122199498Y-97124919D01*
X122076584Y-97207048D01*
X122076580Y-97207051D01*
X121972051Y-97311580D01*
X121972048Y-97311584D01*
X121889919Y-97434498D01*
X121889912Y-97434511D01*
X121833343Y-97571082D01*
X121833340Y-97571092D01*
X121804500Y-97716079D01*
X121804500Y-97716082D01*
X121804500Y-97863918D01*
X121804500Y-97863920D01*
X121804499Y-97863920D01*
X83685500Y-97863920D01*
X83685500Y-95323920D01*
X86244499Y-95323920D01*
X86273340Y-95468907D01*
X86273343Y-95468917D01*
X86329912Y-95605488D01*
X86329919Y-95605501D01*
X86412048Y-95728415D01*
X86412051Y-95728419D01*
X86516580Y-95832948D01*
X86516584Y-95832951D01*
X86639498Y-95915080D01*
X86639511Y-95915087D01*
X86776082Y-95971656D01*
X86776087Y-95971658D01*
X86776091Y-95971658D01*
X86776092Y-95971659D01*
X86921079Y-96000500D01*
X86921082Y-96000500D01*
X87068920Y-96000500D01*
X87166462Y-95981096D01*
X87213913Y-95971658D01*
X87350495Y-95915084D01*
X87473416Y-95832951D01*
X87577951Y-95728416D01*
X87660084Y-95605495D01*
X87716658Y-95468913D01*
X87745500Y-95323920D01*
X137679499Y-95323920D01*
X137708340Y-95468907D01*
X137708343Y-95468917D01*
X137764912Y-95605488D01*
X137764919Y-95605501D01*
X137847048Y-95728415D01*
X137847051Y-95728419D01*
X137951580Y-95832948D01*
X137951584Y-95832951D01*
X138074498Y-95915080D01*
X138074511Y-95915087D01*
X138211082Y-95971656D01*
X138211087Y-95971658D01*
X138211091Y-95971658D01*
X138211092Y-95971659D01*
X138356079Y-96000500D01*
X138356082Y-96000500D01*
X138503920Y-96000500D01*
X138601462Y-95981096D01*
X138648913Y-95971658D01*
X138785495Y-95915084D01*
X138908416Y-95832951D01*
X139012951Y-95728416D01*
X139095084Y-95605495D01*
X139151658Y-95468913D01*
X139180500Y-95323920D01*
X140219499Y-95323920D01*
X140248340Y-95468907D01*
X140248343Y-95468917D01*
X140304912Y-95605488D01*
X140304919Y-95605501D01*
X140387048Y-95728415D01*
X140387051Y-95728419D01*
X140491580Y-95832948D01*
X140491584Y-95832951D01*
X140614498Y-95915080D01*
X140614511Y-95915087D01*
X140751082Y-95971656D01*
X140751087Y-95971658D01*
X140751091Y-95971658D01*
X140751092Y-95971659D01*
X140896079Y-96000500D01*
X140896082Y-96000500D01*
X141043920Y-96000500D01*
X141141462Y-95981096D01*
X141188913Y-95971658D01*
X141219665Y-95958920D01*
X150896111Y-95958920D01*
X150924952Y-96103907D01*
X150924955Y-96103917D01*
X150981524Y-96240488D01*
X150981531Y-96240501D01*
X151063660Y-96363415D01*
X151063663Y-96363419D01*
X151168192Y-96467948D01*
X151168196Y-96467951D01*
X151291110Y-96550080D01*
X151291123Y-96550087D01*
X151427694Y-96606656D01*
X151427699Y-96606658D01*
X151427703Y-96606658D01*
X151427704Y-96606659D01*
X151572691Y-96635500D01*
X151572694Y-96635500D01*
X151720532Y-96635500D01*
X151818074Y-96616096D01*
X151865525Y-96606658D01*
X152002107Y-96550084D01*
X152125028Y-96467951D01*
X152229563Y-96363416D01*
X152311696Y-96240495D01*
X152368270Y-96103913D01*
X152394578Y-95971658D01*
X152397112Y-95958920D01*
X152397112Y-95811079D01*
X152368271Y-95666092D01*
X152368270Y-95666091D01*
X152368270Y-95666087D01*
X152368268Y-95666082D01*
X152311699Y-95529511D01*
X152311692Y-95529498D01*
X152229563Y-95406584D01*
X152229560Y-95406580D01*
X152125031Y-95302051D01*
X152125027Y-95302048D01*
X152002107Y-95219915D01*
X151865529Y-95163343D01*
X151865519Y-95163340D01*
X151720532Y-95134500D01*
X151720530Y-95134500D01*
X151572694Y-95134500D01*
X151572692Y-95134500D01*
X151427704Y-95163340D01*
X151427694Y-95163343D01*
X151291123Y-95219912D01*
X151291110Y-95219919D01*
X151168196Y-95302048D01*
X151168192Y-95302051D01*
X151063663Y-95406580D01*
X151063660Y-95406584D01*
X150981531Y-95529498D01*
X150981524Y-95529511D01*
X150924955Y-95666082D01*
X150924952Y-95666092D01*
X150896112Y-95811079D01*
X150896112Y-95811082D01*
X150896112Y-95958918D01*
X150896112Y-95958920D01*
X150896111Y-95958920D01*
X141219665Y-95958920D01*
X141325495Y-95915084D01*
X141448416Y-95832951D01*
X141552951Y-95728416D01*
X141635084Y-95605495D01*
X141691658Y-95468913D01*
X141720500Y-95323918D01*
X141720500Y-95176082D01*
X141720500Y-95176079D01*
X141691659Y-95031092D01*
X141691658Y-95031091D01*
X141691658Y-95031087D01*
X141657675Y-94949044D01*
X141635087Y-94894511D01*
X141635080Y-94894498D01*
X141552951Y-94771584D01*
X141552948Y-94771580D01*
X141448419Y-94667051D01*
X141448415Y-94667048D01*
X141325501Y-94584919D01*
X141325488Y-94584912D01*
X141188917Y-94528343D01*
X141188907Y-94528340D01*
X141043920Y-94499500D01*
X141043918Y-94499500D01*
X140896082Y-94499500D01*
X140896080Y-94499500D01*
X140751092Y-94528340D01*
X140751082Y-94528343D01*
X140614511Y-94584912D01*
X140614498Y-94584919D01*
X140491584Y-94667048D01*
X140491580Y-94667051D01*
X140387051Y-94771580D01*
X140387048Y-94771584D01*
X140304919Y-94894498D01*
X140304912Y-94894511D01*
X140248343Y-95031082D01*
X140248340Y-95031092D01*
X140219500Y-95176079D01*
X140219500Y-95176082D01*
X140219500Y-95323918D01*
X140219500Y-95323920D01*
X140219499Y-95323920D01*
X139180500Y-95323920D01*
X139180500Y-95323918D01*
X139180500Y-95176082D01*
X139180500Y-95176079D01*
X139151659Y-95031092D01*
X139151658Y-95031091D01*
X139151658Y-95031087D01*
X139117675Y-94949044D01*
X139095087Y-94894511D01*
X139095080Y-94894498D01*
X139012951Y-94771584D01*
X139012948Y-94771580D01*
X138908419Y-94667051D01*
X138908415Y-94667048D01*
X138785501Y-94584919D01*
X138785488Y-94584912D01*
X138648917Y-94528343D01*
X138648907Y-94528340D01*
X138503920Y-94499500D01*
X138503918Y-94499500D01*
X138356082Y-94499500D01*
X138356080Y-94499500D01*
X138211092Y-94528340D01*
X138211082Y-94528343D01*
X138074511Y-94584912D01*
X138074498Y-94584919D01*
X137951584Y-94667048D01*
X137951580Y-94667051D01*
X137847051Y-94771580D01*
X137847048Y-94771584D01*
X137764919Y-94894498D01*
X137764912Y-94894511D01*
X137708343Y-95031082D01*
X137708340Y-95031092D01*
X137679500Y-95176079D01*
X137679500Y-95176082D01*
X137679500Y-95323918D01*
X137679500Y-95323920D01*
X137679499Y-95323920D01*
X87745500Y-95323920D01*
X87745500Y-95323918D01*
X87745500Y-95176082D01*
X87745500Y-95176079D01*
X87716659Y-95031092D01*
X87716658Y-95031091D01*
X87716658Y-95031087D01*
X87682675Y-94949044D01*
X87660087Y-94894511D01*
X87660080Y-94894498D01*
X87577951Y-94771584D01*
X87577948Y-94771580D01*
X87473419Y-94667051D01*
X87473415Y-94667048D01*
X87350501Y-94584919D01*
X87350488Y-94584912D01*
X87213917Y-94528343D01*
X87213907Y-94528340D01*
X87068920Y-94499500D01*
X87068918Y-94499500D01*
X86921082Y-94499500D01*
X86921080Y-94499500D01*
X86776092Y-94528340D01*
X86776082Y-94528343D01*
X86639511Y-94584912D01*
X86639498Y-94584919D01*
X86516584Y-94667048D01*
X86516580Y-94667051D01*
X86412051Y-94771580D01*
X86412048Y-94771584D01*
X86329919Y-94894498D01*
X86329912Y-94894511D01*
X86273343Y-95031082D01*
X86273340Y-95031092D01*
X86244500Y-95176079D01*
X86244500Y-95176082D01*
X86244500Y-95323918D01*
X86244500Y-95323920D01*
X86244499Y-95323920D01*
X83685500Y-95323920D01*
X83685500Y-92783920D01*
X129424499Y-92783920D01*
X129453340Y-92928907D01*
X129453343Y-92928917D01*
X129509912Y-93065488D01*
X129509919Y-93065501D01*
X129592048Y-93188415D01*
X129592051Y-93188419D01*
X129696580Y-93292948D01*
X129696584Y-93292951D01*
X129819498Y-93375080D01*
X129819511Y-93375087D01*
X129956082Y-93431656D01*
X129956087Y-93431658D01*
X129956091Y-93431658D01*
X129956092Y-93431659D01*
X130101079Y-93460500D01*
X130101082Y-93460500D01*
X130248920Y-93460500D01*
X130346462Y-93441096D01*
X130393913Y-93431658D01*
X130424665Y-93418920D01*
X150379499Y-93418920D01*
X150408340Y-93563907D01*
X150408343Y-93563917D01*
X150464912Y-93700488D01*
X150464919Y-93700501D01*
X150547048Y-93823415D01*
X150547051Y-93823419D01*
X150651580Y-93927948D01*
X150651584Y-93927951D01*
X150774498Y-94010080D01*
X150774511Y-94010087D01*
X150911082Y-94066656D01*
X150911087Y-94066658D01*
X150911091Y-94066658D01*
X150911092Y-94066659D01*
X151056079Y-94095500D01*
X151056082Y-94095500D01*
X151203920Y-94095500D01*
X151308253Y-94074746D01*
X151348913Y-94066658D01*
X151485495Y-94010084D01*
X151608416Y-93927951D01*
X151712951Y-93823416D01*
X151795084Y-93700495D01*
X151851658Y-93563913D01*
X151865685Y-93493397D01*
X151880500Y-93418920D01*
X151880500Y-93271079D01*
X151851659Y-93126092D01*
X151851658Y-93126091D01*
X151851658Y-93126087D01*
X151826557Y-93065488D01*
X151795087Y-92989511D01*
X151795080Y-92989498D01*
X151712951Y-92866584D01*
X151712948Y-92866580D01*
X151630288Y-92783920D01*
X157999499Y-92783920D01*
X158028340Y-92928907D01*
X158028343Y-92928917D01*
X158084912Y-93065488D01*
X158084919Y-93065501D01*
X158128602Y-93130876D01*
X158149480Y-93197553D01*
X158149500Y-93199767D01*
X158149500Y-93490232D01*
X158129815Y-93557271D01*
X158128603Y-93559122D01*
X158084914Y-93624508D01*
X158028343Y-93761082D01*
X158028340Y-93761092D01*
X157999500Y-93906079D01*
X157999500Y-93906082D01*
X157999500Y-94053918D01*
X157999500Y-94053920D01*
X157999499Y-94053920D01*
X158028340Y-94198907D01*
X158028343Y-94198917D01*
X158084912Y-94335488D01*
X158084919Y-94335501D01*
X158167048Y-94458415D01*
X158167051Y-94458419D01*
X158271580Y-94562948D01*
X158271584Y-94562951D01*
X158394498Y-94645080D01*
X158394511Y-94645087D01*
X158531082Y-94701656D01*
X158531087Y-94701658D01*
X158531091Y-94701658D01*
X158531092Y-94701659D01*
X158676079Y-94730500D01*
X158676082Y-94730500D01*
X158823920Y-94730500D01*
X158921462Y-94711096D01*
X158968913Y-94701658D01*
X159105495Y-94645084D01*
X159228416Y-94562951D01*
X159332951Y-94458416D01*
X159415084Y-94335495D01*
X159419102Y-94325796D01*
X159471658Y-94198913D01*
X159471658Y-94198911D01*
X159478943Y-94162292D01*
X159492229Y-94095500D01*
X159500500Y-94053920D01*
X159500500Y-93906079D01*
X159471659Y-93761092D01*
X159471658Y-93761091D01*
X159471658Y-93761087D01*
X159415084Y-93624505D01*
X159371396Y-93559121D01*
X159350520Y-93492444D01*
X159350500Y-93490232D01*
X159350500Y-93199767D01*
X159370185Y-93132728D01*
X159371398Y-93130876D01*
X159415080Y-93065501D01*
X159415080Y-93065500D01*
X159415084Y-93065495D01*
X159471658Y-92928913D01*
X159497966Y-92796658D01*
X159500500Y-92783920D01*
X159500500Y-92636079D01*
X159471659Y-92491092D01*
X159471658Y-92491091D01*
X159471658Y-92491087D01*
X159446557Y-92430488D01*
X159415087Y-92354511D01*
X159415080Y-92354498D01*
X159332951Y-92231584D01*
X159332948Y-92231580D01*
X159228419Y-92127051D01*
X159228415Y-92127048D01*
X159105501Y-92044919D01*
X159105488Y-92044912D01*
X158968917Y-91988343D01*
X158968907Y-91988340D01*
X158823920Y-91959500D01*
X158823918Y-91959500D01*
X158676082Y-91959500D01*
X158676080Y-91959500D01*
X158531092Y-91988340D01*
X158531082Y-91988343D01*
X158394511Y-92044912D01*
X158394498Y-92044919D01*
X158271584Y-92127048D01*
X158271580Y-92127051D01*
X158167051Y-92231580D01*
X158167048Y-92231584D01*
X158084919Y-92354498D01*
X158084912Y-92354511D01*
X158028343Y-92491082D01*
X158028340Y-92491092D01*
X157999500Y-92636079D01*
X157999500Y-92636082D01*
X157999500Y-92783918D01*
X157999500Y-92783920D01*
X157999499Y-92783920D01*
X151630288Y-92783920D01*
X151608419Y-92762051D01*
X151608411Y-92762045D01*
X151565129Y-92733125D01*
X151565079Y-92733092D01*
X151485501Y-92679919D01*
X151485488Y-92679912D01*
X151348917Y-92623343D01*
X151348907Y-92623340D01*
X151203920Y-92594500D01*
X151203918Y-92594500D01*
X151056082Y-92594500D01*
X151056080Y-92594500D01*
X150911092Y-92623340D01*
X150911082Y-92623343D01*
X150774511Y-92679912D01*
X150774498Y-92679919D01*
X150651584Y-92762048D01*
X150651580Y-92762051D01*
X150547051Y-92866580D01*
X150547048Y-92866584D01*
X150464919Y-92989498D01*
X150464912Y-92989511D01*
X150408343Y-93126082D01*
X150408340Y-93126092D01*
X150379500Y-93271079D01*
X150379500Y-93271082D01*
X150379500Y-93418918D01*
X150379500Y-93418920D01*
X150379499Y-93418920D01*
X130424665Y-93418920D01*
X130530495Y-93375084D01*
X130653416Y-93292951D01*
X130757951Y-93188416D01*
X130840084Y-93065495D01*
X130896658Y-92928913D01*
X130922966Y-92796658D01*
X130925500Y-92783920D01*
X130925500Y-92636079D01*
X130896659Y-92491092D01*
X130896658Y-92491091D01*
X130896658Y-92491087D01*
X130871557Y-92430488D01*
X130840087Y-92354511D01*
X130840080Y-92354498D01*
X130757951Y-92231584D01*
X130757948Y-92231580D01*
X130675288Y-92148920D01*
X135139499Y-92148920D01*
X135168340Y-92293907D01*
X135168343Y-92293917D01*
X135224912Y-92430488D01*
X135224919Y-92430501D01*
X135307048Y-92553415D01*
X135307051Y-92553419D01*
X135411580Y-92657948D01*
X135411584Y-92657951D01*
X135534498Y-92740080D01*
X135534511Y-92740087D01*
X135671082Y-92796656D01*
X135671087Y-92796658D01*
X135671091Y-92796658D01*
X135671092Y-92796659D01*
X135816079Y-92825500D01*
X135816082Y-92825500D01*
X135963920Y-92825500D01*
X136061462Y-92806096D01*
X136108913Y-92796658D01*
X136245495Y-92740084D01*
X136368416Y-92657951D01*
X136472951Y-92553416D01*
X136555084Y-92430495D01*
X136611658Y-92293913D01*
X136633601Y-92183600D01*
X136640500Y-92148920D01*
X136640500Y-92001079D01*
X136611659Y-91856092D01*
X136611658Y-91856091D01*
X136611658Y-91856087D01*
X136586557Y-91795488D01*
X136555087Y-91719511D01*
X136555080Y-91719498D01*
X136472951Y-91596584D01*
X136472948Y-91596580D01*
X136368419Y-91492051D01*
X136368415Y-91492048D01*
X136245501Y-91409919D01*
X136245488Y-91409912D01*
X136108917Y-91353343D01*
X136108907Y-91353340D01*
X135963920Y-91324500D01*
X135963918Y-91324500D01*
X135816082Y-91324500D01*
X135816080Y-91324500D01*
X135671092Y-91353340D01*
X135671082Y-91353343D01*
X135534511Y-91409912D01*
X135534498Y-91409919D01*
X135411584Y-91492048D01*
X135411580Y-91492051D01*
X135307051Y-91596580D01*
X135307048Y-91596584D01*
X135224919Y-91719498D01*
X135224912Y-91719511D01*
X135168343Y-91856082D01*
X135168340Y-91856092D01*
X135139500Y-92001079D01*
X135139500Y-92001082D01*
X135139500Y-92148918D01*
X135139500Y-92148920D01*
X135139499Y-92148920D01*
X130675288Y-92148920D01*
X130653419Y-92127051D01*
X130653411Y-92127045D01*
X130610129Y-92098125D01*
X130610079Y-92098092D01*
X130530501Y-92044919D01*
X130530488Y-92044912D01*
X130393917Y-91988343D01*
X130393907Y-91988340D01*
X130248920Y-91959500D01*
X130248918Y-91959500D01*
X130101082Y-91959500D01*
X130101080Y-91959500D01*
X129956092Y-91988340D01*
X129956082Y-91988343D01*
X129819511Y-92044912D01*
X129819498Y-92044919D01*
X129696584Y-92127048D01*
X129696580Y-92127051D01*
X129592051Y-92231580D01*
X129592048Y-92231584D01*
X129509919Y-92354498D01*
X129509912Y-92354511D01*
X129453343Y-92491082D01*
X129453340Y-92491092D01*
X129424500Y-92636079D01*
X129424500Y-92636082D01*
X129424500Y-92783918D01*
X129424500Y-92783920D01*
X129424499Y-92783920D01*
X83685500Y-92783920D01*
X83685500Y-90878920D01*
X117994499Y-90878920D01*
X118023340Y-91023907D01*
X118023343Y-91023917D01*
X118079912Y-91160488D01*
X118079919Y-91160501D01*
X118162048Y-91283415D01*
X118162051Y-91283419D01*
X118266580Y-91387948D01*
X118266584Y-91387951D01*
X118389498Y-91470080D01*
X118389511Y-91470087D01*
X118526082Y-91526656D01*
X118526087Y-91526658D01*
X118526091Y-91526658D01*
X118526092Y-91526659D01*
X118671079Y-91555500D01*
X118671082Y-91555500D01*
X118818920Y-91555500D01*
X118916462Y-91536096D01*
X118963913Y-91526658D01*
X119100495Y-91470084D01*
X119223416Y-91387951D01*
X119327951Y-91283416D01*
X119410084Y-91160495D01*
X119466658Y-91023913D01*
X119492966Y-90891658D01*
X119495500Y-90878920D01*
X119495500Y-90731079D01*
X119466659Y-90586092D01*
X119466658Y-90586091D01*
X119466658Y-90586087D01*
X119441557Y-90525488D01*
X119410087Y-90449511D01*
X119410080Y-90449498D01*
X119327951Y-90326584D01*
X119327948Y-90326580D01*
X119245288Y-90243920D01*
X130694499Y-90243920D01*
X130723340Y-90388907D01*
X130723343Y-90388917D01*
X130779912Y-90525488D01*
X130779919Y-90525501D01*
X130862048Y-90648415D01*
X130862051Y-90648419D01*
X130966580Y-90752948D01*
X130966584Y-90752951D01*
X131089498Y-90835080D01*
X131089511Y-90835087D01*
X131226082Y-90891656D01*
X131226087Y-90891658D01*
X131226091Y-90891658D01*
X131226092Y-90891659D01*
X131371079Y-90920500D01*
X131371082Y-90920500D01*
X131518920Y-90920500D01*
X131616462Y-90901096D01*
X131663913Y-90891658D01*
X131694665Y-90878920D01*
X161809499Y-90878920D01*
X161838340Y-91023907D01*
X161838343Y-91023917D01*
X161894912Y-91160488D01*
X161894919Y-91160501D01*
X161977048Y-91283415D01*
X161977051Y-91283419D01*
X162045951Y-91352319D01*
X162079436Y-91413642D01*
X162074452Y-91483334D01*
X162045951Y-91527681D01*
X161977051Y-91596580D01*
X161977048Y-91596584D01*
X161894919Y-91719498D01*
X161894912Y-91719511D01*
X161838343Y-91856082D01*
X161838340Y-91856092D01*
X161809500Y-92001079D01*
X161809500Y-92001082D01*
X161809500Y-92148918D01*
X161809500Y-92148920D01*
X161809499Y-92148920D01*
X161838340Y-92293907D01*
X161838343Y-92293917D01*
X161894912Y-92430488D01*
X161894919Y-92430501D01*
X161977048Y-92553415D01*
X161977051Y-92553419D01*
X162081580Y-92657948D01*
X162081584Y-92657951D01*
X162204498Y-92740080D01*
X162204511Y-92740087D01*
X162341082Y-92796656D01*
X162341087Y-92796658D01*
X162341091Y-92796658D01*
X162341092Y-92796659D01*
X162486079Y-92825500D01*
X162486082Y-92825500D01*
X162633920Y-92825500D01*
X162731462Y-92806096D01*
X162778913Y-92796658D01*
X162915495Y-92740084D01*
X163038416Y-92657951D01*
X163142951Y-92553416D01*
X163225084Y-92430495D01*
X163281658Y-92293913D01*
X163303601Y-92183600D01*
X163310500Y-92148920D01*
X163714499Y-92148920D01*
X163743340Y-92293907D01*
X163743343Y-92293917D01*
X163799912Y-92430488D01*
X163799919Y-92430501D01*
X163882048Y-92553415D01*
X163882051Y-92553419D01*
X163986580Y-92657948D01*
X163986584Y-92657951D01*
X164109498Y-92740080D01*
X164109511Y-92740087D01*
X164246082Y-92796656D01*
X164246087Y-92796658D01*
X164246091Y-92796658D01*
X164246092Y-92796659D01*
X164391079Y-92825500D01*
X164391082Y-92825500D01*
X164538920Y-92825500D01*
X164636462Y-92806096D01*
X164683913Y-92796658D01*
X164820495Y-92740084D01*
X164943416Y-92657951D01*
X165047951Y-92553416D01*
X165130084Y-92430495D01*
X165186658Y-92293913D01*
X165192436Y-92264862D01*
X165224819Y-92202953D01*
X165285533Y-92168377D01*
X165289819Y-92167444D01*
X165318913Y-92161658D01*
X165455495Y-92105084D01*
X165578416Y-92022951D01*
X165682951Y-91918416D01*
X165765084Y-91795495D01*
X165821658Y-91658913D01*
X165842229Y-91555500D01*
X165850500Y-91513920D01*
X165850500Y-91366079D01*
X165821659Y-91221092D01*
X165821658Y-91221091D01*
X165821658Y-91221087D01*
X165796557Y-91160488D01*
X165765087Y-91084511D01*
X165765080Y-91084498D01*
X165682951Y-90961584D01*
X165682948Y-90961580D01*
X165578419Y-90857051D01*
X165578415Y-90857048D01*
X165455501Y-90774919D01*
X165455488Y-90774912D01*
X165318917Y-90718343D01*
X165318907Y-90718340D01*
X165173920Y-90689500D01*
X165173918Y-90689500D01*
X165026082Y-90689500D01*
X165026080Y-90689500D01*
X164881092Y-90718340D01*
X164881082Y-90718343D01*
X164744511Y-90774912D01*
X164744498Y-90774919D01*
X164621584Y-90857048D01*
X164621580Y-90857051D01*
X164517051Y-90961580D01*
X164517048Y-90961584D01*
X164434919Y-91084498D01*
X164434912Y-91084511D01*
X164378343Y-91221082D01*
X164378340Y-91221092D01*
X164372563Y-91250138D01*
X164340178Y-91312048D01*
X164279462Y-91346623D01*
X164275138Y-91347563D01*
X164246092Y-91353340D01*
X164246082Y-91353343D01*
X164109511Y-91409912D01*
X164109498Y-91409919D01*
X163986584Y-91492048D01*
X163986580Y-91492051D01*
X163882051Y-91596580D01*
X163882048Y-91596584D01*
X163799919Y-91719498D01*
X163799912Y-91719511D01*
X163743343Y-91856082D01*
X163743340Y-91856092D01*
X163714500Y-92001079D01*
X163714500Y-92001082D01*
X163714500Y-92148918D01*
X163714500Y-92148920D01*
X163714499Y-92148920D01*
X163310500Y-92148920D01*
X163310500Y-92001079D01*
X163281659Y-91856092D01*
X163281658Y-91856091D01*
X163281658Y-91856087D01*
X163256557Y-91795488D01*
X163225087Y-91719511D01*
X163225080Y-91719498D01*
X163142951Y-91596584D01*
X163142948Y-91596580D01*
X163074049Y-91527681D01*
X163040564Y-91466358D01*
X163045548Y-91396666D01*
X163074049Y-91352319D01*
X163142948Y-91283419D01*
X163142951Y-91283416D01*
X163225084Y-91160495D01*
X163281658Y-91023913D01*
X163307966Y-90891658D01*
X163310500Y-90878920D01*
X163310500Y-90731079D01*
X163281659Y-90586092D01*
X163281658Y-90586091D01*
X163281658Y-90586087D01*
X163256557Y-90525488D01*
X163225087Y-90449511D01*
X163225080Y-90449498D01*
X163142951Y-90326584D01*
X163142948Y-90326580D01*
X163038419Y-90222051D01*
X163038415Y-90222048D01*
X162915501Y-90139919D01*
X162915488Y-90139912D01*
X162778917Y-90083343D01*
X162778907Y-90083340D01*
X162633920Y-90054500D01*
X162633918Y-90054500D01*
X162486082Y-90054500D01*
X162486080Y-90054500D01*
X162341092Y-90083340D01*
X162341082Y-90083343D01*
X162204511Y-90139912D01*
X162204498Y-90139919D01*
X162081584Y-90222048D01*
X162081580Y-90222051D01*
X161977051Y-90326580D01*
X161977048Y-90326584D01*
X161894919Y-90449498D01*
X161894912Y-90449511D01*
X161838343Y-90586082D01*
X161838340Y-90586092D01*
X161809500Y-90731079D01*
X161809500Y-90731082D01*
X161809500Y-90878918D01*
X161809500Y-90878920D01*
X161809499Y-90878920D01*
X131694665Y-90878920D01*
X131800495Y-90835084D01*
X131923416Y-90752951D01*
X132027951Y-90648416D01*
X132110084Y-90525495D01*
X132166658Y-90388913D01*
X132192966Y-90256658D01*
X132195500Y-90243920D01*
X132195500Y-90096079D01*
X132166659Y-89951092D01*
X132166658Y-89951091D01*
X132166658Y-89951087D01*
X132141557Y-89890488D01*
X132110087Y-89814511D01*
X132110080Y-89814498D01*
X132027951Y-89691584D01*
X132027948Y-89691580D01*
X131945288Y-89608920D01*
X155459499Y-89608920D01*
X155488340Y-89753907D01*
X155488343Y-89753917D01*
X155544912Y-89890488D01*
X155544919Y-89890501D01*
X155627048Y-90013415D01*
X155627051Y-90013419D01*
X155731580Y-90117948D01*
X155731584Y-90117951D01*
X155854498Y-90200080D01*
X155854511Y-90200087D01*
X155991082Y-90256656D01*
X155991087Y-90256658D01*
X155991091Y-90256658D01*
X155991092Y-90256659D01*
X156136079Y-90285500D01*
X156136082Y-90285500D01*
X156283920Y-90285500D01*
X156381462Y-90266096D01*
X156428913Y-90256658D01*
X156565495Y-90200084D01*
X156688416Y-90117951D01*
X156792951Y-90013416D01*
X156875084Y-89890495D01*
X156931658Y-89753913D01*
X156957966Y-89621658D01*
X156960500Y-89608920D01*
X156960500Y-89461079D01*
X156931659Y-89316092D01*
X156931658Y-89316091D01*
X156931658Y-89316087D01*
X156906557Y-89255488D01*
X156875087Y-89179511D01*
X156875080Y-89179498D01*
X156792951Y-89056584D01*
X156792948Y-89056580D01*
X156688419Y-88952051D01*
X156688415Y-88952048D01*
X156565501Y-88869919D01*
X156565488Y-88869912D01*
X156428917Y-88813343D01*
X156428907Y-88813340D01*
X156283920Y-88784500D01*
X156283918Y-88784500D01*
X156136082Y-88784500D01*
X156136080Y-88784500D01*
X155991092Y-88813340D01*
X155991082Y-88813343D01*
X155854511Y-88869912D01*
X155854498Y-88869919D01*
X155731584Y-88952048D01*
X155731580Y-88952051D01*
X155627051Y-89056580D01*
X155627048Y-89056584D01*
X155544919Y-89179498D01*
X155544912Y-89179511D01*
X155488343Y-89316082D01*
X155488340Y-89316092D01*
X155459500Y-89461079D01*
X155459500Y-89461082D01*
X155459500Y-89608918D01*
X155459500Y-89608920D01*
X155459499Y-89608920D01*
X131945288Y-89608920D01*
X131923419Y-89587051D01*
X131923411Y-89587045D01*
X131880129Y-89558125D01*
X131880079Y-89558092D01*
X131800501Y-89504919D01*
X131800488Y-89504912D01*
X131663917Y-89448343D01*
X131663907Y-89448340D01*
X131518920Y-89419500D01*
X131518918Y-89419500D01*
X131371082Y-89419500D01*
X131371080Y-89419500D01*
X131226092Y-89448340D01*
X131226082Y-89448343D01*
X131089511Y-89504912D01*
X131089498Y-89504919D01*
X130966584Y-89587048D01*
X130966580Y-89587051D01*
X130862051Y-89691580D01*
X130862048Y-89691584D01*
X130779919Y-89814498D01*
X130779912Y-89814511D01*
X130723343Y-89951082D01*
X130723340Y-89951092D01*
X130694500Y-90096079D01*
X130694500Y-90096082D01*
X130694500Y-90243918D01*
X130694500Y-90243920D01*
X130694499Y-90243920D01*
X119245288Y-90243920D01*
X119223419Y-90222051D01*
X119223411Y-90222045D01*
X119180129Y-90193125D01*
X119180079Y-90193092D01*
X119100501Y-90139919D01*
X119100488Y-90139912D01*
X118963917Y-90083343D01*
X118963907Y-90083340D01*
X118818920Y-90054500D01*
X118818918Y-90054500D01*
X118671082Y-90054500D01*
X118671080Y-90054500D01*
X118526092Y-90083340D01*
X118526082Y-90083343D01*
X118389511Y-90139912D01*
X118389498Y-90139919D01*
X118266584Y-90222048D01*
X118266580Y-90222051D01*
X118162051Y-90326580D01*
X118162048Y-90326584D01*
X118079919Y-90449498D01*
X118079912Y-90449511D01*
X118023343Y-90586082D01*
X118023340Y-90586092D01*
X117994500Y-90731079D01*
X117994500Y-90731082D01*
X117994500Y-90878918D01*
X117994500Y-90878920D01*
X117994499Y-90878920D01*
X83685500Y-90878920D01*
X83685500Y-88534778D01*
X89532000Y-88534778D01*
X89532000Y-88755222D01*
X89543223Y-88826079D01*
X89566485Y-88972952D01*
X89634603Y-89182603D01*
X89634604Y-89182606D01*
X89671744Y-89255495D01*
X89734376Y-89378416D01*
X89734687Y-89379025D01*
X89864252Y-89557358D01*
X89864256Y-89557363D01*
X90020136Y-89713243D01*
X90020141Y-89713247D01*
X90159503Y-89814498D01*
X90198478Y-89842815D01*
X90326875Y-89908237D01*
X90394893Y-89942895D01*
X90394896Y-89942896D01*
X90499721Y-89976955D01*
X90604549Y-90011015D01*
X90822278Y-90045500D01*
X90822279Y-90045500D01*
X92842721Y-90045500D01*
X92842722Y-90045500D01*
X93060451Y-90011015D01*
X93270106Y-89942895D01*
X93466522Y-89842815D01*
X93644865Y-89713242D01*
X93800742Y-89557365D01*
X93930315Y-89379022D01*
X94030395Y-89182606D01*
X94098515Y-88972951D01*
X94133000Y-88755222D01*
X94133000Y-88534778D01*
X94098515Y-88317049D01*
X94064455Y-88212221D01*
X94030396Y-88107396D01*
X94030395Y-88107393D01*
X93995737Y-88039375D01*
X93930315Y-87910978D01*
X93885225Y-87848917D01*
X93800747Y-87732641D01*
X93800743Y-87732636D01*
X93772027Y-87703920D01*
X100849499Y-87703920D01*
X100878340Y-87848907D01*
X100878343Y-87848917D01*
X100934912Y-87985488D01*
X100934919Y-87985501D01*
X101017048Y-88108415D01*
X101017051Y-88108419D01*
X101121580Y-88212948D01*
X101121584Y-88212951D01*
X101244498Y-88295080D01*
X101244511Y-88295087D01*
X101381082Y-88351656D01*
X101381087Y-88351658D01*
X101381091Y-88351658D01*
X101381092Y-88351659D01*
X101526079Y-88380500D01*
X101526082Y-88380500D01*
X101673920Y-88380500D01*
X101771462Y-88361096D01*
X101818913Y-88351658D01*
X101849665Y-88338920D01*
X138314499Y-88338920D01*
X138343340Y-88483907D01*
X138343343Y-88483917D01*
X138399912Y-88620488D01*
X138399919Y-88620501D01*
X138482048Y-88743415D01*
X138482051Y-88743419D01*
X138586580Y-88847948D01*
X138586584Y-88847951D01*
X138709498Y-88930080D01*
X138709511Y-88930087D01*
X138846082Y-88986656D01*
X138846087Y-88986658D01*
X138846091Y-88986658D01*
X138846092Y-88986659D01*
X138991079Y-89015500D01*
X138991082Y-89015500D01*
X139138920Y-89015500D01*
X139236462Y-88996096D01*
X139283913Y-88986658D01*
X139420495Y-88930084D01*
X139543416Y-88847951D01*
X139647951Y-88743416D01*
X139730084Y-88620495D01*
X139786658Y-88483913D01*
X139812966Y-88351658D01*
X139815500Y-88338920D01*
X156729499Y-88338920D01*
X156758340Y-88483907D01*
X156758343Y-88483917D01*
X156814912Y-88620488D01*
X156814919Y-88620501D01*
X156897048Y-88743415D01*
X156897051Y-88743419D01*
X157001580Y-88847948D01*
X157001584Y-88847951D01*
X157124498Y-88930080D01*
X157124511Y-88930087D01*
X157261082Y-88986656D01*
X157261087Y-88986658D01*
X157261091Y-88986658D01*
X157261092Y-88986659D01*
X157406079Y-89015500D01*
X157406082Y-89015500D01*
X157553920Y-89015500D01*
X157651462Y-88996096D01*
X157698913Y-88986658D01*
X157729665Y-88973920D01*
X161174499Y-88973920D01*
X161203340Y-89118907D01*
X161203343Y-89118917D01*
X161259912Y-89255488D01*
X161259919Y-89255501D01*
X161342048Y-89378415D01*
X161342051Y-89378419D01*
X161446580Y-89482948D01*
X161446584Y-89482951D01*
X161569498Y-89565080D01*
X161569511Y-89565087D01*
X161706082Y-89621656D01*
X161706087Y-89621658D01*
X161706091Y-89621658D01*
X161706092Y-89621659D01*
X161851079Y-89650500D01*
X161851082Y-89650500D01*
X161998920Y-89650500D01*
X162096462Y-89631096D01*
X162143913Y-89621658D01*
X162280495Y-89565084D01*
X162403416Y-89482951D01*
X162507951Y-89378416D01*
X162590084Y-89255495D01*
X162646658Y-89118913D01*
X162672966Y-88986658D01*
X162675500Y-88973920D01*
X166889499Y-88973920D01*
X166918340Y-89118907D01*
X166918343Y-89118917D01*
X166974912Y-89255488D01*
X166974919Y-89255501D01*
X167057048Y-89378415D01*
X167057051Y-89378419D01*
X167161580Y-89482948D01*
X167161584Y-89482951D01*
X167284498Y-89565080D01*
X167284511Y-89565087D01*
X167421082Y-89621656D01*
X167421087Y-89621658D01*
X167421091Y-89621658D01*
X167421092Y-89621659D01*
X167566079Y-89650500D01*
X167566082Y-89650500D01*
X167713920Y-89650500D01*
X167811462Y-89631096D01*
X167858913Y-89621658D01*
X167995495Y-89565084D01*
X168118416Y-89482951D01*
X168222951Y-89378416D01*
X168305084Y-89255495D01*
X168361658Y-89118913D01*
X168387966Y-88986658D01*
X168390500Y-88973920D01*
X168390500Y-88826079D01*
X168361659Y-88681092D01*
X168361658Y-88681091D01*
X168361658Y-88681087D01*
X168336557Y-88620488D01*
X168305087Y-88544511D01*
X168305080Y-88544498D01*
X168222951Y-88421584D01*
X168222948Y-88421580D01*
X168118419Y-88317051D01*
X168118415Y-88317048D01*
X167995501Y-88234919D01*
X167995488Y-88234912D01*
X167858917Y-88178343D01*
X167858907Y-88178340D01*
X167713920Y-88149500D01*
X167713918Y-88149500D01*
X167566082Y-88149500D01*
X167566080Y-88149500D01*
X167421092Y-88178340D01*
X167421082Y-88178343D01*
X167284511Y-88234912D01*
X167284498Y-88234919D01*
X167161584Y-88317048D01*
X167161580Y-88317051D01*
X167057051Y-88421580D01*
X167057048Y-88421584D01*
X166974919Y-88544498D01*
X166974912Y-88544511D01*
X166918343Y-88681082D01*
X166918340Y-88681092D01*
X166889500Y-88826079D01*
X166889500Y-88826082D01*
X166889500Y-88973918D01*
X166889500Y-88973920D01*
X166889499Y-88973920D01*
X162675500Y-88973920D01*
X162675500Y-88826079D01*
X162646659Y-88681092D01*
X162646658Y-88681091D01*
X162646658Y-88681087D01*
X162621557Y-88620488D01*
X162590087Y-88544511D01*
X162590080Y-88544498D01*
X162507951Y-88421584D01*
X162507948Y-88421580D01*
X162403419Y-88317051D01*
X162403415Y-88317048D01*
X162280501Y-88234919D01*
X162280488Y-88234912D01*
X162143917Y-88178343D01*
X162143907Y-88178340D01*
X161998920Y-88149500D01*
X161998918Y-88149500D01*
X161851082Y-88149500D01*
X161851080Y-88149500D01*
X161706092Y-88178340D01*
X161706082Y-88178343D01*
X161569511Y-88234912D01*
X161569498Y-88234919D01*
X161446584Y-88317048D01*
X161446580Y-88317051D01*
X161342051Y-88421580D01*
X161342048Y-88421584D01*
X161259919Y-88544498D01*
X161259912Y-88544511D01*
X161203343Y-88681082D01*
X161203340Y-88681092D01*
X161174500Y-88826079D01*
X161174500Y-88826082D01*
X161174500Y-88973918D01*
X161174500Y-88973920D01*
X161174499Y-88973920D01*
X157729665Y-88973920D01*
X157835495Y-88930084D01*
X157958416Y-88847951D01*
X158062951Y-88743416D01*
X158145084Y-88620495D01*
X158201658Y-88483913D01*
X158227966Y-88351658D01*
X158230500Y-88338920D01*
X158230500Y-88191079D01*
X158201659Y-88046092D01*
X158201658Y-88046091D01*
X158201658Y-88046087D01*
X158176557Y-87985488D01*
X158145087Y-87909511D01*
X158145080Y-87909498D01*
X158062951Y-87786584D01*
X158062948Y-87786580D01*
X157958419Y-87682051D01*
X157958415Y-87682048D01*
X157835501Y-87599919D01*
X157835488Y-87599912D01*
X157698917Y-87543343D01*
X157698907Y-87543340D01*
X157553920Y-87514500D01*
X157553918Y-87514500D01*
X157406082Y-87514500D01*
X157406080Y-87514500D01*
X157261092Y-87543340D01*
X157261082Y-87543343D01*
X157124511Y-87599912D01*
X157124498Y-87599919D01*
X157001584Y-87682048D01*
X157001580Y-87682051D01*
X156897051Y-87786580D01*
X156897048Y-87786584D01*
X156814919Y-87909498D01*
X156814912Y-87909511D01*
X156758343Y-88046082D01*
X156758340Y-88046092D01*
X156729500Y-88191079D01*
X156729500Y-88191082D01*
X156729500Y-88338918D01*
X156729500Y-88338920D01*
X156729499Y-88338920D01*
X139815500Y-88338920D01*
X139815500Y-88191079D01*
X139786659Y-88046092D01*
X139786658Y-88046091D01*
X139786658Y-88046087D01*
X139761557Y-87985488D01*
X139730087Y-87909511D01*
X139730080Y-87909498D01*
X139647951Y-87786584D01*
X139647948Y-87786580D01*
X139543419Y-87682051D01*
X139543415Y-87682048D01*
X139420501Y-87599919D01*
X139420488Y-87599912D01*
X139283917Y-87543343D01*
X139283907Y-87543340D01*
X139138920Y-87514500D01*
X139138918Y-87514500D01*
X138991082Y-87514500D01*
X138991080Y-87514500D01*
X138846092Y-87543340D01*
X138846082Y-87543343D01*
X138709511Y-87599912D01*
X138709498Y-87599919D01*
X138586584Y-87682048D01*
X138586580Y-87682051D01*
X138482051Y-87786580D01*
X138482048Y-87786584D01*
X138399919Y-87909498D01*
X138399912Y-87909511D01*
X138343343Y-88046082D01*
X138343340Y-88046092D01*
X138314500Y-88191079D01*
X138314500Y-88191082D01*
X138314500Y-88338918D01*
X138314500Y-88338920D01*
X138314499Y-88338920D01*
X101849665Y-88338920D01*
X101955495Y-88295084D01*
X102078416Y-88212951D01*
X102182951Y-88108416D01*
X102265084Y-87985495D01*
X102321658Y-87848913D01*
X102344787Y-87732641D01*
X102350500Y-87703920D01*
X102350500Y-87556079D01*
X102321659Y-87411092D01*
X102321658Y-87411091D01*
X102321658Y-87411087D01*
X102295156Y-87347105D01*
X102265087Y-87274511D01*
X102265080Y-87274498D01*
X102182951Y-87151584D01*
X102182948Y-87151580D01*
X102078419Y-87047051D01*
X102078415Y-87047048D01*
X101955501Y-86964919D01*
X101955488Y-86964912D01*
X101818917Y-86908343D01*
X101818907Y-86908340D01*
X101673920Y-86879500D01*
X101673918Y-86879500D01*
X101526082Y-86879500D01*
X101526080Y-86879500D01*
X101381092Y-86908340D01*
X101381082Y-86908343D01*
X101244511Y-86964912D01*
X101244498Y-86964919D01*
X101121584Y-87047048D01*
X101121580Y-87047051D01*
X101017051Y-87151580D01*
X101017048Y-87151584D01*
X100934919Y-87274498D01*
X100934912Y-87274511D01*
X100878343Y-87411082D01*
X100878340Y-87411092D01*
X100849500Y-87556079D01*
X100849500Y-87556082D01*
X100849500Y-87703918D01*
X100849500Y-87703920D01*
X100849499Y-87703920D01*
X93772027Y-87703920D01*
X93644863Y-87576756D01*
X93644858Y-87576752D01*
X93466525Y-87447187D01*
X93466524Y-87447186D01*
X93466522Y-87447185D01*
X93395686Y-87411092D01*
X93270106Y-87347104D01*
X93270103Y-87347103D01*
X93060452Y-87278985D01*
X92951586Y-87261742D01*
X92842722Y-87244500D01*
X90822278Y-87244500D01*
X90749701Y-87255995D01*
X90604547Y-87278985D01*
X90394896Y-87347103D01*
X90394893Y-87347104D01*
X90198474Y-87447187D01*
X90020141Y-87576752D01*
X90020136Y-87576756D01*
X89864256Y-87732636D01*
X89864252Y-87732641D01*
X89734687Y-87910974D01*
X89634604Y-88107393D01*
X89634603Y-88107396D01*
X89566485Y-88317047D01*
X89563021Y-88338918D01*
X89532000Y-88534778D01*
X83685500Y-88534778D01*
X83685500Y-85034778D01*
X89532000Y-85034778D01*
X89532000Y-85255222D01*
X89549242Y-85364086D01*
X89566485Y-85472952D01*
X89634603Y-85682603D01*
X89634604Y-85682606D01*
X89734687Y-85879025D01*
X89864252Y-86057358D01*
X89864256Y-86057363D01*
X90020136Y-86213243D01*
X90020141Y-86213247D01*
X90175692Y-86326260D01*
X90198478Y-86342815D01*
X90291240Y-86390080D01*
X90394893Y-86442895D01*
X90394896Y-86442896D01*
X90495243Y-86475500D01*
X90604549Y-86511015D01*
X90822278Y-86545500D01*
X90822279Y-86545500D01*
X92842721Y-86545500D01*
X92842722Y-86545500D01*
X93060451Y-86511015D01*
X93270106Y-86442895D01*
X93287720Y-86433920D01*
X99579499Y-86433920D01*
X99608340Y-86578907D01*
X99608343Y-86578917D01*
X99664912Y-86715488D01*
X99664919Y-86715501D01*
X99747048Y-86838415D01*
X99747051Y-86838419D01*
X99851580Y-86942948D01*
X99851584Y-86942951D01*
X99974498Y-87025080D01*
X99974511Y-87025087D01*
X100111082Y-87081656D01*
X100111087Y-87081658D01*
X100111091Y-87081658D01*
X100111092Y-87081659D01*
X100256079Y-87110500D01*
X100256082Y-87110500D01*
X100403920Y-87110500D01*
X100501462Y-87091096D01*
X100548913Y-87081658D01*
X100685495Y-87025084D01*
X100808416Y-86942951D01*
X100912951Y-86838416D01*
X100995084Y-86715495D01*
X101051658Y-86578913D01*
X101077966Y-86446658D01*
X101080500Y-86433920D01*
X101080500Y-86286079D01*
X101051659Y-86141092D01*
X101051658Y-86141091D01*
X101051658Y-86141087D01*
X101026557Y-86080488D01*
X100995087Y-86004511D01*
X100995080Y-86004498D01*
X100912951Y-85881584D01*
X100912948Y-85881580D01*
X100830288Y-85798920D01*
X104024499Y-85798920D01*
X104053340Y-85943907D01*
X104053343Y-85943917D01*
X104109912Y-86080488D01*
X104109919Y-86080501D01*
X104192048Y-86203415D01*
X104192051Y-86203419D01*
X104296580Y-86307948D01*
X104296584Y-86307951D01*
X104419498Y-86390080D01*
X104419511Y-86390087D01*
X104556082Y-86446656D01*
X104556087Y-86446658D01*
X104556091Y-86446658D01*
X104556092Y-86446659D01*
X104701079Y-86475500D01*
X104701082Y-86475500D01*
X104848920Y-86475500D01*
X104946462Y-86456096D01*
X104993913Y-86446658D01*
X105024665Y-86433920D01*
X116724499Y-86433920D01*
X116753340Y-86578907D01*
X116753343Y-86578917D01*
X116809912Y-86715488D01*
X116809919Y-86715501D01*
X116892048Y-86838415D01*
X116892051Y-86838419D01*
X116996580Y-86942948D01*
X116996584Y-86942951D01*
X117119498Y-87025080D01*
X117119511Y-87025087D01*
X117256082Y-87081656D01*
X117256087Y-87081658D01*
X117256091Y-87081658D01*
X117256092Y-87081659D01*
X117401079Y-87110500D01*
X117401082Y-87110500D01*
X117548920Y-87110500D01*
X117646462Y-87091096D01*
X117693913Y-87081658D01*
X117724665Y-87068920D01*
X134504499Y-87068920D01*
X134533340Y-87213907D01*
X134533343Y-87213917D01*
X134589912Y-87350488D01*
X134589919Y-87350501D01*
X134672048Y-87473415D01*
X134672051Y-87473419D01*
X134776580Y-87577948D01*
X134776584Y-87577951D01*
X134899498Y-87660080D01*
X134899511Y-87660087D01*
X135036082Y-87716656D01*
X135036087Y-87716658D01*
X135036091Y-87716658D01*
X135036092Y-87716659D01*
X135181079Y-87745500D01*
X135181082Y-87745500D01*
X135328920Y-87745500D01*
X135426462Y-87726096D01*
X135473913Y-87716658D01*
X135610495Y-87660084D01*
X135733416Y-87577951D01*
X135837951Y-87473416D01*
X135920084Y-87350495D01*
X135976658Y-87213913D01*
X136002966Y-87081658D01*
X136005500Y-87068920D01*
X136005500Y-86921079D01*
X135976659Y-86776092D01*
X135976658Y-86776091D01*
X135976658Y-86776087D01*
X135951557Y-86715488D01*
X135920087Y-86639511D01*
X135920080Y-86639498D01*
X135837951Y-86516584D01*
X135837948Y-86516580D01*
X135733419Y-86412051D01*
X135733415Y-86412048D01*
X135610501Y-86329919D01*
X135610488Y-86329912D01*
X135473917Y-86273343D01*
X135473907Y-86273340D01*
X135328920Y-86244500D01*
X135328918Y-86244500D01*
X135181082Y-86244500D01*
X135181080Y-86244500D01*
X135036092Y-86273340D01*
X135036082Y-86273343D01*
X134899511Y-86329912D01*
X134899498Y-86329919D01*
X134776584Y-86412048D01*
X134776580Y-86412051D01*
X134672051Y-86516580D01*
X134672048Y-86516584D01*
X134589919Y-86639498D01*
X134589912Y-86639511D01*
X134533343Y-86776082D01*
X134533340Y-86776092D01*
X134504500Y-86921079D01*
X134504500Y-86921082D01*
X134504500Y-87068918D01*
X134504500Y-87068920D01*
X134504499Y-87068920D01*
X117724665Y-87068920D01*
X117830495Y-87025084D01*
X117953416Y-86942951D01*
X118057951Y-86838416D01*
X118140084Y-86715495D01*
X118196658Y-86578913D01*
X118222966Y-86446658D01*
X118225500Y-86433920D01*
X118225500Y-86286079D01*
X118196659Y-86141092D01*
X118196658Y-86141091D01*
X118196658Y-86141087D01*
X118171557Y-86080488D01*
X118140087Y-86004511D01*
X118140080Y-86004498D01*
X118057951Y-85881584D01*
X118057948Y-85881580D01*
X117975288Y-85798920D01*
X159269499Y-85798920D01*
X159298340Y-85943907D01*
X159298343Y-85943917D01*
X159354912Y-86080488D01*
X159354919Y-86080501D01*
X159437048Y-86203415D01*
X159437051Y-86203419D01*
X159541580Y-86307948D01*
X159541584Y-86307951D01*
X159664498Y-86390080D01*
X159664511Y-86390087D01*
X159801082Y-86446656D01*
X159801087Y-86446658D01*
X159801091Y-86446658D01*
X159801092Y-86446659D01*
X159946079Y-86475500D01*
X159946082Y-86475500D01*
X160093920Y-86475500D01*
X160191462Y-86456096D01*
X160238913Y-86446658D01*
X160375495Y-86390084D01*
X160498416Y-86307951D01*
X160602951Y-86203416D01*
X160685084Y-86080495D01*
X160741658Y-85943913D01*
X160767966Y-85811658D01*
X160770500Y-85798920D01*
X160770500Y-85651079D01*
X160741659Y-85506092D01*
X160741658Y-85506091D01*
X160741658Y-85506087D01*
X160716557Y-85445488D01*
X160685087Y-85369511D01*
X160685080Y-85369498D01*
X160602951Y-85246584D01*
X160602948Y-85246580D01*
X160520288Y-85163920D01*
X177049499Y-85163920D01*
X177078340Y-85308907D01*
X177078343Y-85308917D01*
X177134912Y-85445488D01*
X177134919Y-85445501D01*
X177217048Y-85568415D01*
X177217051Y-85568419D01*
X177321580Y-85672948D01*
X177321584Y-85672951D01*
X177444498Y-85755080D01*
X177444511Y-85755087D01*
X177581082Y-85811656D01*
X177581087Y-85811658D01*
X177581091Y-85811658D01*
X177581092Y-85811659D01*
X177726079Y-85840500D01*
X177726082Y-85840500D01*
X177873920Y-85840500D01*
X177971462Y-85821096D01*
X178018913Y-85811658D01*
X178155495Y-85755084D01*
X178278416Y-85672951D01*
X178382951Y-85568416D01*
X178465084Y-85445495D01*
X178521658Y-85308913D01*
X178547966Y-85176658D01*
X178550500Y-85163920D01*
X178550500Y-85016079D01*
X178521659Y-84871092D01*
X178521658Y-84871091D01*
X178521658Y-84871087D01*
X178496557Y-84810488D01*
X178465087Y-84734511D01*
X178465080Y-84734498D01*
X178382951Y-84611584D01*
X178382948Y-84611580D01*
X178278419Y-84507051D01*
X178278415Y-84507048D01*
X178155501Y-84424919D01*
X178155488Y-84424912D01*
X178018917Y-84368343D01*
X178018907Y-84368340D01*
X177873920Y-84339500D01*
X177873918Y-84339500D01*
X177726082Y-84339500D01*
X177726080Y-84339500D01*
X177581092Y-84368340D01*
X177581082Y-84368343D01*
X177444511Y-84424912D01*
X177444498Y-84424919D01*
X177321584Y-84507048D01*
X177321580Y-84507051D01*
X177217051Y-84611580D01*
X177217048Y-84611584D01*
X177134919Y-84734498D01*
X177134912Y-84734511D01*
X177078343Y-84871082D01*
X177078340Y-84871092D01*
X177049500Y-85016079D01*
X177049500Y-85016082D01*
X177049500Y-85163918D01*
X177049500Y-85163920D01*
X177049499Y-85163920D01*
X160520288Y-85163920D01*
X160498419Y-85142051D01*
X160498411Y-85142045D01*
X160455129Y-85113125D01*
X160455079Y-85113092D01*
X160375501Y-85059919D01*
X160375488Y-85059912D01*
X160238917Y-85003343D01*
X160238907Y-85003340D01*
X160093920Y-84974500D01*
X160093918Y-84974500D01*
X159946082Y-84974500D01*
X159946080Y-84974500D01*
X159801092Y-85003340D01*
X159801082Y-85003343D01*
X159664511Y-85059912D01*
X159664498Y-85059919D01*
X159541584Y-85142048D01*
X159541580Y-85142051D01*
X159437051Y-85246580D01*
X159437048Y-85246584D01*
X159354919Y-85369498D01*
X159354912Y-85369511D01*
X159298343Y-85506082D01*
X159298340Y-85506092D01*
X159269500Y-85651079D01*
X159269500Y-85651082D01*
X159269500Y-85798918D01*
X159269500Y-85798920D01*
X159269499Y-85798920D01*
X117975288Y-85798920D01*
X117953419Y-85777051D01*
X117953411Y-85777045D01*
X117910129Y-85748125D01*
X117910079Y-85748092D01*
X117830501Y-85694919D01*
X117830488Y-85694912D01*
X117693917Y-85638343D01*
X117693907Y-85638340D01*
X117548920Y-85609500D01*
X117548918Y-85609500D01*
X117401082Y-85609500D01*
X117401080Y-85609500D01*
X117256092Y-85638340D01*
X117256082Y-85638343D01*
X117119511Y-85694912D01*
X117119498Y-85694919D01*
X116996584Y-85777048D01*
X116996580Y-85777051D01*
X116892051Y-85881580D01*
X116892048Y-85881584D01*
X116809919Y-86004498D01*
X116809912Y-86004511D01*
X116753343Y-86141082D01*
X116753340Y-86141092D01*
X116724500Y-86286079D01*
X116724500Y-86286082D01*
X116724500Y-86433918D01*
X116724500Y-86433920D01*
X116724499Y-86433920D01*
X105024665Y-86433920D01*
X105130495Y-86390084D01*
X105253416Y-86307951D01*
X105357951Y-86203416D01*
X105440084Y-86080495D01*
X105496658Y-85943913D01*
X105522966Y-85811658D01*
X105525500Y-85798920D01*
X105525500Y-85651079D01*
X105496659Y-85506092D01*
X105496658Y-85506091D01*
X105496658Y-85506087D01*
X105471557Y-85445488D01*
X105440087Y-85369511D01*
X105440080Y-85369498D01*
X105357951Y-85246584D01*
X105357948Y-85246580D01*
X105253419Y-85142051D01*
X105253415Y-85142048D01*
X105130501Y-85059919D01*
X105130488Y-85059912D01*
X104993917Y-85003343D01*
X104993907Y-85003340D01*
X104848920Y-84974500D01*
X104848918Y-84974500D01*
X104701082Y-84974500D01*
X104701080Y-84974500D01*
X104556092Y-85003340D01*
X104556082Y-85003343D01*
X104419511Y-85059912D01*
X104419498Y-85059919D01*
X104296584Y-85142048D01*
X104296580Y-85142051D01*
X104192051Y-85246580D01*
X104192048Y-85246584D01*
X104109919Y-85369498D01*
X104109912Y-85369511D01*
X104053343Y-85506082D01*
X104053340Y-85506092D01*
X104024500Y-85651079D01*
X104024500Y-85651082D01*
X104024500Y-85798918D01*
X104024500Y-85798920D01*
X104024499Y-85798920D01*
X100830288Y-85798920D01*
X100808419Y-85777051D01*
X100808411Y-85777045D01*
X100765129Y-85748125D01*
X100765079Y-85748092D01*
X100685501Y-85694919D01*
X100685488Y-85694912D01*
X100548917Y-85638343D01*
X100548907Y-85638340D01*
X100403920Y-85609500D01*
X100403918Y-85609500D01*
X100256082Y-85609500D01*
X100256080Y-85609500D01*
X100111092Y-85638340D01*
X100111082Y-85638343D01*
X99974511Y-85694912D01*
X99974498Y-85694919D01*
X99851584Y-85777048D01*
X99851580Y-85777051D01*
X99747051Y-85881580D01*
X99747048Y-85881584D01*
X99664919Y-86004498D01*
X99664912Y-86004511D01*
X99608343Y-86141082D01*
X99608340Y-86141092D01*
X99579500Y-86286079D01*
X99579500Y-86286082D01*
X99579500Y-86433918D01*
X99579500Y-86433920D01*
X99579499Y-86433920D01*
X93287720Y-86433920D01*
X93466522Y-86342815D01*
X93644865Y-86213242D01*
X93800742Y-86057365D01*
X93930315Y-85879022D01*
X94030395Y-85682606D01*
X94098515Y-85472951D01*
X94133000Y-85255222D01*
X94133000Y-85034778D01*
X94098515Y-84817049D01*
X94052006Y-84673907D01*
X94030396Y-84607396D01*
X94030395Y-84607393D01*
X93979266Y-84507049D01*
X93930315Y-84410978D01*
X93848537Y-84298419D01*
X93800747Y-84232641D01*
X93800743Y-84232636D01*
X93644863Y-84076756D01*
X93644858Y-84076752D01*
X93466525Y-83947187D01*
X93466524Y-83947186D01*
X93466522Y-83947185D01*
X93361985Y-83893920D01*
X105929499Y-83893920D01*
X105958340Y-84038907D01*
X105958343Y-84038917D01*
X106014912Y-84175488D01*
X106014919Y-84175501D01*
X106097048Y-84298415D01*
X106097051Y-84298419D01*
X106201580Y-84402948D01*
X106201584Y-84402951D01*
X106324498Y-84485080D01*
X106324511Y-84485087D01*
X106461082Y-84541656D01*
X106461087Y-84541658D01*
X106461091Y-84541658D01*
X106461092Y-84541659D01*
X106606079Y-84570500D01*
X106606082Y-84570500D01*
X106753920Y-84570500D01*
X106851462Y-84551096D01*
X106898913Y-84541658D01*
X106929665Y-84528920D01*
X138949499Y-84528920D01*
X138978340Y-84673907D01*
X138978343Y-84673917D01*
X139034912Y-84810488D01*
X139034919Y-84810501D01*
X139117048Y-84933415D01*
X139117051Y-84933419D01*
X139221580Y-85037948D01*
X139221584Y-85037951D01*
X139344498Y-85120080D01*
X139344511Y-85120087D01*
X139481082Y-85176656D01*
X139481087Y-85176658D01*
X139481091Y-85176658D01*
X139481092Y-85176659D01*
X139626079Y-85205500D01*
X139626082Y-85205500D01*
X139773920Y-85205500D01*
X139871462Y-85186096D01*
X139918913Y-85176658D01*
X140055495Y-85120084D01*
X140178416Y-85037951D01*
X140282951Y-84933416D01*
X140365084Y-84810495D01*
X140421658Y-84673913D01*
X140447966Y-84541658D01*
X140450500Y-84528920D01*
X140450500Y-84381079D01*
X140421659Y-84236092D01*
X140421658Y-84236091D01*
X140421658Y-84236087D01*
X140396557Y-84175488D01*
X140365087Y-84099511D01*
X140365080Y-84099498D01*
X140282951Y-83976584D01*
X140282948Y-83976580D01*
X140200288Y-83893920D01*
X150379499Y-83893920D01*
X150408340Y-84038907D01*
X150408343Y-84038917D01*
X150464912Y-84175488D01*
X150464919Y-84175501D01*
X150547048Y-84298415D01*
X150547051Y-84298419D01*
X150651580Y-84402948D01*
X150651584Y-84402951D01*
X150774498Y-84485080D01*
X150774511Y-84485087D01*
X150911082Y-84541656D01*
X150911087Y-84541658D01*
X150911091Y-84541658D01*
X150911092Y-84541659D01*
X151056079Y-84570500D01*
X151056082Y-84570500D01*
X151203920Y-84570500D01*
X151301462Y-84551096D01*
X151348913Y-84541658D01*
X151485495Y-84485084D01*
X151608416Y-84402951D01*
X151712951Y-84298416D01*
X151795084Y-84175495D01*
X151851658Y-84038913D01*
X151877966Y-83906658D01*
X151880500Y-83893920D01*
X151880500Y-83746079D01*
X151851659Y-83601092D01*
X151851658Y-83601091D01*
X151851658Y-83601087D01*
X151826557Y-83540488D01*
X151795087Y-83464511D01*
X151795080Y-83464498D01*
X151712951Y-83341584D01*
X151712948Y-83341580D01*
X151608419Y-83237051D01*
X151608415Y-83237048D01*
X151485501Y-83154919D01*
X151485488Y-83154912D01*
X151348917Y-83098343D01*
X151348907Y-83098340D01*
X151203920Y-83069500D01*
X151203918Y-83069500D01*
X151056082Y-83069500D01*
X151056080Y-83069500D01*
X150911092Y-83098340D01*
X150911082Y-83098343D01*
X150774511Y-83154912D01*
X150774498Y-83154919D01*
X150651584Y-83237048D01*
X150651580Y-83237051D01*
X150547051Y-83341580D01*
X150547048Y-83341584D01*
X150464919Y-83464498D01*
X150464912Y-83464511D01*
X150408343Y-83601082D01*
X150408340Y-83601092D01*
X150379500Y-83746079D01*
X150379500Y-83746082D01*
X150379500Y-83893918D01*
X150379500Y-83893920D01*
X150379499Y-83893920D01*
X140200288Y-83893920D01*
X140178419Y-83872051D01*
X140178411Y-83872045D01*
X140135129Y-83843125D01*
X140135079Y-83843092D01*
X140055501Y-83789919D01*
X140055488Y-83789912D01*
X139918917Y-83733343D01*
X139918907Y-83733340D01*
X139773920Y-83704500D01*
X139773918Y-83704500D01*
X139626082Y-83704500D01*
X139626080Y-83704500D01*
X139481092Y-83733340D01*
X139481082Y-83733343D01*
X139344511Y-83789912D01*
X139344498Y-83789919D01*
X139221584Y-83872048D01*
X139221580Y-83872051D01*
X139117051Y-83976580D01*
X139117048Y-83976584D01*
X139034919Y-84099498D01*
X139034912Y-84099511D01*
X138978343Y-84236082D01*
X138978340Y-84236092D01*
X138949500Y-84381079D01*
X138949500Y-84381082D01*
X138949500Y-84528918D01*
X138949500Y-84528920D01*
X138949499Y-84528920D01*
X106929665Y-84528920D01*
X107035495Y-84485084D01*
X107158416Y-84402951D01*
X107262951Y-84298416D01*
X107345084Y-84175495D01*
X107401658Y-84038913D01*
X107427966Y-83906658D01*
X107430500Y-83893920D01*
X107430500Y-83746079D01*
X107401659Y-83601092D01*
X107401658Y-83601091D01*
X107401658Y-83601087D01*
X107376557Y-83540488D01*
X107345087Y-83464511D01*
X107345080Y-83464498D01*
X107262951Y-83341584D01*
X107262948Y-83341580D01*
X107180288Y-83258920D01*
X113154499Y-83258920D01*
X113183340Y-83403907D01*
X113183343Y-83403917D01*
X113239912Y-83540488D01*
X113239919Y-83540501D01*
X113322048Y-83663415D01*
X113322051Y-83663419D01*
X113426580Y-83767948D01*
X113426584Y-83767951D01*
X113549498Y-83850080D01*
X113549511Y-83850087D01*
X113686082Y-83906656D01*
X113686087Y-83906658D01*
X113686091Y-83906658D01*
X113686092Y-83906659D01*
X113831079Y-83935500D01*
X113831082Y-83935500D01*
X113978920Y-83935500D01*
X114076462Y-83916096D01*
X114123913Y-83906658D01*
X114260495Y-83850084D01*
X114383416Y-83767951D01*
X114487951Y-83663416D01*
X114570084Y-83540495D01*
X114626658Y-83403913D01*
X114652966Y-83271658D01*
X114655500Y-83258920D01*
X114655500Y-83111079D01*
X114626659Y-82966092D01*
X114626658Y-82966091D01*
X114626658Y-82966087D01*
X114594030Y-82887315D01*
X114570087Y-82829511D01*
X114570080Y-82829498D01*
X114487951Y-82706584D01*
X114487948Y-82706580D01*
X114405288Y-82623920D01*
X116724499Y-82623920D01*
X116753340Y-82768907D01*
X116753343Y-82768917D01*
X116809912Y-82905488D01*
X116809919Y-82905501D01*
X116892048Y-83028415D01*
X116892051Y-83028419D01*
X116996580Y-83132948D01*
X116996584Y-83132951D01*
X117119498Y-83215080D01*
X117119511Y-83215087D01*
X117256082Y-83271656D01*
X117256087Y-83271658D01*
X117256091Y-83271658D01*
X117256092Y-83271659D01*
X117401079Y-83300500D01*
X117401082Y-83300500D01*
X117548920Y-83300500D01*
X117646462Y-83281096D01*
X117693913Y-83271658D01*
X117830495Y-83215084D01*
X117953416Y-83132951D01*
X118057951Y-83028416D01*
X118140084Y-82905495D01*
X118196658Y-82768913D01*
X118222966Y-82636658D01*
X118225500Y-82623920D01*
X122439499Y-82623920D01*
X122468340Y-82768907D01*
X122468343Y-82768917D01*
X122524912Y-82905488D01*
X122524919Y-82905501D01*
X122607048Y-83028415D01*
X122607051Y-83028419D01*
X122711580Y-83132948D01*
X122711584Y-83132951D01*
X122834498Y-83215080D01*
X122834511Y-83215087D01*
X122971082Y-83271656D01*
X122971087Y-83271658D01*
X122971091Y-83271658D01*
X122971092Y-83271659D01*
X123116079Y-83300500D01*
X123116082Y-83300500D01*
X123263920Y-83300500D01*
X123361462Y-83281096D01*
X123408913Y-83271658D01*
X123545495Y-83215084D01*
X123668416Y-83132951D01*
X123772951Y-83028416D01*
X123855084Y-82905495D01*
X123911658Y-82768913D01*
X123937966Y-82636658D01*
X123940500Y-82623920D01*
X157739498Y-82623920D01*
X157768339Y-82768907D01*
X157768342Y-82768917D01*
X157824911Y-82905488D01*
X157824918Y-82905501D01*
X157907047Y-83028415D01*
X157907050Y-83028419D01*
X158011579Y-83132948D01*
X158011583Y-83132951D01*
X158134497Y-83215080D01*
X158134510Y-83215087D01*
X158271081Y-83271656D01*
X158271086Y-83271658D01*
X158271090Y-83271658D01*
X158271091Y-83271659D01*
X158416078Y-83300500D01*
X158416081Y-83300500D01*
X158563919Y-83300500D01*
X158661461Y-83281096D01*
X158708912Y-83271658D01*
X158845494Y-83215084D01*
X158968415Y-83132951D01*
X159072950Y-83028416D01*
X159155083Y-82905495D01*
X159211657Y-82768913D01*
X159237965Y-82636658D01*
X159240499Y-82623920D01*
X165119498Y-82623920D01*
X165148339Y-82768907D01*
X165148342Y-82768917D01*
X165204911Y-82905488D01*
X165204918Y-82905501D01*
X165287047Y-83028415D01*
X165287050Y-83028419D01*
X165391579Y-83132948D01*
X165391583Y-83132951D01*
X165514497Y-83215080D01*
X165514510Y-83215087D01*
X165651081Y-83271656D01*
X165651086Y-83271658D01*
X165651090Y-83271658D01*
X165651091Y-83271659D01*
X165796078Y-83300500D01*
X165796081Y-83300500D01*
X165943919Y-83300500D01*
X166041461Y-83281096D01*
X166088912Y-83271658D01*
X166225494Y-83215084D01*
X166348415Y-83132951D01*
X166452950Y-83028416D01*
X166535083Y-82905495D01*
X166591657Y-82768913D01*
X166617965Y-82636658D01*
X166620499Y-82623920D01*
X166620499Y-82476079D01*
X166591658Y-82331092D01*
X166591657Y-82331091D01*
X166591657Y-82331087D01*
X166539062Y-82204111D01*
X166535086Y-82194511D01*
X166535079Y-82194498D01*
X166452950Y-82071584D01*
X166452947Y-82071580D01*
X166348418Y-81967051D01*
X166348414Y-81967048D01*
X166225500Y-81884919D01*
X166225487Y-81884912D01*
X166088916Y-81828343D01*
X166088906Y-81828340D01*
X165943919Y-81799500D01*
X165943917Y-81799500D01*
X165796081Y-81799500D01*
X165796079Y-81799500D01*
X165651091Y-81828340D01*
X165651081Y-81828343D01*
X165514510Y-81884912D01*
X165514497Y-81884919D01*
X165391583Y-81967048D01*
X165391579Y-81967051D01*
X165287050Y-82071580D01*
X165287047Y-82071584D01*
X165204918Y-82194498D01*
X165204911Y-82194511D01*
X165148342Y-82331082D01*
X165148339Y-82331092D01*
X165119499Y-82476079D01*
X165119499Y-82476082D01*
X165119499Y-82623918D01*
X165119499Y-82623920D01*
X165119498Y-82623920D01*
X159240499Y-82623920D01*
X159240499Y-82476079D01*
X159211658Y-82331092D01*
X159211657Y-82331091D01*
X159211657Y-82331087D01*
X159159062Y-82204111D01*
X159155086Y-82194511D01*
X159155079Y-82194498D01*
X159072950Y-82071584D01*
X159072947Y-82071580D01*
X158968418Y-81967051D01*
X158968414Y-81967048D01*
X158845500Y-81884919D01*
X158845487Y-81884912D01*
X158708916Y-81828343D01*
X158708906Y-81828340D01*
X158563919Y-81799500D01*
X158563917Y-81799500D01*
X158416081Y-81799500D01*
X158416079Y-81799500D01*
X158271091Y-81828340D01*
X158271081Y-81828343D01*
X158134510Y-81884912D01*
X158134497Y-81884919D01*
X158011583Y-81967048D01*
X158011579Y-81967051D01*
X157907050Y-82071580D01*
X157907047Y-82071584D01*
X157824918Y-82194498D01*
X157824911Y-82194511D01*
X157768342Y-82331082D01*
X157768339Y-82331092D01*
X157739499Y-82476079D01*
X157739499Y-82476082D01*
X157739499Y-82623918D01*
X157739499Y-82623920D01*
X157739498Y-82623920D01*
X123940500Y-82623920D01*
X123940500Y-82476079D01*
X123911659Y-82331092D01*
X123911658Y-82331091D01*
X123911658Y-82331087D01*
X123859063Y-82204111D01*
X123855087Y-82194511D01*
X123855080Y-82194498D01*
X123772951Y-82071584D01*
X123772948Y-82071580D01*
X123668419Y-81967051D01*
X123668415Y-81967048D01*
X123545501Y-81884919D01*
X123545488Y-81884912D01*
X123408917Y-81828343D01*
X123408907Y-81828340D01*
X123263920Y-81799500D01*
X123263918Y-81799500D01*
X123116082Y-81799500D01*
X123116080Y-81799500D01*
X122971092Y-81828340D01*
X122971082Y-81828343D01*
X122834511Y-81884912D01*
X122834498Y-81884919D01*
X122711584Y-81967048D01*
X122711580Y-81967051D01*
X122607051Y-82071580D01*
X122607048Y-82071584D01*
X122524919Y-82194498D01*
X122524912Y-82194511D01*
X122468343Y-82331082D01*
X122468340Y-82331092D01*
X122439500Y-82476079D01*
X122439500Y-82476082D01*
X122439500Y-82623918D01*
X122439500Y-82623920D01*
X122439499Y-82623920D01*
X118225500Y-82623920D01*
X118225500Y-82476079D01*
X118196659Y-82331092D01*
X118196658Y-82331091D01*
X118196658Y-82331087D01*
X118144063Y-82204111D01*
X118140087Y-82194511D01*
X118140080Y-82194498D01*
X118057951Y-82071584D01*
X118057948Y-82071580D01*
X117953419Y-81967051D01*
X117953415Y-81967048D01*
X117830501Y-81884919D01*
X117830488Y-81884912D01*
X117693917Y-81828343D01*
X117693907Y-81828340D01*
X117548920Y-81799500D01*
X117548918Y-81799500D01*
X117401082Y-81799500D01*
X117401080Y-81799500D01*
X117256092Y-81828340D01*
X117256082Y-81828343D01*
X117119511Y-81884912D01*
X117119498Y-81884919D01*
X116996584Y-81967048D01*
X116996580Y-81967051D01*
X116892051Y-82071580D01*
X116892048Y-82071584D01*
X116809919Y-82194498D01*
X116809912Y-82194511D01*
X116753343Y-82331082D01*
X116753340Y-82331092D01*
X116724500Y-82476079D01*
X116724500Y-82476082D01*
X116724500Y-82623918D01*
X116724500Y-82623920D01*
X116724499Y-82623920D01*
X114405288Y-82623920D01*
X114383419Y-82602051D01*
X114383411Y-82602045D01*
X114340129Y-82573125D01*
X114340079Y-82573092D01*
X114260501Y-82519919D01*
X114260488Y-82519912D01*
X114123917Y-82463343D01*
X114123907Y-82463340D01*
X113978920Y-82434500D01*
X113978918Y-82434500D01*
X113831082Y-82434500D01*
X113831080Y-82434500D01*
X113686092Y-82463340D01*
X113686082Y-82463343D01*
X113549511Y-82519912D01*
X113549498Y-82519919D01*
X113426584Y-82602048D01*
X113426580Y-82602051D01*
X113322051Y-82706580D01*
X113322048Y-82706584D01*
X113239919Y-82829498D01*
X113239912Y-82829511D01*
X113183343Y-82966082D01*
X113183340Y-82966092D01*
X113154500Y-83111079D01*
X113154500Y-83111082D01*
X113154500Y-83258918D01*
X113154500Y-83258920D01*
X113154499Y-83258920D01*
X107180288Y-83258920D01*
X107158419Y-83237051D01*
X107158411Y-83237045D01*
X107115129Y-83208125D01*
X107115079Y-83208092D01*
X107035501Y-83154919D01*
X107035488Y-83154912D01*
X106898917Y-83098343D01*
X106898907Y-83098340D01*
X106753920Y-83069500D01*
X106753918Y-83069500D01*
X106606082Y-83069500D01*
X106606080Y-83069500D01*
X106461092Y-83098340D01*
X106461082Y-83098343D01*
X106324511Y-83154912D01*
X106324498Y-83154919D01*
X106201584Y-83237048D01*
X106201580Y-83237051D01*
X106097051Y-83341580D01*
X106097048Y-83341584D01*
X106014919Y-83464498D01*
X106014912Y-83464511D01*
X105958343Y-83601082D01*
X105958340Y-83601092D01*
X105929500Y-83746079D01*
X105929500Y-83746082D01*
X105929500Y-83893918D01*
X105929500Y-83893920D01*
X105929499Y-83893920D01*
X93361985Y-83893920D01*
X93276720Y-83850475D01*
X93276718Y-83850473D01*
X93270110Y-83847106D01*
X93270103Y-83847103D01*
X93060452Y-83778985D01*
X92951586Y-83761742D01*
X92842722Y-83744500D01*
X90822278Y-83744500D01*
X90749701Y-83755995D01*
X90604547Y-83778985D01*
X90394896Y-83847103D01*
X90394893Y-83847104D01*
X90198474Y-83947187D01*
X90020141Y-84076752D01*
X90020136Y-84076756D01*
X89864256Y-84232636D01*
X89864252Y-84232641D01*
X89734687Y-84410974D01*
X89634604Y-84607393D01*
X89634603Y-84607396D01*
X89566485Y-84817047D01*
X89566485Y-84817049D01*
X89532000Y-85034778D01*
X83685500Y-85034778D01*
X83685500Y-80945013D01*
X89532500Y-80945013D01*
X89532500Y-81395000D01*
X91284018Y-81395000D01*
X91273389Y-81413409D01*
X91232500Y-81566009D01*
X91232500Y-81723991D01*
X91273389Y-81876591D01*
X91284018Y-81895000D01*
X89532501Y-81895000D01*
X89532501Y-82344986D01*
X89542994Y-82447697D01*
X89598141Y-82614119D01*
X89598143Y-82614124D01*
X89690184Y-82763345D01*
X89814154Y-82887315D01*
X89963375Y-82979356D01*
X89963380Y-82979358D01*
X90129802Y-83034505D01*
X90129809Y-83034506D01*
X90232519Y-83044999D01*
X91582499Y-83044999D01*
X91582500Y-83044998D01*
X91582500Y-82193482D01*
X91600909Y-82204111D01*
X91753509Y-82245000D01*
X91911491Y-82245000D01*
X92064091Y-82204111D01*
X92082500Y-82193482D01*
X92082500Y-83044999D01*
X93432472Y-83044999D01*
X93432486Y-83044998D01*
X93535197Y-83034505D01*
X93701619Y-82979358D01*
X93701624Y-82979356D01*
X93850845Y-82887315D01*
X93974815Y-82763345D01*
X94066856Y-82614124D01*
X94066858Y-82614119D01*
X94122005Y-82447697D01*
X94122006Y-82447690D01*
X94132499Y-82344986D01*
X94132500Y-82344973D01*
X94132500Y-81895000D01*
X92380982Y-81895000D01*
X92391611Y-81876591D01*
X92432500Y-81723991D01*
X92432500Y-81566009D01*
X92391611Y-81413409D01*
X92380982Y-81395000D01*
X94132499Y-81395000D01*
X94132499Y-81353920D01*
X105294499Y-81353920D01*
X105323340Y-81498907D01*
X105323343Y-81498917D01*
X105379912Y-81635488D01*
X105379919Y-81635501D01*
X105462048Y-81758415D01*
X105462051Y-81758419D01*
X105566580Y-81862948D01*
X105566584Y-81862951D01*
X105689498Y-81945080D01*
X105689511Y-81945087D01*
X105826082Y-82001656D01*
X105826087Y-82001658D01*
X105826091Y-82001658D01*
X105826092Y-82001659D01*
X105971079Y-82030500D01*
X105971082Y-82030500D01*
X106118920Y-82030500D01*
X106216462Y-82011096D01*
X106263913Y-82001658D01*
X106294665Y-81988920D01*
X111644499Y-81988920D01*
X111673340Y-82133907D01*
X111673343Y-82133917D01*
X111729912Y-82270488D01*
X111729919Y-82270501D01*
X111812048Y-82393415D01*
X111812051Y-82393419D01*
X111916580Y-82497948D01*
X111916584Y-82497951D01*
X112039498Y-82580080D01*
X112039511Y-82580087D01*
X112176082Y-82636656D01*
X112176087Y-82636658D01*
X112176091Y-82636658D01*
X112176092Y-82636659D01*
X112321079Y-82665500D01*
X112321082Y-82665500D01*
X112468920Y-82665500D01*
X112566462Y-82646096D01*
X112613913Y-82636658D01*
X112750495Y-82580084D01*
X112873416Y-82497951D01*
X112977951Y-82393416D01*
X113060084Y-82270495D01*
X113116658Y-82133913D01*
X113142966Y-82001658D01*
X113145500Y-81988920D01*
X113145500Y-81841079D01*
X113116659Y-81696092D01*
X113116658Y-81696091D01*
X113116658Y-81696087D01*
X113091557Y-81635488D01*
X113060087Y-81559511D01*
X113060080Y-81559498D01*
X112977951Y-81436584D01*
X112977948Y-81436580D01*
X112873419Y-81332051D01*
X112873415Y-81332048D01*
X112750501Y-81249919D01*
X112750488Y-81249912D01*
X112613917Y-81193343D01*
X112613907Y-81193340D01*
X112468920Y-81164500D01*
X112468918Y-81164500D01*
X112321082Y-81164500D01*
X112321080Y-81164500D01*
X112176092Y-81193340D01*
X112176082Y-81193343D01*
X112039511Y-81249912D01*
X112039498Y-81249919D01*
X111916584Y-81332048D01*
X111916580Y-81332051D01*
X111812051Y-81436580D01*
X111812048Y-81436584D01*
X111729919Y-81559498D01*
X111729912Y-81559511D01*
X111673343Y-81696082D01*
X111673340Y-81696092D01*
X111644500Y-81841079D01*
X111644500Y-81841082D01*
X111644500Y-81988918D01*
X111644500Y-81988920D01*
X111644499Y-81988920D01*
X106294665Y-81988920D01*
X106400495Y-81945084D01*
X106523416Y-81862951D01*
X106627951Y-81758416D01*
X106710084Y-81635495D01*
X106766658Y-81498913D01*
X106792966Y-81366658D01*
X106795500Y-81353920D01*
X106795500Y-81206079D01*
X106766659Y-81061092D01*
X106766658Y-81061091D01*
X106766658Y-81061087D01*
X106718579Y-80945013D01*
X106710087Y-80924511D01*
X106710080Y-80924498D01*
X106627951Y-80801584D01*
X106627948Y-80801580D01*
X106523419Y-80697051D01*
X106523415Y-80697048D01*
X106400501Y-80614919D01*
X106400488Y-80614912D01*
X106263917Y-80558343D01*
X106263907Y-80558340D01*
X106118920Y-80529500D01*
X106118918Y-80529500D01*
X105971082Y-80529500D01*
X105971080Y-80529500D01*
X105826092Y-80558340D01*
X105826082Y-80558343D01*
X105689511Y-80614912D01*
X105689498Y-80614919D01*
X105566584Y-80697048D01*
X105566580Y-80697051D01*
X105462051Y-80801580D01*
X105462048Y-80801584D01*
X105379919Y-80924498D01*
X105379912Y-80924511D01*
X105323343Y-81061082D01*
X105323340Y-81061092D01*
X105294500Y-81206079D01*
X105294500Y-81206082D01*
X105294500Y-81353918D01*
X105294500Y-81353920D01*
X105294499Y-81353920D01*
X94132499Y-81353920D01*
X94132499Y-80945028D01*
X94132498Y-80945013D01*
X94122005Y-80842302D01*
X94066858Y-80675880D01*
X94066856Y-80675875D01*
X93974815Y-80526654D01*
X93850845Y-80402684D01*
X93701624Y-80310643D01*
X93701619Y-80310641D01*
X93535197Y-80255494D01*
X93535190Y-80255493D01*
X93432486Y-80245000D01*
X92082500Y-80245000D01*
X92082500Y-81096517D01*
X92064091Y-81085889D01*
X91911491Y-81045000D01*
X91753509Y-81045000D01*
X91600909Y-81085889D01*
X91582500Y-81096517D01*
X91582500Y-80245000D01*
X90232528Y-80245000D01*
X90232512Y-80245001D01*
X90129802Y-80255494D01*
X89963380Y-80310641D01*
X89963375Y-80310643D01*
X89814154Y-80402684D01*
X89690184Y-80526654D01*
X89598143Y-80675875D01*
X89598141Y-80675880D01*
X89542994Y-80842302D01*
X89542993Y-80842309D01*
X89532500Y-80945013D01*
X83685500Y-80945013D01*
X83685500Y-80083920D01*
X109104499Y-80083920D01*
X109133340Y-80228907D01*
X109133343Y-80228917D01*
X109189912Y-80365488D01*
X109189919Y-80365501D01*
X109272048Y-80488415D01*
X109272051Y-80488419D01*
X109376580Y-80592948D01*
X109376584Y-80592951D01*
X109499498Y-80675080D01*
X109499511Y-80675087D01*
X109636082Y-80731656D01*
X109636087Y-80731658D01*
X109636091Y-80731658D01*
X109636092Y-80731659D01*
X109781079Y-80760500D01*
X109781082Y-80760500D01*
X109928920Y-80760500D01*
X110026462Y-80741096D01*
X110073913Y-80731658D01*
X110179547Y-80687902D01*
X110210488Y-80675087D01*
X110210488Y-80675086D01*
X110210495Y-80675084D01*
X110333416Y-80592951D01*
X110437951Y-80488416D01*
X110520084Y-80365495D01*
X110576658Y-80228913D01*
X110589057Y-80166580D01*
X110605500Y-80083920D01*
X110605500Y-79936079D01*
X110576659Y-79791092D01*
X110576658Y-79791091D01*
X110576658Y-79791087D01*
X110551557Y-79730488D01*
X110520087Y-79654511D01*
X110520080Y-79654498D01*
X110437951Y-79531584D01*
X110437948Y-79531580D01*
X110333419Y-79427051D01*
X110333415Y-79427048D01*
X110210501Y-79344919D01*
X110210488Y-79344912D01*
X110073917Y-79288343D01*
X110073907Y-79288340D01*
X109928920Y-79259500D01*
X109928918Y-79259500D01*
X109781082Y-79259500D01*
X109781080Y-79259500D01*
X109636092Y-79288340D01*
X109636082Y-79288343D01*
X109499511Y-79344912D01*
X109499498Y-79344919D01*
X109376584Y-79427048D01*
X109376580Y-79427051D01*
X109272051Y-79531580D01*
X109272048Y-79531584D01*
X109189919Y-79654498D01*
X109189912Y-79654511D01*
X109133343Y-79791082D01*
X109133340Y-79791092D01*
X109104500Y-79936079D01*
X109104500Y-79936082D01*
X109104500Y-80083918D01*
X109104500Y-80083920D01*
X109104499Y-80083920D01*
X83685500Y-80083920D01*
X83685500Y-78178920D01*
X129424499Y-78178920D01*
X129453340Y-78323907D01*
X129453343Y-78323917D01*
X129509912Y-78460488D01*
X129509919Y-78460501D01*
X129592048Y-78583415D01*
X129592051Y-78583419D01*
X129660951Y-78652319D01*
X129694436Y-78713642D01*
X129689452Y-78783334D01*
X129660951Y-78827681D01*
X129592051Y-78896580D01*
X129592048Y-78896584D01*
X129509919Y-79019498D01*
X129509912Y-79019511D01*
X129453343Y-79156082D01*
X129453340Y-79156092D01*
X129424500Y-79301079D01*
X129424500Y-79301082D01*
X129424500Y-79448918D01*
X129424500Y-79448920D01*
X129424499Y-79448920D01*
X129453340Y-79593907D01*
X129453343Y-79593917D01*
X129509912Y-79730488D01*
X129509919Y-79730501D01*
X129592048Y-79853415D01*
X129592051Y-79853419D01*
X129696580Y-79957948D01*
X129696584Y-79957951D01*
X129819498Y-80040080D01*
X129819511Y-80040087D01*
X129956082Y-80096656D01*
X129956087Y-80096658D01*
X129956091Y-80096658D01*
X129956092Y-80096659D01*
X130101079Y-80125500D01*
X130101082Y-80125500D01*
X130248920Y-80125500D01*
X130346462Y-80106096D01*
X130393913Y-80096658D01*
X130530495Y-80040084D01*
X130653416Y-79957951D01*
X130757951Y-79853416D01*
X130840084Y-79730495D01*
X130896658Y-79593913D01*
X130920729Y-79472904D01*
X130925500Y-79448920D01*
X133234499Y-79448920D01*
X133263340Y-79593907D01*
X133263343Y-79593917D01*
X133319912Y-79730488D01*
X133319919Y-79730501D01*
X133402048Y-79853415D01*
X133402051Y-79853419D01*
X133506580Y-79957948D01*
X133506584Y-79957951D01*
X133629498Y-80040080D01*
X133629511Y-80040087D01*
X133766082Y-80096656D01*
X133766087Y-80096658D01*
X133766091Y-80096658D01*
X133766092Y-80096659D01*
X133911079Y-80125500D01*
X133911082Y-80125500D01*
X134058920Y-80125500D01*
X134156462Y-80106096D01*
X134203913Y-80096658D01*
X134340495Y-80040084D01*
X134340495Y-80040083D01*
X134344367Y-80038480D01*
X134413837Y-80031011D01*
X134476316Y-80062286D01*
X134511968Y-80122375D01*
X134513437Y-80128849D01*
X134533340Y-80228907D01*
X134533343Y-80228917D01*
X134589912Y-80365488D01*
X134589919Y-80365501D01*
X134672048Y-80488415D01*
X134672051Y-80488419D01*
X134776580Y-80592948D01*
X134776584Y-80592951D01*
X134899498Y-80675080D01*
X134899511Y-80675087D01*
X135036082Y-80731656D01*
X135036087Y-80731658D01*
X135036091Y-80731658D01*
X135036092Y-80731659D01*
X135181079Y-80760500D01*
X135181082Y-80760500D01*
X135328920Y-80760500D01*
X135426462Y-80741096D01*
X135473913Y-80731658D01*
X135504665Y-80718920D01*
X147204499Y-80718920D01*
X147233340Y-80863907D01*
X147233343Y-80863917D01*
X147289912Y-81000488D01*
X147289919Y-81000501D01*
X147372048Y-81123415D01*
X147372051Y-81123419D01*
X147476580Y-81227948D01*
X147476584Y-81227951D01*
X147599498Y-81310080D01*
X147599511Y-81310087D01*
X147736082Y-81366656D01*
X147736087Y-81366658D01*
X147736091Y-81366658D01*
X147736092Y-81366659D01*
X147881079Y-81395500D01*
X147881082Y-81395500D01*
X148028920Y-81395500D01*
X148126462Y-81376096D01*
X148173913Y-81366658D01*
X148204665Y-81353920D01*
X153554499Y-81353920D01*
X153583340Y-81498907D01*
X153583343Y-81498917D01*
X153639912Y-81635488D01*
X153639919Y-81635501D01*
X153722048Y-81758415D01*
X153722051Y-81758419D01*
X153826580Y-81862948D01*
X153826584Y-81862951D01*
X153949498Y-81945080D01*
X153949511Y-81945087D01*
X154086082Y-82001656D01*
X154086087Y-82001658D01*
X154086091Y-82001658D01*
X154086092Y-82001659D01*
X154231079Y-82030500D01*
X154231082Y-82030500D01*
X154378920Y-82030500D01*
X154476462Y-82011096D01*
X154523913Y-82001658D01*
X154660495Y-81945084D01*
X154783416Y-81862951D01*
X154887951Y-81758416D01*
X154970084Y-81635495D01*
X155026658Y-81498913D01*
X155052966Y-81366658D01*
X155055500Y-81353920D01*
X155055500Y-81206079D01*
X155026659Y-81061092D01*
X155026658Y-81061091D01*
X155026658Y-81061087D01*
X154978579Y-80945013D01*
X154970087Y-80924511D01*
X154970080Y-80924498D01*
X154887951Y-80801584D01*
X154887948Y-80801580D01*
X154783419Y-80697051D01*
X154783415Y-80697048D01*
X154660501Y-80614919D01*
X154660488Y-80614912D01*
X154523917Y-80558343D01*
X154523907Y-80558340D01*
X154378920Y-80529500D01*
X154378918Y-80529500D01*
X154231082Y-80529500D01*
X154231080Y-80529500D01*
X154086092Y-80558340D01*
X154086082Y-80558343D01*
X153949511Y-80614912D01*
X153949498Y-80614919D01*
X153826584Y-80697048D01*
X153826580Y-80697051D01*
X153722051Y-80801580D01*
X153722048Y-80801584D01*
X153639919Y-80924498D01*
X153639912Y-80924511D01*
X153583343Y-81061082D01*
X153583340Y-81061092D01*
X153554500Y-81206079D01*
X153554500Y-81206082D01*
X153554500Y-81353918D01*
X153554500Y-81353920D01*
X153554499Y-81353920D01*
X148204665Y-81353920D01*
X148310495Y-81310084D01*
X148433416Y-81227951D01*
X148537951Y-81123416D01*
X148620084Y-81000495D01*
X148676658Y-80863913D01*
X148702966Y-80731658D01*
X148705500Y-80718920D01*
X148705500Y-80571079D01*
X148676659Y-80426092D01*
X148676658Y-80426091D01*
X148676658Y-80426087D01*
X148628839Y-80310641D01*
X148620087Y-80289511D01*
X148620080Y-80289498D01*
X148537951Y-80166584D01*
X148537948Y-80166580D01*
X148433419Y-80062051D01*
X148433415Y-80062048D01*
X148310501Y-79979919D01*
X148310488Y-79979912D01*
X148173917Y-79923343D01*
X148173907Y-79923340D01*
X148028920Y-79894500D01*
X148028918Y-79894500D01*
X147881082Y-79894500D01*
X147881080Y-79894500D01*
X147736092Y-79923340D01*
X147736082Y-79923343D01*
X147599511Y-79979912D01*
X147599498Y-79979919D01*
X147476584Y-80062048D01*
X147476580Y-80062051D01*
X147372051Y-80166580D01*
X147372048Y-80166584D01*
X147289919Y-80289498D01*
X147289912Y-80289511D01*
X147233343Y-80426082D01*
X147233340Y-80426092D01*
X147204500Y-80571079D01*
X147204500Y-80571082D01*
X147204500Y-80718918D01*
X147204500Y-80718920D01*
X147204499Y-80718920D01*
X135504665Y-80718920D01*
X135579547Y-80687902D01*
X135610488Y-80675087D01*
X135610488Y-80675086D01*
X135610495Y-80675084D01*
X135733416Y-80592951D01*
X135837951Y-80488416D01*
X135920084Y-80365495D01*
X135976658Y-80228913D01*
X135989057Y-80166580D01*
X136005500Y-80083920D01*
X136005500Y-79936079D01*
X135976659Y-79791092D01*
X135976658Y-79791091D01*
X135976658Y-79791087D01*
X135951557Y-79730488D01*
X135920087Y-79654511D01*
X135920080Y-79654498D01*
X135837951Y-79531584D01*
X135837948Y-79531580D01*
X135769049Y-79462681D01*
X135735564Y-79401358D01*
X135740548Y-79331666D01*
X135769049Y-79287319D01*
X135837948Y-79218419D01*
X135837951Y-79218416D01*
X135920084Y-79095495D01*
X135976658Y-78958913D01*
X136000729Y-78837904D01*
X136005500Y-78813920D01*
X136005500Y-78666079D01*
X135976659Y-78521092D01*
X135976658Y-78521091D01*
X135976658Y-78521087D01*
X135951557Y-78460488D01*
X135920087Y-78384511D01*
X135920080Y-78384498D01*
X135837951Y-78261584D01*
X135837948Y-78261580D01*
X135733419Y-78157051D01*
X135733415Y-78157048D01*
X135610501Y-78074919D01*
X135610488Y-78074912D01*
X135473917Y-78018343D01*
X135473907Y-78018340D01*
X135328920Y-77989500D01*
X135328918Y-77989500D01*
X135181082Y-77989500D01*
X135181080Y-77989500D01*
X135036092Y-78018340D01*
X135036082Y-78018343D01*
X134899511Y-78074912D01*
X134899498Y-78074919D01*
X134776584Y-78157048D01*
X134776580Y-78157051D01*
X134672051Y-78261580D01*
X134672048Y-78261584D01*
X134589919Y-78384498D01*
X134589912Y-78384511D01*
X134533343Y-78521082D01*
X134533340Y-78521092D01*
X134513437Y-78621150D01*
X134481052Y-78683061D01*
X134420336Y-78717635D01*
X134350566Y-78713894D01*
X134344368Y-78711519D01*
X134203917Y-78653343D01*
X134203907Y-78653340D01*
X134058920Y-78624500D01*
X134058918Y-78624500D01*
X133911082Y-78624500D01*
X133911080Y-78624500D01*
X133766092Y-78653340D01*
X133766082Y-78653343D01*
X133629511Y-78709912D01*
X133629498Y-78709919D01*
X133506584Y-78792048D01*
X133506580Y-78792051D01*
X133402051Y-78896580D01*
X133402048Y-78896584D01*
X133319919Y-79019498D01*
X133319912Y-79019511D01*
X133263343Y-79156082D01*
X133263340Y-79156092D01*
X133234500Y-79301079D01*
X133234500Y-79301082D01*
X133234500Y-79448918D01*
X133234500Y-79448920D01*
X133234499Y-79448920D01*
X130925500Y-79448920D01*
X130925500Y-79301079D01*
X130896659Y-79156092D01*
X130896658Y-79156091D01*
X130896658Y-79156087D01*
X130871557Y-79095488D01*
X130840087Y-79019511D01*
X130840080Y-79019498D01*
X130757951Y-78896584D01*
X130757948Y-78896580D01*
X130689049Y-78827681D01*
X130655564Y-78766358D01*
X130660548Y-78696666D01*
X130689049Y-78652319D01*
X130757948Y-78583419D01*
X130757951Y-78583416D01*
X130840084Y-78460495D01*
X130896658Y-78323913D01*
X130925500Y-78178918D01*
X130925500Y-78031082D01*
X130925500Y-78031079D01*
X130896659Y-77886092D01*
X130896658Y-77886091D01*
X130896658Y-77886087D01*
X130896656Y-77886082D01*
X130840087Y-77749511D01*
X130840080Y-77749498D01*
X130757951Y-77626584D01*
X130757948Y-77626580D01*
X130653419Y-77522051D01*
X130653415Y-77522048D01*
X130530501Y-77439919D01*
X130530488Y-77439912D01*
X130393917Y-77383343D01*
X130393907Y-77383340D01*
X130248920Y-77354500D01*
X130248918Y-77354500D01*
X130101082Y-77354500D01*
X130101080Y-77354500D01*
X129956092Y-77383340D01*
X129956082Y-77383343D01*
X129819511Y-77439912D01*
X129819498Y-77439919D01*
X129696584Y-77522048D01*
X129696580Y-77522051D01*
X129592051Y-77626580D01*
X129592048Y-77626584D01*
X129509919Y-77749498D01*
X129509912Y-77749511D01*
X129453343Y-77886082D01*
X129453340Y-77886092D01*
X129424500Y-78031079D01*
X129424500Y-78031082D01*
X129424500Y-78178918D01*
X129424500Y-78178920D01*
X129424499Y-78178920D01*
X83685500Y-78178920D01*
X83685500Y-76910094D01*
X133861650Y-76910094D01*
X133890491Y-77055081D01*
X133890494Y-77055091D01*
X133947063Y-77191662D01*
X133947070Y-77191675D01*
X134029199Y-77314589D01*
X134029202Y-77314593D01*
X134133731Y-77419122D01*
X134133735Y-77419125D01*
X134256649Y-77501254D01*
X134256662Y-77501261D01*
X134393233Y-77557830D01*
X134393238Y-77557832D01*
X134393242Y-77557832D01*
X134393243Y-77557833D01*
X134538230Y-77586674D01*
X134538233Y-77586674D01*
X134686071Y-77586674D01*
X134783613Y-77567270D01*
X134831064Y-77557832D01*
X134967646Y-77501258D01*
X134986307Y-77488788D01*
X135052983Y-77467909D01*
X135079390Y-77470271D01*
X135101343Y-77474638D01*
X135181080Y-77490500D01*
X135181082Y-77490500D01*
X135328920Y-77490500D01*
X135426462Y-77471096D01*
X135473913Y-77461658D01*
X135610495Y-77405084D01*
X135733416Y-77322951D01*
X135837951Y-77218416D01*
X135920084Y-77095495D01*
X135976658Y-76958913D01*
X135986602Y-76908920D01*
X143394499Y-76908920D01*
X143423340Y-77053907D01*
X143423341Y-77053908D01*
X143423342Y-77053913D01*
X143459019Y-77140046D01*
X143459020Y-77140048D01*
X143466488Y-77209518D01*
X143459020Y-77234951D01*
X143423342Y-77321087D01*
X143423341Y-77321090D01*
X143423341Y-77321091D01*
X143423340Y-77321092D01*
X143394500Y-77466079D01*
X143394500Y-77466082D01*
X143394500Y-77613918D01*
X143394500Y-77613920D01*
X143394499Y-77613920D01*
X143423340Y-77758907D01*
X143423343Y-77758917D01*
X143479912Y-77895488D01*
X143479919Y-77895501D01*
X143562048Y-78018415D01*
X143562051Y-78018419D01*
X143666580Y-78122948D01*
X143666584Y-78122951D01*
X143789498Y-78205080D01*
X143789511Y-78205087D01*
X143925899Y-78261580D01*
X143926087Y-78261658D01*
X143965249Y-78269448D01*
X143999362Y-78276234D01*
X144061273Y-78308619D01*
X144095848Y-78369335D01*
X144092108Y-78439104D01*
X144089732Y-78445303D01*
X144058343Y-78521082D01*
X144058340Y-78521092D01*
X144029500Y-78666079D01*
X144029500Y-78666082D01*
X144029500Y-78813918D01*
X144029500Y-78813920D01*
X144029499Y-78813920D01*
X144058340Y-78958907D01*
X144058343Y-78958917D01*
X144114912Y-79095488D01*
X144114919Y-79095501D01*
X144197048Y-79218415D01*
X144197051Y-79218419D01*
X144301580Y-79322948D01*
X144301584Y-79322951D01*
X144424498Y-79405080D01*
X144424511Y-79405087D01*
X144561082Y-79461656D01*
X144561087Y-79461658D01*
X144561091Y-79461658D01*
X144561092Y-79461659D01*
X144706079Y-79490500D01*
X144706082Y-79490500D01*
X144853920Y-79490500D01*
X144951462Y-79471096D01*
X144998913Y-79461658D01*
X145135495Y-79405084D01*
X145258416Y-79322951D01*
X145362951Y-79218416D01*
X145445084Y-79095495D01*
X145501658Y-78958913D01*
X145525729Y-78837904D01*
X145530500Y-78813920D01*
X145530500Y-78666079D01*
X145501659Y-78521092D01*
X145501658Y-78521091D01*
X145501658Y-78521087D01*
X145476557Y-78460488D01*
X145445087Y-78384511D01*
X145445080Y-78384498D01*
X145362951Y-78261584D01*
X145362948Y-78261580D01*
X145280288Y-78178920D01*
X147839499Y-78178920D01*
X147868340Y-78323907D01*
X147868343Y-78323917D01*
X147924912Y-78460488D01*
X147924919Y-78460501D01*
X148007048Y-78583415D01*
X148007051Y-78583419D01*
X148111580Y-78687948D01*
X148111584Y-78687951D01*
X148234498Y-78770080D01*
X148234511Y-78770087D01*
X148371082Y-78826656D01*
X148371087Y-78826658D01*
X148371091Y-78826658D01*
X148371092Y-78826659D01*
X148516079Y-78855500D01*
X148516082Y-78855500D01*
X148663920Y-78855500D01*
X148761462Y-78836096D01*
X148808913Y-78826658D01*
X148945495Y-78770084D01*
X149068416Y-78687951D01*
X149172951Y-78583416D01*
X149255084Y-78460495D01*
X149311658Y-78323913D01*
X149340500Y-78178920D01*
X150379499Y-78178920D01*
X150408340Y-78323907D01*
X150408343Y-78323917D01*
X150464912Y-78460488D01*
X150464919Y-78460501D01*
X150547048Y-78583415D01*
X150547051Y-78583419D01*
X150651580Y-78687948D01*
X150651584Y-78687951D01*
X150774498Y-78770080D01*
X150774511Y-78770087D01*
X150911082Y-78826656D01*
X150911087Y-78826658D01*
X150911091Y-78826658D01*
X150911092Y-78826659D01*
X151056079Y-78855500D01*
X151056082Y-78855500D01*
X151203920Y-78855500D01*
X151301462Y-78836096D01*
X151348913Y-78826658D01*
X151485495Y-78770084D01*
X151608416Y-78687951D01*
X151712951Y-78583416D01*
X151795084Y-78460495D01*
X151851658Y-78323913D01*
X151880500Y-78178920D01*
X153554499Y-78178920D01*
X153583340Y-78323907D01*
X153583343Y-78323917D01*
X153639912Y-78460488D01*
X153639919Y-78460501D01*
X153722048Y-78583415D01*
X153722051Y-78583419D01*
X153826580Y-78687948D01*
X153826584Y-78687951D01*
X153949498Y-78770080D01*
X153949511Y-78770087D01*
X154086082Y-78826656D01*
X154086087Y-78826658D01*
X154086091Y-78826658D01*
X154086092Y-78826659D01*
X154231079Y-78855500D01*
X154231082Y-78855500D01*
X154378920Y-78855500D01*
X154476462Y-78836096D01*
X154523913Y-78826658D01*
X154660495Y-78770084D01*
X154783416Y-78687951D01*
X154887951Y-78583416D01*
X154970084Y-78460495D01*
X155026658Y-78323913D01*
X155055500Y-78178920D01*
X161809499Y-78178920D01*
X161838340Y-78323907D01*
X161838343Y-78323917D01*
X161894912Y-78460488D01*
X161894919Y-78460501D01*
X161977048Y-78583415D01*
X161977051Y-78583419D01*
X162081580Y-78687948D01*
X162081584Y-78687951D01*
X162204498Y-78770080D01*
X162204511Y-78770087D01*
X162341082Y-78826656D01*
X162341087Y-78826658D01*
X162341091Y-78826658D01*
X162341092Y-78826659D01*
X162486079Y-78855500D01*
X162486082Y-78855500D01*
X162633920Y-78855500D01*
X162731462Y-78836096D01*
X162778913Y-78826658D01*
X162915495Y-78770084D01*
X163038416Y-78687951D01*
X163142951Y-78583416D01*
X163225084Y-78460495D01*
X163281658Y-78323913D01*
X163310500Y-78178918D01*
X163310500Y-78031082D01*
X163310500Y-78031079D01*
X163281659Y-77886092D01*
X163281658Y-77886091D01*
X163281658Y-77886087D01*
X163281656Y-77886082D01*
X163225087Y-77749511D01*
X163225080Y-77749498D01*
X163142951Y-77626584D01*
X163142948Y-77626580D01*
X163038419Y-77522051D01*
X163038415Y-77522048D01*
X162915501Y-77439919D01*
X162915488Y-77439912D01*
X162778917Y-77383343D01*
X162778907Y-77383340D01*
X162633920Y-77354500D01*
X162633918Y-77354500D01*
X162486082Y-77354500D01*
X162486080Y-77354500D01*
X162341092Y-77383340D01*
X162341082Y-77383343D01*
X162204511Y-77439912D01*
X162204498Y-77439919D01*
X162081584Y-77522048D01*
X162081580Y-77522051D01*
X161977051Y-77626580D01*
X161977048Y-77626584D01*
X161894919Y-77749498D01*
X161894912Y-77749511D01*
X161838343Y-77886082D01*
X161838340Y-77886092D01*
X161809500Y-78031079D01*
X161809500Y-78031082D01*
X161809500Y-78178918D01*
X161809500Y-78178920D01*
X161809499Y-78178920D01*
X155055500Y-78178920D01*
X155055500Y-78178918D01*
X155055500Y-78031082D01*
X155055500Y-78031079D01*
X155026659Y-77886092D01*
X155026658Y-77886091D01*
X155026658Y-77886087D01*
X155026656Y-77886082D01*
X154970087Y-77749511D01*
X154970080Y-77749498D01*
X154887951Y-77626584D01*
X154887948Y-77626580D01*
X154783419Y-77522051D01*
X154783415Y-77522048D01*
X154660501Y-77439919D01*
X154660488Y-77439912D01*
X154523917Y-77383343D01*
X154523907Y-77383340D01*
X154378920Y-77354500D01*
X154378918Y-77354500D01*
X154231082Y-77354500D01*
X154231080Y-77354500D01*
X154086092Y-77383340D01*
X154086082Y-77383343D01*
X153949511Y-77439912D01*
X153949498Y-77439919D01*
X153826584Y-77522048D01*
X153826580Y-77522051D01*
X153722051Y-77626580D01*
X153722048Y-77626584D01*
X153639919Y-77749498D01*
X153639912Y-77749511D01*
X153583343Y-77886082D01*
X153583340Y-77886092D01*
X153554500Y-78031079D01*
X153554500Y-78031082D01*
X153554500Y-78178918D01*
X153554500Y-78178920D01*
X153554499Y-78178920D01*
X151880500Y-78178920D01*
X151880500Y-78178918D01*
X151880500Y-78031082D01*
X151880500Y-78031079D01*
X151851659Y-77886092D01*
X151851658Y-77886091D01*
X151851658Y-77886087D01*
X151851656Y-77886082D01*
X151795087Y-77749511D01*
X151795080Y-77749498D01*
X151712951Y-77626584D01*
X151712948Y-77626580D01*
X151608419Y-77522051D01*
X151608415Y-77522048D01*
X151485501Y-77439919D01*
X151485488Y-77439912D01*
X151348917Y-77383343D01*
X151348907Y-77383340D01*
X151203920Y-77354500D01*
X151203918Y-77354500D01*
X151056082Y-77354500D01*
X151056080Y-77354500D01*
X150911092Y-77383340D01*
X150911082Y-77383343D01*
X150774511Y-77439912D01*
X150774498Y-77439919D01*
X150651584Y-77522048D01*
X150651580Y-77522051D01*
X150547051Y-77626580D01*
X150547048Y-77626584D01*
X150464919Y-77749498D01*
X150464912Y-77749511D01*
X150408343Y-77886082D01*
X150408340Y-77886092D01*
X150379500Y-78031079D01*
X150379500Y-78031082D01*
X150379500Y-78178918D01*
X150379500Y-78178920D01*
X150379499Y-78178920D01*
X149340500Y-78178920D01*
X149340500Y-78178918D01*
X149340500Y-78031082D01*
X149340500Y-78031079D01*
X149311659Y-77886092D01*
X149311658Y-77886091D01*
X149311658Y-77886087D01*
X149311656Y-77886082D01*
X149255087Y-77749511D01*
X149255080Y-77749498D01*
X149172951Y-77626584D01*
X149172948Y-77626580D01*
X149068419Y-77522051D01*
X149068415Y-77522048D01*
X148945501Y-77439919D01*
X148945488Y-77439912D01*
X148808917Y-77383343D01*
X148808907Y-77383340D01*
X148663920Y-77354500D01*
X148663918Y-77354500D01*
X148516082Y-77354500D01*
X148516080Y-77354500D01*
X148371092Y-77383340D01*
X148371082Y-77383343D01*
X148234511Y-77439912D01*
X148234498Y-77439919D01*
X148111584Y-77522048D01*
X148111580Y-77522051D01*
X148007051Y-77626580D01*
X148007048Y-77626584D01*
X147924919Y-77749498D01*
X147924912Y-77749511D01*
X147868343Y-77886082D01*
X147868340Y-77886092D01*
X147839500Y-78031079D01*
X147839500Y-78031082D01*
X147839500Y-78178918D01*
X147839500Y-78178920D01*
X147839499Y-78178920D01*
X145280288Y-78178920D01*
X145258419Y-78157051D01*
X145258411Y-78157045D01*
X145215129Y-78128125D01*
X145215079Y-78128092D01*
X145135501Y-78074919D01*
X145135488Y-78074912D01*
X144998917Y-78018343D01*
X144998908Y-78018340D01*
X144925635Y-78003765D01*
X144863725Y-77971379D01*
X144829151Y-77910663D01*
X144832892Y-77840894D01*
X144835247Y-77834743D01*
X144866658Y-77758913D01*
X144892981Y-77626584D01*
X144895500Y-77613920D01*
X144895500Y-77466079D01*
X144866659Y-77321092D01*
X144866658Y-77321091D01*
X144866658Y-77321087D01*
X144830978Y-77234949D01*
X144823510Y-77165484D01*
X144830975Y-77140056D01*
X144866658Y-77053913D01*
X144876096Y-77006462D01*
X144895500Y-76908920D01*
X144895500Y-76761079D01*
X144866659Y-76616092D01*
X144866658Y-76616091D01*
X144866658Y-76616087D01*
X144810573Y-76480685D01*
X144810087Y-76479511D01*
X144810080Y-76479498D01*
X144727951Y-76356584D01*
X144727948Y-76356580D01*
X144645288Y-76273920D01*
X171969499Y-76273920D01*
X171998340Y-76418907D01*
X171998343Y-76418917D01*
X172054912Y-76555488D01*
X172054919Y-76555501D01*
X172137048Y-76678415D01*
X172137051Y-76678419D01*
X172241580Y-76782948D01*
X172241584Y-76782951D01*
X172364498Y-76865080D01*
X172364511Y-76865087D01*
X172473164Y-76910092D01*
X172501087Y-76921658D01*
X172501091Y-76921658D01*
X172501092Y-76921659D01*
X172646079Y-76950500D01*
X172646082Y-76950500D01*
X172793920Y-76950500D01*
X172891462Y-76931096D01*
X172938913Y-76921658D01*
X173075495Y-76865084D01*
X173198416Y-76782951D01*
X173302951Y-76678416D01*
X173385084Y-76555495D01*
X173441658Y-76418913D01*
X173467966Y-76286658D01*
X173470500Y-76273920D01*
X173470500Y-76126079D01*
X173441659Y-75981092D01*
X173441658Y-75981091D01*
X173441658Y-75981087D01*
X173416557Y-75920488D01*
X173385087Y-75844511D01*
X173385080Y-75844498D01*
X173302951Y-75721584D01*
X173302948Y-75721580D01*
X173198419Y-75617051D01*
X173198415Y-75617048D01*
X173075501Y-75534919D01*
X173075488Y-75534912D01*
X172938917Y-75478343D01*
X172938907Y-75478340D01*
X172793920Y-75449500D01*
X172793918Y-75449500D01*
X172646082Y-75449500D01*
X172646080Y-75449500D01*
X172501092Y-75478340D01*
X172501082Y-75478343D01*
X172364511Y-75534912D01*
X172364498Y-75534919D01*
X172241584Y-75617048D01*
X172241580Y-75617051D01*
X172137051Y-75721580D01*
X172137048Y-75721584D01*
X172054919Y-75844498D01*
X172054912Y-75844511D01*
X171998343Y-75981082D01*
X171998340Y-75981092D01*
X171969500Y-76126079D01*
X171969500Y-76126082D01*
X171969500Y-76273918D01*
X171969500Y-76273920D01*
X171969499Y-76273920D01*
X144645288Y-76273920D01*
X144623419Y-76252051D01*
X144623411Y-76252045D01*
X144580129Y-76223125D01*
X144580079Y-76223092D01*
X144500501Y-76169919D01*
X144500488Y-76169912D01*
X144363917Y-76113343D01*
X144363907Y-76113340D01*
X144218920Y-76084500D01*
X144218918Y-76084500D01*
X144071082Y-76084500D01*
X144071080Y-76084500D01*
X143926092Y-76113340D01*
X143926082Y-76113343D01*
X143789511Y-76169912D01*
X143789498Y-76169919D01*
X143666584Y-76252048D01*
X143666580Y-76252051D01*
X143562051Y-76356580D01*
X143562048Y-76356584D01*
X143479919Y-76479498D01*
X143479912Y-76479511D01*
X143423343Y-76616082D01*
X143423340Y-76616092D01*
X143394500Y-76761079D01*
X143394500Y-76761082D01*
X143394500Y-76908918D01*
X143394500Y-76908920D01*
X143394499Y-76908920D01*
X135986602Y-76908920D01*
X136005500Y-76813918D01*
X136005500Y-76666082D01*
X136005500Y-76666079D01*
X135976659Y-76521092D01*
X135976658Y-76521091D01*
X135976658Y-76521087D01*
X135959923Y-76480685D01*
X135920087Y-76384511D01*
X135920080Y-76384498D01*
X135837951Y-76261584D01*
X135837948Y-76261580D01*
X135733419Y-76157051D01*
X135733415Y-76157048D01*
X135610501Y-76074919D01*
X135610488Y-76074912D01*
X135473917Y-76018343D01*
X135473907Y-76018340D01*
X135328920Y-75989500D01*
X135328918Y-75989500D01*
X135181082Y-75989500D01*
X135181080Y-75989500D01*
X135036092Y-76018340D01*
X135036082Y-76018343D01*
X134899506Y-76074914D01*
X134880838Y-76087388D01*
X134814160Y-76108264D01*
X134787758Y-76105901D01*
X134686071Y-76085674D01*
X134686069Y-76085674D01*
X134538233Y-76085674D01*
X134538231Y-76085674D01*
X134393243Y-76114514D01*
X134393233Y-76114517D01*
X134256662Y-76171086D01*
X134256649Y-76171093D01*
X134133735Y-76253222D01*
X134133731Y-76253225D01*
X134029202Y-76357754D01*
X134029199Y-76357758D01*
X133947070Y-76480672D01*
X133947063Y-76480685D01*
X133890494Y-76617256D01*
X133890491Y-76617266D01*
X133861651Y-76762253D01*
X133861651Y-76762256D01*
X133861651Y-76910092D01*
X133861651Y-76910094D01*
X133861650Y-76910094D01*
X83685500Y-76910094D01*
X83685500Y-75638920D01*
X102119499Y-75638920D01*
X102148340Y-75783907D01*
X102148343Y-75783917D01*
X102204912Y-75920488D01*
X102204919Y-75920501D01*
X102287048Y-76043415D01*
X102287051Y-76043419D01*
X102391580Y-76147948D01*
X102391584Y-76147951D01*
X102514498Y-76230080D01*
X102514511Y-76230087D01*
X102651082Y-76286656D01*
X102651087Y-76286658D01*
X102651091Y-76286658D01*
X102651092Y-76286659D01*
X102796079Y-76315500D01*
X102796082Y-76315500D01*
X102943920Y-76315500D01*
X103041462Y-76296096D01*
X103088913Y-76286658D01*
X103225495Y-76230084D01*
X103348416Y-76147951D01*
X103452951Y-76043416D01*
X103535084Y-75920495D01*
X103591658Y-75783913D01*
X103617966Y-75651658D01*
X103620500Y-75638920D01*
X119264499Y-75638920D01*
X119293340Y-75783907D01*
X119293343Y-75783917D01*
X119349912Y-75920488D01*
X119349919Y-75920501D01*
X119432048Y-76043415D01*
X119432051Y-76043419D01*
X119536580Y-76147948D01*
X119536584Y-76147951D01*
X119659498Y-76230080D01*
X119659511Y-76230087D01*
X119796082Y-76286656D01*
X119796087Y-76286658D01*
X119796091Y-76286658D01*
X119796092Y-76286659D01*
X119941079Y-76315500D01*
X119941082Y-76315500D01*
X120088920Y-76315500D01*
X120186462Y-76296096D01*
X120233913Y-76286658D01*
X120370495Y-76230084D01*
X120493416Y-76147951D01*
X120597951Y-76043416D01*
X120680084Y-75920495D01*
X120736658Y-75783913D01*
X120762966Y-75651658D01*
X120765500Y-75638920D01*
X120765500Y-75491079D01*
X120736659Y-75346092D01*
X120736658Y-75346091D01*
X120736658Y-75346087D01*
X120711557Y-75285488D01*
X120678480Y-75205631D01*
X120671011Y-75136162D01*
X120702286Y-75073683D01*
X120762375Y-75038031D01*
X120768840Y-75036564D01*
X120868913Y-75016658D01*
X121005495Y-74960084D01*
X121128416Y-74877951D01*
X121232951Y-74773416D01*
X121315084Y-74650495D01*
X121371658Y-74513913D01*
X121386623Y-74438683D01*
X121400500Y-74368920D01*
X128154499Y-74368920D01*
X128183340Y-74513907D01*
X128183343Y-74513917D01*
X128239912Y-74650488D01*
X128239919Y-74650501D01*
X128322048Y-74773415D01*
X128322051Y-74773419D01*
X128426580Y-74877948D01*
X128426584Y-74877951D01*
X128549498Y-74960080D01*
X128549511Y-74960087D01*
X128686082Y-75016656D01*
X128686087Y-75016658D01*
X128686091Y-75016658D01*
X128686092Y-75016659D01*
X128831079Y-75045500D01*
X128831082Y-75045500D01*
X128978920Y-75045500D01*
X129076462Y-75026096D01*
X129123913Y-75016658D01*
X129260495Y-74960084D01*
X129383416Y-74877951D01*
X129487951Y-74773416D01*
X129570084Y-74650495D01*
X129626658Y-74513913D01*
X129641623Y-74438683D01*
X129655500Y-74368920D01*
X138949499Y-74368920D01*
X138978340Y-74513907D01*
X138978343Y-74513917D01*
X139034912Y-74650488D01*
X139034919Y-74650501D01*
X139117048Y-74773415D01*
X139117051Y-74773419D01*
X139221580Y-74877948D01*
X139221584Y-74877951D01*
X139344498Y-74960080D01*
X139344511Y-74960087D01*
X139481082Y-75016656D01*
X139481087Y-75016658D01*
X139481091Y-75016658D01*
X139481092Y-75016659D01*
X139626079Y-75045500D01*
X139626082Y-75045500D01*
X139773920Y-75045500D01*
X139871462Y-75026096D01*
X139918913Y-75016658D01*
X140055495Y-74960084D01*
X140178416Y-74877951D01*
X140200288Y-74856079D01*
X140247319Y-74809049D01*
X140308642Y-74775564D01*
X140378334Y-74780548D01*
X140422681Y-74809049D01*
X140491580Y-74877948D01*
X140491584Y-74877951D01*
X140614498Y-74960080D01*
X140614511Y-74960087D01*
X140751082Y-75016656D01*
X140751087Y-75016658D01*
X140751091Y-75016658D01*
X140751092Y-75016659D01*
X140896079Y-75045500D01*
X140896082Y-75045500D01*
X141043920Y-75045500D01*
X141141462Y-75026096D01*
X141188913Y-75016658D01*
X141219665Y-75003920D01*
X157999499Y-75003920D01*
X158028340Y-75148907D01*
X158028343Y-75148917D01*
X158084912Y-75285488D01*
X158084919Y-75285501D01*
X158167048Y-75408415D01*
X158167051Y-75408419D01*
X158271580Y-75512948D01*
X158271584Y-75512951D01*
X158394498Y-75595080D01*
X158394511Y-75595087D01*
X158531082Y-75651656D01*
X158531087Y-75651658D01*
X158531091Y-75651658D01*
X158531092Y-75651659D01*
X158676079Y-75680500D01*
X158676082Y-75680500D01*
X158823920Y-75680500D01*
X158921462Y-75661096D01*
X158968913Y-75651658D01*
X159105495Y-75595084D01*
X159228416Y-75512951D01*
X159332951Y-75408416D01*
X159415084Y-75285495D01*
X159471658Y-75148913D01*
X159493178Y-75040728D01*
X159500500Y-75003920D01*
X163849498Y-75003920D01*
X163878339Y-75148907D01*
X163878342Y-75148917D01*
X163934911Y-75285488D01*
X163934918Y-75285501D01*
X164017047Y-75408415D01*
X164017050Y-75408419D01*
X164121579Y-75512948D01*
X164121583Y-75512951D01*
X164244497Y-75595080D01*
X164244510Y-75595087D01*
X164381081Y-75651656D01*
X164381086Y-75651658D01*
X164381090Y-75651658D01*
X164381091Y-75651659D01*
X164526078Y-75680500D01*
X164526081Y-75680500D01*
X164673919Y-75680500D01*
X164771461Y-75661096D01*
X164818912Y-75651658D01*
X164955494Y-75595084D01*
X165078415Y-75512951D01*
X165182950Y-75408416D01*
X165265083Y-75285495D01*
X165321657Y-75148913D01*
X165343177Y-75040728D01*
X165350499Y-75003920D01*
X165350499Y-74856079D01*
X165321658Y-74711092D01*
X165321657Y-74711091D01*
X165321657Y-74711087D01*
X165315208Y-74695518D01*
X165263479Y-74570631D01*
X165256010Y-74501162D01*
X165287285Y-74438683D01*
X165347374Y-74403031D01*
X165353839Y-74401564D01*
X165453912Y-74381658D01*
X165590494Y-74325084D01*
X165713415Y-74242951D01*
X165817950Y-74138416D01*
X165900083Y-74015495D01*
X165956657Y-73878913D01*
X165971622Y-73803683D01*
X165985499Y-73733920D01*
X165985499Y-73586079D01*
X165956658Y-73441092D01*
X165956657Y-73441091D01*
X165956657Y-73441087D01*
X165956655Y-73441082D01*
X165900086Y-73304511D01*
X165900079Y-73304498D01*
X165817950Y-73181584D01*
X165817947Y-73181580D01*
X165713418Y-73077051D01*
X165713414Y-73077048D01*
X165590500Y-72994919D01*
X165590487Y-72994912D01*
X165453916Y-72938343D01*
X165453906Y-72938340D01*
X165308919Y-72909500D01*
X165308917Y-72909500D01*
X165161081Y-72909500D01*
X165161079Y-72909500D01*
X165016091Y-72938340D01*
X165016081Y-72938343D01*
X164879510Y-72994912D01*
X164879497Y-72994919D01*
X164756583Y-73077048D01*
X164756579Y-73077051D01*
X164652050Y-73181580D01*
X164652047Y-73181584D01*
X164569918Y-73304498D01*
X164569911Y-73304511D01*
X164513342Y-73441082D01*
X164513339Y-73441092D01*
X164484499Y-73586079D01*
X164484499Y-73586082D01*
X164484499Y-73733918D01*
X164484499Y-73733920D01*
X164484498Y-73733920D01*
X164513339Y-73878907D01*
X164513342Y-73878917D01*
X164571518Y-74019368D01*
X164578987Y-74088837D01*
X164547711Y-74151316D01*
X164487622Y-74186968D01*
X164481149Y-74188437D01*
X164381091Y-74208340D01*
X164381081Y-74208343D01*
X164244510Y-74264912D01*
X164244497Y-74264919D01*
X164121583Y-74347048D01*
X164121579Y-74347051D01*
X164017050Y-74451580D01*
X164017047Y-74451584D01*
X163934918Y-74574498D01*
X163934911Y-74574511D01*
X163878342Y-74711082D01*
X163878339Y-74711092D01*
X163849499Y-74856079D01*
X163849499Y-74856082D01*
X163849499Y-75003918D01*
X163849499Y-75003920D01*
X163849498Y-75003920D01*
X159500500Y-75003920D01*
X159500500Y-74856079D01*
X159471659Y-74711092D01*
X159471658Y-74711091D01*
X159471658Y-74711087D01*
X159418168Y-74581952D01*
X159410700Y-74512483D01*
X159441975Y-74450004D01*
X159502064Y-74414352D01*
X159532730Y-74410500D01*
X159593919Y-74410500D01*
X159691461Y-74391096D01*
X159738912Y-74381658D01*
X159875494Y-74325084D01*
X159998415Y-74242951D01*
X160102950Y-74138416D01*
X160185083Y-74015495D01*
X160241657Y-73878913D01*
X160256622Y-73803683D01*
X160270499Y-73733920D01*
X160270499Y-73586079D01*
X160241658Y-73441092D01*
X160241657Y-73441091D01*
X160241657Y-73441087D01*
X160241655Y-73441082D01*
X160185086Y-73304511D01*
X160185079Y-73304498D01*
X160102950Y-73181584D01*
X160102947Y-73181580D01*
X159998418Y-73077051D01*
X159998414Y-73077048D01*
X159875500Y-72994919D01*
X159875487Y-72994912D01*
X159738916Y-72938343D01*
X159738906Y-72938340D01*
X159593919Y-72909500D01*
X159593917Y-72909500D01*
X159446081Y-72909500D01*
X159446079Y-72909500D01*
X159301091Y-72938340D01*
X159301081Y-72938343D01*
X159164510Y-72994912D01*
X159164497Y-72994919D01*
X159041583Y-73077048D01*
X159041579Y-73077051D01*
X158937050Y-73181580D01*
X158937047Y-73181584D01*
X158854918Y-73304498D01*
X158854911Y-73304511D01*
X158798342Y-73441082D01*
X158798339Y-73441092D01*
X158769499Y-73586079D01*
X158769499Y-73586082D01*
X158769499Y-73733918D01*
X158769499Y-73733920D01*
X158769498Y-73733920D01*
X158798339Y-73878907D01*
X158798341Y-73878913D01*
X158851830Y-74008047D01*
X158859299Y-74077517D01*
X158828024Y-74139996D01*
X158767935Y-74175648D01*
X158737269Y-74179500D01*
X158676080Y-74179500D01*
X158531092Y-74208340D01*
X158531082Y-74208343D01*
X158394511Y-74264912D01*
X158394498Y-74264919D01*
X158271584Y-74347048D01*
X158271580Y-74347051D01*
X158167051Y-74451580D01*
X158167048Y-74451584D01*
X158084919Y-74574498D01*
X158084912Y-74574511D01*
X158028343Y-74711082D01*
X158028340Y-74711092D01*
X157999500Y-74856079D01*
X157999500Y-74856082D01*
X157999500Y-75003918D01*
X157999500Y-75003920D01*
X157999499Y-75003920D01*
X141219665Y-75003920D01*
X141325495Y-74960084D01*
X141448416Y-74877951D01*
X141552951Y-74773416D01*
X141635084Y-74650495D01*
X141691658Y-74513913D01*
X141706623Y-74438683D01*
X141720500Y-74368920D01*
X141720500Y-74221079D01*
X141691659Y-74076092D01*
X141691658Y-74076091D01*
X141691658Y-74076087D01*
X141691656Y-74076082D01*
X141633480Y-73935631D01*
X141626011Y-73866162D01*
X141657286Y-73803683D01*
X141717375Y-73768031D01*
X141723840Y-73766564D01*
X141823913Y-73746658D01*
X141960495Y-73690084D01*
X142083416Y-73607951D01*
X142187951Y-73503416D01*
X142270084Y-73380495D01*
X142326658Y-73243913D01*
X142352966Y-73111658D01*
X142355500Y-73098920D01*
X142355500Y-72951079D01*
X142326659Y-72806092D01*
X142326658Y-72806091D01*
X142326658Y-72806087D01*
X142301557Y-72745488D01*
X142270087Y-72669511D01*
X142270080Y-72669498D01*
X142187951Y-72546584D01*
X142187948Y-72546580D01*
X142083419Y-72442051D01*
X142083415Y-72442048D01*
X141960501Y-72359919D01*
X141960488Y-72359912D01*
X141823917Y-72303343D01*
X141823907Y-72303340D01*
X141678920Y-72274500D01*
X141678918Y-72274500D01*
X141531082Y-72274500D01*
X141531080Y-72274500D01*
X141386092Y-72303340D01*
X141386082Y-72303343D01*
X141249511Y-72359912D01*
X141249498Y-72359919D01*
X141126584Y-72442048D01*
X141126580Y-72442051D01*
X141022051Y-72546580D01*
X141022048Y-72546584D01*
X140939919Y-72669498D01*
X140939912Y-72669511D01*
X140883343Y-72806082D01*
X140883340Y-72806092D01*
X140854500Y-72951079D01*
X140854500Y-72951082D01*
X140854500Y-73098918D01*
X140854500Y-73098920D01*
X140854499Y-73098920D01*
X140883340Y-73243907D01*
X140883343Y-73243917D01*
X140941519Y-73384368D01*
X140948988Y-73453837D01*
X140917712Y-73516316D01*
X140857623Y-73551968D01*
X140851150Y-73553437D01*
X140751092Y-73573340D01*
X140751082Y-73573343D01*
X140614511Y-73629912D01*
X140614498Y-73629919D01*
X140491584Y-73712048D01*
X140491580Y-73712051D01*
X140422681Y-73780951D01*
X140361358Y-73814436D01*
X140291666Y-73809452D01*
X140247319Y-73780951D01*
X140178419Y-73712051D01*
X140178415Y-73712048D01*
X140055501Y-73629919D01*
X140055488Y-73629912D01*
X139918917Y-73573343D01*
X139918907Y-73573340D01*
X139773920Y-73544500D01*
X139773918Y-73544500D01*
X139626082Y-73544500D01*
X139626080Y-73544500D01*
X139481092Y-73573340D01*
X139481082Y-73573343D01*
X139344511Y-73629912D01*
X139344498Y-73629919D01*
X139221584Y-73712048D01*
X139221580Y-73712051D01*
X139117051Y-73816580D01*
X139117048Y-73816584D01*
X139034919Y-73939498D01*
X139034912Y-73939511D01*
X138978343Y-74076082D01*
X138978340Y-74076092D01*
X138949500Y-74221079D01*
X138949500Y-74221082D01*
X138949500Y-74368918D01*
X138949500Y-74368920D01*
X138949499Y-74368920D01*
X129655500Y-74368920D01*
X129655500Y-74221079D01*
X129626659Y-74076092D01*
X129626658Y-74076091D01*
X129626658Y-74076087D01*
X129626656Y-74076082D01*
X129570087Y-73939511D01*
X129570080Y-73939498D01*
X129487951Y-73816584D01*
X129487948Y-73816580D01*
X129383419Y-73712051D01*
X129383415Y-73712048D01*
X129260501Y-73629919D01*
X129260488Y-73629912D01*
X129123917Y-73573343D01*
X129123907Y-73573340D01*
X128978920Y-73544500D01*
X128978918Y-73544500D01*
X128831082Y-73544500D01*
X128831080Y-73544500D01*
X128686092Y-73573340D01*
X128686082Y-73573343D01*
X128549511Y-73629912D01*
X128549498Y-73629919D01*
X128426584Y-73712048D01*
X128426580Y-73712051D01*
X128322051Y-73816580D01*
X128322048Y-73816584D01*
X128239919Y-73939498D01*
X128239912Y-73939511D01*
X128183343Y-74076082D01*
X128183340Y-74076092D01*
X128154500Y-74221079D01*
X128154500Y-74221082D01*
X128154500Y-74368918D01*
X128154500Y-74368920D01*
X128154499Y-74368920D01*
X121400500Y-74368920D01*
X121400500Y-74221079D01*
X121371659Y-74076092D01*
X121371658Y-74076091D01*
X121371658Y-74076087D01*
X121371656Y-74076082D01*
X121315087Y-73939511D01*
X121315080Y-73939498D01*
X121232951Y-73816584D01*
X121232948Y-73816580D01*
X121128419Y-73712051D01*
X121128415Y-73712048D01*
X121005501Y-73629919D01*
X121005488Y-73629912D01*
X120868917Y-73573343D01*
X120868907Y-73573340D01*
X120723920Y-73544500D01*
X120723918Y-73544500D01*
X120576082Y-73544500D01*
X120576080Y-73544500D01*
X120431092Y-73573340D01*
X120431082Y-73573343D01*
X120294511Y-73629912D01*
X120294498Y-73629919D01*
X120171584Y-73712048D01*
X120171580Y-73712051D01*
X120067051Y-73816580D01*
X120067048Y-73816584D01*
X119984919Y-73939498D01*
X119984912Y-73939511D01*
X119928343Y-74076082D01*
X119928340Y-74076092D01*
X119899500Y-74221079D01*
X119899500Y-74221082D01*
X119899500Y-74368918D01*
X119899500Y-74368920D01*
X119899499Y-74368920D01*
X119928340Y-74513907D01*
X119928343Y-74513917D01*
X119986519Y-74654368D01*
X119993988Y-74723837D01*
X119962712Y-74786316D01*
X119902623Y-74821968D01*
X119896150Y-74823437D01*
X119796092Y-74843340D01*
X119796082Y-74843343D01*
X119659511Y-74899912D01*
X119659498Y-74899919D01*
X119536584Y-74982048D01*
X119536580Y-74982051D01*
X119432051Y-75086580D01*
X119432048Y-75086584D01*
X119349919Y-75209498D01*
X119349912Y-75209511D01*
X119293343Y-75346082D01*
X119293340Y-75346092D01*
X119264500Y-75491079D01*
X119264500Y-75491082D01*
X119264500Y-75638918D01*
X119264500Y-75638920D01*
X119264499Y-75638920D01*
X103620500Y-75638920D01*
X103620500Y-75491079D01*
X103591659Y-75346092D01*
X103591658Y-75346091D01*
X103591658Y-75346087D01*
X103566557Y-75285488D01*
X103535087Y-75209511D01*
X103535080Y-75209498D01*
X103452951Y-75086584D01*
X103452948Y-75086580D01*
X103348419Y-74982051D01*
X103348415Y-74982048D01*
X103225501Y-74899919D01*
X103225488Y-74899912D01*
X103088917Y-74843343D01*
X103088907Y-74843340D01*
X102943920Y-74814500D01*
X102943918Y-74814500D01*
X102796082Y-74814500D01*
X102796080Y-74814500D01*
X102651092Y-74843340D01*
X102651082Y-74843343D01*
X102514511Y-74899912D01*
X102514498Y-74899919D01*
X102391584Y-74982048D01*
X102391580Y-74982051D01*
X102287051Y-75086580D01*
X102287048Y-75086584D01*
X102204919Y-75209498D01*
X102204912Y-75209511D01*
X102148343Y-75346082D01*
X102148340Y-75346092D01*
X102119500Y-75491079D01*
X102119500Y-75491082D01*
X102119500Y-75638918D01*
X102119500Y-75638920D01*
X102119499Y-75638920D01*
X83685500Y-75638920D01*
X83685500Y-74368920D01*
X114184499Y-74368920D01*
X114213340Y-74513907D01*
X114213343Y-74513917D01*
X114269912Y-74650488D01*
X114269919Y-74650501D01*
X114352048Y-74773415D01*
X114352051Y-74773419D01*
X114456580Y-74877948D01*
X114456584Y-74877951D01*
X114579498Y-74960080D01*
X114579511Y-74960087D01*
X114716082Y-75016656D01*
X114716087Y-75016658D01*
X114716091Y-75016658D01*
X114716092Y-75016659D01*
X114861079Y-75045500D01*
X114861082Y-75045500D01*
X115008920Y-75045500D01*
X115106462Y-75026096D01*
X115153913Y-75016658D01*
X115290495Y-74960084D01*
X115413416Y-74877951D01*
X115517951Y-74773416D01*
X115600084Y-74650495D01*
X115656658Y-74513913D01*
X115671623Y-74438683D01*
X115685500Y-74368920D01*
X115685500Y-74221079D01*
X115656659Y-74076092D01*
X115656658Y-74076091D01*
X115656658Y-74076087D01*
X115656656Y-74076082D01*
X115600087Y-73939511D01*
X115600080Y-73939498D01*
X115517951Y-73816584D01*
X115517948Y-73816580D01*
X115413419Y-73712051D01*
X115413415Y-73712048D01*
X115290501Y-73629919D01*
X115290488Y-73629912D01*
X115153917Y-73573343D01*
X115153907Y-73573340D01*
X115008920Y-73544500D01*
X115008918Y-73544500D01*
X114861082Y-73544500D01*
X114861080Y-73544500D01*
X114716092Y-73573340D01*
X114716082Y-73573343D01*
X114579511Y-73629912D01*
X114579498Y-73629919D01*
X114456584Y-73712048D01*
X114456580Y-73712051D01*
X114352051Y-73816580D01*
X114352048Y-73816584D01*
X114269919Y-73939498D01*
X114269912Y-73939511D01*
X114213343Y-74076082D01*
X114213340Y-74076092D01*
X114184500Y-74221079D01*
X114184500Y-74221082D01*
X114184500Y-74368918D01*
X114184500Y-74368920D01*
X114184499Y-74368920D01*
X83685500Y-74368920D01*
X83685500Y-71828920D01*
X134504499Y-71828920D01*
X134533340Y-71973907D01*
X134533343Y-71973917D01*
X134589912Y-72110488D01*
X134589919Y-72110501D01*
X134672048Y-72233415D01*
X134672051Y-72233419D01*
X134776580Y-72337948D01*
X134776584Y-72337951D01*
X134899498Y-72420080D01*
X134899511Y-72420087D01*
X135036082Y-72476656D01*
X135036087Y-72476658D01*
X135036091Y-72476658D01*
X135036092Y-72476659D01*
X135181079Y-72505500D01*
X135181082Y-72505500D01*
X135328920Y-72505500D01*
X135426462Y-72486096D01*
X135473913Y-72476658D01*
X135504665Y-72463920D01*
X138949499Y-72463920D01*
X138978340Y-72608907D01*
X138978343Y-72608917D01*
X139034912Y-72745488D01*
X139034919Y-72745501D01*
X139117048Y-72868415D01*
X139117051Y-72868419D01*
X139221580Y-72972948D01*
X139221584Y-72972951D01*
X139344498Y-73055080D01*
X139344511Y-73055087D01*
X139481082Y-73111656D01*
X139481087Y-73111658D01*
X139481091Y-73111658D01*
X139481092Y-73111659D01*
X139626079Y-73140500D01*
X139626082Y-73140500D01*
X139773920Y-73140500D01*
X139871462Y-73121096D01*
X139918913Y-73111658D01*
X140055495Y-73055084D01*
X140178416Y-72972951D01*
X140282951Y-72868416D01*
X140365084Y-72745495D01*
X140421658Y-72608913D01*
X140447966Y-72476658D01*
X140450500Y-72463920D01*
X140450500Y-72316079D01*
X140421659Y-72171092D01*
X140421658Y-72171091D01*
X140421658Y-72171087D01*
X140396557Y-72110488D01*
X140365087Y-72034511D01*
X140365080Y-72034498D01*
X140282951Y-71911584D01*
X140282948Y-71911580D01*
X140178419Y-71807051D01*
X140178415Y-71807048D01*
X140055501Y-71724919D01*
X140055488Y-71724912D01*
X139918917Y-71668343D01*
X139918907Y-71668340D01*
X139773920Y-71639500D01*
X139773918Y-71639500D01*
X139626082Y-71639500D01*
X139626080Y-71639500D01*
X139481092Y-71668340D01*
X139481082Y-71668343D01*
X139344511Y-71724912D01*
X139344498Y-71724919D01*
X139221584Y-71807048D01*
X139221580Y-71807051D01*
X139117051Y-71911580D01*
X139117048Y-71911584D01*
X139034919Y-72034498D01*
X139034912Y-72034511D01*
X138978343Y-72171082D01*
X138978340Y-72171092D01*
X138949500Y-72316079D01*
X138949500Y-72316082D01*
X138949500Y-72463918D01*
X138949500Y-72463920D01*
X138949499Y-72463920D01*
X135504665Y-72463920D01*
X135610495Y-72420084D01*
X135733416Y-72337951D01*
X135837951Y-72233416D01*
X135920084Y-72110495D01*
X135976658Y-71973913D01*
X136005500Y-71828918D01*
X136005500Y-71681082D01*
X136005500Y-71681079D01*
X135976659Y-71536092D01*
X135976658Y-71536091D01*
X135976658Y-71536087D01*
X135976656Y-71536082D01*
X135920087Y-71399511D01*
X135920080Y-71399498D01*
X135837951Y-71276584D01*
X135837948Y-71276580D01*
X135733419Y-71172051D01*
X135733415Y-71172048D01*
X135610501Y-71089919D01*
X135610488Y-71089912D01*
X135473917Y-71033343D01*
X135473907Y-71033340D01*
X135328920Y-71004500D01*
X135328918Y-71004500D01*
X135181082Y-71004500D01*
X135181080Y-71004500D01*
X135036092Y-71033340D01*
X135036082Y-71033343D01*
X134899511Y-71089912D01*
X134899498Y-71089919D01*
X134776584Y-71172048D01*
X134776580Y-71172051D01*
X134672051Y-71276580D01*
X134672048Y-71276584D01*
X134589919Y-71399498D01*
X134589912Y-71399511D01*
X134533343Y-71536082D01*
X134533340Y-71536092D01*
X134504500Y-71681079D01*
X134504500Y-71681082D01*
X134504500Y-71828918D01*
X134504500Y-71828920D01*
X134504499Y-71828920D01*
X83685500Y-71828920D01*
X83685500Y-68653920D01*
X100214499Y-68653920D01*
X100243340Y-68798907D01*
X100243343Y-68798917D01*
X100299912Y-68935488D01*
X100299919Y-68935501D01*
X100382048Y-69058415D01*
X100382051Y-69058419D01*
X100486580Y-69162948D01*
X100486584Y-69162951D01*
X100609498Y-69245080D01*
X100609511Y-69245087D01*
X100746082Y-69301656D01*
X100746087Y-69301658D01*
X100746091Y-69301658D01*
X100746092Y-69301659D01*
X100891079Y-69330500D01*
X100891082Y-69330500D01*
X101038920Y-69330500D01*
X101136462Y-69311096D01*
X101183913Y-69301658D01*
X101214665Y-69288920D01*
X130059499Y-69288920D01*
X130088340Y-69433907D01*
X130088343Y-69433917D01*
X130144912Y-69570488D01*
X130144919Y-69570501D01*
X130227048Y-69693415D01*
X130227051Y-69693419D01*
X130331580Y-69797948D01*
X130331584Y-69797951D01*
X130454498Y-69880080D01*
X130454511Y-69880087D01*
X130591082Y-69936656D01*
X130591087Y-69936658D01*
X130591091Y-69936658D01*
X130591092Y-69936659D01*
X130736079Y-69965500D01*
X130736082Y-69965500D01*
X130883920Y-69965500D01*
X130981462Y-69946096D01*
X131028913Y-69936658D01*
X131059665Y-69923920D01*
X144664499Y-69923920D01*
X144693340Y-70068907D01*
X144693343Y-70068917D01*
X144749912Y-70205488D01*
X144749919Y-70205501D01*
X144832048Y-70328415D01*
X144832051Y-70328419D01*
X144936580Y-70432948D01*
X144936584Y-70432951D01*
X145059498Y-70515080D01*
X145059511Y-70515087D01*
X145196082Y-70571656D01*
X145196087Y-70571658D01*
X145196091Y-70571658D01*
X145196092Y-70571659D01*
X145341079Y-70600500D01*
X145341082Y-70600500D01*
X145488920Y-70600500D01*
X145586462Y-70581096D01*
X145633913Y-70571658D01*
X145770495Y-70515084D01*
X145893416Y-70432951D01*
X145997951Y-70328416D01*
X146080084Y-70205495D01*
X146136658Y-70068913D01*
X146162966Y-69936658D01*
X146165500Y-69923920D01*
X146165500Y-69776079D01*
X146136659Y-69631092D01*
X146136658Y-69631091D01*
X146136658Y-69631087D01*
X146111557Y-69570488D01*
X146080087Y-69494511D01*
X146080080Y-69494498D01*
X145997951Y-69371584D01*
X145997948Y-69371580D01*
X145893419Y-69267051D01*
X145893415Y-69267048D01*
X145770501Y-69184919D01*
X145770488Y-69184912D01*
X145633917Y-69128343D01*
X145633907Y-69128340D01*
X145488920Y-69099500D01*
X145488918Y-69099500D01*
X145341082Y-69099500D01*
X145341080Y-69099500D01*
X145196092Y-69128340D01*
X145196082Y-69128343D01*
X145059511Y-69184912D01*
X145059498Y-69184919D01*
X144936584Y-69267048D01*
X144936580Y-69267051D01*
X144832051Y-69371580D01*
X144832048Y-69371584D01*
X144749919Y-69494498D01*
X144749912Y-69494511D01*
X144693343Y-69631082D01*
X144693340Y-69631092D01*
X144664500Y-69776079D01*
X144664500Y-69776082D01*
X144664500Y-69923918D01*
X144664500Y-69923920D01*
X144664499Y-69923920D01*
X131059665Y-69923920D01*
X131165495Y-69880084D01*
X131288416Y-69797951D01*
X131392951Y-69693416D01*
X131475084Y-69570495D01*
X131531658Y-69433913D01*
X131557966Y-69301658D01*
X131560500Y-69288920D01*
X131560500Y-69141079D01*
X131531659Y-68996092D01*
X131531658Y-68996091D01*
X131531658Y-68996087D01*
X131506557Y-68935488D01*
X131475087Y-68859511D01*
X131475080Y-68859498D01*
X131392951Y-68736584D01*
X131392948Y-68736580D01*
X131310288Y-68653920D01*
X177684499Y-68653920D01*
X177713340Y-68798907D01*
X177713343Y-68798917D01*
X177769912Y-68935488D01*
X177769919Y-68935501D01*
X177852048Y-69058415D01*
X177852051Y-69058419D01*
X177956580Y-69162948D01*
X177956584Y-69162951D01*
X178079498Y-69245080D01*
X178079511Y-69245087D01*
X178216082Y-69301656D01*
X178216087Y-69301658D01*
X178216091Y-69301658D01*
X178216092Y-69301659D01*
X178361079Y-69330500D01*
X178361082Y-69330500D01*
X178508920Y-69330500D01*
X178606462Y-69311096D01*
X178653913Y-69301658D01*
X178790495Y-69245084D01*
X178913416Y-69162951D01*
X179017951Y-69058416D01*
X179100084Y-68935495D01*
X179156658Y-68798913D01*
X179185500Y-68653918D01*
X179185500Y-68506082D01*
X179185500Y-68506079D01*
X179156659Y-68361092D01*
X179156658Y-68361091D01*
X179156658Y-68361087D01*
X179156656Y-68361082D01*
X179100087Y-68224511D01*
X179100080Y-68224498D01*
X179017951Y-68101584D01*
X179017948Y-68101580D01*
X178913419Y-67997051D01*
X178913415Y-67997048D01*
X178790501Y-67914919D01*
X178790488Y-67914912D01*
X178653917Y-67858343D01*
X178653907Y-67858340D01*
X178508920Y-67829500D01*
X178508918Y-67829500D01*
X178361082Y-67829500D01*
X178361080Y-67829500D01*
X178216092Y-67858340D01*
X178216082Y-67858343D01*
X178079511Y-67914912D01*
X178079498Y-67914919D01*
X177956584Y-67997048D01*
X177956580Y-67997051D01*
X177852051Y-68101580D01*
X177852048Y-68101584D01*
X177769919Y-68224498D01*
X177769912Y-68224511D01*
X177713343Y-68361082D01*
X177713340Y-68361092D01*
X177684500Y-68506079D01*
X177684500Y-68506082D01*
X177684500Y-68653918D01*
X177684500Y-68653920D01*
X177684499Y-68653920D01*
X131310288Y-68653920D01*
X131288419Y-68632051D01*
X131288411Y-68632045D01*
X131245129Y-68603125D01*
X131245079Y-68603092D01*
X131165501Y-68549919D01*
X131165488Y-68549912D01*
X131028917Y-68493343D01*
X131028907Y-68493340D01*
X130883920Y-68464500D01*
X130883918Y-68464500D01*
X130736082Y-68464500D01*
X130736080Y-68464500D01*
X130591092Y-68493340D01*
X130591082Y-68493343D01*
X130454511Y-68549912D01*
X130454498Y-68549919D01*
X130331584Y-68632048D01*
X130331580Y-68632051D01*
X130227051Y-68736580D01*
X130227048Y-68736584D01*
X130144919Y-68859498D01*
X130144912Y-68859511D01*
X130088343Y-68996082D01*
X130088340Y-68996092D01*
X130059500Y-69141079D01*
X130059500Y-69141082D01*
X130059500Y-69288918D01*
X130059500Y-69288920D01*
X130059499Y-69288920D01*
X101214665Y-69288920D01*
X101320495Y-69245084D01*
X101443416Y-69162951D01*
X101547951Y-69058416D01*
X101630084Y-68935495D01*
X101686658Y-68798913D01*
X101715500Y-68653918D01*
X101715500Y-68506082D01*
X101715500Y-68506079D01*
X101686659Y-68361092D01*
X101686658Y-68361091D01*
X101686658Y-68361087D01*
X101686656Y-68361082D01*
X101630087Y-68224511D01*
X101630080Y-68224498D01*
X101547951Y-68101584D01*
X101547948Y-68101580D01*
X101443419Y-67997051D01*
X101443415Y-67997048D01*
X101320501Y-67914919D01*
X101320488Y-67914912D01*
X101183917Y-67858343D01*
X101183907Y-67858340D01*
X101038920Y-67829500D01*
X101038918Y-67829500D01*
X100891082Y-67829500D01*
X100891080Y-67829500D01*
X100746092Y-67858340D01*
X100746082Y-67858343D01*
X100609511Y-67914912D01*
X100609498Y-67914919D01*
X100486584Y-67997048D01*
X100486580Y-67997051D01*
X100382051Y-68101580D01*
X100382048Y-68101584D01*
X100299919Y-68224498D01*
X100299912Y-68224511D01*
X100243343Y-68361082D01*
X100243340Y-68361092D01*
X100214500Y-68506079D01*
X100214500Y-68506082D01*
X100214500Y-68653918D01*
X100214500Y-68653920D01*
X100214499Y-68653920D01*
X83685500Y-68653920D01*
X83685500Y-58409500D01*
X83705185Y-58342461D01*
X83757989Y-58296706D01*
X83809500Y-58285500D01*
X195590500Y-58285500D01*
X195657539Y-58305185D01*
G37*
%TD.AperFunction*%
%TD*%
M02*
