%TF.GenerationSoftware,KiCad,Pcbnew,9.0.3*%
%TF.CreationDate,2025-08-10T03:17:17-04:00*%
%TF.ProjectId,NanoPulse,4e616e6f-5075-46c7-9365-2e6b69636164,Rev 1*%
%TF.SameCoordinates,Original*%
%TF.FileFunction,Copper,L4,Bot*%
%TF.FilePolarity,Positive*%
%FSLAX46Y46*%
G04 Gerber Fmt 4.6, Leading zero omitted, Abs format (unit mm)*
G04 Created by KiCad (PCBNEW 9.0.3) date 2025-08-10 03:17:17*
%MOMM*%
%LPD*%
G01*
G04 APERTURE LIST*
G04 Aperture macros list*
%AMRoundRect*
0 Rectangle with rounded corners*
0 $1 Rounding radius*
0 $2 $3 $4 $5 $6 $7 $8 $9 X,Y pos of 4 corners*
0 Add a 4 corners polygon primitive as box body*
4,1,4,$2,$3,$4,$5,$6,$7,$8,$9,$2,$3,0*
0 Add four circle primitives for the rounded corners*
1,1,$1+$1,$2,$3*
1,1,$1+$1,$4,$5*
1,1,$1+$1,$6,$7*
1,1,$1+$1,$8,$9*
0 Add four rect primitives between the rounded corners*
20,1,$1+$1,$2,$3,$4,$5,0*
20,1,$1+$1,$4,$5,$6,$7,0*
20,1,$1+$1,$6,$7,$8,$9,0*
20,1,$1+$1,$8,$9,$2,$3,0*%
G04 Aperture macros list end*
%TA.AperFunction,SMDPad,CuDef*%
%ADD10R,1.500000X5.080000*%
%TD*%
%TA.AperFunction,ComponentPad*%
%ADD11RoundRect,0.250000X-1.550000X0.650000X-1.550000X-0.650000X1.550000X-0.650000X1.550000X0.650000X0*%
%TD*%
%TA.AperFunction,ComponentPad*%
%ADD12O,3.600000X1.800000*%
%TD*%
%TA.AperFunction,HeatsinkPad*%
%ADD13O,1.900000X1.200000*%
%TD*%
%TA.AperFunction,HeatsinkPad*%
%ADD14C,1.450000*%
%TD*%
%TA.AperFunction,SMDPad,CuDef*%
%ADD15RoundRect,0.200000X0.275000X-0.200000X0.275000X0.200000X-0.275000X0.200000X-0.275000X-0.200000X0*%
%TD*%
%TA.AperFunction,SMDPad,CuDef*%
%ADD16RoundRect,0.200000X-0.200000X-0.275000X0.200000X-0.275000X0.200000X0.275000X-0.200000X0.275000X0*%
%TD*%
%TA.AperFunction,SMDPad,CuDef*%
%ADD17R,1.092200X0.381000*%
%TD*%
%TA.AperFunction,SMDPad,CuDef*%
%ADD18RoundRect,0.200000X0.200000X0.275000X-0.200000X0.275000X-0.200000X-0.275000X0.200000X-0.275000X0*%
%TD*%
%TA.AperFunction,SMDPad,CuDef*%
%ADD19RoundRect,0.200000X-0.275000X0.200000X-0.275000X-0.200000X0.275000X-0.200000X0.275000X0.200000X0*%
%TD*%
%TA.AperFunction,SMDPad,CuDef*%
%ADD20RoundRect,0.250000X0.475000X-0.250000X0.475000X0.250000X-0.475000X0.250000X-0.475000X-0.250000X0*%
%TD*%
%TA.AperFunction,SMDPad,CuDef*%
%ADD21RoundRect,0.237500X-0.287500X-0.237500X0.287500X-0.237500X0.287500X0.237500X-0.287500X0.237500X0*%
%TD*%
%TA.AperFunction,SMDPad,CuDef*%
%ADD22RoundRect,0.225000X0.225000X0.250000X-0.225000X0.250000X-0.225000X-0.250000X0.225000X-0.250000X0*%
%TD*%
%TA.AperFunction,SMDPad,CuDef*%
%ADD23RoundRect,0.225000X0.250000X-0.225000X0.250000X0.225000X-0.250000X0.225000X-0.250000X-0.225000X0*%
%TD*%
%TA.AperFunction,SMDPad,CuDef*%
%ADD24RoundRect,0.250000X-0.650000X0.325000X-0.650000X-0.325000X0.650000X-0.325000X0.650000X0.325000X0*%
%TD*%
%TA.AperFunction,SMDPad,CuDef*%
%ADD25R,0.812800X0.254000*%
%TD*%
%TA.AperFunction,SMDPad,CuDef*%
%ADD26R,0.254000X0.812800*%
%TD*%
%TA.AperFunction,SMDPad,CuDef*%
%ADD27R,3.098800X2.108200*%
%TD*%
%TA.AperFunction,SMDPad,CuDef*%
%ADD28RoundRect,0.225000X-0.250000X0.225000X-0.250000X-0.225000X0.250000X-0.225000X0.250000X0.225000X0*%
%TD*%
%TA.AperFunction,SMDPad,CuDef*%
%ADD29RoundRect,0.250000X-0.475000X0.250000X-0.475000X-0.250000X0.475000X-0.250000X0.475000X0.250000X0*%
%TD*%
%TA.AperFunction,SMDPad,CuDef*%
%ADD30RoundRect,0.250000X0.650000X-0.325000X0.650000X0.325000X-0.650000X0.325000X-0.650000X-0.325000X0*%
%TD*%
%TA.AperFunction,SMDPad,CuDef*%
%ADD31R,1.524000X0.431800*%
%TD*%
%TA.AperFunction,SMDPad,CuDef*%
%ADD32RoundRect,0.237500X0.287500X0.237500X-0.287500X0.237500X-0.287500X-0.237500X0.287500X-0.237500X0*%
%TD*%
%TA.AperFunction,SMDPad,CuDef*%
%ADD33RoundRect,0.250000X0.250000X0.475000X-0.250000X0.475000X-0.250000X-0.475000X0.250000X-0.475000X0*%
%TD*%
%TA.AperFunction,SMDPad,CuDef*%
%ADD34RoundRect,0.062500X0.062500X-0.117500X0.062500X0.117500X-0.062500X0.117500X-0.062500X-0.117500X0*%
%TD*%
%TA.AperFunction,SMDPad,CuDef*%
%ADD35R,1.257300X0.482600*%
%TD*%
%TA.AperFunction,SMDPad,CuDef*%
%ADD36RoundRect,0.225000X-0.225000X-0.250000X0.225000X-0.250000X0.225000X0.250000X-0.225000X0.250000X0*%
%TD*%
%TA.AperFunction,SMDPad,CuDef*%
%ADD37R,0.812800X0.228600*%
%TD*%
%TA.AperFunction,SMDPad,CuDef*%
%ADD38R,1.752600X2.489200*%
%TD*%
%TA.AperFunction,SMDPad,CuDef*%
%ADD39RoundRect,0.218750X0.256250X-0.218750X0.256250X0.218750X-0.256250X0.218750X-0.256250X-0.218750X0*%
%TD*%
%TA.AperFunction,SMDPad,CuDef*%
%ADD40RoundRect,0.218750X-0.256250X0.218750X-0.256250X-0.218750X0.256250X-0.218750X0.256250X0.218750X0*%
%TD*%
%TA.AperFunction,SMDPad,CuDef*%
%ADD41R,1.000000X1.000000*%
%TD*%
%TA.AperFunction,SMDPad,CuDef*%
%ADD42RoundRect,0.250000X0.325000X0.650000X-0.325000X0.650000X-0.325000X-0.650000X0.325000X-0.650000X0*%
%TD*%
%TA.AperFunction,SMDPad,CuDef*%
%ADD43R,0.254000X0.203200*%
%TD*%
%TA.AperFunction,SMDPad,CuDef*%
%ADD44R,0.203200X0.254000*%
%TD*%
%TA.AperFunction,ViaPad*%
%ADD45C,0.500000*%
%TD*%
%TA.AperFunction,Conductor*%
%ADD46C,0.200000*%
%TD*%
%TA.AperFunction,Conductor*%
%ADD47C,0.090000*%
%TD*%
G04 APERTURE END LIST*
D10*
%TO.P,J3,2,Ext*%
%TO.N,GND*%
X167200000Y-60960000D03*
X175700000Y-60960000D03*
%TD*%
%TO.P,J4,2,Ext*%
%TO.N,GND*%
X148150000Y-60960000D03*
X156650000Y-60960000D03*
%TD*%
%TO.P,J2,2,Ext*%
%TO.N,GND*%
X103700000Y-61312500D03*
X112200000Y-61312500D03*
%TD*%
D11*
%TO.P,J6,1,Pin_1*%
%TO.N,GND*%
X91832500Y-81645000D03*
D12*
%TO.P,J6,2,Pin_2*%
%TO.N,+6V*%
X91832500Y-85145000D03*
%TO.P,J6,3,Pin_3*%
%TO.N,-6V*%
X91832500Y-88645000D03*
%TD*%
D10*
%TO.P,J5,2,Ext*%
%TO.N,GND*%
X182050000Y-116205000D03*
X173550000Y-116205000D03*
%TD*%
%TO.P,J1,2,Ext*%
%TO.N,GND*%
X122750000Y-60960000D03*
X131250000Y-60960000D03*
%TD*%
D13*
%TO.P,J8,6,Shield*%
%TO.N,GND*%
X194310000Y-101210000D03*
D14*
X191610000Y-100210000D03*
X191610000Y-95210000D03*
D13*
X194310000Y-94210000D03*
%TD*%
D15*
%TO.P,R10,1*%
%TO.N,+3.3V*%
X127000000Y-100075000D03*
%TO.P,R10,2*%
%TO.N,Net-(D6-A)*%
X127000000Y-98425000D03*
%TD*%
D16*
%TO.P,R18,1*%
%TO.N,-5.4V*%
X156594167Y-114443009D03*
%TO.P,R18,2*%
%TO.N,Net-(D8-K)*%
X158244167Y-114443009D03*
%TD*%
D17*
%TO.P,U5,1,\u002ASHDN*%
%TO.N,Net-(U5-\u002ASHDN)*%
X171577000Y-101630000D03*
%TO.P,U5,2,VIN*%
X171577000Y-100980002D03*
%TO.P,U5,3,GND*%
%TO.N,GND*%
X171577000Y-100330000D03*
%TO.P,U5,4,GND*%
X171577000Y-99680002D03*
%TO.P,U5,5,GND*%
X175895000Y-99680002D03*
%TO.P,U5,6,VOUT_S*%
%TO.N,Net-(U5-VOUT_S)*%
X175895000Y-100330000D03*
%TO.P,U5,7,VOUT_F*%
%TO.N,REF_5V*%
X175895000Y-100980002D03*
%TO.P,U5,8,GND*%
%TO.N,GND*%
X175895000Y-101630000D03*
%TD*%
D18*
%TO.P,R38,1*%
%TO.N,/ADC Driver Stage - Final Buffer CH A/Filtered_IN+*%
X125301550Y-75860001D03*
%TO.P,R38,2*%
%TO.N,Net-(U11A--IN1)*%
X123651550Y-75860001D03*
%TD*%
D19*
%TO.P,R14,1*%
%TO.N,Net-(U2-SENSE{slash}ADJ)*%
X114300000Y-101052432D03*
%TO.P,R14,2*%
%TO.N,GND*%
X114300000Y-102702432D03*
%TD*%
%TO.P,R68,1*%
%TO.N,MOSI*%
X145060000Y-81943177D03*
%TO.P,R68,2*%
%TO.N,Net-(U15-A0)*%
X145060000Y-83593177D03*
%TD*%
D20*
%TO.P,C23,1*%
%TO.N,GND*%
X137439400Y-111220002D03*
%TO.P,C23,2*%
%TO.N,+5V*%
X137439400Y-109320002D03*
%TD*%
D21*
%TO.P,FB11,1*%
%TO.N,-5.4V*%
X155575000Y-76405000D03*
%TO.P,FB11,2*%
%TO.N,Net-(U12A--VS)*%
X157325000Y-76405000D03*
%TD*%
D22*
%TO.P,C81,1*%
%TO.N,+1.8V*%
X138215000Y-89535000D03*
%TO.P,C81,2*%
%TO.N,GND*%
X136665000Y-89535000D03*
%TD*%
D23*
%TO.P,C57,1*%
%TO.N,/ADC Driver Stage - Final Buffer CH B/Filtered_IN+*%
X158115000Y-81280000D03*
%TO.P,C57,2*%
%TO.N,GND*%
X158115000Y-79730000D03*
%TD*%
D24*
%TO.P,C4,1*%
%TO.N,+3.3V*%
X120201736Y-98425000D03*
%TO.P,C4,2*%
%TO.N,GND*%
X120201736Y-101375000D03*
%TD*%
D25*
%TO.P,U17,1,VCCA*%
%TO.N,+1.8V*%
X141008700Y-91190000D03*
%TO.P,U17,2,T/\u002AR*%
X141008700Y-90689999D03*
D26*
%TO.P,U17,3,A0*%
%TO.N,MISO0*%
X141405001Y-89789000D03*
%TO.P,U17,4,A1*%
%TO.N,GND*%
X141905000Y-89789000D03*
%TO.P,U17,5,A2*%
X142404999Y-89789000D03*
%TO.P,U17,6,A3*%
X142905000Y-89789000D03*
%TO.P,U17,7,A4*%
X143405000Y-89789000D03*
%TO.P,U17,8,A5*%
X143905001Y-89789000D03*
%TO.P,U17,9,A6*%
X144405000Y-89789000D03*
%TO.P,U17,10,A7*%
X144904999Y-89789000D03*
D25*
%TO.P,U17,11,GND*%
X145301300Y-90689999D03*
%TO.P,U17,12,GND*%
X145301300Y-91190000D03*
%TO.P,U17,13,GND*%
X145301300Y-91690000D03*
%TO.P,U17,14,B7*%
%TO.N,unconnected-(U17-B7-Pad14)*%
X145301300Y-92190001D03*
D26*
%TO.P,U17,15,B6*%
%TO.N,unconnected-(U17-B6-Pad15)*%
X144904999Y-93091000D03*
%TO.P,U17,16,B5*%
%TO.N,unconnected-(U17-B5-Pad16)*%
X144405000Y-93091000D03*
%TO.P,U17,17,B4*%
%TO.N,unconnected-(U17-B4-Pad17)*%
X143905001Y-93091000D03*
%TO.P,U17,18,B3*%
%TO.N,unconnected-(U17-B3-Pad18)*%
X143405000Y-93091000D03*
%TO.P,U17,19,B2*%
%TO.N,unconnected-(U17-B2-Pad19)*%
X142905000Y-93091000D03*
%TO.P,U17,20,B1*%
%TO.N,unconnected-(U17-B1-Pad20)*%
X142404999Y-93091000D03*
%TO.P,U17,21,B0*%
%TO.N,MISO0_MCU*%
X141905000Y-93091000D03*
%TO.P,U17,22,\u002AOE*%
%TO.N,GND*%
X141405001Y-93091000D03*
D25*
%TO.P,U17,23,VCCB*%
%TO.N,+3.3V*%
X141008700Y-92190001D03*
%TO.P,U17,24,VCCB*%
X141008700Y-91690000D03*
D27*
%TO.P,U17,25,EPAD*%
%TO.N,GND*%
X143155000Y-91440000D03*
%TD*%
D28*
%TO.P,C78,1*%
%TO.N,+1.8V*%
X160020000Y-94475000D03*
%TO.P,C78,2*%
%TO.N,GND*%
X160020000Y-96025000D03*
%TD*%
%TO.P,C3,1*%
%TO.N,+3.3V*%
X123190000Y-98920000D03*
%TO.P,C3,2*%
%TO.N,GND*%
X123190000Y-100470000D03*
%TD*%
D24*
%TO.P,C24,1*%
%TO.N,REF_5V*%
X182678100Y-102172601D03*
%TO.P,C24,2*%
%TO.N,GND*%
X182678100Y-105122601D03*
%TD*%
D23*
%TO.P,C44,1*%
%TO.N,Net-(U11A-+VS)*%
X108156550Y-73730001D03*
%TO.P,C44,2*%
%TO.N,GND*%
X108156550Y-72180001D03*
%TD*%
D19*
%TO.P,R17,1*%
%TO.N,-5.4V*%
X162689167Y-109173009D03*
%TO.P,R17,2*%
%TO.N,GND*%
X162689167Y-110823009D03*
%TD*%
D29*
%TO.P,C12,1*%
%TO.N,Net-(U3-SET)*%
X160784167Y-103653009D03*
%TO.P,C12,2*%
%TO.N,GND*%
X160784167Y-105553009D03*
%TD*%
D30*
%TO.P,C47,1*%
%TO.N,Net-(U11A-+VS)*%
X111966550Y-73730001D03*
%TO.P,C47,2*%
%TO.N,GND*%
X111966550Y-70780001D03*
%TD*%
D31*
%TO.P,U12,1,OUT1*%
%TO.N,Net-(U12A--IN1)*%
X164198300Y-80349999D03*
%TO.P,U12,2,-IN1*%
X164198300Y-79700001D03*
%TO.P,U12,3,+IN1*%
%TO.N,Net-(U12A-+IN1)*%
X164198300Y-79049999D03*
%TO.P,U12,4,-VS*%
%TO.N,Net-(U12A--VS)*%
X164198300Y-78400001D03*
%TO.P,U12,5,+IN2*%
%TO.N,Net-(U12B-+IN2)*%
X168541700Y-78400001D03*
%TO.P,U12,6,-IN2*%
%TO.N,Net-(U12B--IN2)*%
X168541700Y-79049999D03*
%TO.P,U12,7,OUT2*%
X168541700Y-79700001D03*
%TO.P,U12,8,+VS*%
%TO.N,Net-(U12A-+VS)*%
X168541700Y-80349999D03*
%TD*%
D19*
%TO.P,R70,1*%
%TO.N,SCK*%
X148870000Y-81940000D03*
%TO.P,R70,2*%
%TO.N,Net-(U15-A2)*%
X148870000Y-83590000D03*
%TD*%
D32*
%TO.P,FB2,1*%
%TO.N,Net-(U2-\u002ASHDN)*%
X98665000Y-97155000D03*
%TO.P,FB2,2*%
%TO.N,+6V*%
X96915000Y-97155000D03*
%TD*%
D24*
%TO.P,C20,1*%
%TO.N,Net-(U5-VOUT_S)*%
X178868100Y-95187601D03*
%TO.P,C20,2*%
%TO.N,GND*%
X178868100Y-98137601D03*
%TD*%
D28*
%TO.P,C6,1*%
%TO.N,+3.3V*%
X117216736Y-99772568D03*
%TO.P,C6,2*%
%TO.N,Net-(U2-BYP)*%
X117216736Y-101322568D03*
%TD*%
D22*
%TO.P,C80,1*%
%TO.N,+3.3V*%
X150140000Y-92710000D03*
%TO.P,C80,2*%
%TO.N,GND*%
X148590000Y-92710000D03*
%TD*%
D19*
%TO.P,R16,1*%
%TO.N,Net-(U3-SET)*%
X164594167Y-103648009D03*
%TO.P,R16,2*%
%TO.N,GND*%
X164594167Y-105298009D03*
%TD*%
D22*
%TO.P,C77,1*%
%TO.N,+1.8V*%
X150140000Y-90805000D03*
%TO.P,C77,2*%
%TO.N,GND*%
X148590000Y-90805000D03*
%TD*%
D33*
%TO.P,C22,1*%
%TO.N,GND*%
X139065000Y-103505000D03*
%TO.P,C22,2*%
%TO.N,Net-(U6-SET)*%
X137165000Y-103505000D03*
%TD*%
D32*
%TO.P,FB5,1*%
%TO.N,Net-(U6-EN{slash}UV)*%
X124979400Y-108325002D03*
%TO.P,FB5,2*%
%TO.N,+6V*%
X123229400Y-108325002D03*
%TD*%
D28*
%TO.P,C52,1*%
%TO.N,Net-(U12A-+VS)*%
X175260001Y-82980000D03*
%TO.P,C52,2*%
%TO.N,GND*%
X175260001Y-84530000D03*
%TD*%
D34*
%TO.P,D7,1,A1*%
%TO.N,+3.3V*%
X127186736Y-102807568D03*
%TO.P,D7,2,A2*%
%TO.N,GND*%
X127186736Y-103647568D03*
%TD*%
D35*
%TO.P,U2,1,OUT*%
%TO.N,+3.3V*%
X110265286Y-97447868D03*
%TO.P,U2,2,SENSE/ADJ*%
%TO.N,Net-(U2-SENSE{slash}ADJ)*%
X110265286Y-98717868D03*
%TO.P,U2,3,GND*%
%TO.N,GND*%
X110265286Y-99987868D03*
%TO.P,U2,4,BYP*%
%TO.N,Net-(U2-BYP)*%
X110265286Y-101257868D03*
%TO.P,U2,5,\u002ASHDN*%
%TO.N,Net-(U2-\u002ASHDN)*%
X105020186Y-101257868D03*
%TO.P,U2,6,GND*%
%TO.N,GND*%
X105020186Y-99987868D03*
%TO.P,U2,7,GND*%
X105020186Y-98717868D03*
%TO.P,U2,8,IN*%
%TO.N,Net-(U2-\u002ASHDN)*%
X105020186Y-97447868D03*
%TD*%
D19*
%TO.P,R69,1*%
%TO.N,{slash}CS*%
X146965000Y-81943177D03*
%TO.P,R69,2*%
%TO.N,Net-(U15-A1)*%
X146965000Y-83593177D03*
%TD*%
D18*
%TO.P,R15,1*%
%TO.N,Net-(U3-ILIM)*%
X151154169Y-106293007D03*
%TO.P,R15,2*%
%TO.N,GND*%
X149504169Y-106293007D03*
%TD*%
D21*
%TO.P,FB8,1*%
%TO.N,+5.4V*%
X103866550Y-73730001D03*
%TO.P,FB8,2*%
%TO.N,Net-(U11A-+VS)*%
X105616550Y-73730001D03*
%TD*%
D36*
%TO.P,C42,1*%
%TO.N,Net-(U10B-REFIN)*%
X133210000Y-84455000D03*
%TO.P,C42,2*%
%TO.N,GND*%
X134760000Y-84455000D03*
%TD*%
D37*
%TO.P,U3,1,IN*%
%TO.N,Net-(U3-EN{slash}UV)*%
X153059169Y-109363009D03*
%TO.P,U3,2,IN*%
X153059169Y-108913007D03*
%TO.P,U3,3,EN/UV*%
X153059169Y-108463008D03*
%TO.P,U3,4,PG*%
%TO.N,unconnected-(U3-PG-Pad4)*%
X153059169Y-108013006D03*
%TO.P,U3,5,PGFB*%
%TO.N,Net-(U3-EN{slash}UV)*%
X153059169Y-107563007D03*
%TO.P,U3,6,ILIM*%
%TO.N,Net-(U3-ILIM)*%
X153059169Y-107113008D03*
%TO.P,U3,7,VIOC*%
%TO.N,unconnected-(U3-VIOC-Pad7)*%
X155954769Y-107113005D03*
%TO.P,U3,8,SET*%
%TO.N,Net-(U3-SET)*%
X155954769Y-107563007D03*
%TO.P,U3,9,GND*%
%TO.N,GND*%
X155954769Y-108013006D03*
%TO.P,U3,10,OUTS*%
%TO.N,-5.4V*%
X155954769Y-108463008D03*
%TO.P,U3,11,OUT*%
X155954769Y-108913007D03*
%TO.P,U3,12,OUT*%
X155954769Y-109363006D03*
D38*
%TO.P,U3,13,IN*%
%TO.N,Net-(U3-EN{slash}UV)*%
X154506969Y-108238007D03*
%TD*%
D28*
%TO.P,C46,1*%
%TO.N,Net-(U11A--VS)*%
X124666550Y-80660001D03*
%TO.P,C46,2*%
%TO.N,GND*%
X124666550Y-82210001D03*
%TD*%
D24*
%TO.P,C55,1*%
%TO.N,Net-(U12A-+VS)*%
X171450000Y-82980000D03*
%TO.P,C55,2*%
%TO.N,GND*%
X171450000Y-85930000D03*
%TD*%
D16*
%TO.P,R42,1*%
%TO.N,/ADC Driver Stage - Final Buffer CH B/Filtered_IN+*%
X160020000Y-81280000D03*
%TO.P,R42,2*%
%TO.N,Net-(U12A--IN1)*%
X161670000Y-81280000D03*
%TD*%
D19*
%TO.P,R22,1*%
%TO.N,REF_5V*%
X188393100Y-102807601D03*
%TO.P,R22,2*%
%TO.N,Net-(D12-A)*%
X188393100Y-104457601D03*
%TD*%
D32*
%TO.P,FB9,1*%
%TO.N,-5.4V*%
X129111550Y-80660001D03*
%TO.P,FB9,2*%
%TO.N,Net-(U11A--VS)*%
X127361550Y-80660001D03*
%TD*%
D39*
%TO.P,D11,1,K*%
%TO.N,GND*%
X141249400Y-115817502D03*
%TO.P,D11,2,A*%
%TO.N,Net-(D11-A)*%
X141249400Y-114242502D03*
%TD*%
D40*
%TO.P,D8,1,K*%
%TO.N,Net-(D8-K)*%
X160149167Y-114443009D03*
%TO.P,D8,2,A*%
%TO.N,GND*%
X160149167Y-116018009D03*
%TD*%
D19*
%TO.P,R35,1*%
%TO.N,REF_5V*%
X127887004Y-84662257D03*
%TO.P,R35,2*%
%TO.N,REF*%
X127887004Y-86312257D03*
%TD*%
D41*
%TO.P,TP6,1,1*%
%TO.N,REF_5V*%
X187758100Y-98997601D03*
%TD*%
D19*
%TO.P,R21,1*%
%TO.N,+5V*%
X141249400Y-109315002D03*
%TO.P,R21,2*%
%TO.N,Net-(D11-A)*%
X141249400Y-110965002D03*
%TD*%
D25*
%TO.P,U6,1,IN*%
%TO.N,Net-(U6-EN{slash}UV)*%
X131089400Y-109315002D03*
%TO.P,U6,2,IN*%
X131089400Y-108815000D03*
%TO.P,U6,3,EN/UV*%
X131089400Y-108315001D03*
%TO.P,U6,4,PG*%
%TO.N,unconnected-(U6-PG-Pad4)*%
X131089400Y-107815002D03*
%TO.P,U6,5,ILIM*%
%TO.N,GND*%
X131089400Y-107315000D03*
%TO.P,U6,6,PGFB*%
%TO.N,Net-(U6-EN{slash}UV)*%
X133985000Y-107315000D03*
%TO.P,U6,7,SET*%
%TO.N,Net-(U6-SET)*%
X133985000Y-107815002D03*
%TO.P,U6,8,GND*%
%TO.N,GND*%
X133985000Y-108315001D03*
%TO.P,U6,9,OUTS*%
%TO.N,+5V*%
X133985000Y-108815000D03*
%TO.P,U6,10,OUT*%
X133985000Y-109315002D03*
D38*
%TO.P,U6,11,GND*%
%TO.N,GND*%
X132537200Y-108315001D03*
%TD*%
D34*
%TO.P,D10,1,A1*%
%TO.N,REF_5V*%
X185853100Y-103022601D03*
%TO.P,D10,2,A2*%
%TO.N,GND*%
X185853100Y-103862601D03*
%TD*%
D19*
%TO.P,R13,1*%
%TO.N,+3.3V*%
X114486736Y-97155000D03*
%TO.P,R13,2*%
%TO.N,Net-(U2-SENSE{slash}ADJ)*%
X114486736Y-98805000D03*
%TD*%
D32*
%TO.P,FB10,1*%
%TO.N,+5.4V*%
X179550001Y-82980000D03*
%TO.P,FB10,2*%
%TO.N,Net-(U12A-+VS)*%
X177800001Y-82980000D03*
%TD*%
D31*
%TO.P,U11,1,OUT1*%
%TO.N,Net-(U11A--IN1)*%
X120281700Y-76495001D03*
%TO.P,U11,2,-IN1*%
X120281700Y-77144999D03*
%TO.P,U11,3,+IN1*%
%TO.N,Net-(U11A-+IN1)*%
X120281700Y-77795001D03*
%TO.P,U11,4,-VS*%
%TO.N,Net-(U11A--VS)*%
X120281700Y-78444999D03*
%TO.P,U11,5,+IN2*%
%TO.N,Net-(U11B-+IN2)*%
X115938300Y-78444999D03*
%TO.P,U11,6,-IN2*%
%TO.N,Net-(U11B--IN2)*%
X115938300Y-77795001D03*
%TO.P,U11,7,OUT2*%
X115938300Y-77144999D03*
%TO.P,U11,8,+VS*%
%TO.N,Net-(U11A-+VS)*%
X115938300Y-76495001D03*
%TD*%
D29*
%TO.P,C15,1*%
%TO.N,-5.4V*%
X158879167Y-109368009D03*
%TO.P,C15,2*%
%TO.N,GND*%
X158879167Y-111268009D03*
%TD*%
D23*
%TO.P,C54,1*%
%TO.N,Net-(U12A--VS)*%
X160020000Y-76405000D03*
%TO.P,C54,2*%
%TO.N,GND*%
X160020000Y-74855000D03*
%TD*%
D24*
%TO.P,C9,1*%
%TO.N,Net-(U3-EN{slash}UV)*%
X149884169Y-109468007D03*
%TO.P,C9,2*%
%TO.N,GND*%
X149884169Y-112418007D03*
%TD*%
D41*
%TO.P,TP2,1,1*%
%TO.N,+3.3V*%
X130996736Y-101957568D03*
%TD*%
D42*
%TO.P,C41,1*%
%TO.N,Net-(U10B-REFIN)*%
X133968418Y-81605083D03*
%TO.P,C41,2*%
%TO.N,GND*%
X131018418Y-81605083D03*
%TD*%
D18*
%TO.P,R34,1*%
%TO.N,Net-(U10B-REFIN)*%
X131470954Y-84700588D03*
%TO.P,R34,2*%
%TO.N,REF_5V*%
X129820954Y-84700588D03*
%TD*%
D24*
%TO.P,C48,1*%
%TO.N,Net-(U11A--VS)*%
X121491550Y-80660001D03*
%TO.P,C48,2*%
%TO.N,GND*%
X121491550Y-83610001D03*
%TD*%
D28*
%TO.P,C18,1*%
%TO.N,Net-(U6-EN{slash}UV)*%
X127914400Y-108045002D03*
%TO.P,C18,2*%
%TO.N,GND*%
X127914400Y-109595002D03*
%TD*%
D18*
%TO.P,R20,1*%
%TO.N,GND*%
X139070000Y-100965000D03*
%TO.P,R20,2*%
%TO.N,Net-(U6-SET)*%
X137420000Y-100965000D03*
%TD*%
D32*
%TO.P,FB6,1*%
%TO.N,Net-(U5-\u002ASHDN)*%
X165773100Y-101537601D03*
%TO.P,FB6,2*%
%TO.N,+6V*%
X164023100Y-101537601D03*
%TD*%
D16*
%TO.P,R39,1*%
%TO.N,/ADC Driver Stage - Final Buffer CH A/Filtered_IN-*%
X110696550Y-77765001D03*
%TO.P,R39,2*%
%TO.N,Net-(U11B--IN2)*%
X112346550Y-77765001D03*
%TD*%
D18*
%TO.P,R43,1*%
%TO.N,/ADC Driver Stage - Final Buffer CH B/Filtered_IN-*%
X172720000Y-78740000D03*
%TO.P,R43,2*%
%TO.N,Net-(U12B--IN2)*%
X171070000Y-78740000D03*
%TD*%
D41*
%TO.P,TP12,1,1*%
%TO.N,BUSY*%
X167005000Y-90805000D03*
%TD*%
D23*
%TO.P,C50,1*%
%TO.N,/ADC Driver Stage - Final Buffer CH A/Filtered_IN-*%
X108536550Y-79315001D03*
%TO.P,C50,2*%
%TO.N,GND*%
X108536550Y-77765001D03*
%TD*%
D41*
%TO.P,TP14,1,1*%
%TO.N,CNV*%
X165262348Y-87757394D03*
%TD*%
D28*
%TO.P,C79,1*%
%TO.N,+3.3V*%
X161925000Y-94475000D03*
%TO.P,C79,2*%
%TO.N,GND*%
X161925000Y-96025000D03*
%TD*%
D41*
%TO.P,TP13,1,1*%
%TO.N,MOSI*%
X143331991Y-84999042D03*
%TD*%
%TO.P,TP5,1,1*%
%TO.N,+5V*%
X141249400Y-106140002D03*
%TD*%
D23*
%TO.P,C8,1*%
%TO.N,Net-(U2-\u002ASHDN)*%
X100965000Y-97295000D03*
%TO.P,C8,2*%
%TO.N,GND*%
X100965000Y-95745000D03*
%TD*%
D30*
%TO.P,C56,1*%
%TO.N,Net-(U12A--VS)*%
X163195000Y-76405000D03*
%TO.P,C56,2*%
%TO.N,GND*%
X163195000Y-73455000D03*
%TD*%
D24*
%TO.P,C21,1*%
%TO.N,REF_5V*%
X178868100Y-102172601D03*
%TO.P,C21,2*%
%TO.N,GND*%
X178868100Y-105122601D03*
%TD*%
D41*
%TO.P,TP3,1,1*%
%TO.N,-5.4V*%
X153799167Y-115078009D03*
%TD*%
%TO.P,TP16,1,1*%
%TO.N,REF*%
X137178868Y-86045770D03*
%TD*%
D40*
%TO.P,D6,1,K*%
%TO.N,GND*%
X127186736Y-94032568D03*
%TO.P,D6,2,A*%
%TO.N,Net-(D6-A)*%
X127186736Y-95607568D03*
%TD*%
D32*
%TO.P,FB4,1*%
%TO.N,Net-(U3-EN{slash}UV)*%
X147344169Y-109468007D03*
%TO.P,FB4,2*%
%TO.N,-6V*%
X145594169Y-109468007D03*
%TD*%
D28*
%TO.P,C58,1*%
%TO.N,/ADC Driver Stage - Final Buffer CH B/Filtered_IN-*%
X174880000Y-77190000D03*
%TO.P,C58,2*%
%TO.N,GND*%
X174880000Y-78740000D03*
%TD*%
D25*
%TO.P,U15,1,VCCA*%
%TO.N,+1.8V*%
X152643700Y-92085000D03*
%TO.P,U15,2,T/\u002AR*%
%TO.N,GND*%
X152643700Y-91584999D03*
D26*
%TO.P,U15,3,A0*%
%TO.N,Net-(U15-A0)*%
X153040001Y-90684000D03*
%TO.P,U15,4,A1*%
%TO.N,Net-(U15-A1)*%
X153540000Y-90684000D03*
%TO.P,U15,5,A2*%
%TO.N,Net-(U15-A2)*%
X154039999Y-90684000D03*
%TO.P,U15,6,A3*%
%TO.N,unconnected-(U15-A3-Pad6)*%
X154540000Y-90684000D03*
%TO.P,U15,7,A4*%
%TO.N,unconnected-(U15-A4-Pad7)*%
X155040000Y-90684000D03*
%TO.P,U15,8,A5*%
%TO.N,unconnected-(U15-A5-Pad8)*%
X155540001Y-90684000D03*
%TO.P,U15,9,A6*%
%TO.N,CNV*%
X156040000Y-90684000D03*
%TO.P,U15,10,A7*%
%TO.N,{slash}RESET*%
X156539999Y-90684000D03*
D25*
%TO.P,U15,11,GND*%
%TO.N,GND*%
X156936300Y-91584999D03*
%TO.P,U15,12,GND*%
X156936300Y-92085000D03*
%TO.P,U15,13,GND*%
X156936300Y-92585000D03*
%TO.P,U15,14,B7*%
%TO.N,{slash}RESET_MCU*%
X156936300Y-93085001D03*
D26*
%TO.P,U15,15,B6*%
%TO.N,CNV_3.3*%
X156539999Y-93986000D03*
%TO.P,U15,16,B5*%
%TO.N,GND*%
X156040000Y-93986000D03*
%TO.P,U15,17,B4*%
X155540001Y-93986000D03*
%TO.P,U15,18,B3*%
X155040000Y-93986000D03*
%TO.P,U15,19,B2*%
%TO.N,SCK_MCU*%
X154540000Y-93986000D03*
%TO.P,U15,20,B1*%
%TO.N,{slash}CS_MCU*%
X154039999Y-93986000D03*
%TO.P,U15,21,B0*%
%TO.N,MOSI_MCU*%
X153540000Y-93986000D03*
%TO.P,U15,22,\u002AOE*%
%TO.N,GND*%
X153040001Y-93986000D03*
D25*
%TO.P,U15,23,VCCB*%
%TO.N,+3.3V*%
X152643700Y-93085001D03*
%TO.P,U15,24,VCCB*%
X152643700Y-92585000D03*
D27*
%TO.P,U15,25,EPAD*%
%TO.N,GND*%
X154790000Y-92335000D03*
%TD*%
D43*
%TO.P,U16,1,VCCA*%
%TO.N,+1.8V*%
X160525602Y-91940001D03*
%TO.P,U16,2,A0*%
%TO.N,BUSY*%
X160525602Y-91440000D03*
%TO.P,U16,3,A1*%
%TO.N,GND*%
X160525602Y-90940000D03*
%TO.P,U16,4,T/\u002AR*%
%TO.N,+1.8V*%
X160525602Y-90439999D03*
D44*
%TO.P,U16,5,GND*%
%TO.N,GND*%
X160907801Y-90382801D03*
D43*
%TO.P,U16,6,GND*%
X161290000Y-90439999D03*
%TO.P,U16,7,\u002AOE*%
X161290000Y-90940000D03*
%TO.P,U16,8,B1*%
%TO.N,unconnected-(U16-B1-Pad8)*%
X161290000Y-91440000D03*
%TO.P,U16,9,B0*%
%TO.N,BUSY_MCU*%
X161290000Y-91940001D03*
D44*
%TO.P,U16,10,VCCB*%
%TO.N,+3.3V*%
X160907801Y-91997199D03*
%TD*%
D39*
%TO.P,D12,1,K*%
%TO.N,GND*%
X188393100Y-108827601D03*
%TO.P,D12,2,A*%
%TO.N,Net-(D12-A)*%
X188393100Y-107252601D03*
%TD*%
D28*
%TO.P,C49,1*%
%TO.N,/ADC Driver Stage - Final Buffer CH A/Filtered_IN+*%
X127206550Y-75860001D03*
%TO.P,C49,2*%
%TO.N,GND*%
X127206550Y-77410001D03*
%TD*%
%TO.P,C19,1*%
%TO.N,Net-(U5-\u002ASHDN)*%
X168708100Y-101257601D03*
%TO.P,C19,2*%
%TO.N,GND*%
X168708100Y-102807601D03*
%TD*%
D22*
%TO.P,C82,1*%
%TO.N,+3.3V*%
X138215000Y-93345000D03*
%TO.P,C82,2*%
%TO.N,GND*%
X136665000Y-93345000D03*
%TD*%
D45*
%TO.N,GND*%
X102682655Y-116205000D03*
X188595000Y-84455000D03*
%TO.N,+3.3V*%
X163195000Y-100330000D03*
X165735000Y-102870000D03*
%TO.N,GND*%
X168910000Y-99695000D03*
X158115000Y-90805000D03*
%TO.N,+3.3V*%
X162560000Y-92075000D03*
X164465000Y-92075000D03*
%TO.N,{slash}RESET*%
X135255000Y-76740000D03*
%TO.N,Trig_Detect*%
X167640000Y-99060000D03*
X167640000Y-106045000D03*
%TO.N,BUSY_MCU*%
X151765000Y-103505000D03*
%TO.N,Trig_Detect*%
X144145000Y-97790000D03*
X149860000Y-99695000D03*
%TO.N,CNV_3.3*%
X157624627Y-101601001D03*
%TO.N,Manual_Trigger*%
X155575000Y-104140000D03*
X153035000Y-100965000D03*
%TO.N,/ADC Driver Stage - Final Buffer CH B/Filtered_IN-*%
X162560000Y-78105000D03*
X151130000Y-78105000D03*
X172720000Y-76200000D03*
%TO.N,/ADC Driver Stage - Final Buffer CH A/Filtered_IN-*%
X109855000Y-80010000D03*
%TO.N,MOSI_MCU*%
X146050000Y-99060000D03*
%TO.N,{slash}CS_MCU*%
X146050000Y-100330000D03*
%TO.N,GND*%
X153040001Y-98419999D03*
%TO.N,+1.8V*%
X151646612Y-95885000D03*
%TO.N,BUSY_MCU*%
X165100000Y-91440000D03*
X162560000Y-90805000D03*
%TO.N,MISO0_MCU*%
X140970000Y-95250000D03*
%TO.N,GND*%
X138430000Y-83185000D03*
%TO.N,Net-(U10B-REFIN)*%
X135255000Y-80010000D03*
%TO.N,+5V*%
X135255000Y-86995000D03*
X142875000Y-99695000D03*
%TO.N,REF_5V*%
X139700000Y-72390000D03*
X106045000Y-81280000D03*
X112395000Y-81915000D03*
%TO.N,-5.4V*%
X167640000Y-88900000D03*
X117475000Y-82550000D03*
X130175000Y-79375000D03*
X154305000Y-78105000D03*
X117475000Y-86360000D03*
X160020000Y-85725000D03*
%TO.N,+1.8V*%
X139065000Y-88265000D03*
X148590000Y-78105000D03*
X135255000Y-71755000D03*
X128905000Y-74295000D03*
X106045000Y-113665000D03*
X158750000Y-93980000D03*
X158750000Y-92710000D03*
%TO.N,+6V*%
X104775000Y-85725000D03*
X156210000Y-101600000D03*
X101600000Y-87630000D03*
X120015000Y-107315000D03*
X100330000Y-86360000D03*
%TO.N,GND*%
X87630000Y-98425000D03*
X99060000Y-91440000D03*
%TO.N,-6V*%
X144780000Y-112395000D03*
X86995000Y-95250000D03*
%TO.N,+3.3V*%
X138430000Y-95250000D03*
X154940000Y-110490000D03*
X156845000Y-103505000D03*
X151130000Y-93345000D03*
X147955000Y-106045000D03*
X131445000Y-90170000D03*
X137160000Y-107315000D03*
X131445000Y-104775000D03*
X118110000Y-104775000D03*
X119380000Y-105410000D03*
X120650000Y-109220000D03*
X128270000Y-96994000D03*
X130175000Y-92710000D03*
X129540000Y-99695000D03*
%TO.N,+5.4V*%
X177800000Y-85090000D03*
X151130000Y-83820000D03*
X93345000Y-115570000D03*
X102870000Y-75565000D03*
X106680000Y-83820000D03*
%TO.N,GND*%
X148590000Y-75565000D03*
X96520000Y-95250000D03*
X146050000Y-93345000D03*
X120332500Y-61277500D03*
X97790000Y-95250000D03*
X189897500Y-95805000D03*
X110532519Y-69560945D03*
X158750000Y-101600000D03*
X151765000Y-81280000D03*
X127000000Y-105410000D03*
X176530000Y-98425000D03*
X146050000Y-75565000D03*
X136525000Y-65405000D03*
X154940000Y-69850000D03*
X133985000Y-100965000D03*
X158115000Y-85090000D03*
X146050000Y-94615000D03*
X168910000Y-67310000D03*
X144780000Y-88265000D03*
X125730000Y-83185000D03*
X130175000Y-106680000D03*
X177310701Y-106680000D03*
X124460000Y-67310000D03*
X149225000Y-104775000D03*
X144145000Y-109855000D03*
X158750000Y-117475000D03*
X140335000Y-93980000D03*
X176530000Y-78105000D03*
X137795000Y-66040000D03*
X109855000Y-104775000D03*
X107315000Y-80010000D03*
X190500000Y-108585000D03*
X161925000Y-65405000D03*
X118110000Y-65405000D03*
X154940000Y-79375000D03*
X113665000Y-105410000D03*
X186055000Y-111355000D03*
X154940000Y-112395000D03*
X98425000Y-105410000D03*
X161925000Y-98425000D03*
X139700000Y-116840000D03*
X168910000Y-69215000D03*
X126365000Y-83185000D03*
X131445000Y-83185000D03*
X171450000Y-112395000D03*
X153035000Y-88900000D03*
X186690000Y-95202500D03*
X117663424Y-116205000D03*
X144145000Y-70485000D03*
X111125000Y-108585000D03*
X118745000Y-102870000D03*
X181610000Y-65405000D03*
X176530000Y-71755000D03*
X158750000Y-61595000D03*
X141605000Y-100965000D03*
X163114885Y-104148008D03*
X144145000Y-73660000D03*
X159385000Y-106680000D03*
X127635000Y-104775000D03*
X147320000Y-71755000D03*
X125095000Y-93345000D03*
X125730000Y-95250000D03*
X149860000Y-107950000D03*
X108585000Y-95885000D03*
X186690000Y-103505000D03*
X132080000Y-71755000D03*
X133985000Y-88557479D03*
X120899570Y-101369241D03*
X162560000Y-106680000D03*
X113030000Y-101600000D03*
X136525000Y-88265000D03*
X194310000Y-102870000D03*
X88710000Y-65405000D03*
X123190000Y-85725000D03*
X101600000Y-60960000D03*
X128905000Y-110490000D03*
X189865000Y-109220000D03*
X121285000Y-85725000D03*
X110490000Y-67310000D03*
X165100000Y-61595000D03*
X111125000Y-79375000D03*
X134620000Y-104140000D03*
X161925000Y-118110000D03*
X180340000Y-65405000D03*
X113665000Y-85725000D03*
X157480000Y-107950000D03*
X171450000Y-116840000D03*
X113030000Y-74930000D03*
X125730000Y-77470000D03*
X137160000Y-112395000D03*
X101600000Y-110490000D03*
X110490000Y-112395000D03*
X158115000Y-73025000D03*
X163195000Y-106045000D03*
X135890000Y-107950000D03*
X190500000Y-65405000D03*
X103505000Y-99695000D03*
X158750000Y-106045000D03*
X114617500Y-60642500D03*
X145732500Y-61277500D03*
X191135000Y-116205000D03*
X180975000Y-99060000D03*
X160655000Y-65405000D03*
X88265000Y-116205000D03*
X125095000Y-111125000D03*
X130810000Y-95885000D03*
X97155000Y-105410000D03*
X133032500Y-61277500D03*
X125730000Y-66675000D03*
X158115000Y-92075000D03*
X185420000Y-100965000D03*
X177800000Y-61595000D03*
X133985000Y-86995000D03*
X165735000Y-85090000D03*
X109855000Y-92075000D03*
X128905000Y-92710000D03*
X102235000Y-71755000D03*
X125095000Y-100965000D03*
X161290000Y-113030000D03*
X143510000Y-67310000D03*
X103505000Y-98425000D03*
X144780000Y-103505000D03*
X162560000Y-89535000D03*
X132046353Y-77816074D03*
X116840000Y-64770000D03*
X135255000Y-85725000D03*
X116840000Y-87630000D03*
X192437500Y-102790000D03*
X165100000Y-72390000D03*
X169545000Y-86360000D03*
X184150000Y-116840000D03*
X160020000Y-98425000D03*
X154940000Y-67945000D03*
X173990000Y-85090000D03*
X106045000Y-71120000D03*
X147955000Y-87630000D03*
X124074570Y-101369241D03*
X135255000Y-110490000D03*
X149225000Y-88900000D03*
X164465000Y-111760000D03*
X113030000Y-100330000D03*
X170180000Y-103505000D03*
X133350000Y-72390000D03*
X128905000Y-75565000D03*
X147320000Y-88900000D03*
X141605000Y-103505000D03*
X170815000Y-98425000D03*
X151765000Y-113030000D03*
X136525000Y-94615000D03*
X100965000Y-115570000D03*
X128270000Y-103505000D03*
X110490000Y-71120000D03*
X180975000Y-106680000D03*
X102235000Y-95250000D03*
%TO.N,+3.3V*%
X122555000Y-97790000D03*
%TO.N,REF_5V*%
X133985000Y-79375000D03*
%TO.N,+5V*%
X135255000Y-78740000D03*
%TO.N,Net-(U11B-+IN2)*%
X100965000Y-68580000D03*
%TO.N,Net-(U11A-+IN1)*%
X130810000Y-69215000D03*
%TO.N,/ADC Driver Stage - Final Buffer CH A/Filtered_IN+*%
X130175000Y-78105000D03*
%TO.N,Net-(U12B-+IN2)*%
X145415000Y-69850000D03*
%TO.N,Net-(U12A-+IN1)*%
X178435000Y-68580000D03*
%TO.N,/ADC Driver Stage - Final Buffer CH B/Filtered_IN+*%
X154305000Y-81280000D03*
%TO.N,Net-(U13B-+VCLAMP)*%
X120015000Y-75565000D03*
X113905000Y-83185000D03*
X114935000Y-74295000D03*
%TO.N,Net-(U13B--VCLAMP)*%
X120650000Y-74295000D03*
X123190000Y-82550000D03*
%TO.N,Net-(U14A-VOCM)*%
X158750000Y-74930000D03*
X141605000Y-73025000D03*
%TO.N,Net-(U14B-+VCLAMP)*%
X164599999Y-74930000D03*
X158489999Y-82550000D03*
X159519999Y-73660000D03*
%TO.N,Net-(U14B--VCLAMP)*%
X165869999Y-82550000D03*
X165234999Y-73660000D03*
%TO.N,{slash}RESET_MCU*%
X161925000Y-88900000D03*
%TO.N,/MCU-FPGA/BOOT*%
X135890000Y-92075000D03*
X118745000Y-90805000D03*
%TO.N,REF*%
X139700000Y-84455000D03*
%TO.N,SCK*%
X144145000Y-76835000D03*
X147955000Y-80645000D03*
%TO.N,MOSI*%
X144145000Y-77540000D03*
%TO.N,{slash}CS*%
X144780000Y-78740000D03*
%TO.N,BUSY*%
X140970000Y-74295000D03*
%TO.N,CNV*%
X157480000Y-88265000D03*
X156210000Y-89535000D03*
X134612151Y-76836174D03*
%TO.N,MISO0*%
X139700000Y-74295000D03*
%TO.N,SCK_MCU*%
X135255000Y-103505000D03*
%TD*%
D46*
%TO.N,+3.3V*%
X163195000Y-95745000D02*
X161925000Y-94475000D01*
X163195000Y-100330000D02*
X163195000Y-95745000D01*
X160912000Y-92292601D02*
X162342399Y-92292601D01*
X162342399Y-92292601D02*
X162560000Y-92075000D01*
X160907801Y-92288402D02*
X160912000Y-92292601D01*
X160907801Y-91997199D02*
X160907801Y-92288402D01*
X162561388Y-94475000D02*
X164465000Y-92571388D01*
X164465000Y-92571388D02*
X164465000Y-92075000D01*
X161925000Y-94475000D02*
X162561388Y-94475000D01*
%TO.N,BUSY_MCU*%
X162777000Y-102452000D02*
X161925000Y-102452000D01*
X163195000Y-102870000D02*
X162777000Y-102452000D01*
X164111125Y-102870000D02*
X163195000Y-102870000D01*
X164997100Y-100862100D02*
X164997100Y-101984025D01*
X164599000Y-100464000D02*
X164997100Y-100862100D01*
X164997100Y-101984025D02*
X164111125Y-102870000D01*
X165735000Y-96520000D02*
X164599000Y-97656000D01*
X164599000Y-97656000D02*
X164599000Y-100464000D01*
X165735000Y-92075000D02*
X165735000Y-96520000D01*
X165100000Y-91440000D02*
X165735000Y-92075000D01*
%TO.N,+1.8V*%
X160721000Y-93774000D02*
X160020000Y-94475000D01*
X162766000Y-93774000D02*
X160721000Y-93774000D01*
X163830000Y-89535000D02*
X163830000Y-92710000D01*
X163830000Y-92710000D02*
X162766000Y-93774000D01*
X162560000Y-88265000D02*
X163830000Y-89535000D01*
X160020000Y-89934397D02*
X160020000Y-88900000D01*
X160655000Y-88265000D02*
X162560000Y-88265000D01*
X160525602Y-90439999D02*
X160020000Y-89934397D01*
X160020000Y-88900000D02*
X160655000Y-88265000D01*
%TO.N,Trig_Detect*%
X168776000Y-97924000D02*
X167640000Y-99060000D01*
X171022521Y-97924000D02*
X168776000Y-97924000D01*
X172374100Y-99275579D02*
X171022521Y-97924000D01*
X172374100Y-102071500D02*
X172374100Y-99275579D01*
X168400600Y-106045000D02*
X172374100Y-102071500D01*
X167640000Y-106045000D02*
X168400600Y-106045000D01*
%TO.N,BUSY_MCU*%
X159385000Y-102452000D02*
X161925000Y-102452000D01*
%TO.N,+6V*%
X156711000Y-102101000D02*
X156210000Y-101600000D01*
X163459701Y-102101000D02*
X156711000Y-102101000D01*
X164023100Y-101537601D02*
X163459701Y-102101000D01*
%TO.N,BUSY_MCU*%
X152818000Y-102452000D02*
X159385000Y-102452000D01*
X151765000Y-103505000D02*
X152818000Y-102452000D01*
%TO.N,Trig_Detect*%
X144145000Y-97863521D02*
X144145000Y-97790000D01*
X145976479Y-99695000D02*
X144145000Y-97863521D01*
X149860000Y-99695000D02*
X145976479Y-99695000D01*
%TO.N,CNV_3.3*%
X156845000Y-95885000D02*
X156539999Y-95579999D01*
X156845000Y-100965000D02*
X156845000Y-95885000D01*
X157481001Y-101601001D02*
X156845000Y-100965000D01*
X157624627Y-101601001D02*
X157481001Y-101601001D01*
X156539999Y-95579999D02*
X156539999Y-93986000D01*
%TO.N,Net-(U3-ILIM)*%
X152239168Y-106293007D02*
X153059169Y-107113008D01*
X151154169Y-106293007D02*
X152239168Y-106293007D01*
%TO.N,/ADC Driver Stage - Final Buffer CH B/Filtered_IN-*%
X162059000Y-78606000D02*
X162560000Y-78105000D01*
X151631000Y-78606000D02*
X162059000Y-78606000D01*
X151130000Y-78105000D02*
X151631000Y-78606000D01*
X174625000Y-76200000D02*
X172720000Y-76200000D01*
X174880000Y-76455000D02*
X174625000Y-76200000D01*
X174880000Y-77190000D02*
X174880000Y-76455000D01*
%TO.N,/ADC Driver Stage - Final Buffer CH A/Filtered_IN-*%
X109160001Y-79315001D02*
X109855000Y-80010000D01*
X108536550Y-79315001D02*
X109160001Y-79315001D01*
%TO.N,SCK_MCU*%
X154305000Y-101600000D02*
X146611479Y-101600000D01*
X143436479Y-98425000D02*
X140970000Y-98425000D01*
X146611479Y-101600000D02*
X143436479Y-98425000D01*
%TO.N,{slash}CS_MCU*%
X154940000Y-97724909D02*
X154940000Y-96520000D01*
X152334909Y-100330000D02*
X154940000Y-97724909D01*
X146050000Y-100330000D02*
X152334909Y-100330000D01*
%TO.N,MOSI_MCU*%
X153540000Y-95755000D02*
X153540000Y-93986000D01*
X154305000Y-96520000D02*
X153540000Y-95755000D01*
X154305000Y-97863521D02*
X154305000Y-96520000D01*
X146050000Y-99060000D02*
X153108521Y-99060000D01*
X153108521Y-99060000D02*
X154305000Y-97863521D01*
%TO.N,GND*%
X153040001Y-93986000D02*
X153040001Y-98419999D01*
%TO.N,{slash}CS_MCU*%
X154039999Y-93986000D02*
X154039999Y-95619999D01*
X154039999Y-95619999D02*
X154940000Y-96520000D01*
%TO.N,SCK_MCU*%
X155575000Y-100330000D02*
X154305000Y-101600000D01*
X155575000Y-96520000D02*
X155575000Y-100330000D01*
X154540000Y-95485000D02*
X155575000Y-96520000D01*
X154540000Y-93986000D02*
X154540000Y-95485000D01*
%TO.N,{slash}RESET_MCU*%
X162698612Y-88900000D02*
X161925000Y-88900000D01*
X163195000Y-89396388D02*
X162698612Y-88900000D01*
X163195000Y-92710000D02*
X163195000Y-89396388D01*
X157196299Y-93345000D02*
X162560000Y-93345000D01*
X156936300Y-93085001D02*
X157196299Y-93345000D01*
X162560000Y-93345000D02*
X163195000Y-92710000D01*
%TO.N,BUSY_MCU*%
X161424999Y-91940001D02*
X162560000Y-90805000D01*
X161290000Y-91940001D02*
X161424999Y-91940001D01*
%TO.N,GND*%
X162560000Y-89535000D02*
X161712199Y-90382801D01*
X161712199Y-90382801D02*
X160907801Y-90382801D01*
%TO.N,MISO0_MCU*%
X141905000Y-94315000D02*
X141905000Y-93091000D01*
X140970000Y-95250000D02*
X141905000Y-94315000D01*
%TO.N,Net-(U10B-REFIN)*%
X133968418Y-81296582D02*
X135255000Y-80010000D01*
X133968418Y-81605083D02*
X133968418Y-81296582D01*
%TO.N,/ADC Driver Stage - Final Buffer CH A/Filtered_IN-*%
X110086550Y-77765001D02*
X108536550Y-79315001D01*
X110696550Y-77765001D02*
X110086550Y-77765001D01*
%TO.N,+5V*%
X140201000Y-83686000D02*
X135255000Y-78740000D01*
X140201000Y-84662521D02*
X140201000Y-83686000D01*
X137868521Y-86995000D02*
X140201000Y-84662521D01*
X135255000Y-86995000D02*
X137868521Y-86995000D01*
X142875000Y-104514402D02*
X142875000Y-99695000D01*
X141249400Y-106140002D02*
X142875000Y-104514402D01*
D47*
%TO.N,REF_5V*%
X131635835Y-79375000D02*
X133985000Y-79375000D01*
X129820954Y-81189881D02*
X131635835Y-79375000D01*
X129820954Y-84700588D02*
X129820954Y-81189881D01*
X124667257Y-84662257D02*
X127887004Y-84662257D01*
X121920000Y-81915000D02*
X124667257Y-84662257D01*
X112395000Y-81915000D02*
X121920000Y-81915000D01*
X127925335Y-84700588D02*
X127887004Y-84662257D01*
X129820954Y-84700588D02*
X127925335Y-84700588D01*
D46*
%TO.N,Net-(U10B-REFIN)*%
X131716542Y-84455000D02*
X131470954Y-84700588D01*
X133210000Y-84455000D02*
X131716542Y-84455000D01*
X133968418Y-83696582D02*
X133210000Y-84455000D01*
X133968418Y-81605083D02*
X133968418Y-83696582D01*
D47*
%TO.N,REF_5V*%
X143505740Y-72390000D02*
X139700000Y-72390000D01*
X158110740Y-86995000D02*
X143505740Y-72390000D01*
X172580499Y-86995000D02*
X158110740Y-86995000D01*
X188393100Y-102807601D02*
X172580499Y-86995000D01*
D46*
%TO.N,Net-(D12-A)*%
X188393100Y-104457601D02*
X188393100Y-107252601D01*
D47*
%TO.N,REF_5V*%
X188393100Y-99632601D02*
X187758100Y-98997601D01*
X188393100Y-102807601D02*
X188393100Y-99632601D01*
X186068100Y-102807601D02*
X188393100Y-102807601D01*
X185853100Y-103022601D02*
X186068100Y-102807601D01*
X185003100Y-102172601D02*
X185853100Y-103022601D01*
X182678100Y-102172601D02*
X185003100Y-102172601D01*
X178868100Y-102172601D02*
X182678100Y-102172601D01*
X178868100Y-102172601D02*
X177675501Y-100980002D01*
X177675501Y-100980002D02*
X175895000Y-100980002D01*
D46*
%TO.N,Net-(U5-VOUT_S)*%
X177165000Y-99806100D02*
X177165000Y-96890701D01*
X176641100Y-100330000D02*
X177165000Y-99806100D01*
X177165000Y-96890701D02*
X178868100Y-95187601D01*
X175895000Y-100330000D02*
X176641100Y-100330000D01*
%TO.N,Net-(U5-\u002ASHDN)*%
X166345701Y-100965000D02*
X165773100Y-101537601D01*
X168415499Y-100965000D02*
X166345701Y-100965000D01*
X168708100Y-101257601D02*
X168415499Y-100965000D01*
X168985699Y-100980002D02*
X168708100Y-101257601D01*
X171577000Y-100980002D02*
X168985699Y-100980002D01*
X171577000Y-101630000D02*
X171577000Y-100980002D01*
%TO.N,-5.4V*%
X173990000Y-95250000D02*
X167640000Y-88900000D01*
X173990000Y-101535488D02*
X173990000Y-95250000D01*
X166352479Y-109173009D02*
X173990000Y-101535488D01*
X162689167Y-109173009D02*
X166352479Y-109173009D01*
X129111550Y-80438450D02*
X130175000Y-79375000D01*
X129111550Y-80660001D02*
X129111550Y-80438450D01*
X154305000Y-77675000D02*
X154305000Y-78105000D01*
X155575000Y-76405000D02*
X154305000Y-77675000D01*
%TO.N,+1.8V*%
X138215000Y-89115000D02*
X139065000Y-88265000D01*
X138215000Y-89535000D02*
X138215000Y-89115000D01*
%TO.N,+3.3V*%
X130996736Y-104326736D02*
X130996736Y-101957568D01*
X131445000Y-104775000D02*
X130996736Y-104326736D01*
D47*
%TO.N,BUSY*%
X164169000Y-87969000D02*
X159046000Y-87969000D01*
X159046000Y-87969000D02*
X157797500Y-89217500D01*
X157797500Y-89217500D02*
X142875000Y-74295000D01*
X167005000Y-90805000D02*
X164169000Y-87969000D01*
D46*
%TO.N,+1.8V*%
X159245000Y-94475000D02*
X158750000Y-93980000D01*
X160020000Y-94475000D02*
X159245000Y-94475000D01*
X159519999Y-91940001D02*
X158750000Y-92710000D01*
X160525602Y-91940001D02*
X159519999Y-91940001D01*
%TO.N,Net-(U3-EN{slash}UV)*%
X149884169Y-109468007D02*
X147344169Y-109468007D01*
X151789169Y-107563007D02*
X149884169Y-109468007D01*
X153059169Y-107563007D02*
X151789169Y-107563007D01*
X153831969Y-107563007D02*
X154506969Y-108238007D01*
X153059169Y-107563007D02*
X153831969Y-107563007D01*
X153059169Y-109363009D02*
X153059169Y-108463008D01*
X154281968Y-108463008D02*
X154506969Y-108238007D01*
X153059169Y-108463008D02*
X154281968Y-108463008D01*
%TO.N,+6V*%
X121025002Y-108325002D02*
X120015000Y-107315000D01*
X123229400Y-108325002D02*
X121025002Y-108325002D01*
X100330000Y-93740000D02*
X100330000Y-86360000D01*
X96915000Y-97155000D02*
X100330000Y-93740000D01*
%TO.N,-6V*%
X145594169Y-111580831D02*
X144780000Y-112395000D01*
X145594169Y-109468007D02*
X145594169Y-111580831D01*
%TO.N,+3.3V*%
X150495000Y-92710000D02*
X151130000Y-93345000D01*
X150140000Y-92710000D02*
X150495000Y-92710000D01*
X138215000Y-95035000D02*
X138430000Y-95250000D01*
X138215000Y-93345000D02*
X138215000Y-95035000D01*
X130996736Y-101151736D02*
X129540000Y-99695000D01*
X130996736Y-101957568D02*
X130996736Y-101151736D01*
X127000000Y-100920832D02*
X127000000Y-100075000D01*
X128036736Y-101957568D02*
X127000000Y-100920832D01*
X128036736Y-101957568D02*
X127186736Y-102807568D01*
X130996736Y-101957568D02*
X128036736Y-101957568D01*
%TO.N,+5.4V*%
X178435000Y-85090000D02*
X179550001Y-83974999D01*
X102870000Y-75565000D02*
X102870000Y-74726551D01*
X102870000Y-74726551D02*
X103866550Y-73730001D01*
X177800000Y-85090000D02*
X178435000Y-85090000D01*
X179550001Y-83974999D02*
X179550001Y-82980000D01*
%TO.N,GND*%
X124755001Y-82210001D02*
X125730000Y-83185000D01*
X132397500Y-60642500D02*
X133032500Y-61277500D01*
X136665000Y-94475000D02*
X136525000Y-94615000D01*
X192610000Y-94210000D02*
X191610000Y-95210000D01*
X100965000Y-95745000D02*
X101740000Y-95745000D01*
X158879167Y-111268009D02*
X160641158Y-113030000D01*
X102235000Y-60325000D02*
X101600000Y-60960000D01*
X124666550Y-82210001D02*
X124755001Y-82210001D01*
X194310000Y-102870000D02*
X194310000Y-101210000D01*
X160020000Y-96025000D02*
X160020000Y-98425000D01*
X159657176Y-106680000D02*
X159385000Y-106680000D01*
X112687868Y-99987868D02*
X113030000Y-100330000D01*
X156650000Y-60960000D02*
X158115000Y-60960000D01*
X158115000Y-60960000D02*
X158750000Y-61595000D01*
X146050000Y-60960000D02*
X145732500Y-61277500D01*
X161290000Y-90439999D02*
X161290000Y-90940000D01*
X103700000Y-60325000D02*
X102235000Y-60325000D01*
X122432500Y-60642500D02*
X120967500Y-60642500D01*
X160149167Y-116075833D02*
X158750000Y-117475000D01*
X148590000Y-93980000D02*
X147955000Y-94615000D01*
X130810000Y-107315000D02*
X130175000Y-106680000D01*
X130932500Y-60642500D02*
X132397500Y-60642500D01*
X125789999Y-77410001D02*
X125730000Y-77470000D01*
X141224000Y-93091000D02*
X140335000Y-93980000D01*
X107315000Y-78986551D02*
X107315000Y-80010000D01*
X136665000Y-88405000D02*
X136525000Y-88265000D01*
X194310000Y-101210000D02*
X192610000Y-101210000D01*
X131089400Y-107315000D02*
X131537199Y-107315000D01*
X191610000Y-101962500D02*
X191610000Y-100210000D01*
X139070000Y-100965000D02*
X141605000Y-100965000D01*
X121491550Y-83610001D02*
X123190000Y-85308451D01*
X156017775Y-107950000D02*
X157480000Y-107950000D01*
X141249400Y-115817502D02*
X140722498Y-115817502D01*
X185853100Y-103862601D02*
X186210701Y-103505000D01*
X141405001Y-93091000D02*
X141224000Y-93091000D01*
X110829999Y-70780001D02*
X110490000Y-71120000D01*
X182050000Y-116205000D02*
X183515000Y-116205000D01*
X160784167Y-105553009D02*
X159657176Y-106680000D01*
X123190000Y-85308451D02*
X123190000Y-85725000D01*
X175895000Y-101630000D02*
X175148900Y-101630000D01*
X171577000Y-99680002D02*
X171577000Y-99187000D01*
X156936300Y-92585000D02*
X156936300Y-91584999D01*
X108156550Y-72180001D02*
X107105001Y-72180001D01*
X136665000Y-93345000D02*
X136665000Y-94475000D01*
X145301300Y-90689999D02*
X143905001Y-90689999D01*
X128905000Y-110490000D02*
X128270000Y-110490000D01*
X160149167Y-116018009D02*
X160149167Y-116075833D01*
X105020186Y-99987868D02*
X103797868Y-99987868D01*
X147955000Y-94615000D02*
X146050000Y-94615000D01*
X134760000Y-84455000D02*
X134760000Y-85230000D01*
X163528009Y-110823009D02*
X164465000Y-111760000D01*
X174625000Y-101106100D02*
X174625000Y-99695000D01*
X171450000Y-85930000D02*
X169975000Y-85930000D01*
X155540001Y-91584999D02*
X154790000Y-92335000D01*
X191610000Y-95210000D02*
X190492500Y-95210000D01*
X140722498Y-115817502D02*
X139700000Y-116840000D01*
X149884169Y-112418007D02*
X151153007Y-112418007D01*
X174550000Y-84530000D02*
X173990000Y-85090000D01*
X137439400Y-112115600D02*
X137160000Y-112395000D01*
X194310000Y-94210000D02*
X192610000Y-94210000D01*
X165735000Y-60960000D02*
X165100000Y-61595000D01*
X108536550Y-77765001D02*
X107315000Y-78986551D01*
X134760000Y-85230000D02*
X135255000Y-85725000D01*
X167200000Y-60960000D02*
X165735000Y-60960000D01*
X171577000Y-100330000D02*
X171577000Y-99680002D01*
X163941991Y-105298009D02*
X163195000Y-106045000D01*
X147955000Y-87630000D02*
X148590000Y-88265000D01*
X101740000Y-95745000D02*
X102235000Y-95250000D01*
X161925000Y-96025000D02*
X161925000Y-98425000D01*
X182678100Y-105122601D02*
X181120701Y-106680000D01*
X163195000Y-73455000D02*
X164260000Y-72390000D01*
X128270000Y-110490000D02*
X127914400Y-110134400D01*
X175895000Y-78105000D02*
X175260000Y-78740000D01*
X151153007Y-112418007D02*
X151765000Y-113030000D01*
X159945000Y-74855000D02*
X158115000Y-73025000D01*
X161290000Y-90940000D02*
X160525602Y-90940000D01*
X145301300Y-91690000D02*
X145301300Y-90689999D01*
X113030000Y-101600000D02*
X114132432Y-102702432D01*
X149504169Y-106293007D02*
X149504169Y-105054169D01*
X149504169Y-105054169D02*
X149225000Y-104775000D01*
X148150000Y-60960000D02*
X146050000Y-60960000D01*
X156040000Y-93986000D02*
X155040000Y-93986000D01*
X175700000Y-60960000D02*
X177165000Y-60960000D01*
X188393100Y-108827601D02*
X189472601Y-108827601D01*
X154790000Y-92736000D02*
X156040000Y-93986000D01*
X112517500Y-60007500D02*
X113982500Y-60007500D01*
X111966550Y-70780001D02*
X110829999Y-70780001D01*
X161290000Y-90439999D02*
X160964999Y-90439999D01*
X144405000Y-89789000D02*
X144405000Y-88640000D01*
X158115000Y-79730000D02*
X155295000Y-79730000D01*
X164260000Y-72390000D02*
X165100000Y-72390000D01*
X131089400Y-107315000D02*
X130810000Y-107315000D01*
X141905000Y-89789000D02*
X144904999Y-89789000D01*
X118745000Y-102831736D02*
X118745000Y-102870000D01*
X127186736Y-103647568D02*
X127186736Y-104326736D01*
X123190000Y-100470000D02*
X124600000Y-100470000D01*
X174639998Y-99680002D02*
X175895000Y-99680002D01*
X169482601Y-102807601D02*
X170180000Y-103505000D01*
X173550000Y-116205000D02*
X172085000Y-116205000D01*
X168708100Y-102807601D02*
X169482601Y-102807601D01*
X186210701Y-103505000D02*
X186690000Y-103505000D01*
X169975000Y-85930000D02*
X169545000Y-86360000D01*
X178868100Y-105122601D02*
X177310701Y-106680000D01*
X160964999Y-90439999D02*
X160907801Y-90382801D01*
X189472601Y-108827601D02*
X189865000Y-109220000D01*
X183515000Y-116205000D02*
X184150000Y-116840000D01*
X148590000Y-88265000D02*
X148590000Y-90805000D01*
X120967500Y-60642500D02*
X120332500Y-61277500D01*
X154790000Y-92335000D02*
X154790000Y-92736000D01*
X172085000Y-116205000D02*
X171450000Y-116840000D01*
X135524999Y-108315001D02*
X135890000Y-107950000D01*
X148590000Y-92710000D02*
X148590000Y-93980000D01*
X162689167Y-110823009D02*
X163528009Y-110823009D01*
X127206550Y-77410001D02*
X125789999Y-77410001D01*
X175148900Y-101630000D02*
X174625000Y-101106100D01*
X125782568Y-94032568D02*
X125095000Y-93345000D01*
X120201736Y-101375000D02*
X118745000Y-102831736D01*
X127914400Y-110134400D02*
X127914400Y-109595002D01*
X174625000Y-99695000D02*
X174639998Y-99680002D01*
X144405000Y-89789000D02*
X144405000Y-90190000D01*
X178868100Y-98137601D02*
X180052601Y-98137601D01*
X155295000Y-79730000D02*
X154940000Y-79375000D01*
X103797868Y-98717868D02*
X103505000Y-98425000D01*
X156936300Y-91584999D02*
X155540001Y-91584999D01*
X136665000Y-89535000D02*
X136665000Y-88405000D01*
X127186736Y-94032568D02*
X125782568Y-94032568D01*
X154039999Y-91584999D02*
X152643700Y-91584999D01*
X154790000Y-92335000D02*
X154039999Y-91584999D01*
X181120701Y-106680000D02*
X180975000Y-106680000D01*
X143905001Y-90689999D02*
X143155000Y-91440000D01*
X171577000Y-99187000D02*
X170815000Y-98425000D01*
X180052601Y-98137601D02*
X180975000Y-99060000D01*
X133985000Y-108315001D02*
X135524999Y-108315001D01*
X114132432Y-102702432D02*
X114300000Y-102702432D01*
X105020186Y-98717868D02*
X103797868Y-98717868D01*
X137439400Y-111220002D02*
X137439400Y-112115600D01*
X107105001Y-72180001D02*
X106045000Y-71120000D01*
X160641158Y-113030000D02*
X161290000Y-113030000D01*
X190492500Y-95210000D02*
X189897500Y-95805000D01*
X131018418Y-82758418D02*
X131445000Y-83185000D01*
X176530000Y-78105000D02*
X175895000Y-78105000D01*
X160020000Y-74855000D02*
X159945000Y-74855000D01*
X110265286Y-99987868D02*
X112687868Y-99987868D01*
X175260000Y-78740000D02*
X174880000Y-78740000D01*
X139065000Y-103505000D02*
X141605000Y-103505000D01*
X177165000Y-60960000D02*
X177800000Y-61595000D01*
X192610000Y-101210000D02*
X191610000Y-100210000D01*
X103797868Y-99987868D02*
X103505000Y-99695000D01*
X175895000Y-99680002D02*
X175895000Y-99060000D01*
X113982500Y-60007500D02*
X114617500Y-60642500D01*
X133985000Y-108315001D02*
X132537200Y-108315001D01*
X144405000Y-90190000D02*
X143155000Y-91440000D01*
X175895000Y-99060000D02*
X176530000Y-98425000D01*
X131537199Y-107315000D02*
X132537200Y-108315001D01*
X131018418Y-81605083D02*
X131018418Y-82758418D01*
X144405000Y-88640000D02*
X144780000Y-88265000D01*
X164594167Y-105298009D02*
X163941991Y-105298009D01*
X124600000Y-100470000D02*
X125095000Y-100965000D01*
X192437500Y-102790000D02*
X191610000Y-101962500D01*
X175260001Y-84530000D02*
X174550000Y-84530000D01*
X127186736Y-104326736D02*
X127635000Y-104775000D01*
X155954769Y-108013006D02*
X156017775Y-107950000D01*
%TO.N,+3.3V*%
X124345000Y-100075000D02*
X123190000Y-98920000D01*
X141008700Y-92190001D02*
X140854999Y-92190001D01*
X141008700Y-92190001D02*
X141008700Y-91690000D01*
X139700000Y-93345000D02*
X138215000Y-93345000D01*
X120201736Y-98425000D02*
X122695000Y-98425000D01*
X114193868Y-97447868D02*
X114486736Y-97155000D01*
X122695000Y-98425000D02*
X123190000Y-98920000D01*
X152643700Y-93085001D02*
X152643700Y-92585000D01*
X115570000Y-97155000D02*
X117216736Y-98801736D01*
X117216736Y-99772568D02*
X118854168Y-99772568D01*
X117216736Y-98801736D02*
X117216736Y-99772568D01*
X140854999Y-92190001D02*
X139700000Y-93345000D01*
X150265000Y-92585000D02*
X150140000Y-92710000D01*
X110265286Y-97447868D02*
X114193868Y-97447868D01*
X118854168Y-99772568D02*
X120201736Y-98425000D01*
X114486736Y-97155000D02*
X115570000Y-97155000D01*
X127000000Y-100075000D02*
X124345000Y-100075000D01*
X152643700Y-92585000D02*
X150265000Y-92585000D01*
%TO.N,Net-(U2-BYP)*%
X110782868Y-101257868D02*
X113665000Y-104140000D01*
X115570000Y-104140000D02*
X117216736Y-102493264D01*
X117216736Y-102493264D02*
X117216736Y-101322568D01*
X113665000Y-104140000D02*
X115570000Y-104140000D01*
X110265286Y-101257868D02*
X110782868Y-101257868D01*
%TO.N,Net-(U2-\u002ASHDN)*%
X100965000Y-97295000D02*
X100470000Y-97295000D01*
X105020186Y-97447868D02*
X102235000Y-97447868D01*
X102235000Y-97447868D02*
X101117868Y-97447868D01*
X100330000Y-97155000D02*
X98665000Y-97155000D01*
X101117868Y-97447868D02*
X100965000Y-97295000D01*
X102235000Y-100965000D02*
X102235000Y-97447868D01*
X105020186Y-101257868D02*
X102527868Y-101257868D01*
X102527868Y-101257868D02*
X102235000Y-100965000D01*
X100470000Y-97295000D02*
X100330000Y-97155000D01*
%TO.N,Net-(U3-SET)*%
X160789167Y-103648009D02*
X160784167Y-103653009D01*
X155954769Y-107563007D02*
X156523472Y-107563007D01*
X160433470Y-103653009D02*
X160784167Y-103653009D01*
X156523472Y-107563007D02*
X160433470Y-103653009D01*
X164594167Y-103648009D02*
X160789167Y-103648009D01*
%TO.N,+1.8V*%
X152643700Y-92085000D02*
X151420000Y-92085000D01*
X141008700Y-91190000D02*
X141008700Y-90689999D01*
X141008700Y-90689999D02*
X139369999Y-90689999D01*
X139369999Y-90689999D02*
X138215000Y-89535000D01*
X151420000Y-92085000D02*
X150140000Y-90805000D01*
%TO.N,-5.4V*%
X158879167Y-109368009D02*
X162494167Y-109368009D01*
X155959167Y-115078009D02*
X156594167Y-114443009D01*
X155954769Y-108463008D02*
X157974166Y-108463008D01*
X162494167Y-109368009D02*
X162689167Y-109173009D01*
X155954769Y-113276435D02*
X155954769Y-109363006D01*
X156594167Y-114443009D02*
X156594167Y-113915833D01*
X155954769Y-109363006D02*
X155954769Y-108463008D01*
X157974166Y-108463008D02*
X158879167Y-109368009D01*
X153799167Y-115078009D02*
X155959167Y-115078009D01*
X156594167Y-113915833D02*
X155954769Y-113276435D01*
%TO.N,Net-(U6-EN{slash}UV)*%
X127634400Y-108325002D02*
X127914400Y-108045002D01*
X133985000Y-107315000D02*
X133985000Y-106988000D01*
X130175000Y-105410000D02*
X129540000Y-106045000D01*
X127914400Y-108045002D02*
X128184399Y-108315001D01*
X131089400Y-109315002D02*
X131089400Y-108315001D01*
X129540000Y-106045000D02*
X129540000Y-108315001D01*
X132407000Y-105410000D02*
X130175000Y-105410000D01*
X128184399Y-108315001D02*
X129540000Y-108315001D01*
X133985000Y-106988000D02*
X132407000Y-105410000D01*
X124979400Y-108325002D02*
X127634400Y-108325002D01*
X129540000Y-108315001D02*
X131089400Y-108315001D01*
D47*
%TO.N,REF_5V*%
X133968418Y-79391582D02*
X133985000Y-79375000D01*
D46*
%TO.N,Net-(U6-SET)*%
X133985000Y-107815002D02*
X134754998Y-107815002D01*
X137420000Y-103250000D02*
X137165000Y-103505000D01*
X134754998Y-107815002D02*
X137165000Y-105405000D01*
X137165000Y-105405000D02*
X137165000Y-103505000D01*
X137420000Y-100965000D02*
X137420000Y-103250000D01*
%TO.N,+5V*%
X137439400Y-109320002D02*
X141244400Y-109320002D01*
X137439400Y-109320002D02*
X133990000Y-109320002D01*
X141249400Y-109315002D02*
X141249400Y-106140002D01*
X133985000Y-109315002D02*
X133985000Y-108815000D01*
X141244400Y-109320002D02*
X141249400Y-109315002D01*
X133990000Y-109320002D02*
X133985000Y-109315002D01*
%TO.N,Net-(U11B-+IN2)*%
X99060000Y-70485000D02*
X99060000Y-73025000D01*
X110490000Y-81280000D02*
X113325001Y-78444999D01*
X113325001Y-78444999D02*
X115938300Y-78444999D01*
X99060000Y-73025000D02*
X107315000Y-81280000D01*
X100965000Y-68580000D02*
X99060000Y-70485000D01*
X107315000Y-81280000D02*
X110490000Y-81280000D01*
%TO.N,Net-(U11A-+VS)*%
X111966550Y-73730001D02*
X113173300Y-73730001D01*
X113173300Y-73730001D02*
X115938300Y-76495001D01*
X105616550Y-73730001D02*
X108156550Y-73730001D01*
X111966550Y-73730001D02*
X108156550Y-73730001D01*
%TO.N,Net-(U11A-+IN1)*%
X124650550Y-76009450D02*
X124650550Y-75374450D01*
X120281700Y-77795001D02*
X122864999Y-77795001D01*
X124650550Y-75374450D02*
X130810000Y-69215000D01*
X122864999Y-77795001D02*
X124650550Y-76009450D01*
%TO.N,Net-(U11A--VS)*%
X120281700Y-79450151D02*
X120281700Y-78444999D01*
X127361550Y-80660001D02*
X121491550Y-80660001D01*
X121491550Y-80660001D02*
X120281700Y-79450151D01*
%TO.N,/ADC Driver Stage - Final Buffer CH A/Filtered_IN+*%
X127930001Y-75860001D02*
X127206550Y-75860001D01*
X130175000Y-78105000D02*
X127930001Y-75860001D01*
X125301550Y-75860001D02*
X127206550Y-75860001D01*
%TO.N,Net-(U12B-+IN2)*%
X155575000Y-83820000D02*
X145415000Y-73660000D01*
X167711798Y-78400001D02*
X162291799Y-83820000D01*
X162291799Y-83820000D02*
X155575000Y-83820000D01*
X168541700Y-78400001D02*
X167711798Y-78400001D01*
X145415000Y-73660000D02*
X145415000Y-69850000D01*
%TO.N,Net-(U12A-+VS)*%
X177800001Y-82980000D02*
X171450000Y-82980000D01*
X171450000Y-82980000D02*
X168819999Y-80349999D01*
X168819999Y-80349999D02*
X168541700Y-80349999D01*
%TO.N,Net-(U12A-+IN1)*%
X176881801Y-68580000D02*
X166411802Y-79049999D01*
X166411802Y-79049999D02*
X164198300Y-79049999D01*
X178435000Y-68580000D02*
X176881801Y-68580000D01*
%TO.N,Net-(U12A--VS)*%
X164198300Y-78400001D02*
X164198300Y-77408300D01*
X164198300Y-77408300D02*
X163195000Y-76405000D01*
X163195000Y-76405000D02*
X157325000Y-76405000D01*
%TO.N,/ADC Driver Stage - Final Buffer CH B/Filtered_IN+*%
X160020000Y-81280000D02*
X158115000Y-81280000D01*
X158115000Y-81280000D02*
X154305000Y-81280000D01*
%TO.N,/ADC Driver Stage - Final Buffer CH B/Filtered_IN-*%
X173330000Y-78740000D02*
X174880000Y-77190000D01*
X172720000Y-78740000D02*
X173330000Y-78740000D01*
%TO.N,Net-(D6-A)*%
X127000000Y-98425000D02*
X127000000Y-95794304D01*
X127000000Y-95794304D02*
X127186736Y-95607568D01*
%TO.N,Net-(D8-K)*%
X160149167Y-114443009D02*
X158244167Y-114443009D01*
%TO.N,Net-(D11-A)*%
X141249400Y-110965002D02*
X141249400Y-114242502D01*
%TO.N,Net-(U2-SENSE{slash}ADJ)*%
X114300000Y-101052432D02*
X114300000Y-98991736D01*
X114486736Y-98805000D02*
X110352418Y-98805000D01*
X110352418Y-98805000D02*
X110265286Y-98717868D01*
%TO.N,/MCU-FPGA/BOOT*%
X118745000Y-90805000D02*
X134620000Y-90805000D01*
X134620000Y-90805000D02*
X135890000Y-92075000D01*
D47*
%TO.N,{slash}RESET*%
X138146000Y-73849000D02*
X139893260Y-73849000D01*
X135255000Y-76740000D02*
X138146000Y-73849000D01*
X156845000Y-88904260D02*
X156845000Y-90378999D01*
X139893260Y-73849000D02*
X140785260Y-74741000D01*
X142681740Y-74741000D02*
X156845000Y-88904260D01*
X140785260Y-74741000D02*
X142681740Y-74741000D01*
X156845000Y-90378999D02*
X156539999Y-90684000D01*
%TO.N,REF*%
X138109230Y-86045770D02*
X137178868Y-86045770D01*
X139700000Y-84455000D02*
X138109230Y-86045770D01*
X136839230Y-86045770D02*
X136572743Y-86312257D01*
X137178868Y-86045770D02*
X136839230Y-86045770D01*
X136572743Y-86312257D02*
X127887004Y-86312257D01*
D46*
%TO.N,Net-(U11A--IN1)*%
X123651550Y-75860001D02*
X120916700Y-75860001D01*
X120281700Y-76495001D02*
X120281700Y-77144999D01*
X120916700Y-75860001D02*
X120281700Y-76495001D01*
%TO.N,Net-(U11B--IN2)*%
X115938300Y-77795001D02*
X115938300Y-77144999D01*
X112346550Y-77765001D02*
X115908300Y-77765001D01*
X115908300Y-77765001D02*
X115938300Y-77795001D01*
%TO.N,Net-(U12A--IN1)*%
X164198300Y-80349999D02*
X162600001Y-80349999D01*
X162600001Y-80349999D02*
X161670000Y-81280000D01*
X164198300Y-80349999D02*
X164198300Y-79700001D01*
%TO.N,Net-(U12B--IN2)*%
X168541700Y-79049999D02*
X170760001Y-79049999D01*
X170760001Y-79049999D02*
X171070000Y-78740000D01*
X168541700Y-79700001D02*
X168541700Y-79049999D01*
D47*
%TO.N,SCK*%
X148870000Y-81560000D02*
X148870000Y-81940000D01*
X144145000Y-76835000D02*
X148870000Y-81560000D01*
%TO.N,MOSI*%
X144145000Y-77540000D02*
X144145000Y-78366260D01*
X143331991Y-84999042D02*
X143331991Y-83671186D01*
X144334000Y-81217177D02*
X145060000Y-81943177D01*
X143331991Y-83671186D02*
X145060000Y-81943177D01*
X144334000Y-78555260D02*
X144334000Y-81217177D01*
X144145000Y-78366260D02*
X144334000Y-78555260D01*
%TO.N,{slash}CS*%
X144780000Y-78740000D02*
X146965000Y-80925000D01*
X146965000Y-80925000D02*
X146965000Y-81943177D01*
%TO.N,BUSY*%
X159385000Y-90805000D02*
X157797500Y-89217500D01*
X160525602Y-91440000D02*
X160020000Y-91440000D01*
X160020000Y-91440000D02*
X159385000Y-90805000D01*
X142875000Y-74295000D02*
X140970000Y-74295000D01*
%TO.N,CNV*%
X134620000Y-76200000D02*
X137160000Y-73660000D01*
X143510000Y-73660000D02*
X157480000Y-87630000D01*
X157987606Y-87757394D02*
X157480000Y-88265000D01*
X137160000Y-73660000D02*
X143510000Y-73660000D01*
X156210000Y-89535000D02*
X156040000Y-89705000D01*
X157480000Y-87630000D02*
X157480000Y-88265000D01*
X134612151Y-76836174D02*
X134620000Y-76828325D01*
X134620000Y-76828325D02*
X134620000Y-76200000D01*
X156040000Y-89705000D02*
X156040000Y-90684000D01*
X165262348Y-87757394D02*
X157987606Y-87757394D01*
%TO.N,MISO0*%
X141405001Y-76000001D02*
X141405001Y-89789000D01*
X139700000Y-74295000D02*
X141405001Y-76000001D01*
D46*
%TO.N,Net-(U15-A0)*%
X152150823Y-90684000D02*
X153040001Y-90684000D01*
X145060000Y-83593177D02*
X152150823Y-90684000D01*
%TO.N,Net-(U15-A1)*%
X146965000Y-83593177D02*
X153540000Y-90168177D01*
X153540000Y-90168177D02*
X153540000Y-90684000D01*
%TO.N,Net-(U15-A2)*%
X154039999Y-88759999D02*
X154039999Y-90684000D01*
X148870000Y-83590000D02*
X154039999Y-88759999D01*
%TO.N,+1.8V*%
X149414000Y-91531000D02*
X150140000Y-90805000D01*
X151646612Y-95885000D02*
X149414000Y-93652388D01*
X149414000Y-93652388D02*
X149414000Y-91531000D01*
%TO.N,SCK_MCU*%
X135255000Y-102011648D02*
X138841648Y-98425000D01*
X138841648Y-98425000D02*
X140970000Y-98425000D01*
X135255000Y-103505000D02*
X135255000Y-102870000D01*
X135255000Y-102870000D02*
X135255000Y-102011648D01*
%TO.N,GND*%
X157335001Y-91584999D02*
X158115000Y-90805000D01*
X156936300Y-91584999D02*
X157335001Y-91584999D01*
%TD*%
M02*
