M48
; DRILL file {KiCad 9.0.3} date 2025-08-10T07:11:52-0400
; FORMAT={-:-/ absolute / metric / decimal}
; #@! TF.CreationDate,2025-08-10T07:11:52-04:00
; #@! TF.GenerationSoftware,Kicad,Pcbnew,9.0.3
; #@! TF.FileFunction,MixedPlating,1,4
FMAT,2
METRIC
; #@! TA.AperFunction,Plated,PTH,ViaDrill
T1C0.300
; #@! TA.AperFunction,Plated,PTH,ComponentDrill
T2C0.600
; #@! TA.AperFunction,Plated,PTH,ComponentDrill
T3C0.850
; #@! TA.AperFunction,Plated,PTH,ComponentDrill
T4C1.200
%
G90
G05
T1
X86.995Y-95.25
X87.63Y-98.425
X88.265Y-116.205
X88.71Y-65.405
X93.345Y-115.57
X96.52Y-95.25
X97.155Y-105.41
X97.79Y-95.25
X98.425Y-105.41
X99.06Y-91.44
X100.33Y-86.36
X100.965Y-68.58
X100.965Y-115.57
X101.6Y-60.96
X101.6Y-87.63
X101.6Y-110.49
X102.235Y-71.755
X102.235Y-95.25
X102.683Y-116.205
X102.87Y-75.565
X103.505Y-98.425
X103.505Y-99.695
X104.775Y-85.725
X106.045Y-71.12
X106.045Y-81.28
X106.045Y-113.665
X106.68Y-83.82
X107.315Y-80.01
X108.585Y-95.885
X109.855Y-80.01
X109.855Y-92.075
X109.855Y-104.775
X110.49Y-67.31
X110.49Y-71.12
X110.49Y-112.395
X110.533Y-69.561
X111.125Y-79.375
X111.125Y-108.585
X112.395Y-81.915
X113.03Y-74.93
X113.03Y-100.33
X113.03Y-101.6
X113.665Y-85.725
X113.665Y-105.41
X113.905Y-83.185
X114.617Y-60.642
X114.935Y-74.295
X116.84Y-64.77
X116.84Y-87.63
X117.475Y-82.55
X117.475Y-86.36
X117.663Y-116.205
X118.11Y-65.405
X118.11Y-104.775
X118.745Y-90.805
X118.745Y-102.87
X119.38Y-105.41
X120.015Y-75.565
X120.015Y-107.315
X120.332Y-61.277
X120.65Y-74.295
X120.65Y-109.22
X120.9Y-101.369
X121.285Y-85.725
X122.555Y-97.79
X123.19Y-82.55
X123.19Y-85.725
X124.075Y-101.369
X124.46Y-67.31
X125.095Y-93.345
X125.095Y-100.965
X125.095Y-111.125
X125.73Y-66.675
X125.73Y-77.47
X125.73Y-83.185
X125.73Y-95.25
X126.365Y-83.185
X127.0Y-105.41
X127.635Y-104.775
X128.27Y-96.994
X128.27Y-103.505
X128.905Y-74.295
X128.905Y-75.565
X128.905Y-92.71
X128.905Y-110.49
X129.54Y-99.695
X130.175Y-78.105
X130.175Y-79.375
X130.175Y-92.71
X130.175Y-106.68
X130.81Y-69.215
X130.81Y-95.885
X131.445Y-83.185
X131.445Y-90.17
X131.445Y-104.775
X132.046Y-77.816
X132.08Y-71.755
X133.032Y-61.277
X133.35Y-72.39
X133.985Y-79.375
X133.985Y-86.995
X133.985Y-88.557
X133.985Y-100.965
X134.612Y-76.836
X134.62Y-104.14
X135.255Y-71.755
X135.255Y-76.74
X135.255Y-78.74
X135.255Y-80.01
X135.255Y-85.725
X135.255Y-86.995
X135.255Y-103.505
X135.255Y-110.49
X135.89Y-92.075
X135.89Y-107.95
X136.525Y-65.405
X136.525Y-88.265
X136.525Y-94.615
X137.16Y-107.315
X137.16Y-112.395
X137.795Y-66.04
X138.43Y-83.185
X138.43Y-95.25
X139.065Y-88.265
X139.7Y-72.39
X139.7Y-74.295
X139.7Y-84.455
X139.7Y-116.84
X140.335Y-93.98
X140.97Y-74.295
X140.97Y-95.25
X141.605Y-73.025
X141.605Y-100.965
X141.605Y-103.505
X142.875Y-99.695
X143.51Y-67.31
X144.145Y-70.485
X144.145Y-73.66
X144.145Y-76.835
X144.145Y-77.54
X144.145Y-97.79
X144.145Y-109.855
X144.78Y-78.74
X144.78Y-88.265
X144.78Y-103.505
X144.78Y-112.395
X145.415Y-69.85
X145.732Y-61.277
X146.05Y-75.565
X146.05Y-93.345
X146.05Y-94.615
X146.05Y-99.06
X146.05Y-100.33
X147.32Y-71.755
X147.32Y-88.9
X147.955Y-80.645
X147.955Y-87.63
X147.955Y-106.045
X148.59Y-75.565
X148.59Y-78.105
X149.225Y-88.9
X149.225Y-104.775
X149.86Y-99.695
X149.86Y-107.95
X151.13Y-78.105
X151.13Y-83.82
X151.13Y-93.345
X151.647Y-95.885
X151.765Y-81.28
X151.765Y-103.505
X151.765Y-113.03
X153.035Y-88.9
X153.035Y-100.965
X153.04Y-98.42
X154.305Y-78.105
X154.305Y-81.28
X154.94Y-67.945
X154.94Y-69.85
X154.94Y-79.375
X154.94Y-110.49
X154.94Y-112.395
X155.575Y-104.14
X156.21Y-89.535
X156.21Y-101.6
X156.845Y-103.505
X157.48Y-88.265
X157.48Y-107.95
X157.625Y-101.601
X158.115Y-73.025
X158.115Y-85.09
X158.115Y-90.805
X158.115Y-92.075
X158.49Y-82.55
X158.75Y-61.595
X158.75Y-74.93
X158.75Y-92.71
X158.75Y-93.98
X158.75Y-101.6
X158.75Y-106.045
X158.75Y-117.475
X159.385Y-106.68
X159.52Y-73.66
X160.02Y-85.725
X160.02Y-98.425
X160.655Y-65.405
X161.29Y-113.03
X161.925Y-65.405
X161.925Y-88.9
X161.925Y-98.425
X161.925Y-118.11
X162.56Y-78.105
X162.56Y-89.535
X162.56Y-90.805
X162.56Y-92.075
X162.56Y-106.68
X163.115Y-104.148
X163.195Y-100.33
X163.195Y-106.045
X164.465Y-92.075
X164.465Y-111.76
X164.6Y-74.93
X165.1Y-61.595
X165.1Y-72.39
X165.1Y-91.44
X165.235Y-73.66
X165.735Y-85.09
X165.735Y-102.87
X165.87Y-82.55
X167.64Y-88.9
X167.64Y-99.06
X167.64Y-106.045
X168.91Y-67.31
X168.91Y-69.215
X168.91Y-99.695
X169.545Y-86.36
X170.18Y-103.505
X170.815Y-98.425
X171.45Y-112.395
X171.45Y-116.84
X172.72Y-76.2
X173.99Y-85.09
X176.53Y-71.755
X176.53Y-78.105
X176.53Y-98.425
X177.311Y-106.68
X177.8Y-61.595
X178.435Y-68.58
X178.435Y-85.09
X180.34Y-65.405
X180.975Y-99.06
X180.975Y-106.68
X181.61Y-65.405
X184.15Y-116.84
X185.42Y-100.965
X186.055Y-111.355
X186.69Y-95.203
X186.69Y-103.505
X188.595Y-84.455
X189.865Y-109.22
X189.897Y-95.805
X190.5Y-65.405
X190.5Y-108.585
X191.135Y-116.205
X192.438Y-102.79
X194.31Y-102.87
T3
X191.61Y-95.21
X191.61Y-100.21
T4
X91.832Y-81.645
X91.832Y-85.145
X91.832Y-88.645
T2
G00X193.96Y-94.21
M15
G01X194.66Y-94.21
M16
G05
G00X194.66Y-101.21
M15
G01X193.96Y-101.21
M16
G05
M30
