%TF.GenerationSoftware,KiCad,Pcbnew,9.0.3*%
%TF.CreationDate,2025-08-10T07:11:56-04:00*%
%TF.ProjectId,NanoPulse,4e616e6f-5075-46c7-9365-2e6b69636164,Rev 1*%
%TF.SameCoordinates,Original*%
%TF.FileFunction,Copper,L1,Top*%
%TF.FilePolarity,Positive*%
%FSLAX46Y46*%
G04 Gerber Fmt 4.6, Leading zero omitted, Abs format (unit mm)*
G04 Created by KiCad (PCBNEW 9.0.3) date 2025-08-10 07:11:56*
%MOMM*%
%LPD*%
G01*
G04 APERTURE LIST*
G04 Aperture macros list*
%AMRoundRect*
0 Rectangle with rounded corners*
0 $1 Rounding radius*
0 $2 $3 $4 $5 $6 $7 $8 $9 X,Y pos of 4 corners*
0 Add a 4 corners polygon primitive as box body*
4,1,4,$2,$3,$4,$5,$6,$7,$8,$9,$2,$3,0*
0 Add four circle primitives for the rounded corners*
1,1,$1+$1,$2,$3*
1,1,$1+$1,$4,$5*
1,1,$1+$1,$6,$7*
1,1,$1+$1,$8,$9*
0 Add four rect primitives between the rounded corners*
20,1,$1+$1,$2,$3,$4,$5,0*
20,1,$1+$1,$4,$5,$6,$7,0*
20,1,$1+$1,$6,$7,$8,$9,0*
20,1,$1+$1,$8,$9,$2,$3,0*%
G04 Aperture macros list end*
%TA.AperFunction,SMDPad,CuDef*%
%ADD10RoundRect,0.237500X0.287500X0.237500X-0.287500X0.237500X-0.287500X-0.237500X0.287500X-0.237500X0*%
%TD*%
%TA.AperFunction,SMDPad,CuDef*%
%ADD11R,1.000000X1.000000*%
%TD*%
%TA.AperFunction,SMDPad,CuDef*%
%ADD12RoundRect,0.237500X-0.287500X-0.237500X0.287500X-0.237500X0.287500X0.237500X-0.287500X0.237500X0*%
%TD*%
%TA.AperFunction,SMDPad,CuDef*%
%ADD13C,4.000000*%
%TD*%
%TA.AperFunction,SMDPad,CuDef*%
%ADD14R,1.500000X5.080000*%
%TD*%
%TA.AperFunction,SMDPad,CuDef*%
%ADD15R,1.800000X1.200000*%
%TD*%
%TA.AperFunction,SMDPad,CuDef*%
%ADD16R,1.550000X0.600000*%
%TD*%
%TA.AperFunction,SMDPad,CuDef*%
%ADD17RoundRect,0.250000X0.450000X-0.262500X0.450000X0.262500X-0.450000X0.262500X-0.450000X-0.262500X0*%
%TD*%
%TA.AperFunction,SMDPad,CuDef*%
%ADD18RoundRect,0.200000X0.275000X-0.200000X0.275000X0.200000X-0.275000X0.200000X-0.275000X-0.200000X0*%
%TD*%
%TA.AperFunction,SMDPad,CuDef*%
%ADD19RoundRect,0.200000X-0.200000X-0.275000X0.200000X-0.275000X0.200000X0.275000X-0.200000X0.275000X0*%
%TD*%
%TA.AperFunction,SMDPad,CuDef*%
%ADD20RoundRect,0.200000X0.200000X0.275000X-0.200000X0.275000X-0.200000X-0.275000X0.200000X-0.275000X0*%
%TD*%
%TA.AperFunction,SMDPad,CuDef*%
%ADD21RoundRect,0.200000X-0.275000X0.200000X-0.275000X-0.200000X0.275000X-0.200000X0.275000X0.200000X0*%
%TD*%
%TA.AperFunction,SMDPad,CuDef*%
%ADD22RoundRect,0.100000X0.225000X0.100000X-0.225000X0.100000X-0.225000X-0.100000X0.225000X-0.100000X0*%
%TD*%
%TA.AperFunction,SMDPad,CuDef*%
%ADD23RoundRect,0.062500X-0.062500X0.117500X-0.062500X-0.117500X0.062500X-0.117500X0.062500X0.117500X0*%
%TD*%
%TA.AperFunction,SMDPad,CuDef*%
%ADD24RoundRect,0.218750X0.218750X0.256250X-0.218750X0.256250X-0.218750X-0.256250X0.218750X-0.256250X0*%
%TD*%
%TA.AperFunction,SMDPad,CuDef*%
%ADD25RoundRect,0.225000X-0.250000X0.225000X-0.250000X-0.225000X0.250000X-0.225000X0.250000X0.225000X0*%
%TD*%
%TA.AperFunction,SMDPad,CuDef*%
%ADD26RoundRect,0.225000X-0.225000X-0.250000X0.225000X-0.250000X0.225000X0.250000X-0.225000X0.250000X0*%
%TD*%
%TA.AperFunction,SMDPad,CuDef*%
%ADD27R,0.533400X1.460500*%
%TD*%
%TA.AperFunction,SMDPad,CuDef*%
%ADD28RoundRect,0.250000X-0.475000X0.250000X-0.475000X-0.250000X0.475000X-0.250000X0.475000X0.250000X0*%
%TD*%
%TA.AperFunction,SMDPad,CuDef*%
%ADD29RoundRect,0.225000X0.225000X0.250000X-0.225000X0.250000X-0.225000X-0.250000X0.225000X-0.250000X0*%
%TD*%
%TA.AperFunction,SMDPad,CuDef*%
%ADD30RoundRect,0.250000X-0.325000X-0.650000X0.325000X-0.650000X0.325000X0.650000X-0.325000X0.650000X0*%
%TD*%
%TA.AperFunction,SMDPad,CuDef*%
%ADD31RoundRect,0.100000X-0.225000X-0.100000X0.225000X-0.100000X0.225000X0.100000X-0.225000X0.100000X0*%
%TD*%
%TA.AperFunction,SMDPad,CuDef*%
%ADD32R,0.600000X0.500000*%
%TD*%
%TA.AperFunction,SMDPad,CuDef*%
%ADD33RoundRect,0.225000X0.250000X-0.225000X0.250000X0.225000X-0.250000X0.225000X-0.250000X-0.225000X0*%
%TD*%
%TA.AperFunction,SMDPad,CuDef*%
%ADD34R,0.254000X0.711200*%
%TD*%
%TA.AperFunction,SMDPad,CuDef*%
%ADD35R,0.711200X0.254000*%
%TD*%
%TA.AperFunction,SMDPad,CuDef*%
%ADD36R,1.752600X1.752600*%
%TD*%
%TA.AperFunction,SMDPad,CuDef*%
%ADD37RoundRect,0.250000X0.475000X-0.250000X0.475000X0.250000X-0.475000X0.250000X-0.475000X-0.250000X0*%
%TD*%
%TA.AperFunction,SMDPad,CuDef*%
%ADD38RoundRect,0.250000X-0.250000X-0.475000X0.250000X-0.475000X0.250000X0.475000X-0.250000X0.475000X0*%
%TD*%
%TA.AperFunction,SMDPad,CuDef*%
%ADD39R,0.711200X0.279400*%
%TD*%
%TA.AperFunction,ComponentPad*%
%ADD40RoundRect,0.250000X-1.550000X0.650000X-1.550000X-0.650000X1.550000X-0.650000X1.550000X0.650000X0*%
%TD*%
%TA.AperFunction,ComponentPad*%
%ADD41O,3.600000X1.800000*%
%TD*%
%TA.AperFunction,SMDPad,CuDef*%
%ADD42RoundRect,0.150000X-0.587500X-0.150000X0.587500X-0.150000X0.587500X0.150000X-0.587500X0.150000X0*%
%TD*%
%TA.AperFunction,SMDPad,CuDef*%
%ADD43R,1.000000X1.250000*%
%TD*%
%TA.AperFunction,SMDPad,CuDef*%
%ADD44R,0.482600X1.257300*%
%TD*%
%TA.AperFunction,SMDPad,CuDef*%
%ADD45RoundRect,0.150000X-0.150000X0.512500X-0.150000X-0.512500X0.150000X-0.512500X0.150000X0.512500X0*%
%TD*%
%TA.AperFunction,SMDPad,CuDef*%
%ADD46R,1.350000X0.400000*%
%TD*%
%TA.AperFunction,HeatsinkPad*%
%ADD47O,1.900000X1.200000*%
%TD*%
%TA.AperFunction,SMDPad,CuDef*%
%ADD48R,1.900000X1.200000*%
%TD*%
%TA.AperFunction,HeatsinkPad*%
%ADD49C,1.450000*%
%TD*%
%TA.AperFunction,SMDPad,CuDef*%
%ADD50R,1.900000X1.500000*%
%TD*%
%TA.AperFunction,SMDPad,CuDef*%
%ADD51RoundRect,0.075000X-0.725000X-0.075000X0.725000X-0.075000X0.725000X0.075000X-0.725000X0.075000X0*%
%TD*%
%TA.AperFunction,SMDPad,CuDef*%
%ADD52RoundRect,0.075000X-0.075000X-0.725000X0.075000X-0.725000X0.075000X0.725000X-0.075000X0.725000X0*%
%TD*%
%TA.AperFunction,SMDPad,CuDef*%
%ADD53RoundRect,0.250000X0.945000X-0.420000X0.945000X0.420000X-0.945000X0.420000X-0.945000X-0.420000X0*%
%TD*%
%TA.AperFunction,SMDPad,CuDef*%
%ADD54RoundRect,0.250000X-0.945000X0.420000X-0.945000X-0.420000X0.945000X-0.420000X0.945000X0.420000X0*%
%TD*%
%TA.AperFunction,SMDPad,CuDef*%
%ADD55RoundRect,0.237500X-0.237500X0.287500X-0.237500X-0.287500X0.237500X-0.287500X0.237500X0.287500X0*%
%TD*%
%TA.AperFunction,SMDPad,CuDef*%
%ADD56C,0.406400*%
%TD*%
%TA.AperFunction,SMDPad,CuDef*%
%ADD57RoundRect,0.250000X-1.075000X0.400000X-1.075000X-0.400000X1.075000X-0.400000X1.075000X0.400000X0*%
%TD*%
%TA.AperFunction,SMDPad,CuDef*%
%ADD58RoundRect,0.250000X-0.450000X0.262500X-0.450000X-0.262500X0.450000X-0.262500X0.450000X0.262500X0*%
%TD*%
%TA.AperFunction,ViaPad*%
%ADD59C,0.500000*%
%TD*%
%TA.AperFunction,Conductor*%
%ADD60C,0.200000*%
%TD*%
%TA.AperFunction,Conductor*%
%ADD61C,0.090000*%
%TD*%
G04 APERTURE END LIST*
D10*
%TO.P,FB15,2*%
%TO.N,-5.4V*%
X160309999Y-83184999D03*
%TO.P,FB15,1*%
%TO.N,Net-(U14B--VCLAMP)*%
X162059999Y-83184999D03*
%TD*%
D11*
%TO.P,TP20,1,1*%
%TO.N,/Trigger Circuit/CNV_EXT_RAW*%
X173990000Y-108585000D03*
%TD*%
D12*
%TO.P,FB1,2*%
%TO.N,+6V*%
X97395000Y-88900000D03*
%TO.P,FB1,1*%
%TO.N,Net-(U1-\u002ASHDN)*%
X95645000Y-88900000D03*
%TD*%
D13*
%TO.P,H1,1,1*%
%TO.N,Net-(H1-Pad1)*%
X193040000Y-61102817D03*
%TD*%
%TO.P,H2,1,1*%
%TO.N,Net-(H2-Pad1)*%
X86217183Y-61102817D03*
%TD*%
%TO.P,H3,1,1*%
%TO.N,Net-(H3-Pad1)*%
X86360000Y-112395000D03*
%TD*%
%TO.P,H4,1,1*%
%TO.N,Net-(H4-Pad1)*%
X193182817Y-112537817D03*
%TD*%
D14*
%TO.P,J5,2,Ext*%
%TO.N,GND*%
X173550000Y-116205000D03*
X182050000Y-116205000D03*
%TO.P,J5,1,In*%
%TO.N,/Trigger Circuit/CNV_EXT_RAW*%
X177800000Y-116205000D03*
%TD*%
D15*
%TO.P,J7,S2*%
%TO.N,N/C*%
X194375000Y-84330000D03*
%TO.P,J7,S1*%
X194375000Y-89930000D03*
D16*
%TO.P,J7,4,4*%
%TO.N,GND*%
X190500000Y-85630000D03*
%TO.P,J7,3,3*%
%TO.N,/MCU-FPGA/PA14*%
X190500000Y-86630000D03*
%TO.P,J7,2,2*%
%TO.N,/MCU-FPGA/PA13*%
X190500000Y-87630000D03*
%TO.P,J7,1,1*%
%TO.N,NRST*%
X190500000Y-88630000D03*
%TD*%
D17*
%TO.P,R37,2*%
%TO.N,/ADC Driver Stage - Final Buffer CH A/External_IN-*%
X102870000Y-65405000D03*
%TO.P,R37,1*%
%TO.N,Net-(U11B-+IN2)*%
X102870000Y-67230000D03*
%TD*%
D18*
%TO.P,R44,2*%
%TO.N,/ADC Driver Stage - Final Buffer CH A/External_IN+*%
X127000000Y-65215000D03*
%TO.P,R44,1*%
%TO.N,Net-(C60-Pad1)*%
X127000000Y-66865000D03*
%TD*%
D19*
%TO.P,R46,2*%
%TO.N,Net-(U13A-VOCM)*%
X107125000Y-76835000D03*
%TO.P,R46,1*%
%TO.N,REF_5V*%
X105475000Y-76835000D03*
%TD*%
%TO.P,R47,2*%
%TO.N,GND*%
X109410000Y-70485000D03*
%TO.P,R47,1*%
%TO.N,Net-(C59-Pad1)*%
X107760000Y-70485000D03*
%TD*%
%TO.P,R48,2*%
%TO.N,GND*%
X111315000Y-78105000D03*
%TO.P,R48,1*%
%TO.N,Net-(U13A-VOCM)*%
X109665000Y-78105000D03*
%TD*%
D20*
%TO.P,R49,2*%
%TO.N,GND*%
X125350000Y-70485000D03*
%TO.P,R49,1*%
%TO.N,Net-(C60-Pad1)*%
X127000000Y-70485000D03*
%TD*%
%TO.P,R50,2*%
%TO.N,Net-(C59-Pad1)*%
X107760000Y-72390000D03*
%TO.P,R50,1*%
%TO.N,Net-(U13A--IN1)*%
X109410000Y-72390000D03*
%TD*%
D19*
%TO.P,R51,2*%
%TO.N,Net-(C60-Pad1)*%
X127000000Y-72390000D03*
%TO.P,R51,1*%
%TO.N,Net-(U13A-+IN1)*%
X125350000Y-72390000D03*
%TD*%
D18*
%TO.P,R52,2*%
%TO.N,Net-(U13A--IN1)*%
X114935000Y-67950000D03*
%TO.P,R52,1*%
%TO.N,Net-(U13A-+FB)*%
X114935000Y-69600000D03*
%TD*%
D21*
%TO.P,R53,2*%
%TO.N,Net-(U13A--FB)*%
X120400000Y-69600000D03*
%TO.P,R53,1*%
%TO.N,Net-(U13A-+IN1)*%
X120400000Y-67950000D03*
%TD*%
D19*
%TO.P,R54,2*%
%TO.N,/ADC Driver Stage - Final Buffer CH A/Filtered_IN-*%
X122555000Y-76835000D03*
%TO.P,R54,1*%
%TO.N,Net-(U13A--OUT)*%
X120905000Y-76835000D03*
%TD*%
%TO.P,R55,2*%
%TO.N,/ADC Driver Stage - Final Buffer CH A/Filtered_IN+*%
X122555000Y-78740000D03*
%TO.P,R55,1*%
%TO.N,Net-(U13A-+OUT)*%
X120905000Y-78740000D03*
%TD*%
D18*
%TO.P,R56,2*%
%TO.N,/ADC Driver Stage - Final Buffer CH B/External_IN+*%
X171584999Y-64770000D03*
%TO.P,R56,1*%
%TO.N,Net-(C69-Pad1)*%
X171584999Y-66420000D03*
%TD*%
%TO.P,R57,2*%
%TO.N,/ADC Driver Stage - Final Buffer CH B/External_IN-*%
X152534999Y-64770000D03*
%TO.P,R57,1*%
%TO.N,Net-(C68-Pad1)*%
X152534999Y-66420000D03*
%TD*%
D19*
%TO.P,R58,2*%
%TO.N,Net-(U14A-VOCM)*%
X138430000Y-70485000D03*
%TO.P,R58,1*%
%TO.N,REF_5V*%
X136780000Y-70485000D03*
%TD*%
%TO.P,R59,2*%
%TO.N,GND*%
X153994999Y-69850000D03*
%TO.P,R59,1*%
%TO.N,Net-(C68-Pad1)*%
X152344999Y-69850000D03*
%TD*%
%TO.P,R60,2*%
%TO.N,GND*%
X142619999Y-71755000D03*
%TO.P,R60,1*%
%TO.N,Net-(U14A-VOCM)*%
X140969999Y-71755000D03*
%TD*%
D20*
%TO.P,R61,2*%
%TO.N,GND*%
X169934999Y-69850000D03*
%TO.P,R61,1*%
%TO.N,Net-(C69-Pad1)*%
X171584999Y-69850000D03*
%TD*%
%TO.P,R62,2*%
%TO.N,Net-(C68-Pad1)*%
X152344999Y-71755000D03*
%TO.P,R62,1*%
%TO.N,Net-(U14A--IN1)*%
X153994999Y-71755000D03*
%TD*%
D19*
%TO.P,R63,2*%
%TO.N,Net-(C69-Pad1)*%
X171584999Y-71755000D03*
%TO.P,R63,1*%
%TO.N,Net-(U14A-+IN1)*%
X169934999Y-71755000D03*
%TD*%
D18*
%TO.P,R64,2*%
%TO.N,Net-(U14A--IN1)*%
X159519999Y-67315000D03*
%TO.P,R64,1*%
%TO.N,Net-(U14A-+FB)*%
X159519999Y-68965000D03*
%TD*%
D21*
%TO.P,R65,2*%
%TO.N,Net-(U14A--FB)*%
X164984999Y-68965000D03*
%TO.P,R65,1*%
%TO.N,Net-(U14A-+IN1)*%
X164984999Y-67315000D03*
%TD*%
D20*
%TO.P,R66,2*%
%TO.N,/ADC Driver Stage - Final Buffer CH B/Filtered_IN-*%
X159195000Y-78740000D03*
%TO.P,R66,1*%
%TO.N,Net-(U14A--OUT)*%
X160845000Y-78740000D03*
%TD*%
%TO.P,R67,2*%
%TO.N,/ADC Driver Stage - Final Buffer CH B/Filtered_IN+*%
X159195000Y-76835000D03*
%TO.P,R67,1*%
%TO.N,Net-(U14A-+OUT)*%
X160845000Y-76835000D03*
%TD*%
D19*
%TO.P,R72,2*%
%TO.N,/Trigger Circuit/CNV_EXT_RAW*%
X165735000Y-109145000D03*
%TO.P,R72,1*%
%TO.N,Net-(R72-Pad1)*%
X164085000Y-109145000D03*
%TD*%
D11*
%TO.P,TP17,1,1*%
%TO.N,Trig_Detect*%
X165735000Y-106680000D03*
%TD*%
%TO.P,TP18,1,1*%
%TO.N,Trig_Enable*%
X157754412Y-98943440D03*
%TD*%
%TO.P,TP19,1,1*%
%TO.N,Manual_Trigger*%
X154940000Y-106680000D03*
%TD*%
D22*
%TO.P,U18,6*%
%TO.N,Trig_Detect*%
X160020000Y-109780000D03*
%TO.P,U18,5,VCC*%
%TO.N,+3.3V*%
X160020000Y-109130000D03*
%TO.P,U18,4*%
%TO.N,unconnected-(U18-Pad4)*%
X160020000Y-108480000D03*
%TO.P,U18,3*%
%TO.N,GND*%
X161920000Y-108480000D03*
%TO.P,U18,2,GND*%
X161920000Y-109130000D03*
%TO.P,U18,1*%
%TO.N,Net-(R72-Pad1)*%
X161920000Y-109780000D03*
%TD*%
D23*
%TO.P,D1,1,A1*%
%TO.N,GND*%
X136525000Y-63920000D03*
%TO.P,D1,2,A2*%
%TO.N,/ADC Driver Stage - Final Buffer CH A/External_IN+*%
X136525000Y-63080000D03*
%TD*%
D24*
%TO.P,D9,1,K*%
%TO.N,GND*%
X117145000Y-117368238D03*
%TO.P,D9,2,A*%
%TO.N,Net-(D9-A)*%
X115570000Y-117368238D03*
%TD*%
D25*
%TO.P,C85,1*%
%TO.N,+3.3V*%
X157480000Y-105055000D03*
%TO.P,C85,2*%
%TO.N,GND*%
X157480000Y-106605000D03*
%TD*%
%TO.P,C31,1*%
%TO.N,+3.3V*%
X147955000Y-107630000D03*
%TO.P,C31,2*%
%TO.N,GND*%
X147955000Y-109180000D03*
%TD*%
D23*
%TO.P,D4,1,A1*%
%TO.N,GND*%
X160655000Y-64135000D03*
%TO.P,D4,2,A2*%
%TO.N,/ADC Driver Stage - Final Buffer CH B/External_IN-*%
X160655000Y-63295000D03*
%TD*%
D26*
%TO.P,C5,1*%
%TO.N,+5.4V*%
X95004845Y-109906311D03*
%TO.P,C5,2*%
%TO.N,Net-(U1-BYP)*%
X96554845Y-109906311D03*
%TD*%
D19*
%TO.P,R19,1*%
%TO.N,+1.8V*%
X108016576Y-117368238D03*
%TO.P,R19,2*%
%TO.N,Net-(D9-A)*%
X109666576Y-117368238D03*
%TD*%
D14*
%TO.P,J3,1,In*%
%TO.N,/ADC Driver Stage - Final Buffer CH B/External_IN+*%
X171450000Y-60960000D03*
%TO.P,J3,2,Ext*%
%TO.N,GND*%
X167200000Y-60960000D03*
X175700000Y-60960000D03*
%TD*%
D27*
%TO.P,U4,1,OUT*%
%TO.N,+1.8V*%
X107219476Y-103186988D03*
%TO.P,U4,2,SENSE/ADJ*%
X108489476Y-103186988D03*
%TO.P,U4,3,GND*%
%TO.N,GND*%
X109759476Y-103186988D03*
%TO.P,U4,4,BYP*%
%TO.N,Net-(U4-BYP)*%
X111029476Y-103186988D03*
%TO.P,U4,5,\u002ASHDN*%
%TO.N,Net-(U4-\u002ASHDN)*%
X111029476Y-97738688D03*
%TO.P,U4,6,GND*%
%TO.N,GND*%
X109759476Y-97738688D03*
%TO.P,U4,7,GND*%
X108489476Y-97738688D03*
%TO.P,U4,8,IN*%
%TO.N,Net-(U4-\u002ASHDN)*%
X107219476Y-97738688D03*
%TD*%
D28*
%TO.P,C26,1*%
%TO.N,Net-(C26-Pad1)*%
X146050000Y-107635000D03*
%TO.P,C26,2*%
%TO.N,GND*%
X146050000Y-109535000D03*
%TD*%
D29*
%TO.P,C37,1*%
%TO.N,+3.3V*%
X116840000Y-105410000D03*
%TO.P,C37,2*%
%TO.N,GND*%
X115290000Y-105410000D03*
%TD*%
D30*
%TO.P,C2,1*%
%TO.N,+5.4V*%
X94649845Y-112446311D03*
%TO.P,C2,2*%
%TO.N,GND*%
X97599845Y-112446311D03*
%TD*%
D31*
%TO.P,U19,1*%
%TO.N,Trig_Enable*%
X160020000Y-99620000D03*
%TO.P,U19,2*%
%TO.N,Trig_Detect*%
X160020000Y-100270000D03*
%TO.P,U19,3,GND*%
%TO.N,GND*%
X160020000Y-100920000D03*
%TO.P,U19,4*%
%TO.N,/Trigger Circuit/CNV_GATED_3V3*%
X161920000Y-100920000D03*
%TO.P,U19,5,VCC*%
%TO.N,+3.3V*%
X161920000Y-99620000D03*
%TD*%
D32*
%TO.P,U9,1,EN*%
%TO.N,+3.3V*%
X122640000Y-100045000D03*
%TO.P,U9,2,GND*%
%TO.N,GND*%
X123740000Y-100045000D03*
%TO.P,U9,3,OUT*%
%TO.N,Net-(U9-OUT)*%
X123740000Y-99245000D03*
%TO.P,U9,4,VDD*%
%TO.N,+3.3V*%
X122640000Y-99245000D03*
%TD*%
D28*
%TO.P,C71,1*%
%TO.N,Net-(U14A--IN1)*%
X156979998Y-67310000D03*
%TO.P,C71,2*%
%TO.N,Net-(U14A-+FB)*%
X156979998Y-69210000D03*
%TD*%
D14*
%TO.P,J4,1,In*%
%TO.N,/ADC Driver Stage - Final Buffer CH B/External_IN-*%
X152400000Y-60960000D03*
%TO.P,J4,2,Ext*%
%TO.N,GND*%
X148150000Y-60960000D03*
X156650000Y-60960000D03*
%TD*%
D11*
%TO.P,TP8,1,1*%
%TO.N,UART4_TX*%
X127605176Y-89465317D03*
%TD*%
D33*
%TO.P,C73,1*%
%TO.N,/ADC Driver Stage - Final Buffer CH B/Filtered_IN-*%
X149860000Y-77610000D03*
%TO.P,C73,2*%
%TO.N,GND*%
X149860000Y-76060000D03*
%TD*%
D29*
%TO.P,C61,1*%
%TO.N,GND*%
X111218156Y-75259827D03*
%TO.P,C61,2*%
%TO.N,Net-(U13A-VOCM)*%
X109668156Y-75259827D03*
%TD*%
D25*
%TO.P,C64,1*%
%TO.N,/ADC Driver Stage - Final Buffer CH A/Filtered_IN-*%
X127635000Y-81280000D03*
%TO.P,C64,2*%
%TO.N,GND*%
X127635000Y-82830000D03*
%TD*%
D34*
%TO.P,U13,1,-FB*%
%TO.N,Net-(U13A--FB)*%
X118340002Y-72771000D03*
%TO.P,U13,2,+IN1*%
%TO.N,Net-(U13A-+IN1)*%
X117840001Y-72771000D03*
%TO.P,U13,3,-IN1*%
%TO.N,Net-(U13A--IN1)*%
X117340001Y-72771000D03*
%TO.P,U13,4,+FB*%
%TO.N,Net-(U13A-+FB)*%
X116840000Y-72771000D03*
D35*
%TO.P,U13,5,MODE*%
%TO.N,Net-(U13B-+VCLAMP)*%
X116193001Y-73417999D03*
%TO.P,U13,6,+VS*%
X116193001Y-73918000D03*
%TO.P,U13,7,+VS*%
X116193001Y-74418000D03*
%TO.P,U13,8,+VCLAMP*%
X116193001Y-74918001D03*
D34*
%TO.P,U13,9,VOCM*%
%TO.N,Net-(U13A-VOCM)*%
X116840000Y-75565000D03*
%TO.P,U13,10,+OUT*%
%TO.N,Net-(U13A-+OUT)*%
X117340001Y-75565000D03*
%TO.P,U13,11,-OUT*%
%TO.N,Net-(U13A--OUT)*%
X117840001Y-75565000D03*
%TO.P,U13,12,~{DISABLE1}*%
%TO.N,Net-(U13B-+VCLAMP)*%
X118340002Y-75565000D03*
D35*
%TO.P,U13,13,-VCLAMP*%
%TO.N,Net-(U13B--VCLAMP)*%
X118987001Y-74918001D03*
%TO.P,U13,14,-VS*%
X118987001Y-74418000D03*
%TO.P,U13,15,-VS*%
X118987001Y-73918000D03*
%TO.P,U13,16,DGND*%
X118987001Y-73417999D03*
D36*
%TO.P,U13,17,-VS*%
X117590001Y-74168000D03*
%TD*%
D37*
%TO.P,C63,1*%
%TO.N,Net-(U13A--FB)*%
X122555000Y-69850000D03*
%TO.P,C63,2*%
%TO.N,Net-(U13A-+IN1)*%
X122555000Y-67950000D03*
%TD*%
D25*
%TO.P,C30,1*%
%TO.N,+3.3V*%
X134682537Y-107598058D03*
%TO.P,C30,2*%
%TO.N,GND*%
X134682537Y-109148058D03*
%TD*%
%TO.P,C35,1*%
%TO.N,+3.3V*%
X120650000Y-98375000D03*
%TO.P,C35,2*%
%TO.N,GND*%
X120650000Y-99925000D03*
%TD*%
D23*
%TO.P,D3,1,A1*%
%TO.N,GND*%
X180340000Y-64135000D03*
%TO.P,D3,2,A2*%
%TO.N,/ADC Driver Stage - Final Buffer CH B/External_IN+*%
X180340000Y-63295000D03*
%TD*%
%TO.P,D2,1,A1*%
%TO.N,GND*%
X116840000Y-63705000D03*
%TO.P,D2,2,A2*%
%TO.N,/ADC Driver Stage - Final Buffer CH A/External_IN-*%
X116840000Y-62865000D03*
%TD*%
D33*
%TO.P,C32,1*%
%TO.N,+3.3V*%
X149656332Y-91433327D03*
%TO.P,C32,2*%
%TO.N,GND*%
X149656332Y-89883327D03*
%TD*%
D38*
%TO.P,C27,1*%
%TO.N,Net-(C27-Pad1)*%
X152720000Y-93345000D03*
%TO.P,C27,2*%
%TO.N,GND*%
X154620000Y-93345000D03*
%TD*%
D11*
%TO.P,TP11,1,1*%
%TO.N,SCK*%
X146076418Y-84387514D03*
%TD*%
D14*
%TO.P,J2,1,In*%
%TO.N,/ADC Driver Stage - Final Buffer CH A/External_IN-*%
X107950000Y-61312500D03*
%TO.P,J2,2,Ext*%
%TO.N,GND*%
X103700000Y-61312500D03*
X112200000Y-61312500D03*
%TD*%
D21*
%TO.P,R7,1*%
%TO.N,/ADC Driver Stage - Final Buffer CH B/External_IN+*%
X181610000Y-62787500D03*
%TO.P,R7,2*%
%TO.N,GND*%
X181610000Y-64437500D03*
%TD*%
D11*
%TO.P,TP9,1,1*%
%TO.N,UART4_CTS*%
X150495000Y-102235000D03*
%TD*%
D33*
%TO.P,C33,1*%
%TO.N,+3.3V*%
X132715000Y-88900000D03*
%TO.P,C33,2*%
%TO.N,GND*%
X132715000Y-87350000D03*
%TD*%
D24*
%TO.P,D5,1,K*%
%TO.N,GND*%
X101752500Y-117526311D03*
%TO.P,D5,2,A*%
%TO.N,Net-(D5-A)*%
X100177500Y-117526311D03*
%TD*%
D39*
%TO.P,D13,1,1*%
%TO.N,GND*%
X186093100Y-110067500D03*
%TO.P,D13,2,2*%
%TO.N,Net-(D13-Pad2)*%
X186093100Y-109592500D03*
%TO.P,D13,3,3*%
%TO.N,Net-(D13-Pad3)*%
X184746900Y-109592500D03*
%TO.P,D13,4,4*%
%TO.N,Net-(D13-Pad4)*%
X184746900Y-110067500D03*
%TD*%
D11*
%TO.P,TP7,1,1*%
%TO.N,UART4_RX*%
X124430176Y-89465317D03*
%TD*%
D21*
%TO.P,R2,1*%
%TO.N,/ADC Driver Stage - Final Buffer CH A/External_IN-*%
X118110000Y-62055000D03*
%TO.P,R2,2*%
%TO.N,GND*%
X118110000Y-63705000D03*
%TD*%
D40*
%TO.P,J6,1,Pin_1*%
%TO.N,GND*%
X91832500Y-81645000D03*
D41*
%TO.P,J6,2,Pin_2*%
%TO.N,+6V*%
X91832500Y-85145000D03*
%TO.P,J6,3,Pin_3*%
%TO.N,-6V*%
X91832500Y-88645000D03*
%TD*%
D19*
%TO.P,R6,1*%
%TO.N,GND*%
X192215000Y-116205000D03*
%TO.P,R6,2*%
%TO.N,Net-(H4-Pad1)*%
X193865000Y-116205000D03*
%TD*%
%TO.P,R26,1*%
%TO.N,+3.3V*%
X120270000Y-104140000D03*
%TO.P,R26,2*%
%TO.N,NRST*%
X121920000Y-104140000D03*
%TD*%
D42*
%TO.P,Q1,1,G*%
%TO.N,/MCU-FPGA/PD1*%
X155605000Y-88585000D03*
%TO.P,Q1,2,S*%
%TO.N,GND*%
X155605000Y-90485000D03*
%TO.P,Q1,3,D*%
%TO.N,{slash}RESET_MCU*%
X157480000Y-89535000D03*
%TD*%
D43*
%TO.P,SW1,1,1*%
%TO.N,/MCU-FPGA/BOOT*%
X116840000Y-94550000D03*
%TO.P,SW1,2,2*%
%TO.N,+3.3V*%
X116840000Y-102300000D03*
%TD*%
D11*
%TO.P,TP1,1,1*%
%TO.N,+5.4V*%
X92109845Y-117526311D03*
%TD*%
D14*
%TO.P,J1,1,In*%
%TO.N,/ADC Driver Stage - Final Buffer CH A/External_IN+*%
X127000000Y-60960000D03*
%TO.P,J1,2,Ext*%
%TO.N,GND*%
X122750000Y-60960000D03*
X131250000Y-60960000D03*
%TD*%
D19*
%TO.P,R11,1*%
%TO.N,+5.4V*%
X92744845Y-106731311D03*
%TO.P,R11,2*%
%TO.N,Net-(U1-SENSE{slash}ADJ)*%
X94394845Y-106731311D03*
%TD*%
D21*
%TO.P,R23,1*%
%TO.N,/MCU-FPGA/LED_B*%
X183515000Y-105005000D03*
%TO.P,R23,2*%
%TO.N,Net-(D13-Pad4)*%
X183515000Y-106655000D03*
%TD*%
D25*
%TO.P,C67,1*%
%TO.N,Net-(U13B--VCLAMP)*%
X119535000Y-83540000D03*
%TO.P,C67,2*%
%TO.N,GND*%
X119535000Y-85090000D03*
%TD*%
D26*
%TO.P,C36,1*%
%TO.N,NRST*%
X124905000Y-104140000D03*
%TO.P,C36,2*%
%TO.N,GND*%
X126455000Y-104140000D03*
%TD*%
D11*
%TO.P,TP4,1,1*%
%TO.N,+1.8V*%
X106045000Y-116840000D03*
%TD*%
D29*
%TO.P,C60,1*%
%TO.N,Net-(C60-Pad1)*%
X127000000Y-68580000D03*
%TO.P,C60,2*%
%TO.N,GND*%
X125450000Y-68580000D03*
%TD*%
%TO.P,C40,1*%
%TO.N,+5V*%
X133452958Y-76695731D03*
%TO.P,C40,2*%
%TO.N,GND*%
X131902958Y-76695731D03*
%TD*%
D11*
%TO.P,TP15,1,1*%
%TO.N,{slash}CS*%
X152638719Y-77326806D03*
%TD*%
D20*
%TO.P,R5,1*%
%TO.N,GND*%
X86995000Y-116205000D03*
%TO.P,R5,2*%
%TO.N,Net-(H3-Pad1)*%
X85345000Y-116205000D03*
%TD*%
D11*
%TO.P,TP10,1,1*%
%TO.N,GND*%
X162560000Y-116205000D03*
%TD*%
D26*
%TO.P,C1,1*%
%TO.N,+5.4V*%
X95284845Y-114986311D03*
%TO.P,C1,2*%
%TO.N,GND*%
X96834845Y-114986311D03*
%TD*%
D25*
%TO.P,C66,1*%
%TO.N,Net-(U13B-+VCLAMP)*%
X112155000Y-83540000D03*
%TO.P,C66,2*%
%TO.N,GND*%
X112155000Y-85090000D03*
%TD*%
D30*
%TO.P,C16,1*%
%TO.N,+1.8V*%
X107351576Y-110383238D03*
%TO.P,C16,2*%
%TO.N,GND*%
X110301576Y-110383238D03*
%TD*%
D25*
%TO.P,C51,1*%
%TO.N,Net-(U12B-+IN2)*%
X147320000Y-68935000D03*
%TO.P,C51,2*%
%TO.N,GND*%
X147320000Y-70485000D03*
%TD*%
D21*
%TO.P,R31,1*%
%TO.N,Net-(J8-VBUS)*%
X189230000Y-100775000D03*
%TO.P,R31,2*%
%TO.N,USB_VBUS*%
X189230000Y-102425000D03*
%TD*%
D29*
%TO.P,C34,1*%
%TO.N,+3.3V*%
X130175000Y-102235000D03*
%TO.P,C34,2*%
%TO.N,GND*%
X128625000Y-102235000D03*
%TD*%
D12*
%TO.P,FB7,1*%
%TO.N,+3.3V*%
X122315000Y-108585000D03*
%TO.P,FB7,2*%
%TO.N,Net-(U7-VREF+)*%
X124065000Y-108585000D03*
%TD*%
D18*
%TO.P,R30,1*%
%TO.N,+3.3V*%
X160050000Y-91120000D03*
%TO.P,R30,2*%
%TO.N,{slash}RESET_MCU*%
X160050000Y-89470000D03*
%TD*%
D19*
%TO.P,R3,1*%
%TO.N,GND*%
X192025743Y-65211384D03*
%TO.P,R3,2*%
%TO.N,Net-(H1-Pad1)*%
X193675743Y-65211384D03*
%TD*%
D28*
%TO.P,C62,1*%
%TO.N,Net-(U13A--IN1)*%
X112395000Y-67945000D03*
%TO.P,C62,2*%
%TO.N,Net-(U13A-+FB)*%
X112395000Y-69845000D03*
%TD*%
D26*
%TO.P,C59,1*%
%TO.N,Net-(C59-Pad1)*%
X107810000Y-68580000D03*
%TO.P,C59,2*%
%TO.N,GND*%
X109360000Y-68580000D03*
%TD*%
D29*
%TO.P,C69,1*%
%TO.N,Net-(C69-Pad1)*%
X171584999Y-67945000D03*
%TO.P,C69,2*%
%TO.N,GND*%
X170034999Y-67945000D03*
%TD*%
D21*
%TO.P,R33,1*%
%TO.N,+1.8V*%
X130242150Y-73801973D03*
%TO.P,R33,2*%
%TO.N,{slash}RESET*%
X130242150Y-75451973D03*
%TD*%
%TO.P,R8,1*%
%TO.N,/ADC Driver Stage - Final Buffer CH B/External_IN-*%
X161925000Y-62675000D03*
%TO.P,R8,2*%
%TO.N,GND*%
X161925000Y-64325000D03*
%TD*%
D29*
%TO.P,C29,1*%
%TO.N,+3.3V*%
X128905000Y-95885000D03*
%TO.P,C29,2*%
%TO.N,GND*%
X127355000Y-95885000D03*
%TD*%
D25*
%TO.P,C76,1*%
%TO.N,Net-(U14B--VCLAMP)*%
X164119999Y-82904999D03*
%TO.P,C76,2*%
%TO.N,GND*%
X164119999Y-84454999D03*
%TD*%
D26*
%TO.P,C68,1*%
%TO.N,Net-(C68-Pad1)*%
X152394999Y-67945000D03*
%TO.P,C68,2*%
%TO.N,GND*%
X153944999Y-67945000D03*
%TD*%
D44*
%TO.P,U1,1,OUT*%
%TO.N,+5.4V*%
X95284845Y-102368861D03*
%TO.P,U1,2,SENSE/ADJ*%
%TO.N,Net-(U1-SENSE{slash}ADJ)*%
X96554845Y-102368861D03*
%TO.P,U1,3,GND*%
%TO.N,GND*%
X97824845Y-102368861D03*
%TO.P,U1,4,BYP*%
%TO.N,Net-(U1-BYP)*%
X99094845Y-102368861D03*
%TO.P,U1,5,\u002ASHDN*%
%TO.N,Net-(U1-\u002ASHDN)*%
X99094845Y-97123761D03*
%TO.P,U1,6,GND*%
%TO.N,GND*%
X97824845Y-97123761D03*
%TO.P,U1,7,GND*%
X96554845Y-97123761D03*
%TO.P,U1,8,IN*%
%TO.N,Net-(U1-\u002ASHDN)*%
X95284845Y-97123761D03*
%TD*%
D21*
%TO.P,R32,1*%
%TO.N,/MCU-FPGA/PD1*%
X151795000Y-88580000D03*
%TO.P,R32,2*%
%TO.N,GND*%
X151795000Y-90230000D03*
%TD*%
D18*
%TO.P,R29,1*%
%TO.N,/MCU-FPGA/BOOT*%
X116840000Y-90550000D03*
%TO.P,R29,2*%
%TO.N,GND*%
X116840000Y-88900000D03*
%TD*%
D25*
%TO.P,C45,1*%
%TO.N,Net-(U11A-+IN1)*%
X132080000Y-68909827D03*
%TO.P,C45,2*%
%TO.N,GND*%
X132080000Y-70459827D03*
%TD*%
D20*
%TO.P,R4,1*%
%TO.N,GND*%
X86995000Y-65405000D03*
%TO.P,R4,2*%
%TO.N,Net-(H2-Pad1)*%
X85345000Y-65405000D03*
%TD*%
D45*
%TO.P,U8,1*%
%TO.N,USB_ID*%
X187640000Y-96937500D03*
%TO.P,U8,2*%
%TO.N,GND*%
X186690000Y-96937500D03*
%TO.P,U8,3*%
%TO.N,USB_D+*%
X185740000Y-96937500D03*
%TO.P,U8,4*%
%TO.N,USB_D-*%
X185740000Y-99212500D03*
%TO.P,U8,5*%
%TO.N,GND*%
X186690000Y-99212500D03*
%TO.P,U8,6*%
%TO.N,USB_VBUS*%
X187640000Y-99212500D03*
%TD*%
D29*
%TO.P,C38,1*%
%TO.N,+1.8V*%
X134620000Y-73660000D03*
%TO.P,C38,2*%
%TO.N,GND*%
X133070000Y-73660000D03*
%TD*%
D25*
%TO.P,C53,1*%
%TO.N,Net-(U12A-+IN1)*%
X176530000Y-68935000D03*
%TO.P,C53,2*%
%TO.N,GND*%
X176530000Y-70485000D03*
%TD*%
%TO.P,C25,1*%
%TO.N,Net-(U7-VREF+)*%
X126365000Y-108585000D03*
%TO.P,C25,2*%
%TO.N,GND*%
X126365000Y-110135000D03*
%TD*%
D46*
%TO.P,J8,1,VBUS*%
%TO.N,Net-(J8-VBUS)*%
X191610000Y-99010000D03*
%TO.P,J8,2,D-*%
%TO.N,USB_D-*%
X191610000Y-98360000D03*
%TO.P,J8,3,D+*%
%TO.N,USB_D+*%
X191610000Y-97710000D03*
%TO.P,J8,4,ID*%
%TO.N,USB_ID*%
X191610000Y-97060000D03*
%TO.P,J8,5,GND*%
%TO.N,GND*%
X191610000Y-96410000D03*
D47*
%TO.P,J8,6,Shield*%
X194310000Y-101210000D03*
D48*
X194310000Y-100610000D03*
D49*
X191610000Y-100210000D03*
D50*
X194310000Y-98710000D03*
X194310000Y-96710000D03*
D49*
X191610000Y-95210000D03*
D48*
X194310000Y-94810000D03*
D47*
X194310000Y-94210000D03*
%TD*%
D26*
%TO.P,C7,1*%
%TO.N,Net-(U1-\u002ASHDN)*%
X95745000Y-92075000D03*
%TO.P,C7,2*%
%TO.N,GND*%
X97295000Y-92075000D03*
%TD*%
D29*
%TO.P,C28,1*%
%TO.N,+3.3V*%
X129371908Y-94202384D03*
%TO.P,C28,2*%
%TO.N,GND*%
X127821908Y-94202384D03*
%TD*%
D51*
%TO.P,U7,1,PE2*%
%TO.N,unconnected-(U7-PE2-Pad1)*%
X132430000Y-91845000D03*
%TO.P,U7,2,PE3*%
%TO.N,unconnected-(U7-PE3-Pad2)*%
X132430000Y-92345000D03*
%TO.P,U7,3,PE4*%
%TO.N,unconnected-(U7-PE4-Pad3)*%
X132430000Y-92845000D03*
%TO.P,U7,4,PE5*%
%TO.N,unconnected-(U7-PE5-Pad4)*%
X132430000Y-93345000D03*
%TO.P,U7,5,PE6*%
%TO.N,unconnected-(U7-PE6-Pad5)*%
X132430000Y-93845000D03*
%TO.P,U7,6,VBAT*%
%TO.N,+3.3V*%
X132430000Y-94345000D03*
%TO.P,U7,7,PC13*%
%TO.N,unconnected-(U7-PC13-Pad7)*%
X132430000Y-94845000D03*
%TO.P,U7,8,PC14*%
%TO.N,unconnected-(U7-PC14-Pad8)*%
X132430000Y-95345000D03*
%TO.P,U7,9,PC15*%
%TO.N,unconnected-(U7-PC15-Pad9)*%
X132430000Y-95845000D03*
%TO.P,U7,10,VSS*%
%TO.N,GND*%
X132430000Y-96345000D03*
%TO.P,U7,11,VDD*%
%TO.N,+3.3V*%
X132430000Y-96845000D03*
%TO.P,U7,12,PH0*%
%TO.N,/MCU-FPGA/PH0*%
X132430000Y-97345000D03*
%TO.P,U7,13,PH1*%
%TO.N,unconnected-(U7-PH1-Pad13)*%
X132430000Y-97845000D03*
%TO.P,U7,14,NRST*%
%TO.N,NRST*%
X132430000Y-98345000D03*
%TO.P,U7,15,PC0*%
%TO.N,unconnected-(U7-PC0-Pad15)*%
X132430000Y-98845000D03*
%TO.P,U7,16,PC1*%
%TO.N,unconnected-(U7-PC1-Pad16)*%
X132430000Y-99345000D03*
%TO.P,U7,17,PC2_C*%
%TO.N,unconnected-(U7-PC2_C-Pad17)*%
X132430000Y-99845000D03*
%TO.P,U7,18,PC3_C*%
%TO.N,unconnected-(U7-PC3_C-Pad18)*%
X132430000Y-100345000D03*
%TO.P,U7,19,VSSA*%
%TO.N,GND*%
X132430000Y-100845000D03*
%TO.P,U7,20,VREF+*%
%TO.N,Net-(U7-VREF+)*%
X132430000Y-101345000D03*
%TO.P,U7,21,VDDA*%
%TO.N,+3.3V*%
X132430000Y-101845000D03*
%TO.P,U7,22,PA0*%
%TO.N,unconnected-(U7-PA0-Pad22)*%
X132430000Y-102345000D03*
%TO.P,U7,23,PA1*%
%TO.N,unconnected-(U7-PA1-Pad23)*%
X132430000Y-102845000D03*
%TO.P,U7,24,PA2*%
%TO.N,unconnected-(U7-PA2-Pad24)*%
X132430000Y-103345000D03*
%TO.P,U7,25,PA3*%
%TO.N,unconnected-(U7-PA3-Pad25)*%
X132430000Y-103845000D03*
D52*
%TO.P,U7,26,VSS*%
%TO.N,GND*%
X134105000Y-105520000D03*
%TO.P,U7,27,VDD*%
%TO.N,+3.3V*%
X134605000Y-105520000D03*
%TO.P,U7,28,PA4*%
%TO.N,unconnected-(U7-PA4-Pad28)*%
X135105000Y-105520000D03*
%TO.P,U7,29,PA5*%
%TO.N,SCK_MCU*%
X135605000Y-105520000D03*
%TO.P,U7,30,PA6*%
%TO.N,MISO0_MCU*%
X136105000Y-105520000D03*
%TO.P,U7,31,PA7*%
%TO.N,MOSI_MCU*%
X136605000Y-105520000D03*
%TO.P,U7,32,PC4*%
%TO.N,{slash}CS_MCU*%
X137105000Y-105520000D03*
%TO.P,U7,33,PC5*%
%TO.N,unconnected-(U7-PC5-Pad33)*%
X137605000Y-105520000D03*
%TO.P,U7,34,PB0*%
%TO.N,unconnected-(U7-PB0-Pad34)*%
X138105000Y-105520000D03*
%TO.P,U7,35,PB1*%
%TO.N,unconnected-(U7-PB1-Pad35)*%
X138605000Y-105520000D03*
%TO.P,U7,36,PB2*%
%TO.N,unconnected-(U7-PB2-Pad36)*%
X139105000Y-105520000D03*
%TO.P,U7,37,PE7*%
%TO.N,unconnected-(U7-PE7-Pad37)*%
X139605000Y-105520000D03*
%TO.P,U7,38,PE8*%
%TO.N,unconnected-(U7-PE8-Pad38)*%
X140105000Y-105520000D03*
%TO.P,U7,39,PE9*%
%TO.N,unconnected-(U7-PE9-Pad39)*%
X140605000Y-105520000D03*
%TO.P,U7,40,PE10*%
%TO.N,unconnected-(U7-PE10-Pad40)*%
X141105000Y-105520000D03*
%TO.P,U7,41,PE11*%
%TO.N,unconnected-(U7-PE11-Pad41)*%
X141605000Y-105520000D03*
%TO.P,U7,42,PE12*%
%TO.N,unconnected-(U7-PE12-Pad42)*%
X142105000Y-105520000D03*
%TO.P,U7,43,PE13*%
%TO.N,unconnected-(U7-PE13-Pad43)*%
X142605000Y-105520000D03*
%TO.P,U7,44,PE14*%
%TO.N,unconnected-(U7-PE14-Pad44)*%
X143105000Y-105520000D03*
%TO.P,U7,45,PE15*%
%TO.N,unconnected-(U7-PE15-Pad45)*%
X143605000Y-105520000D03*
%TO.P,U7,46,PB10*%
%TO.N,unconnected-(U7-PB10-Pad46)*%
X144105000Y-105520000D03*
%TO.P,U7,47,PB11*%
%TO.N,unconnected-(U7-PB11-Pad47)*%
X144605000Y-105520000D03*
%TO.P,U7,48,VCAP*%
%TO.N,Net-(C26-Pad1)*%
X145105000Y-105520000D03*
%TO.P,U7,49,VSS*%
%TO.N,GND*%
X145605000Y-105520000D03*
%TO.P,U7,50,VDD*%
%TO.N,+3.3V*%
X146105000Y-105520000D03*
D51*
%TO.P,U7,51,PB12*%
%TO.N,BUSY_MCU*%
X147780000Y-103845000D03*
%TO.P,U7,52,PB13*%
%TO.N,unconnected-(U7-PB13-Pad52)*%
X147780000Y-103345000D03*
%TO.P,U7,53,PB14*%
%TO.N,unconnected-(U7-PB14-Pad53)*%
X147780000Y-102845000D03*
%TO.P,U7,54,PB15*%
%TO.N,UART4_CTS*%
X147780000Y-102345000D03*
%TO.P,U7,55,PD8*%
%TO.N,unconnected-(U7-PD8-Pad55)*%
X147780000Y-101845000D03*
%TO.P,U7,56,PD9*%
%TO.N,unconnected-(U7-PD9-Pad56)*%
X147780000Y-101345000D03*
%TO.P,U7,57,PD10*%
%TO.N,Manual_Trigger*%
X147780000Y-100845000D03*
%TO.P,U7,58,PD11*%
%TO.N,unconnected-(U7-PD11-Pad58)*%
X147780000Y-100345000D03*
%TO.P,U7,59,PD12*%
%TO.N,unconnected-(U7-PD12-Pad59)*%
X147780000Y-99845000D03*
%TO.P,U7,60,PD13*%
%TO.N,unconnected-(U7-PD13-Pad60)*%
X147780000Y-99345000D03*
%TO.P,U7,61,PD14*%
%TO.N,unconnected-(U7-PD14-Pad61)*%
X147780000Y-98845000D03*
%TO.P,U7,62,PD15*%
%TO.N,Trig_Enable*%
X147780000Y-98345000D03*
%TO.P,U7,63,PC6*%
%TO.N,/MCU-FPGA/LED_B*%
X147780000Y-97845000D03*
%TO.P,U7,64,PC7*%
%TO.N,/MCU-FPGA/LED_G*%
X147780000Y-97345000D03*
%TO.P,U7,65,PC8*%
%TO.N,/MCU-FPGA/LED_R*%
X147780000Y-96845000D03*
%TO.P,U7,66,PC9*%
%TO.N,unconnected-(U7-PC9-Pad66)*%
X147780000Y-96345000D03*
%TO.P,U7,67,PA8*%
%TO.N,unconnected-(U7-PA8-Pad67)*%
X147780000Y-95845000D03*
%TO.P,U7,68,PA9*%
%TO.N,USB_VBUS*%
X147780000Y-95345000D03*
%TO.P,U7,69,PA10*%
%TO.N,unconnected-(U7-PA10-Pad69)*%
X147780000Y-94845000D03*
%TO.P,U7,70,PA11*%
%TO.N,USB_D-*%
X147780000Y-94345000D03*
%TO.P,U7,71,PA12*%
%TO.N,USB_D+*%
X147780000Y-93845000D03*
%TO.P,U7,72,PA13(JTMS*%
%TO.N,/MCU-FPGA/PA13*%
X147780000Y-93345000D03*
%TO.P,U7,73,VCAP*%
%TO.N,Net-(C27-Pad1)*%
X147780000Y-92845000D03*
%TO.P,U7,74,VSS*%
%TO.N,GND*%
X147780000Y-92345000D03*
%TO.P,U7,75,VDD*%
%TO.N,+3.3V*%
X147780000Y-91845000D03*
D52*
%TO.P,U7,76,PA14(JTCK*%
%TO.N,/MCU-FPGA/PA14*%
X146105000Y-90170000D03*
%TO.P,U7,77,PA15(JTDI)*%
%TO.N,unconnected-(U7-PA15(JTDI)-Pad77)*%
X145605000Y-90170000D03*
%TO.P,U7,78,PC10*%
%TO.N,unconnected-(U7-PC10-Pad78)*%
X145105000Y-90170000D03*
%TO.P,U7,79,PC11*%
%TO.N,unconnected-(U7-PC11-Pad79)*%
X144605000Y-90170000D03*
%TO.P,U7,80,PC12*%
%TO.N,unconnected-(U7-PC12-Pad80)*%
X144105000Y-90170000D03*
%TO.P,U7,81,PD0*%
%TO.N,unconnected-(U7-PD0-Pad81)*%
X143605000Y-90170000D03*
%TO.P,U7,82,PD1*%
%TO.N,/MCU-FPGA/PD1*%
X143105000Y-90170000D03*
%TO.P,U7,83,PD2*%
%TO.N,unconnected-(U7-PD2-Pad83)*%
X142605000Y-90170000D03*
%TO.P,U7,84,PD3*%
%TO.N,unconnected-(U7-PD3-Pad84)*%
X142105000Y-90170000D03*
%TO.P,U7,85,PD4*%
%TO.N,unconnected-(U7-PD4-Pad85)*%
X141605000Y-90170000D03*
%TO.P,U7,86,PD5*%
%TO.N,unconnected-(U7-PD5-Pad86)*%
X141105000Y-90170000D03*
%TO.P,U7,87,PD6*%
%TO.N,unconnected-(U7-PD6-Pad87)*%
X140605000Y-90170000D03*
%TO.P,U7,88,PD7*%
%TO.N,Trig_Detect*%
X140105000Y-90170000D03*
%TO.P,U7,89,PB3(JTDO*%
%TO.N,unconnected-(U7-PB3(JTDO-Pad89)*%
X139605000Y-90170000D03*
%TO.P,U7,90,PB4(NJTRST)*%
%TO.N,unconnected-(U7-PB4(NJTRST)-Pad90)*%
X139105000Y-90170000D03*
%TO.P,U7,91,PB5*%
%TO.N,unconnected-(U7-PB5-Pad91)*%
X138605000Y-90170000D03*
%TO.P,U7,92,PB6*%
%TO.N,unconnected-(U7-PB6-Pad92)*%
X138105000Y-90170000D03*
%TO.P,U7,93,PB7*%
%TO.N,unconnected-(U7-PB7-Pad93)*%
X137605000Y-90170000D03*
%TO.P,U7,94,BOOT0*%
%TO.N,/MCU-FPGA/BOOT*%
X137105000Y-90170000D03*
%TO.P,U7,95,PB8*%
%TO.N,UART4_RX*%
X136605000Y-90170000D03*
%TO.P,U7,96,PB9*%
%TO.N,UART4_TX*%
X136105000Y-90170000D03*
%TO.P,U7,97,PE0*%
%TO.N,unconnected-(U7-PE0-Pad97)*%
X135605000Y-90170000D03*
%TO.P,U7,98,PE1*%
%TO.N,unconnected-(U7-PE1-Pad98)*%
X135105000Y-90170000D03*
%TO.P,U7,99,VSS*%
%TO.N,GND*%
X134605000Y-90170000D03*
%TO.P,U7,100,VDD*%
%TO.N,+3.3V*%
X134105000Y-90170000D03*
%TD*%
D19*
%TO.P,R12,1*%
%TO.N,Net-(U1-SENSE{slash}ADJ)*%
X97189845Y-106731311D03*
%TO.P,R12,2*%
%TO.N,GND*%
X98839845Y-106731311D03*
%TD*%
D21*
%TO.P,R28,1*%
%TO.N,USB_VBUS*%
X189230000Y-105315000D03*
%TO.P,R28,2*%
%TO.N,GND*%
X189230000Y-106965000D03*
%TD*%
D26*
%TO.P,C10,1*%
%TO.N,Net-(U4-\u002ASHDN)*%
X107836576Y-93345000D03*
%TO.P,C10,2*%
%TO.N,GND*%
X109386576Y-93345000D03*
%TD*%
D21*
%TO.P,R25,1*%
%TO.N,/MCU-FPGA/LED_R*%
X187325000Y-105005000D03*
%TO.P,R25,2*%
%TO.N,Net-(D13-Pad2)*%
X187325000Y-106655000D03*
%TD*%
D25*
%TO.P,C74,1*%
%TO.N,/ADC Driver Stage - Final Buffer CH B/Filtered_IN+*%
X149860000Y-81280000D03*
%TO.P,C74,2*%
%TO.N,GND*%
X149860000Y-82830000D03*
%TD*%
%TO.P,C43,1*%
%TO.N,Net-(U11B-+IN2)*%
X102870000Y-68895000D03*
%TO.P,C43,2*%
%TO.N,GND*%
X102870000Y-70445000D03*
%TD*%
D53*
%TO.P,C13,1*%
%TO.N,+6V*%
X97669546Y-83847710D03*
%TO.P,C13,2*%
%TO.N,GND*%
X97669546Y-80767710D03*
%TD*%
D26*
%TO.P,C84,1*%
%TO.N,+3.3V*%
X164675055Y-100033732D03*
%TO.P,C84,2*%
%TO.N,GND*%
X166225055Y-100033732D03*
%TD*%
D29*
%TO.P,C14,1*%
%TO.N,Net-(U4-BYP)*%
X110135000Y-106573238D03*
%TO.P,C14,2*%
%TO.N,+1.8V*%
X108585000Y-106573238D03*
%TD*%
D21*
%TO.P,R27,1*%
%TO.N,/MCU-FPGA/PH0*%
X124460000Y-96330000D03*
%TO.P,R27,2*%
%TO.N,Net-(U9-OUT)*%
X124460000Y-97980000D03*
%TD*%
D25*
%TO.P,C75,1*%
%TO.N,Net-(U14B-+VCLAMP)*%
X156739999Y-82905000D03*
%TO.P,C75,2*%
%TO.N,GND*%
X156739999Y-84455000D03*
%TD*%
D37*
%TO.P,C72,1*%
%TO.N,Net-(U14A--FB)*%
X167139999Y-69215000D03*
%TO.P,C72,2*%
%TO.N,Net-(U14A-+IN1)*%
X167139999Y-67315000D03*
%TD*%
D19*
%TO.P,R9,1*%
%TO.N,+5.4V*%
X95094845Y-117526311D03*
%TO.P,R9,2*%
%TO.N,Net-(D5-A)*%
X96744845Y-117526311D03*
%TD*%
D26*
%TO.P,C17,1*%
%TO.N,+1.8V*%
X108116576Y-114193238D03*
%TO.P,C17,2*%
%TO.N,GND*%
X109666576Y-114193238D03*
%TD*%
D34*
%TO.P,U14,1,-FB*%
%TO.N,Net-(U14A--FB)*%
X162925001Y-72135999D03*
%TO.P,U14,2,+IN1*%
%TO.N,Net-(U14A-+IN1)*%
X162425000Y-72135999D03*
%TO.P,U14,3,-IN1*%
%TO.N,Net-(U14A--IN1)*%
X161925000Y-72135999D03*
%TO.P,U14,4,+FB*%
%TO.N,Net-(U14A-+FB)*%
X161424999Y-72135999D03*
D35*
%TO.P,U14,5,MODE*%
%TO.N,Net-(U14B-+VCLAMP)*%
X160778000Y-72782998D03*
%TO.P,U14,6,+VS*%
X160778000Y-73282999D03*
%TO.P,U14,7,+VS*%
X160778000Y-73782999D03*
%TO.P,U14,8,+VCLAMP*%
X160778000Y-74283000D03*
D34*
%TO.P,U14,9,VOCM*%
%TO.N,Net-(U14A-VOCM)*%
X161424999Y-74929999D03*
%TO.P,U14,10,+OUT*%
%TO.N,Net-(U14A-+OUT)*%
X161925000Y-74929999D03*
%TO.P,U14,11,-OUT*%
%TO.N,Net-(U14A--OUT)*%
X162425000Y-74929999D03*
%TO.P,U14,12,~{DISABLE1}*%
%TO.N,Net-(U14B-+VCLAMP)*%
X162925001Y-74929999D03*
D35*
%TO.P,U14,13,-VCLAMP*%
%TO.N,Net-(U14B--VCLAMP)*%
X163572000Y-74283000D03*
%TO.P,U14,14,-VS*%
X163572000Y-73782999D03*
%TO.P,U14,15,-VS*%
X163572000Y-73282999D03*
%TO.P,U14,16,DGND*%
X163572000Y-72782998D03*
D36*
%TO.P,U14,17,-VS*%
X162175000Y-73532999D03*
%TD*%
D22*
%TO.P,U20,1*%
%TO.N,Manual_Trigger*%
X161925000Y-105350000D03*
%TO.P,U20,2*%
%TO.N,/Trigger Circuit/CNV_GATED_3V3*%
X161925000Y-104700000D03*
%TO.P,U20,3,GND*%
%TO.N,GND*%
X161925000Y-104050000D03*
%TO.P,U20,4*%
%TO.N,CNV_3.3*%
X160025000Y-104050000D03*
%TO.P,U20,5,VCC*%
%TO.N,+3.3V*%
X160025000Y-105350000D03*
%TD*%
D25*
%TO.P,C83,1*%
%TO.N,+3.3V*%
X156845000Y-110210000D03*
%TO.P,C83,2*%
%TO.N,GND*%
X156845000Y-111760000D03*
%TD*%
D54*
%TO.P,C11,1*%
%TO.N,-6V*%
X90170000Y-94345000D03*
%TO.P,C11,2*%
%TO.N,GND*%
X90170000Y-97425000D03*
%TD*%
D55*
%TO.P,FB3,1*%
%TO.N,+6V*%
X107481576Y-89295000D03*
%TO.P,FB3,2*%
%TO.N,Net-(U4-\u002ASHDN)*%
X107481576Y-91045000D03*
%TD*%
D29*
%TO.P,C70,1*%
%TO.N,GND*%
X142523155Y-68909827D03*
%TO.P,C70,2*%
%TO.N,Net-(U14A-VOCM)*%
X140973155Y-68909827D03*
%TD*%
D21*
%TO.P,R24,1*%
%TO.N,/MCU-FPGA/LED_G*%
X185420000Y-105005000D03*
%TO.P,R24,2*%
%TO.N,Net-(D13-Pad3)*%
X185420000Y-106655000D03*
%TD*%
D56*
%TO.P,U10,A1,GND*%
%TO.N,GND*%
X136900000Y-81540000D03*
%TO.P,U10,A2,REFIN*%
%TO.N,Net-(U10B-REFIN)*%
X136900000Y-80740000D03*
%TO.P,U10,A3,VDD_5V*%
%TO.N,+5V*%
X136900000Y-79940000D03*
%TO.P,U10,A4,GND*%
%TO.N,GND*%
X136900000Y-79140000D03*
%TO.P,U10,A5,GND*%
X136900000Y-78340000D03*
%TO.P,U10,A6,CNV*%
%TO.N,CNV*%
X136900000Y-77540000D03*
%TO.P,U10,A7,RESET\u002A*%
%TO.N,{slash}RESET*%
X136900000Y-76740000D03*
%TO.P,U10,A8,VIO*%
%TO.N,+1.8V*%
X136900000Y-75940000D03*
%TO.P,U10,B1,IN0+*%
%TO.N,/ADC Driver Stage - Final Buffer CH A/Filtered_IN+*%
X137700000Y-81540000D03*
%TO.P,U10,B2,GND*%
%TO.N,GND*%
X137700000Y-80740000D03*
%TO.P,U10,B3,VDD_5V*%
%TO.N,+5V*%
X137700000Y-79940000D03*
%TO.P,U10,B4,GND*%
%TO.N,GND*%
X137700000Y-79140000D03*
%TO.P,U10,B5,GND*%
X137700000Y-78340000D03*
%TO.P,U10,B6,IOGND*%
X137700000Y-77540000D03*
%TO.P,U10,B7,IOGND*%
X137700000Y-76740000D03*
%TO.P,U10,B8,VIO*%
%TO.N,+1.8V*%
X137700000Y-75940000D03*
%TO.P,U10,C1,IN0-*%
%TO.N,/ADC Driver Stage - Final Buffer CH A/Filtered_IN-*%
X138500000Y-81540000D03*
%TO.P,U10,C2,GND*%
%TO.N,GND*%
X138500000Y-80740000D03*
%TO.P,U10,C3,GND*%
X138500000Y-79940000D03*
%TO.P,U10,C4,GND*%
X138500000Y-79140000D03*
%TO.P,U10,C5,GND*%
X138500000Y-78340000D03*
%TO.P,U10,C6,IOGND*%
X138500000Y-77540000D03*
%TO.P,U10,C7,SDO3*%
%TO.N,unconnected-(U10A-SDO3-PadC7)*%
X138500000Y-76740000D03*
%TO.P,U10,C8,SDO1*%
%TO.N,unconnected-(U10A-SDO1-PadC8)*%
X138500000Y-75940000D03*
%TO.P,U10,D1,GND*%
%TO.N,GND*%
X139300000Y-81540000D03*
%TO.P,U10,D2,REF*%
%TO.N,REF*%
X139300000Y-80740000D03*
%TO.P,U10,D3,REF*%
X139300000Y-79940000D03*
%TO.P,U10,D4,GND*%
%TO.N,GND*%
X139300000Y-79140000D03*
%TO.P,U10,D5,GND*%
X139300000Y-78340000D03*
%TO.P,U10,D6,IOGND*%
X139300000Y-77540000D03*
%TO.P,U10,D7,SDO2*%
%TO.N,unconnected-(U10A-SDO2-PadD7)*%
X139300000Y-76740000D03*
%TO.P,U10,D8,SDO0*%
%TO.N,MISO0*%
X139300000Y-75940000D03*
%TO.P,U10,E1,GND*%
%TO.N,GND*%
X140100000Y-81540000D03*
%TO.P,U10,E2,REF*%
%TO.N,REF*%
X140100000Y-80740000D03*
%TO.P,U10,E3,REF*%
X140100000Y-79940000D03*
%TO.P,U10,E4,GND*%
%TO.N,GND*%
X140100000Y-79140000D03*
%TO.P,U10,E5,GND*%
X140100000Y-78340000D03*
%TO.P,U10,E6,IOGND*%
X140100000Y-77540000D03*
%TO.P,U10,E7,IOGND*%
X140100000Y-76740000D03*
%TO.P,U10,E8,BUSY*%
%TO.N,BUSY*%
X140100000Y-75940000D03*
%TO.P,U10,F1,IN1+*%
%TO.N,/ADC Driver Stage - Final Buffer CH B/Filtered_IN+*%
X140900000Y-81540000D03*
%TO.P,U10,F2,GND*%
%TO.N,GND*%
X140900000Y-80740000D03*
%TO.P,U10,F3,GND*%
X140900000Y-79940000D03*
%TO.P,U10,F4,GND*%
X140900000Y-79140000D03*
%TO.P,U10,F5,GND*%
X140900000Y-78340000D03*
%TO.P,U10,F6,IOGND*%
X140900000Y-77540000D03*
%TO.P,U10,F7,SDO6*%
%TO.N,unconnected-(U10A-SDO6-PadF7)*%
X140900000Y-76740000D03*
%TO.P,U10,F8,SDO4*%
%TO.N,unconnected-(U10A-SDO4-PadF8)*%
X140900000Y-75940000D03*
%TO.P,U10,G1,IN1-*%
%TO.N,/ADC Driver Stage - Final Buffer CH B/Filtered_IN-*%
X141700000Y-81540000D03*
%TO.P,U10,G2,GND*%
%TO.N,GND*%
X141700000Y-80740000D03*
%TO.P,U10,G3,VDD_1.8V*%
%TO.N,+1.8V*%
X141700000Y-79940000D03*
%TO.P,U10,G4,GND*%
%TO.N,GND*%
X141700000Y-79140000D03*
%TO.P,U10,G5,GND*%
X141700000Y-78340000D03*
%TO.P,U10,G6,IOGND*%
X141700000Y-77540000D03*
%TO.P,U10,G7,SDO7*%
%TO.N,unconnected-(U10A-SDO7-PadG7)*%
X141700000Y-76740000D03*
%TO.P,U10,G8,SDO5*%
%TO.N,unconnected-(U10A-SDO5-PadG8)*%
X141700000Y-75940000D03*
%TO.P,U10,H1,GND*%
%TO.N,GND*%
X142500000Y-81540000D03*
%TO.P,U10,H2,GND*%
X142500000Y-80740000D03*
%TO.P,U10,H3,VDD_1.8V*%
%TO.N,+1.8V*%
X142500000Y-79940000D03*
%TO.P,U10,H4,GND*%
%TO.N,GND*%
X142500000Y-79140000D03*
%TO.P,U10,H5,CS\u002A*%
%TO.N,{slash}CS*%
X142500000Y-78340000D03*
%TO.P,U10,H6,SDI*%
%TO.N,MOSI*%
X142500000Y-77540000D03*
%TO.P,U10,H7,SCK*%
%TO.N,SCK*%
X142500000Y-76740000D03*
%TO.P,U10,H8,IOGND*%
%TO.N,GND*%
X142500000Y-75940000D03*
%TD*%
D21*
%TO.P,R1,1*%
%TO.N,/ADC Driver Stage - Final Buffer CH A/External_IN+*%
X137975000Y-62825000D03*
%TO.P,R1,2*%
%TO.N,GND*%
X137975000Y-64475000D03*
%TD*%
D33*
%TO.P,C65,1*%
%TO.N,/ADC Driver Stage - Final Buffer CH A/Filtered_IN+*%
X127635000Y-77610000D03*
%TO.P,C65,2*%
%TO.N,GND*%
X127635000Y-76060000D03*
%TD*%
%TO.P,C39,1*%
%TO.N,+1.8V*%
X147320000Y-77470000D03*
%TO.P,C39,2*%
%TO.N,GND*%
X147320000Y-75920000D03*
%TD*%
D10*
%TO.P,FB14,1*%
%TO.N,Net-(U14B-+VCLAMP)*%
X154679999Y-83185000D03*
%TO.P,FB14,2*%
%TO.N,+5.4V*%
X152929999Y-83185000D03*
%TD*%
%TO.P,FB12,1*%
%TO.N,Net-(U13B-+VCLAMP)*%
X110095000Y-83820000D03*
%TO.P,FB12,2*%
%TO.N,+5.4V*%
X108345000Y-83820000D03*
%TD*%
%TO.P,FB13,1*%
%TO.N,Net-(U13B--VCLAMP)*%
X117475000Y-83820000D03*
%TO.P,FB13,2*%
%TO.N,-5.4V*%
X115725000Y-83820000D03*
%TD*%
D57*
%TO.P,R71,1*%
%TO.N,/Trigger Circuit/CNV_EXT_RAW*%
X168910000Y-109220000D03*
%TO.P,R71,2*%
%TO.N,GND*%
X168910000Y-112320000D03*
%TD*%
D18*
%TO.P,R45,1*%
%TO.N,Net-(C59-Pad1)*%
X107950000Y-66865000D03*
%TO.P,R45,2*%
%TO.N,/ADC Driver Stage - Final Buffer CH A/External_IN-*%
X107950000Y-65215000D03*
%TD*%
D17*
%TO.P,R41,1*%
%TO.N,Net-(U12B-+IN2)*%
X147320000Y-67230000D03*
%TO.P,R41,2*%
%TO.N,/ADC Driver Stage - Final Buffer CH B/External_IN-*%
X147320000Y-65405000D03*
%TD*%
D58*
%TO.P,R40,1*%
%TO.N,/ADC Driver Stage - Final Buffer CH B/External_IN+*%
X176530000Y-65405000D03*
%TO.P,R40,2*%
%TO.N,Net-(U12A-+IN1)*%
X176530000Y-67230000D03*
%TD*%
%TO.P,R36,1*%
%TO.N,/ADC Driver Stage - Final Buffer CH A/External_IN+*%
X132080000Y-65405000D03*
%TO.P,R36,2*%
%TO.N,Net-(U11A-+IN1)*%
X132080000Y-67230000D03*
%TD*%
D59*
%TO.N,+5.4V*%
X178435000Y-85090000D03*
X151130000Y-83820000D03*
X93345000Y-115570000D03*
X102870000Y-75565000D03*
X106680000Y-83820000D03*
%TO.N,GND*%
X148590000Y-75565000D03*
X96520000Y-95250000D03*
X146050000Y-93345000D03*
X120332500Y-61277500D03*
X97790000Y-95250000D03*
X189897500Y-95805000D03*
X110532519Y-69560945D03*
X158750000Y-101600000D03*
X151765000Y-81280000D03*
X127000000Y-105410000D03*
X176530000Y-98425000D03*
X146050000Y-75565000D03*
X136525000Y-65405000D03*
X154940000Y-69850000D03*
X168910000Y-99695000D03*
X133985000Y-100965000D03*
X158115000Y-85090000D03*
X146050000Y-94615000D03*
X99060000Y-91440000D03*
X168910000Y-67310000D03*
X144780000Y-88265000D03*
X125730000Y-83185000D03*
X130175000Y-106680000D03*
X177310701Y-106680000D03*
X124460000Y-67310000D03*
X138430000Y-83185000D03*
X149225000Y-104775000D03*
X144145000Y-109855000D03*
X158750000Y-117475000D03*
X140335000Y-93980000D03*
X176530000Y-78105000D03*
X137795000Y-66040000D03*
X109855000Y-104775000D03*
X107315000Y-80010000D03*
X190500000Y-108585000D03*
X161925000Y-65405000D03*
X118110000Y-65405000D03*
X154940000Y-79375000D03*
X113665000Y-105410000D03*
X186055000Y-111355000D03*
X154940000Y-112395000D03*
X98425000Y-105410000D03*
X161925000Y-98425000D03*
X139700000Y-116840000D03*
X168910000Y-69215000D03*
X188595000Y-84455000D03*
X126365000Y-83185000D03*
X131445000Y-83185000D03*
X171450000Y-112395000D03*
X153035000Y-88900000D03*
X186690000Y-95202500D03*
X117663424Y-116205000D03*
X153040001Y-98419999D03*
X144145000Y-70485000D03*
X111125000Y-108585000D03*
X118745000Y-102870000D03*
X181610000Y-65405000D03*
X176530000Y-71755000D03*
X158750000Y-61595000D03*
X141605000Y-100965000D03*
X163114885Y-104148008D03*
X144145000Y-73660000D03*
X159385000Y-106680000D03*
X127635000Y-104775000D03*
X147320000Y-71755000D03*
X125095000Y-93345000D03*
X125730000Y-95250000D03*
X149860000Y-107950000D03*
X108585000Y-95885000D03*
X186690000Y-103505000D03*
X132080000Y-71755000D03*
X133985000Y-88557479D03*
X120899570Y-101369241D03*
X162560000Y-106680000D03*
X113030000Y-101600000D03*
X136525000Y-88265000D03*
X194310000Y-102870000D03*
X88710000Y-65405000D03*
X123190000Y-85725000D03*
X101600000Y-60960000D03*
X128905000Y-110490000D03*
X189865000Y-109220000D03*
X121285000Y-85725000D03*
X110490000Y-67310000D03*
X165100000Y-61595000D03*
X111125000Y-79375000D03*
X102682655Y-116205000D03*
X134620000Y-104140000D03*
X161925000Y-118110000D03*
X180340000Y-65405000D03*
X113665000Y-85725000D03*
X157480000Y-107950000D03*
X171450000Y-116840000D03*
X113030000Y-74930000D03*
X125730000Y-77470000D03*
X137160000Y-112395000D03*
X101600000Y-110490000D03*
X110490000Y-112395000D03*
X158115000Y-73025000D03*
X163195000Y-106045000D03*
X135890000Y-107950000D03*
X190500000Y-65405000D03*
X103505000Y-99695000D03*
X158750000Y-106045000D03*
X114617500Y-60642500D03*
X145732500Y-61277500D03*
X191135000Y-116205000D03*
X180975000Y-99060000D03*
X160655000Y-65405000D03*
X88265000Y-116205000D03*
X125095000Y-111125000D03*
X130810000Y-95885000D03*
X97155000Y-105410000D03*
X133032500Y-61277500D03*
X125730000Y-66675000D03*
X158115000Y-92075000D03*
X185420000Y-100965000D03*
X177800000Y-61595000D03*
X133985000Y-86995000D03*
X165735000Y-85090000D03*
X109855000Y-92075000D03*
X128905000Y-92710000D03*
X102235000Y-71755000D03*
X125095000Y-100965000D03*
X161290000Y-113030000D03*
X143510000Y-67310000D03*
X103505000Y-98425000D03*
X144780000Y-103505000D03*
X162560000Y-89535000D03*
X132046353Y-77816074D03*
X116840000Y-64770000D03*
X135255000Y-85725000D03*
X116840000Y-87630000D03*
X192437500Y-102790000D03*
X165100000Y-72390000D03*
X169545000Y-86360000D03*
X158115000Y-90805000D03*
X184150000Y-116840000D03*
X160020000Y-98425000D03*
X154940000Y-67945000D03*
X87630000Y-98425000D03*
X173990000Y-85090000D03*
X106045000Y-71120000D03*
X147955000Y-87630000D03*
X124074570Y-101369241D03*
X135255000Y-110490000D03*
X149225000Y-88900000D03*
X164465000Y-111760000D03*
X113030000Y-100330000D03*
X170180000Y-103505000D03*
X133350000Y-72390000D03*
X128905000Y-75565000D03*
X147320000Y-88900000D03*
X141605000Y-103505000D03*
X170815000Y-98425000D03*
X151765000Y-113030000D03*
X136525000Y-94615000D03*
X100965000Y-115570000D03*
X128270000Y-103505000D03*
X110490000Y-71120000D03*
X180975000Y-106680000D03*
X102235000Y-95250000D03*
%TO.N,+3.3V*%
X130175000Y-92710000D03*
X163195000Y-100330000D03*
X147955000Y-106045000D03*
X137160000Y-107315000D03*
X128270000Y-96994000D03*
X165735000Y-102870000D03*
X162560000Y-92075000D03*
X120650000Y-109220000D03*
X156845000Y-103505000D03*
X164465000Y-92075000D03*
X154940000Y-110490000D03*
X131445000Y-90170000D03*
X129540000Y-99695000D03*
X122555000Y-97790000D03*
X119380000Y-105410000D03*
X138430000Y-95250000D03*
X118110000Y-104775000D03*
X131445000Y-104775000D03*
X151130000Y-93345000D03*
%TO.N,+6V*%
X101600000Y-87630000D03*
X104775000Y-85725000D03*
X100330000Y-86360000D03*
X156210000Y-101600000D03*
X120015000Y-107315000D03*
%TO.N,-6V*%
X144780000Y-112395000D03*
X86995000Y-95250000D03*
%TO.N,+1.8V*%
X139065000Y-88265000D03*
X151646612Y-95885000D03*
X128905000Y-74295000D03*
X135255000Y-71755000D03*
X148590000Y-78105000D03*
X158750000Y-93980000D03*
X106045000Y-113665000D03*
X158750000Y-92710000D03*
%TO.N,-5.4V*%
X160020000Y-85725000D03*
X130175000Y-79375000D03*
X117475000Y-82550000D03*
X167640000Y-88900000D03*
X117475000Y-86360000D03*
X154305000Y-78105000D03*
%TO.N,REF_5V*%
X106045000Y-81280000D03*
X112395000Y-81915000D03*
X133985000Y-79375000D03*
X139700000Y-72390000D03*
%TO.N,+5V*%
X135255000Y-86995000D03*
X142875000Y-99695000D03*
X135255000Y-78740000D03*
%TO.N,Net-(U11B-+IN2)*%
X100965000Y-68580000D03*
%TO.N,Net-(U11A-+IN1)*%
X130810000Y-69215000D03*
%TO.N,/ADC Driver Stage - Final Buffer CH A/Filtered_IN+*%
X130175000Y-78105000D03*
%TO.N,/ADC Driver Stage - Final Buffer CH A/Filtered_IN-*%
X109855000Y-80010000D03*
%TO.N,Net-(U12B-+IN2)*%
X145415000Y-69850000D03*
%TO.N,Net-(U12A-+IN1)*%
X178435000Y-68580000D03*
%TO.N,/ADC Driver Stage - Final Buffer CH B/Filtered_IN+*%
X154305000Y-81280000D03*
%TO.N,/ADC Driver Stage - Final Buffer CH B/Filtered_IN-*%
X162560000Y-78105000D03*
X172720000Y-76200000D03*
X151130000Y-78105000D03*
%TO.N,Net-(U13B-+VCLAMP)*%
X120015000Y-75565000D03*
X113905000Y-83185000D03*
X114935000Y-74295000D03*
%TO.N,Net-(U13B--VCLAMP)*%
X120650000Y-74295000D03*
X123190000Y-82550000D03*
%TO.N,Net-(U14A-VOCM)*%
X158750000Y-74930000D03*
X141605000Y-73025000D03*
%TO.N,Net-(U14B-+VCLAMP)*%
X164599999Y-74930000D03*
X158489999Y-82550000D03*
X159519999Y-73660000D03*
%TO.N,Net-(U14B--VCLAMP)*%
X165869999Y-82550000D03*
X165234999Y-73660000D03*
%TO.N,{slash}RESET_MCU*%
X161925000Y-88900000D03*
%TO.N,/MCU-FPGA/BOOT*%
X135890000Y-92075000D03*
X118745000Y-90805000D03*
%TO.N,{slash}RESET*%
X135255000Y-76740000D03*
%TO.N,REF*%
X139700000Y-84455000D03*
%TO.N,SCK*%
X144145000Y-76835000D03*
X147955000Y-80645000D03*
%TO.N,MOSI*%
X144145000Y-77540000D03*
%TO.N,{slash}CS*%
X144780000Y-78740000D03*
%TO.N,BUSY*%
X140970000Y-74295000D03*
%TO.N,Net-(U15-A6)*%
X157480000Y-88265000D03*
X156210000Y-89535000D03*
%TO.N,CNV*%
X134612151Y-76836174D03*
%TO.N,Trig_Detect*%
X144145000Y-97790000D03*
X167640000Y-106045000D03*
X149860000Y-99695000D03*
X167640000Y-99060000D03*
%TO.N,Manual_Trigger*%
X153035000Y-100965000D03*
X155575000Y-104140000D03*
%TO.N,{slash}CS_MCU*%
X146050000Y-100330000D03*
%TO.N,MOSI_MCU*%
X146050000Y-99060000D03*
%TO.N,SCK_MCU*%
X135255000Y-103505000D03*
%TO.N,BUSY_MCU*%
X162560000Y-90805000D03*
X165100000Y-91440000D03*
X151765000Y-103505000D03*
%TO.N,MISO0_MCU*%
X140970000Y-95250000D03*
%TO.N,MISO0*%
X139700000Y-74295000D03*
%TO.N,CNV_3.3*%
X157624627Y-101601001D03*
%TO.N,Net-(U10B-REFIN)*%
X135255000Y-80010000D03*
%TD*%
D60*
%TO.N,/Trigger Circuit/CNV_EXT_RAW*%
X169545000Y-108585000D02*
X168910000Y-109220000D01*
X173990000Y-108585000D02*
X169545000Y-108585000D01*
%TO.N,+5.4V*%
X151130000Y-83820000D02*
X151765000Y-83185000D01*
X95094845Y-117319845D02*
X93345000Y-115570000D01*
X92744845Y-107646311D02*
X95004845Y-109906311D01*
X95284845Y-102368861D02*
X95284845Y-104191311D01*
X106680000Y-83820000D02*
X108345000Y-83820000D01*
X95284845Y-104191311D02*
X92744845Y-106731311D01*
X94649845Y-110261311D02*
X95004845Y-109906311D01*
X95094845Y-117526311D02*
X92109845Y-117526311D01*
X94649845Y-113699845D02*
X94649845Y-112446311D01*
X151765000Y-83185000D02*
X152929999Y-83185000D01*
X95284845Y-114986311D02*
X95284845Y-114334845D01*
X95284845Y-114334845D02*
X94649845Y-113699845D01*
X95094845Y-117526311D02*
X95094845Y-117319845D01*
X95094845Y-115176311D02*
X95284845Y-114986311D01*
X95094845Y-117526311D02*
X95094845Y-115176311D01*
X94649845Y-112446311D02*
X94649845Y-110261311D01*
X92744845Y-106731311D02*
X92744845Y-107646311D01*
%TO.N,GND*%
X146050000Y-93311888D02*
X146050000Y-93345000D01*
X183515000Y-116205000D02*
X184150000Y-116840000D01*
X155605000Y-90485000D02*
X154620000Y-90485000D01*
X158115000Y-60960000D02*
X158750000Y-61595000D01*
X157480000Y-84455000D02*
X158115000Y-85090000D01*
X139300000Y-81540000D02*
X138500000Y-80740000D01*
X194310000Y-98710000D02*
X194310000Y-94210000D01*
X97824845Y-104740155D02*
X97155000Y-105410000D01*
X123740000Y-100045000D02*
X123740000Y-101034671D01*
X134605000Y-90170000D02*
X134605000Y-89177479D01*
X146050000Y-60960000D02*
X145732500Y-61277500D01*
X157480000Y-106605000D02*
X158190000Y-106605000D01*
X109759476Y-103186988D02*
X109759476Y-104679476D01*
X170034999Y-67945000D02*
X169545000Y-67945000D01*
X191225000Y-85725000D02*
X190270000Y-85725000D01*
X109386576Y-93345000D02*
X109386576Y-92543424D01*
X120170000Y-85725000D02*
X119535000Y-85090000D01*
X127821908Y-93793092D02*
X128905000Y-92710000D01*
X192025743Y-65211384D02*
X190693616Y-65211384D01*
X111315000Y-78105000D02*
X111315000Y-79185000D01*
X131270000Y-96345000D02*
X130810000Y-95885000D01*
X147320000Y-70485000D02*
X147320000Y-71755000D01*
X136900000Y-79140000D02*
X137700000Y-79140000D01*
X127000000Y-104685000D02*
X126455000Y-104140000D01*
X115290000Y-105410000D02*
X113665000Y-105410000D01*
X142500000Y-80740000D02*
X140900000Y-80740000D01*
X169934999Y-69850000D02*
X169545000Y-69850000D01*
X131250000Y-60960000D02*
X132715000Y-60960000D01*
X109759476Y-104679476D02*
X109855000Y-104775000D01*
X133070000Y-72670000D02*
X133350000Y-72390000D01*
X101752500Y-117135155D02*
X102682655Y-116205000D01*
X169545000Y-67945000D02*
X168910000Y-67310000D01*
X109360000Y-68580000D02*
X109360000Y-68440000D01*
X113947500Y-61312500D02*
X114617500Y-60642500D01*
X155575000Y-111760000D02*
X154940000Y-112395000D01*
X102870000Y-70445000D02*
X102870000Y-71120000D01*
X150003005Y-90230000D02*
X149656332Y-89883327D01*
X109608464Y-70485000D02*
X110532519Y-69560945D01*
X97824845Y-97123761D02*
X97824845Y-95284845D01*
X117145000Y-117368238D02*
X117145000Y-116723424D01*
X116840000Y-88900000D02*
X116840000Y-87630000D01*
X132080000Y-70459827D02*
X132080000Y-71755000D01*
X132430000Y-100845000D02*
X133865000Y-100845000D01*
X110301576Y-109408424D02*
X111125000Y-108585000D01*
X101600000Y-111125000D02*
X101600000Y-110490000D01*
X162560000Y-117475000D02*
X161925000Y-118110000D01*
X160655000Y-64135000D02*
X160655000Y-65405000D01*
X96554845Y-95284845D02*
X96520000Y-95250000D01*
X126365000Y-95885000D02*
X125730000Y-95250000D01*
X124460000Y-69595000D02*
X124460000Y-69215000D01*
X186093100Y-110067500D02*
X186093100Y-111316900D01*
X169545000Y-69850000D02*
X168910000Y-69215000D01*
X165099999Y-84454999D02*
X165735000Y-85090000D01*
X145605000Y-104330000D02*
X144780000Y-103505000D01*
X128625000Y-102235000D02*
X128625000Y-103150000D01*
X142523155Y-68296845D02*
X143510000Y-67310000D01*
X192215000Y-116205000D02*
X191135000Y-116205000D01*
X125350000Y-70485000D02*
X124460000Y-69595000D01*
X112200000Y-61312500D02*
X113947500Y-61312500D01*
X142875000Y-71755000D02*
X144145000Y-70485000D01*
X117145000Y-116723424D02*
X117663424Y-116205000D01*
X109666576Y-113218424D02*
X110490000Y-112395000D01*
X109410000Y-70485000D02*
X109608464Y-70485000D01*
X141700000Y-77540000D02*
X140900000Y-77540000D01*
X121285000Y-85725000D02*
X120170000Y-85725000D01*
X140900000Y-77540000D02*
X137700000Y-77540000D01*
X147955000Y-109180000D02*
X148630000Y-109180000D01*
X131902958Y-76695731D02*
X131902958Y-77672679D01*
X162560000Y-106680000D02*
X161920000Y-107320000D01*
X100381311Y-114986311D02*
X100965000Y-115570000D01*
X125730000Y-66675000D02*
X125730000Y-67385000D01*
X164119999Y-84454999D02*
X165099999Y-84454999D01*
X101752500Y-117526311D02*
X101752500Y-117135155D01*
X138500000Y-77540000D02*
X138500000Y-80740000D01*
X147780000Y-92345000D02*
X147016888Y-92345000D01*
X133865000Y-100845000D02*
X133985000Y-100965000D01*
X149656332Y-89331332D02*
X149225000Y-88900000D01*
X168910000Y-112320000D02*
X171375000Y-112320000D01*
X158190000Y-106605000D02*
X158750000Y-106045000D01*
X88630000Y-97425000D02*
X87630000Y-98425000D01*
X146405000Y-75920000D02*
X146050000Y-75565000D01*
X116840000Y-63705000D02*
X116840000Y-64770000D01*
X137975000Y-65860000D02*
X137795000Y-66040000D01*
X155890000Y-92075000D02*
X158115000Y-92075000D01*
X134105000Y-104655000D02*
X134620000Y-104140000D01*
X97824845Y-95284845D02*
X97790000Y-95250000D01*
X86995000Y-116205000D02*
X88265000Y-116205000D01*
X134605000Y-89177479D02*
X133985000Y-88557479D01*
X126365000Y-110135000D02*
X126085000Y-110135000D01*
X158750000Y-101600000D02*
X158750000Y-101510000D01*
X109666576Y-114193238D02*
X109666576Y-113218424D01*
X165735000Y-60960000D02*
X165100000Y-61595000D01*
X127821908Y-94202384D02*
X127821908Y-93793092D01*
X172085000Y-116205000D02*
X171450000Y-116840000D01*
X103700000Y-61312500D02*
X101952500Y-61312500D01*
X156739999Y-84455000D02*
X157480000Y-84455000D01*
X140900000Y-80740000D02*
X140900000Y-79140000D01*
X189770000Y-85630000D02*
X188595000Y-84455000D01*
X167200000Y-60960000D02*
X165735000Y-60960000D01*
X190502500Y-96410000D02*
X189897500Y-95805000D01*
X153944999Y-67945000D02*
X154940000Y-67945000D01*
X141700000Y-79140000D02*
X141700000Y-77540000D01*
X132430000Y-96345000D02*
X131270000Y-96345000D01*
X189230000Y-106965000D02*
X189230000Y-107315000D01*
X109759476Y-97738688D02*
X108489476Y-97738688D01*
X134105000Y-105520000D02*
X134105000Y-104655000D01*
X161925000Y-64325000D02*
X161925000Y-65405000D01*
X180340000Y-64135000D02*
X180340000Y-65405000D01*
X145605000Y-105520000D02*
X145605000Y-104330000D01*
X173550000Y-116205000D02*
X172085000Y-116205000D01*
X182050000Y-116205000D02*
X183515000Y-116205000D01*
X97599845Y-112446311D02*
X100278689Y-112446311D01*
X96554845Y-97123761D02*
X96554845Y-95284845D01*
X191610000Y-96410000D02*
X190502500Y-96410000D01*
X139300000Y-81540000D02*
X140100000Y-81540000D01*
X123740000Y-101034671D02*
X124074570Y-101369241D01*
X108489476Y-97738688D02*
X108489476Y-95980524D01*
X194310000Y-100610000D02*
X194310000Y-102870000D01*
X127635000Y-82830000D02*
X126720000Y-82830000D01*
X158750000Y-101510000D02*
X159340000Y-100920000D01*
X168571268Y-100033732D02*
X168910000Y-99695000D01*
X126720000Y-82830000D02*
X126365000Y-83185000D01*
X149860000Y-76060000D02*
X149085000Y-76060000D01*
X139300000Y-82315000D02*
X138430000Y-83185000D01*
X186093100Y-111316900D02*
X186055000Y-111355000D01*
X149860000Y-82830000D02*
X150215000Y-82830000D01*
X134682537Y-109148058D02*
X134682537Y-109917537D01*
X96834845Y-114986311D02*
X100381311Y-114986311D01*
X148630000Y-109180000D02*
X149860000Y-107950000D01*
X133630000Y-87350000D02*
X133985000Y-86995000D01*
X113030000Y-85090000D02*
X113665000Y-85725000D01*
X153994999Y-69850000D02*
X154940000Y-69850000D01*
X136900000Y-78340000D02*
X137700000Y-78340000D01*
X126085000Y-110135000D02*
X125095000Y-111125000D01*
X132715000Y-87350000D02*
X133630000Y-87350000D01*
X154620000Y-90485000D02*
X153670000Y-89535000D01*
X125450000Y-67665000D02*
X125450000Y-68580000D01*
X127000000Y-105410000D02*
X127000000Y-104685000D01*
X161925000Y-104050000D02*
X162023008Y-104148008D01*
X147016888Y-92345000D02*
X146050000Y-93311888D01*
X181610000Y-64437500D02*
X181610000Y-65405000D01*
X161920000Y-107320000D02*
X161920000Y-108480000D01*
X131902958Y-77672679D02*
X132046353Y-77816074D01*
X147320000Y-75920000D02*
X146405000Y-75920000D01*
X190500000Y-85630000D02*
X189770000Y-85630000D01*
X90170000Y-97425000D02*
X88630000Y-97425000D01*
X177165000Y-60960000D02*
X177800000Y-61595000D01*
X144465000Y-109535000D02*
X144145000Y-109855000D01*
X140900000Y-79140000D02*
X140900000Y-77540000D01*
X142500000Y-75940000D02*
X144145000Y-74295000D01*
X149656332Y-89883327D02*
X148303327Y-89883327D01*
X134682537Y-109917537D02*
X135255000Y-110490000D01*
X156845000Y-111760000D02*
X155575000Y-111760000D01*
X120650000Y-60960000D02*
X120332500Y-61277500D01*
X149085000Y-76060000D02*
X148590000Y-75565000D01*
X97824845Y-102368861D02*
X97824845Y-104740155D01*
X139300000Y-79140000D02*
X139300000Y-77540000D01*
X136900000Y-81540000D02*
X137700000Y-80740000D01*
X120899570Y-101369241D02*
X120650000Y-101119671D01*
X127635000Y-76060000D02*
X128410000Y-76060000D01*
X149656332Y-89883327D02*
X149656332Y-89331332D01*
X120650000Y-99925000D02*
X120650000Y-101119671D01*
X98425000Y-92075000D02*
X99060000Y-91440000D01*
X166225055Y-100033732D02*
X168571268Y-100033732D01*
X98839845Y-105824845D02*
X98425000Y-105410000D01*
X161920000Y-109130000D02*
X161920000Y-108480000D01*
X142500000Y-79140000D02*
X141700000Y-79140000D01*
X97295000Y-92075000D02*
X98425000Y-92075000D01*
X128625000Y-103150000D02*
X128270000Y-103505000D01*
X151795000Y-90230000D02*
X150003005Y-90230000D01*
X118110000Y-63705000D02*
X118110000Y-65405000D01*
X139300000Y-81540000D02*
X139300000Y-82315000D01*
X124460000Y-69215000D02*
X124460000Y-67310000D01*
X156650000Y-60960000D02*
X158115000Y-60960000D01*
X111218156Y-75259827D02*
X112700173Y-75259827D01*
X186690000Y-96937500D02*
X186690000Y-95202500D01*
X171375000Y-112320000D02*
X171450000Y-112395000D01*
X175700000Y-60960000D02*
X177165000Y-60960000D01*
X162560000Y-116205000D02*
X162560000Y-117475000D01*
X122750000Y-60960000D02*
X120650000Y-60960000D01*
X110301576Y-110383238D02*
X110301576Y-109408424D01*
X101952500Y-61312500D02*
X101600000Y-60960000D01*
X186690000Y-99212500D02*
X186690000Y-99695000D01*
X109386576Y-92543424D02*
X109855000Y-92075000D01*
X109360000Y-68440000D02*
X110490000Y-67310000D01*
X100278689Y-112446311D02*
X100330000Y-112395000D01*
X140100000Y-76740000D02*
X140100000Y-79140000D01*
X112700173Y-75259827D02*
X113030000Y-74930000D01*
X146050000Y-109535000D02*
X144465000Y-109535000D01*
X153670000Y-89535000D02*
X153035000Y-88900000D01*
X111315000Y-79185000D02*
X111125000Y-79375000D01*
X133070000Y-73660000D02*
X133070000Y-72670000D01*
X144145000Y-74295000D02*
X144145000Y-73660000D01*
X127355000Y-95885000D02*
X126365000Y-95885000D01*
X142619999Y-71755000D02*
X142875000Y-71755000D01*
X150215000Y-82830000D02*
X151765000Y-81280000D01*
X112155000Y-85090000D02*
X113030000Y-85090000D01*
X148150000Y-60960000D02*
X146050000Y-60960000D01*
X100330000Y-112395000D02*
X101600000Y-111125000D01*
X162023008Y-104148008D02*
X163114885Y-104148008D01*
X142523155Y-68909827D02*
X142523155Y-68296845D01*
X176530000Y-70485000D02*
X176530000Y-71755000D01*
X91832500Y-81645000D02*
X96792256Y-81645000D01*
X86995000Y-65405000D02*
X88710000Y-65405000D01*
X148303327Y-89883327D02*
X147320000Y-88900000D01*
X159340000Y-100920000D02*
X160020000Y-100920000D01*
X137700000Y-80740000D02*
X138500000Y-80740000D01*
X98839845Y-106731311D02*
X98839845Y-105824845D01*
X108489476Y-95980524D02*
X108585000Y-95885000D01*
X128410000Y-76060000D02*
X128905000Y-75565000D01*
X142500000Y-81540000D02*
X142500000Y-80740000D01*
X96792256Y-81645000D02*
X97669546Y-80767710D01*
X132715000Y-60960000D02*
X133032500Y-61277500D01*
X190500000Y-65405000D02*
X190693616Y-65211384D01*
X137700000Y-76740000D02*
X137700000Y-79140000D01*
X194310000Y-101210000D02*
X194310000Y-98710000D01*
X189230000Y-107315000D02*
X190500000Y-108585000D01*
X186690000Y-99695000D02*
X185420000Y-100965000D01*
X154620000Y-93345000D02*
X155890000Y-92075000D01*
X137975000Y-64475000D02*
X137975000Y-65860000D01*
X102870000Y-71120000D02*
X102235000Y-71755000D01*
X125730000Y-67385000D02*
X125450000Y-67665000D01*
X136525000Y-63920000D02*
X136525000Y-65405000D01*
%TO.N,+3.3V*%
X120650000Y-98375000D02*
X121970000Y-98375000D01*
X160050000Y-91120000D02*
X161605000Y-91120000D01*
X161920000Y-99620000D02*
X163195000Y-99620000D01*
X148191673Y-91433327D02*
X147780000Y-91845000D01*
X134682537Y-107598058D02*
X134682537Y-105597537D01*
X132430000Y-96845000D02*
X129865000Y-96845000D01*
X157925000Y-109130000D02*
X160020000Y-109130000D01*
X128905000Y-95885000D02*
X128270000Y-96520000D01*
X160370000Y-91440000D02*
X160050000Y-91120000D01*
X157480000Y-105055000D02*
X157480000Y-104140000D01*
X157480000Y-104140000D02*
X156845000Y-103505000D01*
X164675055Y-101810055D02*
X165735000Y-102870000D01*
X129865000Y-96845000D02*
X128905000Y-95885000D01*
X164675055Y-100033732D02*
X164675055Y-101810055D01*
X149656332Y-91871332D02*
X149656332Y-91433327D01*
X129371908Y-93513092D02*
X130175000Y-92710000D01*
X121970000Y-98375000D02*
X122555000Y-97790000D01*
X147955000Y-107630000D02*
X147955000Y-106045000D01*
X147955000Y-107630000D02*
X147955000Y-107370000D01*
X122315000Y-108585000D02*
X121285000Y-108585000D01*
X134965595Y-107315000D02*
X137160000Y-107315000D01*
X147955000Y-107370000D02*
X146105000Y-105520000D01*
X159730000Y-105055000D02*
X160025000Y-105350000D01*
X132835000Y-88900000D02*
X134105000Y-90170000D01*
X130565000Y-101845000D02*
X130175000Y-102235000D01*
X161605000Y-91120000D02*
X162560000Y-92075000D01*
X156845000Y-110210000D02*
X157925000Y-109130000D01*
X122640000Y-99245000D02*
X121520000Y-99245000D01*
X151130000Y-93345000D02*
X149656332Y-91871332D01*
X157480000Y-105055000D02*
X159730000Y-105055000D01*
X134682537Y-107598058D02*
X134965595Y-107315000D01*
X116840000Y-105410000D02*
X117475000Y-105410000D01*
X132080000Y-90170000D02*
X131445000Y-90170000D01*
X122640000Y-100045000D02*
X122640000Y-99245000D01*
X128270000Y-96520000D02*
X128270000Y-96994000D01*
X132430000Y-101845000D02*
X130565000Y-101845000D01*
X129514524Y-94345000D02*
X132430000Y-94345000D01*
X156845000Y-110210000D02*
X155220000Y-110210000D01*
X129371908Y-94202384D02*
X129371908Y-93513092D01*
X120270000Y-104140000D02*
X120270000Y-104520000D01*
X130175000Y-103505000D02*
X131445000Y-104775000D01*
X134682537Y-105597537D02*
X134605000Y-105520000D01*
X121285000Y-108585000D02*
X120650000Y-109220000D01*
X164261323Y-99620000D02*
X164675055Y-100033732D01*
X149656332Y-91433327D02*
X148191673Y-91433327D01*
X164465000Y-92075000D02*
X162560000Y-92075000D01*
X163195000Y-99620000D02*
X163195000Y-100330000D01*
X121520000Y-99245000D02*
X120650000Y-98375000D01*
X132715000Y-88900000D02*
X132715000Y-89535000D01*
X120270000Y-104520000D02*
X119380000Y-105410000D01*
X117475000Y-105410000D02*
X118110000Y-104775000D01*
X155220000Y-110210000D02*
X154940000Y-110490000D01*
X163195000Y-99620000D02*
X164261323Y-99620000D01*
X129371908Y-94202384D02*
X129514524Y-94345000D01*
X132715000Y-88900000D02*
X132835000Y-88900000D01*
X132715000Y-89535000D02*
X132080000Y-90170000D01*
X130175000Y-102235000D02*
X130175000Y-103505000D01*
X116840000Y-102300000D02*
X116840000Y-105410000D01*
%TO.N,Net-(U1-BYP)*%
X96554845Y-109906311D02*
X99008689Y-109906311D01*
X100330000Y-108585000D02*
X100330000Y-106045000D01*
X99094845Y-104809845D02*
X99094845Y-102368861D01*
X100330000Y-106045000D02*
X99094845Y-104809845D01*
X99008689Y-109906311D02*
X100330000Y-108585000D01*
%TO.N,+6V*%
X97395000Y-88900000D02*
X97395000Y-84122256D01*
X107481576Y-89295000D02*
X106440000Y-89295000D01*
X97669546Y-83847710D02*
X99087710Y-83847710D01*
X100330000Y-85090000D02*
X100330000Y-86360000D01*
X91832500Y-85145000D02*
X93925000Y-85145000D01*
X95222290Y-83847710D02*
X97669546Y-83847710D01*
X103505000Y-86360000D02*
X100330000Y-86360000D01*
X99087710Y-83847710D02*
X100330000Y-85090000D01*
X106440000Y-89295000D02*
X103505000Y-86360000D01*
X93925000Y-85145000D02*
X95222290Y-83847710D01*
X97395000Y-84122256D02*
X97669546Y-83847710D01*
X104775000Y-85725000D02*
X102897710Y-83847710D01*
X101600000Y-87630000D02*
X100330000Y-86360000D01*
X102897710Y-83847710D02*
X97669546Y-83847710D01*
%TO.N,Net-(U4-\u002ASHDN)*%
X107219476Y-93962100D02*
X107836576Y-93345000D01*
X107836576Y-91400000D02*
X107481576Y-91045000D01*
X107836576Y-93345000D02*
X107836576Y-91400000D01*
X111029476Y-95789476D02*
X110490000Y-95250000D01*
X107219476Y-95250000D02*
X107219476Y-93962100D01*
X111029476Y-97738688D02*
X111029476Y-95789476D01*
X110490000Y-95250000D02*
X107219476Y-95250000D01*
X107219476Y-97738688D02*
X107219476Y-95250000D01*
%TO.N,-6V*%
X90170000Y-94345000D02*
X91832500Y-92682500D01*
X90170000Y-94345000D02*
X87900000Y-94345000D01*
X91832500Y-92682500D02*
X91832500Y-88645000D01*
X87900000Y-94345000D02*
X86995000Y-95250000D01*
%TO.N,+1.8V*%
X144918612Y-79375000D02*
X144145000Y-79375000D01*
X108116576Y-114768424D02*
X108116576Y-114193238D01*
X107488338Y-116840000D02*
X108016576Y-117368238D01*
X108116576Y-114193238D02*
X108116576Y-111148238D01*
X106045000Y-116840000D02*
X108116576Y-114768424D01*
X106045000Y-116840000D02*
X106045000Y-113665000D01*
X107843238Y-106573238D02*
X107315000Y-106045000D01*
X130242150Y-73801973D02*
X129398027Y-73801973D01*
X142500000Y-79940000D02*
X143580000Y-79940000D01*
X147320000Y-77470000D02*
X147955000Y-77470000D01*
X135255000Y-73025000D02*
X135255000Y-71755000D01*
X108585000Y-103282512D02*
X108489476Y-103186988D01*
X147320000Y-77470000D02*
X146823612Y-77470000D01*
X108585000Y-106573238D02*
X107843238Y-106573238D01*
X106045000Y-116840000D02*
X107488338Y-116840000D01*
X137700000Y-75940000D02*
X136900000Y-75940000D01*
X108116576Y-111148238D02*
X107351576Y-110383238D01*
X107351576Y-110383238D02*
X107351576Y-106081576D01*
X107219476Y-105949476D02*
X107219476Y-103186988D01*
X146823612Y-77470000D02*
X144918612Y-79375000D01*
X129398027Y-73801973D02*
X128905000Y-74295000D01*
X107351576Y-106081576D02*
X107315000Y-106045000D01*
X108585000Y-106573238D02*
X108585000Y-103282512D01*
X143580000Y-79940000D02*
X144145000Y-79375000D01*
X107315000Y-106045000D02*
X107219476Y-105949476D01*
X134620000Y-73660000D02*
X136900000Y-75940000D01*
X134620000Y-73660000D02*
X135255000Y-73025000D01*
X141700000Y-79940000D02*
X142500000Y-79940000D01*
X147955000Y-77470000D02*
X148590000Y-78105000D01*
%TO.N,Net-(U4-BYP)*%
X110135000Y-106573238D02*
X111029476Y-105678762D01*
X111029476Y-105678762D02*
X111029476Y-103186988D01*
%TO.N,-5.4V*%
X117475000Y-82550000D02*
X116995000Y-82550000D01*
X116995000Y-82550000D02*
X115725000Y-83820000D01*
X160309999Y-85435001D02*
X160020000Y-85725000D01*
X117475000Y-86360000D02*
X115725000Y-84610000D01*
X115725000Y-84610000D02*
X115725000Y-83820000D01*
X160309999Y-83184999D02*
X160309999Y-85435001D01*
D61*
%TO.N,REF_5V*%
X138685000Y-72390000D02*
X139700000Y-72390000D01*
X105475000Y-80710000D02*
X105475000Y-76835000D01*
X106045000Y-81280000D02*
X105475000Y-80710000D01*
X136780000Y-70485000D02*
X138685000Y-72390000D01*
D60*
%TO.N,+5V*%
X136455000Y-79940000D02*
X135255000Y-78740000D01*
X137700000Y-79940000D02*
X136900000Y-79940000D01*
X136900000Y-79940000D02*
X136455000Y-79940000D01*
X133452958Y-76695731D02*
X133452958Y-76937958D01*
X133452958Y-76937958D02*
X135255000Y-78740000D01*
%TO.N,Net-(U7-VREF+)*%
X129474000Y-105476000D02*
X129474000Y-101781600D01*
X124065000Y-108585000D02*
X126365000Y-108585000D01*
X129474000Y-101781600D02*
X129910600Y-101345000D01*
X129910600Y-101345000D02*
X132430000Y-101345000D01*
X126365000Y-108585000D02*
X129474000Y-105476000D01*
%TO.N,Net-(C26-Pad1)*%
X145105000Y-106690000D02*
X145105000Y-105520000D01*
X146050000Y-107635000D02*
X145105000Y-106690000D01*
%TO.N,Net-(C27-Pad1)*%
X150495000Y-93980000D02*
X149360000Y-92845000D01*
X149360000Y-92845000D02*
X147780000Y-92845000D01*
X152720000Y-93345000D02*
X152085000Y-93980000D01*
X152085000Y-93980000D02*
X150495000Y-93980000D01*
%TO.N,NRST*%
X185442479Y-111856000D02*
X187937521Y-111856000D01*
X128443400Y-111059000D02*
X153662479Y-111059000D01*
X161225479Y-107306000D02*
X163406321Y-105125158D01*
X123190000Y-104140000D02*
X124905000Y-104140000D01*
X123190000Y-108939479D02*
X123684521Y-109434000D01*
X128985000Y-98345000D02*
X132430000Y-98345000D01*
X191130000Y-88630000D02*
X190500000Y-88630000D01*
X192586000Y-90086000D02*
X191130000Y-88630000D01*
X191135000Y-102863648D02*
X192586000Y-101412648D01*
X178711637Y-105125158D02*
X185442479Y-111856000D01*
X123190000Y-104140000D02*
X123190000Y-108939479D01*
X153662479Y-111059000D02*
X157415479Y-107306000D01*
X126818400Y-109434000D02*
X128443400Y-111059000D01*
X123190000Y-104140000D02*
X128985000Y-98345000D01*
X157415479Y-107306000D02*
X161225479Y-107306000D01*
X123684521Y-109434000D02*
X126818400Y-109434000D01*
X192586000Y-101412648D02*
X192586000Y-90086000D01*
X163406321Y-105125158D02*
X178711637Y-105125158D01*
X121920000Y-104140000D02*
X123190000Y-104140000D01*
X191135000Y-108658521D02*
X191135000Y-102863648D01*
X191225000Y-88725000D02*
X190270000Y-88725000D01*
X187937521Y-111856000D02*
X191135000Y-108658521D01*
%TO.N,Net-(U11B-+IN2)*%
X101280000Y-68895000D02*
X100965000Y-68580000D01*
X102870000Y-68895000D02*
X102870000Y-67230000D01*
X102870000Y-68895000D02*
X101280000Y-68895000D01*
%TO.N,Net-(U11A-+IN1)*%
X132080000Y-68909827D02*
X131115173Y-68909827D01*
X132080000Y-68909827D02*
X132080000Y-67230000D01*
X130810000Y-69215000D02*
X131115173Y-68909827D01*
%TO.N,/ADC Driver Stage - Final Buffer CH A/Filtered_IN+*%
X130175000Y-78105000D02*
X130810000Y-78740000D01*
X127635000Y-77610000D02*
X127635000Y-78740000D01*
X122555000Y-78740000D02*
X127635000Y-78740000D01*
X133985000Y-81280000D02*
X135255000Y-81280000D01*
X135969200Y-81994200D02*
X137245800Y-81994200D01*
X130810000Y-78740000D02*
X131445000Y-78740000D01*
X135255000Y-81280000D02*
X135969200Y-81994200D01*
X137245800Y-81994200D02*
X137700000Y-81540000D01*
X131445000Y-78740000D02*
X127635000Y-78740000D01*
X131445000Y-78740000D02*
X133985000Y-81280000D01*
%TO.N,/ADC Driver Stage - Final Buffer CH A/Filtered_IN-*%
X109855000Y-80010000D02*
X121285000Y-80010000D01*
X121904000Y-79359000D02*
X121920000Y-79375000D01*
X121904000Y-77486000D02*
X121904000Y-79359000D01*
X121285000Y-80010000D02*
X121920000Y-79375000D01*
X131445000Y-80010000D02*
X133780200Y-82345200D01*
X122555000Y-76835000D02*
X121904000Y-77486000D01*
X121920000Y-79375000D02*
X122555000Y-80010000D01*
X127635000Y-80010000D02*
X131445000Y-80010000D01*
X122555000Y-80010000D02*
X127635000Y-80010000D01*
X133780200Y-82345200D02*
X137694800Y-82345200D01*
X137694800Y-82345200D02*
X138500000Y-81540000D01*
X127635000Y-80010000D02*
X127635000Y-81280000D01*
%TO.N,Net-(U12B-+IN2)*%
X147320000Y-68935000D02*
X146330000Y-68935000D01*
X147320000Y-68935000D02*
X147320000Y-67230000D01*
X146330000Y-68935000D02*
X145415000Y-69850000D01*
%TO.N,Net-(U12A-+IN1)*%
X176530000Y-68935000D02*
X176530000Y-67230000D01*
X178080000Y-68935000D02*
X178435000Y-68580000D01*
X176530000Y-68935000D02*
X178080000Y-68935000D01*
%TO.N,/ADC Driver Stage - Final Buffer CH B/Filtered_IN+*%
X159195000Y-76835000D02*
X160020000Y-77660000D01*
X153035000Y-80010000D02*
X152400000Y-80010000D01*
X147320000Y-80010000D02*
X144984800Y-82345200D01*
X160020000Y-79375000D02*
X159385000Y-80010000D01*
X144984800Y-82345200D02*
X141705200Y-82345200D01*
X149860000Y-81280000D02*
X149860000Y-80010000D01*
X149860000Y-80010000D02*
X147320000Y-80010000D01*
X152400000Y-80010000D02*
X151765000Y-80010000D01*
X159385000Y-80010000D02*
X152400000Y-80010000D01*
X154305000Y-81280000D02*
X153035000Y-80010000D01*
X160020000Y-77660000D02*
X160020000Y-79375000D01*
X151765000Y-80010000D02*
X149860000Y-80010000D01*
X141705200Y-82345200D02*
X140900000Y-81540000D01*
%TO.N,/ADC Driver Stage - Final Buffer CH B/Filtered_IN-*%
X149860000Y-77610000D02*
X150635000Y-77610000D01*
X146050000Y-78740000D02*
X142795800Y-81994200D01*
X142795800Y-81994200D02*
X142154200Y-81994200D01*
X149860000Y-78740000D02*
X146050000Y-78740000D01*
X164465000Y-76200000D02*
X172720000Y-76200000D01*
X162560000Y-78105000D02*
X164465000Y-76200000D01*
X142154200Y-81994200D02*
X141700000Y-81540000D01*
X159195000Y-78740000D02*
X149860000Y-78740000D01*
X150635000Y-77610000D02*
X151130000Y-78105000D01*
X149860000Y-77610000D02*
X149860000Y-78740000D01*
%TO.N,Net-(C59-Pad1)*%
X107950000Y-72200000D02*
X107760000Y-72390000D01*
X107950000Y-66865000D02*
X107950000Y-72200000D01*
%TO.N,Net-(C60-Pad1)*%
X127140000Y-67005000D02*
X127000000Y-66865000D01*
X127000000Y-68720000D02*
X127140000Y-68580000D01*
X127000000Y-72390000D02*
X127000000Y-70485000D01*
X127140000Y-70345000D02*
X127000000Y-70485000D01*
X127000000Y-70485000D02*
X127000000Y-66865000D01*
%TO.N,Net-(U13A-VOCM)*%
X109665000Y-78105000D02*
X110935000Y-76835000D01*
X109665000Y-75262983D02*
X109668156Y-75259827D01*
X110935000Y-76835000D02*
X115570000Y-76835000D01*
X115570000Y-76835000D02*
X116840000Y-75565000D01*
X109665000Y-76835000D02*
X109665000Y-75262983D01*
X107125000Y-76835000D02*
X109665000Y-76835000D01*
X109665000Y-78105000D02*
X109665000Y-76835000D01*
%TO.N,Net-(U13A-+FB)*%
X112395000Y-69845000D02*
X114690000Y-69845000D01*
X116840000Y-72771000D02*
X116840000Y-72644768D01*
X116840000Y-72644768D02*
X114896524Y-70701292D01*
X114690000Y-69845000D02*
X114935000Y-69600000D01*
X114896524Y-69590290D02*
X114896524Y-70701292D01*
%TO.N,Net-(U13A--IN1)*%
X111122500Y-69217500D02*
X112395000Y-67945000D01*
X112395000Y-67945000D02*
X113030000Y-67945000D01*
X117350077Y-72768265D02*
X117350077Y-70507264D01*
X110490000Y-72385000D02*
X111122500Y-71752500D01*
X109600000Y-72385000D02*
X110490000Y-72385000D01*
X113035000Y-67950000D02*
X114935000Y-67950000D01*
X111122500Y-71752500D02*
X111122500Y-69217500D01*
X117350077Y-70507264D02*
X114790078Y-67947265D01*
X113030000Y-67945000D02*
X113035000Y-67950000D01*
%TO.N,Net-(U13A-+IN1)*%
X123825000Y-71755000D02*
X123825000Y-69220000D01*
X117840001Y-72771000D02*
X117840001Y-70509999D01*
X125350000Y-72390000D02*
X124460000Y-72390000D01*
X122305000Y-67950000D02*
X120400000Y-67950000D01*
X124460000Y-72390000D02*
X123825000Y-71755000D01*
X123825000Y-69220000D02*
X122555000Y-67950000D01*
X117840001Y-70509999D02*
X120400000Y-67950000D01*
%TO.N,Net-(U13A--FB)*%
X120400000Y-70711002D02*
X118340002Y-72771000D01*
X120400000Y-69600000D02*
X120400000Y-70711002D01*
X122305000Y-69850000D02*
X120650000Y-69850000D01*
X120650000Y-69850000D02*
X120400000Y-69600000D01*
%TO.N,Net-(U13B-+VCLAMP)*%
X116193001Y-73417999D02*
X116193001Y-74918001D01*
X112155000Y-83540000D02*
X113550000Y-83540000D01*
X111875000Y-83820000D02*
X112155000Y-83540000D01*
X120015000Y-75565000D02*
X118340002Y-75565000D01*
X115177001Y-73417999D02*
X116193001Y-73417999D01*
X113550000Y-83540000D02*
X113905000Y-83185000D01*
X110095000Y-83820000D02*
X111875000Y-83820000D01*
X114935000Y-73660000D02*
X115177001Y-73417999D01*
X114935000Y-74295000D02*
X114935000Y-73660000D01*
X116155002Y-73380000D02*
X116193001Y-73417999D01*
%TO.N,Net-(U13B--VCLAMP)*%
X118987001Y-74418000D02*
X117840001Y-74418000D01*
X118745000Y-83820000D02*
X119255000Y-83820000D01*
X123190000Y-82550000D02*
X121920000Y-82550000D01*
X118987001Y-73417999D02*
X118987001Y-74918001D01*
X117475000Y-83820000D02*
X118745000Y-83820000D01*
X118987001Y-73417999D02*
X118340002Y-73417999D01*
X119255000Y-83820000D02*
X119535000Y-83540000D01*
X118340002Y-73417999D02*
X117590001Y-74168000D01*
X121920000Y-82550000D02*
X120650000Y-83820000D01*
X117840001Y-74418000D02*
X117590001Y-74168000D01*
X118987001Y-73918000D02*
X117840001Y-73918000D01*
X119110001Y-74295000D02*
X118987001Y-74418000D01*
X118340002Y-74918001D02*
X117590001Y-74168000D01*
X120650000Y-74295000D02*
X119110001Y-74295000D01*
X117840001Y-73918000D02*
X117590001Y-74168000D01*
X118987001Y-74918001D02*
X118340002Y-74918001D01*
X120650000Y-83820000D02*
X118745000Y-83820000D01*
%TO.N,Net-(C68-Pad1)*%
X152534999Y-66230000D02*
X152534999Y-71565000D01*
X152534999Y-71565000D02*
X152344999Y-71755000D01*
%TO.N,Net-(C69-Pad1)*%
X171584999Y-68085000D02*
X171724999Y-67945000D01*
X171584999Y-69850000D02*
X171584999Y-66230000D01*
X171584999Y-71755000D02*
X171584999Y-69850000D01*
X171724999Y-69710000D02*
X171584999Y-69850000D01*
X171724999Y-66370000D02*
X171584999Y-66230000D01*
%TO.N,Net-(U14A-VOCM)*%
X138430000Y-70485000D02*
X140973155Y-70485000D01*
X140969999Y-72389999D02*
X141605000Y-73025000D01*
X140973155Y-70485000D02*
X140973155Y-71751844D01*
X140973155Y-68909827D02*
X140973155Y-70485000D01*
X158750000Y-74930000D02*
X160020000Y-74930000D01*
X140969999Y-71755000D02*
X140969999Y-72389999D01*
X140973155Y-71751844D02*
X140969999Y-71755000D01*
X160020001Y-74929999D02*
X161424999Y-74929999D01*
X160020000Y-74930000D02*
X160020001Y-74929999D01*
%TO.N,Net-(U14A-+FB)*%
X161424999Y-72009768D02*
X159481523Y-70066292D01*
X159274999Y-69210000D02*
X159519999Y-68965000D01*
X159481523Y-68955290D02*
X159481523Y-70066292D01*
X161424999Y-72136000D02*
X161424999Y-72009768D01*
X156979999Y-69210000D02*
X159274999Y-69210000D01*
%TO.N,Net-(U14A--IN1)*%
X161935076Y-72133265D02*
X161935076Y-69872264D01*
X155707499Y-71117500D02*
X155707499Y-68582500D01*
X157614999Y-67310000D02*
X157619999Y-67315000D01*
X161935076Y-69872264D02*
X159375077Y-67312265D01*
X157619999Y-67315000D02*
X159519999Y-67315000D01*
X154184999Y-71750000D02*
X155074999Y-71750000D01*
X156979999Y-67310000D02*
X157614999Y-67310000D01*
X155707499Y-68582500D02*
X156979999Y-67310000D01*
X155074999Y-71750000D02*
X155707499Y-71117500D01*
%TO.N,Net-(U14A-+IN1)*%
X169044999Y-71755000D02*
X168409999Y-71120000D01*
X169934999Y-71755000D02*
X169044999Y-71755000D01*
X162425000Y-69874999D02*
X164984999Y-67315000D01*
X166889999Y-67315000D02*
X164984999Y-67315000D01*
X168409999Y-68585000D02*
X167139999Y-67315000D01*
X168409999Y-71120000D02*
X168409999Y-68585000D01*
X162425000Y-72136000D02*
X162425000Y-69874999D01*
%TO.N,Net-(U14A--FB)*%
X164984999Y-68965000D02*
X164984999Y-70076002D01*
X166889999Y-69215000D02*
X165234999Y-69215000D01*
X165234999Y-69215000D02*
X164984999Y-68965000D01*
X164984999Y-70076002D02*
X162925001Y-72136000D01*
%TO.N,Net-(U14B-+VCLAMP)*%
X158134999Y-82905000D02*
X158489999Y-82550000D01*
X159519999Y-73025000D02*
X159762000Y-72782999D01*
X159762000Y-72782999D02*
X160778000Y-72782999D01*
X156459999Y-83185000D02*
X156739999Y-82905000D01*
X160778000Y-72782999D02*
X160778000Y-74283001D01*
X164599999Y-74930000D02*
X162925001Y-74930000D01*
X159519999Y-73660000D02*
X159519999Y-73025000D01*
X154679999Y-83185000D02*
X156459999Y-83185000D01*
X156739999Y-82905000D02*
X158134999Y-82905000D01*
X160740001Y-72745000D02*
X160778000Y-72782999D01*
%TO.N,Net-(U14B--VCLAMP)*%
X165234999Y-83185000D02*
X165869999Y-82550000D01*
X162425000Y-73783000D02*
X162175000Y-73533000D01*
X162425000Y-73283000D02*
X162175000Y-73533000D01*
X165234999Y-73660000D02*
X163695000Y-73660000D01*
X163839999Y-83185000D02*
X164119999Y-82905000D01*
X163695000Y-73660000D02*
X163572000Y-73783000D01*
X163572000Y-72782999D02*
X162925001Y-72782999D01*
X162925001Y-74283001D02*
X162175000Y-73533000D01*
X163572000Y-73783000D02*
X162425000Y-73783000D01*
X162059999Y-83185000D02*
X163329999Y-83185000D01*
X163572000Y-73283000D02*
X162425000Y-73283000D01*
X163572000Y-72782999D02*
X163572000Y-74283001D01*
X163329999Y-83185000D02*
X163839999Y-83185000D01*
X163329999Y-83185000D02*
X165234999Y-83185000D01*
X162925001Y-72782999D02*
X162175000Y-73533000D01*
X163572000Y-74283001D02*
X162925001Y-74283001D01*
%TO.N,/ADC Driver Stage - Final Buffer CH A/External_IN+*%
X137975000Y-62825000D02*
X136780000Y-62825000D01*
X130668750Y-64276250D02*
X127000000Y-60607500D01*
X136780000Y-62825000D02*
X136525000Y-63080000D01*
X132080000Y-65405000D02*
X131797500Y-65405000D01*
X136525000Y-63080000D02*
X135328750Y-64276250D01*
X131797500Y-65405000D02*
X130668750Y-64276250D01*
X127000000Y-65215000D02*
X127000000Y-60607500D01*
X135328750Y-64276250D02*
X130668750Y-64276250D01*
%TO.N,/ADC Driver Stage - Final Buffer CH A/External_IN-*%
X103857500Y-65405000D02*
X102870000Y-65405000D01*
X107906740Y-60650760D02*
X107950000Y-60607500D01*
X107950000Y-61312500D02*
X103857500Y-65405000D01*
X107950000Y-61595000D02*
X111760000Y-65405000D01*
X117300000Y-62865000D02*
X118110000Y-62055000D01*
X107950000Y-65215000D02*
X107950000Y-60325000D01*
X111760000Y-65405000D02*
X114300000Y-65405000D01*
X118110000Y-62055000D02*
X117650000Y-62055000D01*
X116840000Y-62865000D02*
X117300000Y-62865000D01*
X107950000Y-61312500D02*
X107950000Y-61595000D01*
X114300000Y-65405000D02*
X116840000Y-62865000D01*
%TO.N,/ADC Driver Stage - Final Buffer CH B/External_IN+*%
X175895000Y-65405000D02*
X175260000Y-64770000D01*
X176530000Y-65405000D02*
X175895000Y-65405000D01*
X171584999Y-64580000D02*
X171584999Y-59972500D01*
X181102500Y-63295000D02*
X181610000Y-62787500D01*
X179500000Y-64135000D02*
X175260000Y-64135000D01*
X171450000Y-61595000D02*
X171450000Y-60325000D01*
X180340000Y-63295000D02*
X181102500Y-63295000D01*
X173990000Y-64135000D02*
X171450000Y-61595000D01*
X175260000Y-64770000D02*
X175260000Y-64135000D01*
X175260000Y-64135000D02*
X173990000Y-64135000D01*
X180340000Y-63295000D02*
X179500000Y-64135000D01*
%TO.N,/ADC Driver Stage - Final Buffer CH B/External_IN-*%
X152491739Y-60015760D02*
X152534999Y-59972500D01*
X147320000Y-65405000D02*
X147955000Y-65405000D01*
X155927500Y-64135000D02*
X159815000Y-64135000D01*
X159815000Y-64135000D02*
X160655000Y-63295000D01*
X161925000Y-62675000D02*
X161275000Y-62675000D01*
X152400000Y-60607500D02*
X155927500Y-64135000D01*
X147955000Y-65405000D02*
X152400000Y-60960000D01*
X152534999Y-64580000D02*
X152534999Y-59690000D01*
X152400000Y-60960000D02*
X152400000Y-60607500D01*
X161275000Y-62675000D02*
X160655000Y-63295000D01*
%TO.N,Net-(D5-A)*%
X100177500Y-117526311D02*
X96744845Y-117526311D01*
%TO.N,Net-(D9-A)*%
X109666576Y-117368238D02*
X115570000Y-117368238D01*
%TO.N,Net-(D13-Pad4)*%
X183515000Y-106655000D02*
X183515000Y-109391200D01*
X184191300Y-110067500D02*
X184746900Y-110067500D01*
X183515000Y-109391200D02*
X184191300Y-110067500D01*
%TO.N,Net-(D13-Pad3)*%
X185420000Y-106655000D02*
X185420000Y-108919400D01*
X185420000Y-108919400D02*
X184746900Y-109592500D01*
%TO.N,Net-(D13-Pad2)*%
X187325000Y-106655000D02*
X187325000Y-108360600D01*
X187325000Y-108360600D02*
X186093100Y-109592500D01*
%TO.N,Net-(U1-\u002ASHDN)*%
X98425000Y-93980000D02*
X95284845Y-93980000D01*
X95745000Y-92075000D02*
X95745000Y-89000000D01*
X99060000Y-94615000D02*
X98425000Y-93980000D01*
X95284845Y-93980000D02*
X95284845Y-92535155D01*
X95745000Y-89000000D02*
X95645000Y-88900000D01*
X99060000Y-97088916D02*
X99060000Y-94615000D01*
X99094845Y-97123761D02*
X99060000Y-97088916D01*
X95284845Y-92535155D02*
X95745000Y-92075000D01*
X95284845Y-97123761D02*
X95284845Y-93980000D01*
%TO.N,Net-(H1-Pad1)*%
X193675743Y-65211384D02*
X193675743Y-61738560D01*
X193675743Y-61738560D02*
X193040000Y-61102817D01*
%TO.N,Net-(H2-Pad1)*%
X85345000Y-65405000D02*
X85345000Y-61975000D01*
X85345000Y-61975000D02*
X86217183Y-61102817D01*
X84900000Y-62420000D02*
X86217183Y-61102817D01*
%TO.N,Net-(H3-Pad1)*%
X85345000Y-113410000D02*
X85345000Y-116205000D01*
X86360000Y-112395000D02*
X85345000Y-113410000D01*
X85042817Y-113712183D02*
X86360000Y-112395000D01*
%TO.N,Net-(H4-Pad1)*%
X193182817Y-115522817D02*
X193865000Y-116205000D01*
X193182817Y-112537817D02*
X193182817Y-115522817D01*
%TO.N,/Trigger Circuit/CNV_EXT_RAW*%
X170815000Y-109220000D02*
X168910000Y-109220000D01*
X165810000Y-109220000D02*
X165735000Y-109145000D01*
X168910000Y-109220000D02*
X165810000Y-109220000D01*
X177800000Y-116205000D02*
X170815000Y-109220000D01*
%TO.N,/MCU-FPGA/PA14*%
X191225000Y-86725000D02*
X190135000Y-86725000D01*
X183231000Y-92994000D02*
X160020000Y-92994000D01*
X189595000Y-86630000D02*
X183231000Y-92994000D01*
X190500000Y-86630000D02*
X189595000Y-86630000D01*
X150109732Y-90732327D02*
X146667327Y-90732327D01*
X150817405Y-91440000D02*
X150109732Y-90732327D01*
X160020000Y-92994000D02*
X158466000Y-91440000D01*
X158466000Y-91440000D02*
X150817405Y-91440000D01*
X146667327Y-90732327D02*
X146105000Y-90170000D01*
%TO.N,/MCU-FPGA/PA13*%
X148976389Y-93345000D02*
X147780000Y-93345000D01*
X150246389Y-94615000D02*
X148976389Y-93345000D01*
X191225000Y-87725000D02*
X190000000Y-87725000D01*
X182880000Y-94615000D02*
X150246389Y-94615000D01*
X190500000Y-87630000D02*
X189865000Y-87630000D01*
X189865000Y-87630000D02*
X182880000Y-94615000D01*
%TO.N,USB_ID*%
X187762500Y-97060000D02*
X187640000Y-96937500D01*
X191610000Y-97060000D02*
X187762500Y-97060000D01*
%TO.N,USB_D+*%
X148980001Y-93845000D02*
X147780000Y-93845000D01*
X184746249Y-96937500D02*
X183833749Y-97850000D01*
X150385001Y-95250000D02*
X148980001Y-93845000D01*
X191469000Y-97851000D02*
X185991001Y-97851000D01*
X185740000Y-97599999D02*
X185740000Y-96937500D01*
X178118198Y-95250000D02*
X150385001Y-95250000D01*
X185740000Y-96937500D02*
X184746249Y-96937500D01*
X180718198Y-97850000D02*
X178118198Y-95250000D01*
X191610000Y-97710000D02*
X191469000Y-97851000D01*
X185991001Y-97851000D02*
X185740000Y-97599999D01*
X183833749Y-97850000D02*
X180718198Y-97850000D01*
%TO.N,Net-(J8-VBUS)*%
X189230000Y-100775000D02*
X190995000Y-99010000D01*
X190995000Y-99010000D02*
X191610000Y-99010000D01*
%TO.N,USB_D-*%
X178751802Y-96520000D02*
X174041389Y-96520000D01*
X191610000Y-98360000D02*
X191549000Y-98299000D01*
X183833749Y-98300000D02*
X180531802Y-98300000D01*
X174015388Y-96494000D02*
X151104000Y-96494000D01*
X185740000Y-99212500D02*
X184746249Y-99212500D01*
X191549000Y-98299000D02*
X185991001Y-98299000D01*
X185991001Y-98299000D02*
X185740000Y-98550001D01*
X180531802Y-98300000D02*
X178751802Y-96520000D01*
X184746249Y-99212500D02*
X183833749Y-98300000D01*
X185740000Y-98550001D02*
X185740000Y-99212500D01*
X174041389Y-96520000D02*
X174015388Y-96494000D01*
X148955000Y-94345000D02*
X147780000Y-94345000D01*
X151104000Y-96494000D02*
X148955000Y-94345000D01*
%TO.N,{slash}RESET_MCU*%
X158115000Y-89535000D02*
X158180000Y-89470000D01*
X158180000Y-89470000D02*
X160050000Y-89470000D01*
X161795000Y-88900000D02*
X161225000Y-89470000D01*
X161925000Y-88900000D02*
X161795000Y-88900000D01*
X157480000Y-89535000D02*
X158115000Y-89535000D01*
X161225000Y-89470000D02*
X160050000Y-89470000D01*
%TO.N,/MCU-FPGA/PD1*%
X151795000Y-88580000D02*
X152617606Y-87757394D01*
X154777394Y-87757394D02*
X155605000Y-88585000D01*
X151795000Y-88580000D02*
X150175000Y-88580000D01*
X143105000Y-89231479D02*
X143105000Y-90170000D01*
X145341479Y-86995000D02*
X143105000Y-89231479D01*
X148590000Y-86995000D02*
X145341479Y-86995000D01*
X152617606Y-87757394D02*
X154777394Y-87757394D01*
X150175000Y-88580000D02*
X148590000Y-86995000D01*
%TO.N,Net-(U1-SENSE{slash}ADJ)*%
X95885000Y-106731311D02*
X94394845Y-106731311D01*
X96554845Y-102368861D02*
X96554845Y-104740155D01*
X95885000Y-105410000D02*
X95885000Y-106731311D01*
X96554845Y-104740155D02*
X95885000Y-105410000D01*
X97189845Y-106731311D02*
X95885000Y-106731311D01*
%TO.N,/MCU-FPGA/LED_B*%
X181610000Y-101830000D02*
X177855000Y-101830000D01*
X183515000Y-105005000D02*
X183515000Y-103735000D01*
X183515000Y-103735000D02*
X181610000Y-101830000D01*
X173870000Y-97845000D02*
X147780000Y-97845000D01*
X177855000Y-101830000D02*
X173870000Y-97845000D01*
%TO.N,/MCU-FPGA/LED_G*%
X181745000Y-101330000D02*
X177855000Y-101330000D01*
X185420000Y-105005000D02*
X181745000Y-101330000D01*
X173870000Y-97345000D02*
X147780000Y-97345000D01*
X177855000Y-101330000D02*
X173870000Y-97345000D01*
%TO.N,/MCU-FPGA/LED_R*%
X173870000Y-96845000D02*
X147780000Y-96845000D01*
X177855000Y-100830000D02*
X173870000Y-96845000D01*
X187325000Y-105005000D02*
X183150000Y-100830000D01*
X183150000Y-100830000D02*
X177855000Y-100830000D01*
%TO.N,Net-(U9-OUT)*%
X123740000Y-98700000D02*
X124460000Y-97980000D01*
X123740000Y-99245000D02*
X123740000Y-98700000D01*
%TO.N,/MCU-FPGA/PH0*%
X131379000Y-97632888D02*
X131567888Y-97444000D01*
X132331000Y-97444000D02*
X132430000Y-97345000D01*
X126365000Y-97790000D02*
X131379000Y-97790000D01*
X124905000Y-96330000D02*
X126365000Y-97790000D01*
X131567888Y-97444000D02*
X132331000Y-97444000D01*
X124460000Y-96330000D02*
X124905000Y-96330000D01*
X131379000Y-97790000D02*
X131379000Y-97632888D01*
%TO.N,USB_VBUS*%
X161546840Y-100469000D02*
X162293160Y-100469000D01*
X180339158Y-104774158D02*
X181221000Y-105656000D01*
X146729000Y-104057112D02*
X146917888Y-104246000D01*
X187640000Y-100835000D02*
X189230000Y-102425000D01*
X189230000Y-104218352D02*
X189230000Y-103735000D01*
X147016888Y-95345000D02*
X146729000Y-95632888D01*
X160398160Y-104501000D02*
X160601000Y-104298160D01*
X166598318Y-104774158D02*
X180339158Y-104774158D01*
X146729000Y-95632888D02*
X146729000Y-104057112D01*
X187792352Y-105656000D02*
X189230000Y-104218352D01*
X147780000Y-95345000D02*
X147016888Y-95345000D01*
X162293160Y-100469000D02*
X166598318Y-104774158D01*
X155886973Y-102631548D02*
X157782388Y-102631548D01*
X159651840Y-104501000D02*
X160398160Y-104501000D01*
X187640000Y-99212500D02*
X187640000Y-100835000D01*
X160601000Y-104298160D02*
X160601000Y-101414840D01*
X157782388Y-102631548D02*
X159651840Y-104501000D01*
X181221000Y-105656000D02*
X187792352Y-105656000D01*
X160601000Y-101414840D02*
X161546840Y-100469000D01*
X146917888Y-104246000D02*
X154272521Y-104246000D01*
X154272521Y-104246000D02*
X155886973Y-102631548D01*
X189230000Y-102425000D02*
X189230000Y-103735000D01*
X189230000Y-103735000D02*
X189230000Y-105315000D01*
%TO.N,/MCU-FPGA/BOOT*%
X118490000Y-90550000D02*
X118745000Y-90805000D01*
X137105000Y-91495000D02*
X137105000Y-90170000D01*
X136525000Y-92075000D02*
X137105000Y-91495000D01*
X116840000Y-90550000D02*
X118490000Y-90550000D01*
X135890000Y-92075000D02*
X136525000Y-92075000D01*
X116840000Y-94550000D02*
X116840000Y-90550000D01*
D61*
%TO.N,{slash}RESET*%
X134032500Y-75517500D02*
X135255000Y-76740000D01*
X133966973Y-75451973D02*
X134032500Y-75517500D01*
X136900000Y-76740000D02*
X135255000Y-76740000D01*
X130242150Y-75451973D02*
X133966973Y-75451973D01*
%TO.N,REF*%
X139300000Y-80740000D02*
X139300000Y-79940000D01*
X140499200Y-81139200D02*
X140100000Y-80740000D01*
X140100000Y-79940000D02*
X139300000Y-79940000D01*
X139700000Y-84455000D02*
X139700000Y-83513400D01*
X140100000Y-80740000D02*
X140100000Y-79940000D01*
X139700000Y-83513400D02*
X140499200Y-82714200D01*
X140499200Y-82714200D02*
X140499200Y-81139200D01*
D60*
%TO.N,Net-(U13A--OUT)*%
X118554401Y-76835000D02*
X117840001Y-76120600D01*
X117840001Y-76120600D02*
X117840001Y-75565000D01*
X120905000Y-76835000D02*
X118554401Y-76835000D01*
%TO.N,Net-(U13A-+OUT)*%
X119963013Y-78740000D02*
X117340001Y-76116988D01*
X120905000Y-78740000D02*
X119963013Y-78740000D01*
X117340001Y-76116988D02*
X117340001Y-75565000D01*
%TO.N,Net-(U14A--OUT)*%
X162425000Y-77160000D02*
X162425000Y-74929999D01*
X160845000Y-78740000D02*
X162425000Y-77160000D01*
%TO.N,Net-(U14A-+OUT)*%
X160845000Y-76835000D02*
X161925000Y-75755000D01*
X161925000Y-75755000D02*
X161925000Y-74929999D01*
D61*
%TO.N,SCK*%
X146076418Y-84387514D02*
X146076418Y-82523582D01*
X142500000Y-76740000D02*
X144050000Y-76740000D01*
X146076418Y-82523582D02*
X147955000Y-80645000D01*
X144050000Y-76740000D02*
X144145000Y-76835000D01*
%TO.N,MOSI*%
X144145000Y-77540000D02*
X142500000Y-77540000D01*
%TO.N,{slash}CS*%
X146696000Y-76824000D02*
X144780000Y-78740000D01*
X142500000Y-78340000D02*
X143745000Y-78340000D01*
X152135913Y-76824000D02*
X146696000Y-76824000D01*
X143745000Y-78340000D02*
X144145000Y-78740000D01*
X144145000Y-78740000D02*
X144780000Y-78740000D01*
X152638719Y-77326806D02*
X152135913Y-76824000D01*
D60*
%TO.N,Net-(R72-Pad1)*%
X164085000Y-109145000D02*
X163450000Y-109780000D01*
X163450000Y-109780000D02*
X161920000Y-109780000D01*
%TO.N,UART4_RX*%
X124430176Y-89465317D02*
X125838014Y-88057479D01*
X136605000Y-89208888D02*
X136605000Y-90170000D01*
X135453591Y-88057479D02*
X136605000Y-89208888D01*
X125838014Y-88057479D02*
X135453591Y-88057479D01*
%TO.N,UART4_TX*%
X135853999Y-91221000D02*
X136105000Y-90969999D01*
X136105000Y-90969999D02*
X136105000Y-90170000D01*
X129360859Y-91221000D02*
X135853999Y-91221000D01*
X127605176Y-89465317D02*
X129360859Y-91221000D01*
%TO.N,UART4_CTS*%
X150385000Y-102345000D02*
X150495000Y-102235000D01*
X147780000Y-102345000D02*
X150385000Y-102345000D01*
D61*
%TO.N,BUSY*%
X140500000Y-74295000D02*
X140100000Y-74695000D01*
X140100000Y-74695000D02*
X140100000Y-75940000D01*
X140970000Y-74295000D02*
X140500000Y-74295000D01*
%TO.N,CNV*%
X134612151Y-76836174D02*
X134612151Y-77462151D01*
%TO.N,Net-(U15-A6)*%
X157480000Y-88265000D02*
X156210000Y-89535000D01*
%TO.N,CNV*%
X134690000Y-77540000D02*
X136900000Y-77540000D01*
X134612151Y-77462151D02*
X134690000Y-77540000D01*
D60*
%TO.N,Trig_Detect*%
X164736000Y-107679000D02*
X164736000Y-109612352D01*
X165735000Y-106680000D02*
X167005000Y-106680000D01*
X140105000Y-90969999D02*
X140105000Y-90170000D01*
X164117352Y-110231000D02*
X160471000Y-110231000D01*
X160020000Y-100270000D02*
X159385000Y-100270000D01*
X159385000Y-100270000D02*
X150435000Y-100270000D01*
X164736000Y-109612352D02*
X164117352Y-110231000D01*
X144145000Y-97790000D02*
X144145000Y-95009999D01*
X159385000Y-100270000D02*
X160445840Y-100270000D01*
X161655840Y-99060000D02*
X167640000Y-99060000D01*
X144145000Y-95009999D02*
X140105000Y-90969999D01*
X165735000Y-106680000D02*
X164736000Y-107679000D01*
X160445840Y-100270000D02*
X161655840Y-99060000D01*
X167005000Y-106680000D02*
X167640000Y-106045000D01*
X150435000Y-100270000D02*
X149860000Y-99695000D01*
X160471000Y-110231000D02*
X160020000Y-109780000D01*
%TO.N,Trig_Enable*%
X158430972Y-99620000D02*
X157754412Y-98943440D01*
X149743440Y-98943440D02*
X149145000Y-98345000D01*
X149145000Y-98345000D02*
X147780000Y-98345000D01*
X157754412Y-98943440D02*
X149743440Y-98943440D01*
X160020000Y-99620000D02*
X158430972Y-99620000D01*
%TO.N,Manual_Trigger*%
X158542479Y-105544000D02*
X158182479Y-105904000D01*
X152915000Y-100845000D02*
X153035000Y-100965000D01*
X161925000Y-105350000D02*
X161437521Y-105837479D01*
X159251000Y-105837479D02*
X158957521Y-105544000D01*
X147780000Y-100845000D02*
X152915000Y-100845000D01*
X161437521Y-105837479D02*
X159251000Y-105837479D01*
X155716000Y-105904000D02*
X154940000Y-106680000D01*
X158182479Y-105904000D02*
X155716000Y-105904000D01*
X154940000Y-106680000D02*
X154940000Y-104775000D01*
X154940000Y-104775000D02*
X155575000Y-104140000D01*
X158957521Y-105544000D02*
X158542479Y-105544000D01*
%TO.N,{slash}CS_MCU*%
X137105000Y-105520000D02*
X137105000Y-104720001D01*
X141495001Y-100330000D02*
X146050000Y-100330000D01*
X137105000Y-104720001D02*
X141495001Y-100330000D01*
%TO.N,MOSI_MCU*%
X136605000Y-104723613D02*
X142268613Y-99060000D01*
X136605000Y-105520000D02*
X136605000Y-104723613D01*
X142268613Y-99060000D02*
X146050000Y-99060000D01*
%TO.N,SCK_MCU*%
X135605000Y-105520000D02*
X135605000Y-103855000D01*
X135605000Y-103855000D02*
X135255000Y-103505000D01*
%TO.N,BUSY_MCU*%
X162560000Y-90805000D02*
X164465000Y-90805000D01*
X151425000Y-103845000D02*
X151765000Y-103505000D01*
X147780000Y-103845000D02*
X151425000Y-103845000D01*
X164465000Y-90805000D02*
X165100000Y-91440000D01*
%TO.N,MISO0_MCU*%
X136105000Y-105520000D02*
X136105000Y-100115000D01*
X136105000Y-100115000D02*
X140970000Y-95250000D01*
D61*
%TO.N,MISO0*%
X139300000Y-75940000D02*
X139300000Y-75800000D01*
X139065000Y-74930000D02*
X139700000Y-74295000D01*
X139065000Y-75565000D02*
X139065000Y-74930000D01*
X139300000Y-75800000D02*
X139065000Y-75565000D01*
D60*
%TO.N,CNV_3.3*%
X157624627Y-101649627D02*
X160025000Y-104050000D01*
X157624627Y-101601001D02*
X157624627Y-101744627D01*
X157624627Y-101601001D02*
X157624627Y-101649627D01*
%TO.N,/Trigger Circuit/CNV_GATED_3V3*%
X163830000Y-104140000D02*
X163270000Y-104700000D01*
X161920000Y-100920000D02*
X161920000Y-100960000D01*
X163270000Y-104700000D02*
X161925000Y-104700000D01*
X161920000Y-100960000D02*
X163830000Y-102870000D01*
X163830000Y-102870000D02*
X163830000Y-104140000D01*
%TO.N,Net-(U10B-REFIN)*%
X136900000Y-80740000D02*
X135985000Y-80740000D01*
X135985000Y-80740000D02*
X135255000Y-80010000D01*
%TD*%
M02*
